<svg width="278" height="183" viewBox="0 0 278 183" fill="none" xmlns="http://www.w3.org/2000/svg">
<path d="M64.1774 3.10184C83.9401 0.721127 98.6188 16.0767 131.465 10.244C145.895 7.69661 145.122 4.36362 159.726 2.00671C168.025 0.673512 199.501 -4.3974 226.665 14.7673C230.553 17.5051 252.509 32.9798 256.322 58.0963C260.01 82.2843 243.113 90.7359 245.107 121.899C246.503 143.611 255.125 146.254 251.836 155.944C242.39 183.846 160.897 191.511 93.3355 172.609C57.5732 162.61 18.1475 151.587 4.6152 117.614C-14.1008 70.6426 27.7921 7.50616 64.1774 3.10184Z" fill="#DBE8FE"/>
<path d="M157.791 125.329H107.37L97.7477 148.6H72L120.408 40.0001H145.23L193.787 148.6H167.413L157.791 125.329ZM149.885 106.249L132.662 64.6663L115.44 106.249H149.885Z" fill="#8FB4EA"/>
<path d="M233.505 40.0001V148.6H208.369V60.1686H186.649V40.0001H233.505Z" fill="#8FB4EA"/>
<path d="M67.04 78.1604C67.04 78.1604 62.6674 80.2352 62.6674 87.0875C62.6674 93.9398 63.9128 99.9595 62.6674 105.146C61.422 110.333 61.422 110.333 61.422 110.333C61.422 110.333 64.9598 114.899 70.3725 114.067C75.7852 113.234 90.1415 109.501 90.1415 109.501C90.1415 109.501 103.252 107.214 107.625 100.99C107.625 100.99 104.087 92.4793 100.755 85.0059C97.4223 77.5394 83.8939 66.3259 67.04 78.1604Z" fill="#3E3E54"/>
<path d="M66.2052 85.0059C66.2052 85.0059 66.6226 88.9507 68.0801 93.933C69.5377 98.9152 71.6179 112.818 77.6533 111.992C83.6887 111.159 86.1863 109.501 86.1863 109.501L88.684 114.067C88.684 114.067 90.5589 111.576 92.0165 110.538L88.4787 101.195C88.4787 101.195 90.9763 96.8336 90.1415 91.0255C89.3067 85.2106 82.0259 88.9507 83.9008 93.933C83.894 93.933 73.4928 93.7282 66.2052 85.0059Z" fill="#FFC7AE"/>
<path d="M88.684 114.067C88.684 114.067 85.5637 118.633 85.7689 126.106C85.9742 133.579 87.2196 139.387 87.2196 139.387C87.2196 139.387 81.3964 137.313 75.9837 139.387C70.5709 141.462 66.2052 140.425 66.2052 140.425C66.2052 140.425 65.1651 144.786 67.04 149.973C67.04 149.973 90.1415 151.427 96.7996 149.973C103.458 148.519 100.96 141.674 100.96 141.674C100.96 141.674 103.663 143.749 117.191 147.072C130.72 150.396 134.463 152.307 142.373 150.621C150.283 148.936 150.283 148.936 150.283 148.936C150.283 148.936 148.408 143.121 147.991 138.555C147.574 133.989 150.489 124.236 147.574 122.366C144.659 120.496 141.744 122.987 130.302 119.254C118.854 115.52 104.703 103.897 92.0096 110.538L88.684 114.067Z" fill="#FB765F"/>
<path d="M206.47 119.302C206.052 115.104 204.595 95.182 204.595 95.182C204.595 95.182 197.725 93.1072 195.857 96.2194C195.857 96.2194 192.736 109.296 192.736 114.067C192.736 118.837 194.399 131.914 194.399 131.914C194.399 131.914 190.027 132.535 183.163 127.969C176.293 123.403 172.345 121.117 172.345 121.117C172.345 121.117 160.267 116.005 148.121 122.905C150.078 125.642 147.614 134.323 147.998 138.555C148.415 143.121 150.29 148.936 150.29 148.936C150.29 148.936 159.028 149.14 172.351 148.936C185.668 148.731 195.241 149.557 203.774 146.861C212.293 144.165 206.887 123.499 206.47 119.302Z" fill="#3E3E54"/>
<path d="M193.688 125.908C193.236 121.82 192.73 116.694 192.73 114.067C192.73 109.296 195.85 96.2194 195.85 96.2194C190.855 96.0147 186.072 98.0895 186.072 98.0895C186.072 98.0895 185.654 103.488 187.112 110.545C188.569 117.595 193.688 125.908 193.688 125.908Z" fill="#3E3E54"/>
<path d="M186.071 98.0826C186.071 98.0826 183.991 93.933 183.286 92.295C182.582 90.6638 182.582 87.1557 185.627 86.3777C188.672 85.5996 196.863 81.1634 200.53 79.4503C204.198 77.7372 204.821 76.4951 206.073 77.6622C207.319 78.8292 204.198 84.2756 202.173 86.5347C200.14 88.7937 195.385 90.7866 195.85 96.2125C195.857 96.2193 190.341 95.6187 186.071 98.0826Z" fill="#EADEDC"/>
<path d="M204.595 95.1819C204.595 95.1819 204.28 91.8376 209.118 88.3296C213.956 84.8284 217.467 82.4123 217.939 79.1431C218.404 75.874 215.989 76.3381 214.196 76.809C212.403 77.2731 206.155 79.225 201.55 81.0883C196.945 82.9583 193.667 83.4224 193.9 86.1456C194.132 88.8688 195.85 96.2125 195.85 96.2125C195.85 96.2125 196.637 93.1549 204.595 95.1819Z" fill="#F5EBE9"/>
<path d="M86.1864 109.501L88.862 108.02L86.9939 110.982L86.1864 109.501Z" fill="#FFAE85"/>
<path d="M100.96 141.674C100.515 139.579 100.358 137.47 100.276 135.361C100.221 133.252 100.235 131.136 100.55 129.013C101.001 131.109 101.152 133.218 101.234 135.327C101.282 137.435 101.268 139.551 100.96 141.674Z" fill="#A0564A"/>
<path d="M75.9905 139.387C81.4032 137.313 87.2264 139.387 87.2264 139.387C87.2264 139.387 86.7064 136.944 86.2821 133.197L86.1932 133.163C86.1932 133.163 83.0181 132.849 79.1177 133.477C75.2172 134.098 70.0646 134.412 70.0646 134.412C70.0646 134.412 67.738 136.835 67.8064 140.643C69.5445 140.773 72.5554 140.705 75.9905 139.387Z" fill="#A0564A"/>
<path d="M70.0577 134.412C70.0577 134.412 70.133 132.078 69.1202 130.208C68.1075 128.338 65.2198 126.625 65.2198 126.625L63.6596 128.338C63.6596 128.338 64.905 129.58 64.5971 130.208C64.2823 130.829 62.6469 129.43 62.6469 129.43L60.5461 132.201L64.0565 138.848L66.2189 140.432L67.8133 140.643C67.7996 140.643 67.7996 136.692 70.0577 134.412Z" fill="#FFAE85"/>
<path d="M27.5361 129.013L36.2676 113.473L45.5123 103.044L69.0586 126.086L60.5324 136.043L58.5069 149.741L57.1794 152L27.5361 129.013Z" fill="#4D5282"/>
<path d="M37.2052 114.169L30.4923 127.328L58.507 149.741L60.5325 136.043L37.2052 114.169Z" fill="#FFF9D9"/>
<path d="M46.7988 103.433L37.2051 114.169L60.5324 136.043L69.6676 125.383L46.7988 103.433Z" fill="#FFF9D9"/>
<path d="M66.2051 140.425L64.0428 138.841C64.0428 138.841 64.3576 136.582 63.728 135.34C63.1053 134.098 59.4375 131.061 58.11 130.829C56.7825 130.597 57.2547 132.699 57.2547 132.699L60.5324 136.043L59.1296 146.315C59.1296 146.315 62.8179 148.356 66.5131 148.267C66.5131 148.274 65.4798 144.11 66.2051 140.425Z" fill="#FFC7AE"/>
<g opacity="0.4">
<path opacity="0.4" d="M148.255 158.839C141.234 158.864 134.214 158.965 127.193 159.544C124.554 159.746 121.967 160.224 119.328 160.426C114.049 160.804 108.85 161.509 103.544 161.837C99.2687 162.089 94.9665 162.24 90.7172 162.593C86.7317 162.895 82.2976 162.819 78.3386 162.315C75.4089 161.938 72.4528 161.711 69.5759 161.106C66.3559 160.426 62.8456 159.947 59.4672 159.947C54.6635 159.972 49.9919 159.972 45.3994 161.182C43.7894 161.61 41.8099 162.29 40.5958 163.197C37.7981 165.238 37.4022 170.302 40.1999 172.419C44.9243 175.971 54.9803 177.357 61.5787 177.433C68.8105 177.508 75.8576 177.105 83.0894 176.878C89.8198 176.677 96.5502 176.374 103.281 176.374C117.058 176.4 130.835 176.374 144.586 175.719C157.519 175.089 170.452 175.316 183.411 175.316C196.687 175.316 209.884 175.392 223.055 176.677C228.808 177.231 234.641 177.433 240.422 177.811C245.595 178.163 250.557 177.811 255.703 177.483C260.032 177.206 264.334 176.4 268.24 175.039C271.355 173.956 276.897 170.63 277.848 168.06C280.513 160.854 240.158 161.031 233.982 161.056C227.04 161.081 220.072 161.232 213.131 161.056C210.227 160.98 207.35 160.552 204.5 160.123C201.676 159.67 198.825 159.796 195.948 159.594C183.966 158.813 171.957 158.914 159.948 158.914C156.068 158.864 152.161 158.839 148.255 158.839Z" fill="#F7F7F7"/>
</g>
</svg>
