<svg width="278" height="183" viewBox="0 0 278 183" fill="none" xmlns="http://www.w3.org/2000/svg">
<path d="M64.1774 3.10178C83.9401 0.721066 98.6188 16.0767 131.465 10.2439C145.895 7.69655 145.122 4.36355 159.726 2.00665C168.025 0.673451 199.501 -4.39746 226.665 14.7673C230.553 17.5051 252.509 32.9797 256.322 58.0962C260.01 82.2843 243.113 90.7358 245.107 121.899C246.503 143.611 255.125 146.254 251.836 155.943C242.39 183.845 160.897 191.511 93.3355 172.608C57.5732 162.609 18.1475 151.587 4.6152 117.614C-14.1008 70.6426 27.7921 7.5061 64.1774 3.10178Z" fill="#DBE8FE"/>
<g opacity="0.4">
<path opacity="0.4" d="M148.255 158.839C141.234 158.864 134.214 158.964 127.193 159.544C124.554 159.746 121.967 160.224 119.328 160.426C114.049 160.804 108.85 161.509 103.544 161.837C99.2687 162.089 94.9665 162.24 90.7172 162.593C86.7317 162.895 82.2976 162.819 78.3386 162.315C75.4089 161.938 72.4528 161.711 69.5759 161.106C66.3559 160.426 62.8456 159.947 59.4672 159.947C54.6635 159.972 49.9919 159.972 45.3994 161.182C43.7894 161.61 41.8099 162.29 40.5958 163.197C37.7981 165.238 37.4022 170.302 40.1999 172.419C44.9243 175.971 54.9803 177.357 61.5787 177.433C68.8105 177.508 75.8576 177.105 83.0894 176.878C89.8198 176.677 96.5502 176.374 103.281 176.374C117.058 176.4 130.835 176.374 144.586 175.719C157.519 175.089 170.452 175.316 183.411 175.316C196.687 175.316 209.884 175.392 223.055 176.677C228.808 177.231 234.641 177.433 240.422 177.81C245.595 178.163 250.557 177.81 255.703 177.483C260.032 177.206 264.334 176.4 268.24 175.039C271.355 173.956 276.897 170.63 277.848 168.06C280.513 160.854 240.158 161.03 233.982 161.056C227.04 161.081 220.072 161.232 213.131 161.056C210.227 160.98 207.35 160.552 204.5 160.123C201.676 159.67 198.825 159.796 195.948 159.594C183.966 158.813 171.957 158.914 159.948 158.914C156.068 158.864 152.161 158.839 148.255 158.839Z" fill="#F7F7F7"/>
</g>
<path d="M211.758 5.47526L150.604 18.1736L88.0514 19.1311C86.283 19.1563 84.9897 20.6932 85.2801 22.356L94.9401 80.4814C95.1777 81.8167 96.3918 82.7742 97.7906 82.749C108.084 82.623 148.255 82.0183 152.768 82.0183C153.006 82.0183 153.217 82.1191 153.349 82.2954C153.719 82.8245 154.933 83.8324 158.522 83.4292C162.112 83.0261 163.062 81.7663 163.3 81.1869C163.379 80.9853 163.563 80.8341 163.775 80.7837C168.182 79.8011 207.43 71.6379 217.486 69.5215C218.858 69.2443 219.808 68.035 219.729 66.6996L215.242 7.99478C215.11 6.33189 213.474 5.12252 211.758 5.47526Z" fill="#292949"/>
<path d="M211.626 4.51774L150.472 17.2161L87.9197 18.1735C86.1513 18.1987 84.858 19.7356 85.1484 21.3985L94.8084 79.5239C95.046 80.8592 96.2601 81.8166 97.6589 81.7914C107.952 81.6655 148.123 81.0608 152.637 81.0608C152.874 81.0608 153.085 81.1616 153.217 81.3379C153.587 81.867 154.801 82.8748 158.391 82.4717C161.98 82.0686 162.93 80.8088 163.168 80.2293C163.247 80.0278 163.432 79.8766 163.643 79.8262C168.051 78.8436 207.298 70.6803 217.354 68.5639C218.726 68.2868 219.676 67.0774 219.597 65.7421L215.11 7.03726C215.005 5.37437 213.368 4.165 211.626 4.51774Z" fill="#377EF9"/>
<path d="M150.684 16.7627C119.988 1.72116 92.2482 13.1094 92.2482 13.1094L99.9023 76.299C138.701 64.2305 157.889 78.2642 157.889 78.2642C157.889 78.2642 173.224 60.426 213.896 63.7266L206.242 0.536987C206.216 0.536987 176.972 -4.57764 150.684 16.7627Z" fill="white"/>
<path d="M92.2481 13.1094C92.2481 13.1094 91.5618 18.0476 87.4708 21.4238L97.6324 81.4892C97.6324 81.4892 100.219 79.0452 99.9022 76.299L92.2481 13.1094Z" fill="#BABCBE"/>
<path d="M206.215 0.536987C206.215 0.536987 208.063 5.1981 212.84 7.59165L217.301 68.2617C217.301 68.2617 214.186 66.4477 213.87 63.7014L206.215 0.536987Z" fill="#BABCBE"/>
<path d="M97.6322 81.4891C97.6322 81.4891 136.193 68.4632 155.751 81.7663L158.258 81.4891L157.862 78.2641C157.862 78.2641 138.014 64.0289 99.8757 76.2989L97.6322 81.4891Z" fill="#BABCBE"/>
<path d="M217.327 68.2869C217.327 68.2869 176.655 64.0037 160.792 81.212L158.285 81.4892L157.889 78.2642C157.889 78.2642 173.804 60.0732 213.896 63.7265L217.327 68.2869Z" fill="#BABCBE"/>
<path d="M119.249 6.2059C115.765 6.25629 112.36 6.50824 109.113 6.83578C107.609 6.98695 95.3624 8.80101 95.4152 9.17894L97.5795 27.0423C97.5795 27.0423 103.096 72.6709 103.122 72.7465C103.069 72.3433 115.342 70.5293 116.847 70.3781C127.457 69.3199 139.572 69.849 149.522 73.7543C151.185 74.4093 157.915 76.9541 158.205 79.2216L150.71 17.3422C150.551 16.0824 149.918 14.9234 148.889 14.092C140.918 7.66722 129.832 6.05473 119.249 6.2059Z" fill="white"/>
<g opacity="0.050003">
<g opacity="0.050003">
<path opacity="0.050003" d="M151.079 20.4413C152.584 32.9129 158.205 79.2721 158.205 79.2721C157.942 77.0046 163.88 73.0489 165.358 72.0411C172.379 67.254 181.273 64.281 189.983 62.6181C161.531 54.4044 152.874 27.4959 151.079 20.4413Z" fill="#272525"/>
</g>
</g>
<path d="M180.026 56.1417L178.234 54.4724L178.203 52.2992L177.762 52.0787L177.448 52.6457L176.913 50.8504L175.656 50L173.769 50.7244L172.7 52.4882L173.612 54.2835L175.624 55.6063L177.951 58L180.026 56.1417Z" fill="#EFBFA5"/>
<path d="M180.208 54L176.887 57.844L189.679 75.9429L193.001 77L207.24 65.9485L203.425 58.3565L192.836 67.1657L180.208 54Z" fill="#3E3E54"/>
<path d="M229.878 163.038L230.267 165.105L227.158 168L225.033 166.405L226.38 163.924L229.489 161L229.878 163.038Z" fill="#151525"/>
<path d="M216.123 94L220.602 103.968L221.039 132.026L230.267 162.155L225.99 164L207.097 128.984L204.942 117.883L204.1 94.5178L216.123 94Z" fill="#3E3E54"/>
<path d="M195.026 95.6941L194.68 125.527L200.087 164H204.205L206.815 128.516L212.473 93L195.026 95.6941Z" fill="#3E3E54"/>
<path d="M204.1 163V164.986L199.215 167L196.773 164.986L199.215 163H204.1Z" fill="#151525"/>
<path d="M203.962 57.4159L215.345 57C215.345 57 222.162 62.8552 225.685 78.1171C229.273 93.635 225.033 116 225.033 116C225.033 116 194.437 112.001 189.447 111.393L197.112 80.7408L203.962 57.4159Z" fill="#3E3E54"/>
<path d="M206.789 58C207.986 57.8631 209.182 57.7262 210.349 57.5894C210.349 56.4601 210.29 55.3651 210.144 54.2359C211.136 53.8252 212.274 53.2093 212.449 52.0116C212.508 51.6352 212.449 51.2246 212.391 50.8482C212.157 49.2741 211.924 47.6658 211.691 46.0917C211.603 45.5442 211.516 44.9966 211.282 44.5176C210.845 43.6963 209.969 43.3199 209.153 43.1488C207.052 42.7039 204.776 43.2515 203.172 44.8598C202.734 45.2704 202.355 45.7837 202.151 46.4339C201.859 47.392 202.063 48.4528 202.297 49.4452C202.501 50.3691 202.705 51.2588 202.909 52.1827C203.143 53.2435 203.493 54.407 204.339 54.8176C204.806 55.0229 205.331 54.9545 205.739 55.2625C206.527 55.8442 206.41 57.1103 206.789 58Z" fill="#EFBFA5"/>
<path d="M194.684 43.6477C194.651 42.596 194.819 41.5443 195.022 40.5913C195.393 38.948 197.383 38.225 199.07 38.0935C202.781 37.8306 206.323 36.2203 209.932 37.4691C211.99 38.1921 214.757 38.3565 216.646 39.3753C217.422 39.8025 218.063 40.4598 218.535 41.1828C220.222 43.7134 220.222 47.197 218.535 49.7605C218.164 50.3192 217.725 50.845 217.253 51.338C216.275 52.3568 215.094 53.6385 213.778 54C213.745 52.8169 214.858 49.136 213.913 48.183C212.463 46.6712 209.157 47.197 207.335 47.5585C205.344 47.9529 203.59 49.3332 201.634 49.629C200.217 49.8262 198.429 49.1689 197.214 48.4459C195.359 47.3614 194.718 45.5209 194.684 43.6477Z" fill="#3E3E54"/>
<path d="M206.362 58.579L194.595 105.862L193.633 112.07L208.318 114C208.318 114 207.741 91.3555 207.933 88.332C208.125 85.3084 210.883 78.7789 210.626 71.7668C210.498 67.7783 211.973 60.4124 211.203 58L206.362 58.579Z" fill="white"/>
<path d="M119.32 166L119.259 166.548L119.043 168.384L114.856 170L113.04 168.027L115.257 166.301L115.441 166.219L115.472 166.466L119.32 166Z" fill="#151525"/>
<path d="M111.993 133L112.347 134.529L115.288 166.774L115.315 167L118.718 166.519L118.909 166.49L121.413 133.113C118.065 133.085 114.77 133.028 111.993 133Z" fill="#5D66D3"/>
<path d="M135.02 133L134.306 141.347L127.106 163L123.592 162.552L123.535 162.972H123.507L126.106 140.675L123.878 133.056C127.963 133.056 131.934 133.056 135.02 133Z" fill="#5D66D3"/>
<path d="M127.715 163.029L127.97 163.058L129.787 165.273L127.396 167L123.507 164.525L123.73 163L127.587 163.46L127.715 163.029Z" fill="#151525"/>
<path d="M127.826 163.651L127.721 164.029L124.527 163.625L124.58 163.248L127.826 163.651Z" fill="#292949"/>
<path d="M112.597 93.0034C112.175 94.893 110.618 96.2536 109.114 97.5637C110.248 94.8174 111.41 92.3987 112.518 90.3075C112.729 91.1893 112.809 92.0964 112.597 93.0034Z" fill="#D0CFD1"/>
<path d="M145.548 71.5722C145.658 71.1387 148.077 68.844 148.215 69.1754C148.38 69.5324 148.435 69.8893 148.517 70.2463C149.507 69.7619 151.898 67.8241 151.761 70.0423C151.706 71.0112 149.864 72.6685 148.957 72.9745C148.93 72.9745 148.902 73 148.902 73L145.548 72.4646C145.466 72.2096 145.466 71.9291 145.548 71.5722Z" fill="#EFBFA5"/>
<path d="M132.537 94.983L132.508 94.8713C132.42 94.9272 132.332 94.983 132.245 95.0388C132.332 94.983 132.42 94.9272 132.508 94.8713L130.462 86.97L127.51 75.4392L120.115 72.0609C119.325 71.9493 118.624 71.5863 118.01 71.1117L117.747 71C117.835 71.335 117.922 71.6142 118.069 71.8934C118.127 72.0051 118.185 72.1168 118.244 72.2005C118.858 73.2615 119.822 74.2945 119.793 75.4951C119.793 75.7184 119.735 75.9418 119.676 76.1651C119.559 76.556 119.384 76.9469 119.238 77.3378C117.601 81.442 119.413 86.0766 122.073 89.5387C123.447 91.3255 125.259 92.8611 126.019 94.9272C126.165 95.2901 126.223 95.6531 126.282 96.0439C126.75 96.4348 127.276 96.7978 127.86 96.9653C127.276 96.7978 126.75 96.4348 126.282 96.0439C126.457 97.9146 125.551 99.9527 123.651 100.26C123.213 100.344 122.745 100.316 122.336 100.483C120.933 101.097 121.547 103.275 120.524 104.364C119.852 105.062 118.741 105.09 117.747 105.062C117.425 105.062 117.075 105.034 116.812 104.867C116.227 104.504 116.286 103.694 116.11 103.052C115.789 101.879 114.59 101.125 113.363 100.874C112.135 100.623 110.878 100.762 109.621 100.762C108.043 100.762 106.465 100.539 105.062 99.841C104.506 99.5618 104.009 99.1989 103.6 98.7801C101.116 113.215 103.922 132.73 103.922 132.73C103.922 132.73 107.166 132.786 111.755 132.87C114.736 132.926 118.302 132.954 121.868 132.982C122.482 132.982 123.125 132.982 123.739 132.982C127.919 133.01 132.011 133.01 135.138 132.954C137.506 132.926 139.347 132.842 140.253 132.73L132.537 94.983Z" fill="#FB765F"/>
<path d="M148.753 73.6023L145.13 73H145.071L128.74 79.8834L130.819 88C137.262 83.4398 144.893 79.74 149.673 73.7457L148.753 73.6023Z" fill="#FB765F"/>
<path d="M118.575 70.355C117.745 66.75 118.645 61.08 121.031 58.98C121.965 58.14 123.037 58 124.213 58C124.767 58 124.974 58.14 125.251 58.105C126.15 59.26 126.738 60.66 126.635 61.99C126.531 63.11 125.908 63.95 125.839 65.175C125.735 67.38 122.657 69.55 123.833 71.72C122.968 72 122.173 72.07 121.446 71.93L118.956 70.74C118.818 70.6 118.714 70.495 118.575 70.355Z" fill="#EFBFA5"/>
<path d="M121.651 81.6907C120.938 81.59 120.305 81.2624 119.75 80.8341L121.651 81.6907Z" fill="#EFBFA5"/>
<path d="M124.638 66.4455C124.671 65.4409 125.301 64.7023 125.4 63.7568C125.5 62.6341 124.936 61.4523 124.075 60.4773C124.207 60.4477 124.34 60.4182 124.539 60.3C124.936 60.0636 125.301 59.4727 125.5 59C126.56 59.5909 127.323 60.6841 127.555 62.3091C127.787 64.0818 127.787 65.9727 127.091 67.7455C126.395 69.5182 124.936 71.2023 123.048 71.8818C122.948 71.9114 122.816 71.9409 122.716 72C121.589 70.1386 124.539 68.2773 124.638 66.4455Z" fill="#EFBFA5"/>
<path d="M83.7333 39.9147L82.2941 37L80.9073 37.4976L81.3783 39.6777L80.5933 39.6303L82.1633 42L83.6809 41.6682L83.7333 39.9147Z" fill="#B97262"/>
<path d="M72.2201 67.7113L85.1017 59.1004L82.0376 41.6444L85.727 41L94.2001 60.8577L75.972 76L72.2201 67.7113Z" fill="#353A85"/>
<path d="M50.4598 165.878L50.24 167.757L54.8558 170L57.5667 168.318L55.3687 166.243L50.7162 164L50.4598 165.878Z" fill="#292949"/>
<path d="M50.8058 105.965L50.24 111.905L55.3602 138.353L50.834 164.83L54.4832 166L66.336 134.52L66.9867 124.924L65.3742 105L50.8058 105.965Z" fill="#3E3E54"/>
<path d="M80.4739 107.385L80.5933 132.556L75.5789 165L71.8777 164.971L69.7585 135L64.8933 105L80.4739 107.385Z" fill="#3E3E54"/>
<path d="M72.2201 166.985L75.709 169L77.4534 167.015L75.735 165.03L72.2461 165L72.2201 166.985Z" fill="#292949"/>
<path d="M84.1159 104.384C81.3892 96.0241 81.0828 87.2421 80.2863 78.5507C80.0412 75.9855 79.7961 73.36 78.7237 71.0061C77.4676 68.3202 75.4149 66.9018 73.0252 66.1172C69.9615 65.1213 66.3769 65.1816 63.1906 65.0005C60.1881 64.91 57.5227 76.0761 54.4283 81.478C52.5288 84.7977 50.5986 87.725 49.3425 91.3464C48.117 94.8169 46.9528 98.3478 46.2481 101.969C45.1758 107.432 42.4491 111.234 45.0533 113.075C45.2984 113.165 45.5128 113.226 45.7579 113.316C50.0471 114.825 54.4896 115.942 59.0239 116.545C63.0374 117.059 67.1122 117.149 71.1563 116.757C76.671 116.214 82.0326 115.459 86.8733 112.622C85.8929 109.876 85.0044 107.13 84.1159 104.384Z" fill="#353A85"/>
<path d="M117.798 114.5L120.19 118L121.413 116.765L120.19 113.917L120.978 113.676L118.64 111L117.227 112.064L117.798 114.5Z" fill="#EFBFA5"/>
<path d="M118.107 83.1164L111.331 96.3545L119.32 111.436L116.184 113L102.573 97.1645L109.586 77L118.107 83.1164Z" fill="#EA9A92"/>
<path d="M185.022 93.1041C185.497 93.1797 185.972 93.2553 186.447 93.3561L185.022 93.1041Z" fill="#8CABEF"/>
<path d="M185.971 95.1954C186.077 95.2206 186.209 95.2458 186.315 95.271C186.341 95.2458 186.367 95.2206 186.42 95.1954C186.262 95.1954 186.103 95.1954 185.971 95.1954Z" fill="#92DDB6"/>
<path d="M185.971 95.1954C185.707 95.145 185.443 95.0946 185.18 95.0442C185.417 95.1198 185.681 95.1702 185.971 95.1954Z" fill="#92DDB6"/>
<path d="M191.412 100.259C190.519 99.6909 189.626 99.1507 188.732 98.6674C187.928 98.241 186.915 98.4684 186.409 99.2076C185.814 100.032 186.082 101.141 187.005 101.624C187.839 102.05 188.643 102.534 189.447 103.046C204.278 112.683 208.805 132.782 198.709 146.94C188.613 161.098 167.706 163.998 152.875 154.36C152.071 153.849 151.327 153.308 150.582 152.74C149.778 152.114 148.587 152.285 147.991 153.109C147.485 153.849 147.604 154.815 148.319 155.384C149.123 156.009 149.957 156.606 150.85 157.203C167.319 167.893 190.43 164.623 201.627 148.902C212.795 133.152 207.882 110.949 191.412 100.259Z" fill="#BABCBE"/>
<path d="M187.541 106.23L186.35 105.434L189.894 100.458C190.132 100.146 190.579 100.06 190.906 100.288C191.234 100.515 191.323 100.942 191.085 101.255L187.541 106.23Z" fill="#BABCBE"/>
<path d="M153.143 154.588L151.952 153.792L155.496 148.817C155.734 148.504 156.181 148.419 156.509 148.646C156.836 148.873 156.926 149.3 156.687 149.613L153.143 154.588Z" fill="#BABCBE"/>
<path d="M142.303 131.873C140.814 116.322 152.786 102.534 169.106 101.112C185.397 99.6908 199.841 111.119 201.33 126.699C202.819 142.249 190.847 156.038 174.527 157.459C158.236 158.881 143.822 147.424 142.303 131.873Z" fill="white"/>
<path d="M184.95 103.87C188.316 107.992 190.519 113.053 191.056 118.625C192.545 134.176 180.572 147.964 164.252 149.385C158.594 149.868 153.144 148.817 148.409 146.571C154.395 153.934 164.074 158.312 174.527 157.374C190.817 155.952 202.819 142.164 201.33 126.613C200.347 116.493 193.855 108.078 184.95 103.87Z" fill="#DBDBDB"/>
<path d="M179.649 101.965C178.845 101.937 178.041 101.994 177.147 102.221C177.505 101.937 177.713 101.709 177.832 101.539C177.296 101.425 176.76 101.34 176.224 101.255C176.194 101.283 176.165 101.283 176.105 101.311C175.42 101.624 175.301 101.653 175.48 102.079C175.182 101.994 174.914 101.908 174.646 101.766L171.221 102.079C173.603 104.183 169.404 104.382 167.856 104.524C167.588 104.552 167.468 104.012 167.617 103.87C167.677 103.785 169.553 103.699 169.047 103.756C170.476 103.643 170.298 103.557 170.179 102.193C168.898 103.301 168.838 102.306 167.26 102.449C165.771 102.591 165.056 102.733 163.835 103.387C164.282 103.699 164.758 104.012 165.205 104.296C164.669 104.24 162.882 103.728 162.406 103.955C162.197 104.069 162.197 104.638 161.929 104.666C160.827 104.751 157.909 105.604 157.79 104.41C157.79 104.41 157.76 104.41 157.73 104.41C155.109 105.746 152.756 107.452 150.702 109.442C152.101 109.101 153.59 109.044 153.888 109.016C154.007 109.016 155.139 111.148 155.169 111.318C155.318 112.285 154.662 112.74 154.216 113.706C153.441 115.469 153.233 117.715 153.531 119.591C153.531 119.648 154.811 120.558 154.841 120.956C154.99 122.633 155.199 122.633 156.509 123.77L156.3 121.724C157.194 123.458 158.117 124.083 158.951 125.789C159.874 127.722 162.644 125.931 163.776 127.154C164.282 127.694 165.056 127.353 165.503 127.893L166.694 129.343C167.409 130.224 168.153 129.826 169.285 129.712C170.387 129.627 174.408 133.948 174.437 134.232C174.556 135.483 170.864 137.615 170.893 138.127C171.012 139.605 172.948 139.634 174.11 140.458C175.033 141.112 174.616 143.244 174.676 144.183C174.824 146.343 176.403 147.765 176.969 149.755C177.177 150.494 176.939 151.347 177.207 152.057C177.475 152.797 178.19 153.195 178.249 154.019C178.368 155.298 182.121 155.213 182.865 155.128C182.865 155.128 180.006 154.019 180.006 154.161C179.887 152.939 180.542 152.967 180.483 152.256C180.394 151.375 179.5 150.721 179.887 149.442C180.334 148.049 180.274 148.106 181.793 147.964C181.704 147.338 181.555 146.741 181.317 146.173C182.478 144.04 185.456 141.795 186.231 141.198C187.303 140.345 186.469 138.411 186.856 137.303C187.184 136.336 188.435 135.341 188.375 134.176C188.345 133.294 187.511 133.152 186.826 133.237C186.171 133.323 185.992 132.242 185.486 132.299C184.086 132.413 182.597 132.328 181.287 131.56C181.079 131.446 180.691 129.741 180.304 129.343C179.738 128.774 178.279 129.996 177.564 129.2C177.296 128.916 176.641 127.722 176.254 127.751C175.748 127.807 172.859 127.523 172.323 128.092C172.412 128.006 171.31 127.779 171.161 127.807C171.221 127.807 167.707 129.94 167.617 129.001C167.498 127.779 167.975 126.13 166.456 126.272C164.014 126.5 166.039 125.704 165.92 124.623C165.801 123.259 163.597 125.22 162.346 125.334C162.376 125.334 160.708 123.202 161.423 123.145C161.929 123.088 161.899 122.122 162.227 121.695C163.091 120.53 164.729 120.274 165.92 120.359C166.396 120.387 168.302 122.15 168.332 122.52C168.332 122.434 168.987 121.951 169.047 121.78C169.345 121.269 169.136 121.07 169.166 120.558C169.285 118.881 169.315 118.539 170.625 117.402C171.578 116.578 172.918 115.611 173.603 114.559C174.139 113.763 174.676 113.337 175.509 112.854C175.42 112.91 176.403 113.308 176.611 113.308C177.415 113.252 177.535 112.569 177.922 111.944L176.522 112.058C177.981 110.778 175.093 110.437 178.22 110.153C179.768 110.011 179.917 110.011 180.751 108.902C179.262 109.044 179.619 108.987 179.47 107.537C179.441 107.282 178.934 106.429 178.577 106.855C177.564 107.992 177.475 106.77 176.939 106.116C176.224 105.263 175.629 106.258 175.42 106.827C175.152 107.537 172.591 108.817 172.68 109.698C172.74 110.21 171.846 110.267 171.817 109.698C171.757 108.845 168.57 108.277 168.481 107.964C168.362 107.537 169.851 106.201 171.28 106.059C171.936 106.002 171.549 105.32 171.727 105.291C173.067 105.178 174.586 104.638 175.241 103.557C175.063 103.586 173.335 103.728 173.335 103.728C173.276 103.131 172.978 102.818 173.693 102.761C175.331 102.619 175.956 103.813 177.743 103.643C177.147 104.154 176.552 104.666 175.926 105.149C176.82 105.064 178.339 106.4 178.994 105.888C180.215 104.95 179.262 104.268 180.304 104.012C180.423 104.126 180.602 104.211 180.87 104.268C181.227 104.353 182.449 104.439 182.687 104.723C182.955 105.064 183.789 107.082 183.342 107.31C182.627 107.68 180.662 110.124 182.389 110.551C183.729 110.864 183.997 110.295 185.099 109.499C186.112 108.76 186.409 108.987 187.66 109.272C187.66 109.272 188.911 109.129 189.388 109.243C190.43 109.499 190.311 108.902 190.4 108.93C190.847 109.044 191.681 109.073 192.187 108.788C188.732 105.576 184.414 103.216 179.649 101.965Z" fill="#2569E3"/>
<path d="M169.285 122.661C169.106 122.86 168.928 123.088 168.749 123.287C170.595 123.116 171.787 123.6 173.454 123.457C172.174 121.894 171.34 122.491 169.285 122.661Z" fill="#8CABEF"/>
<path d="M175.569 123.571C174.08 123.657 174.02 123.884 173.216 124.936C173.99 124.879 174.794 124.794 175.569 124.737C176.224 124.652 176.045 123.543 175.569 123.571Z" fill="#8CABEF"/>
<path d="M177.832 124.851C177.624 122.861 175.688 125.05 177.832 124.851V124.851Z" fill="#8CABEF"/>
<path d="M146.592 134.488C145.192 120.046 156.33 107.253 171.459 105.917C180.304 105.149 188.554 108.447 194.153 114.218C188.673 106.798 179.292 102.306 169.136 103.188C154.007 104.524 142.869 117.317 144.269 131.759C144.834 137.758 147.485 143.102 151.476 147.196C148.825 143.557 147.068 139.236 146.592 134.488Z" fill="#EDEFEF"/>
<path d="M175.986 105.149C176.879 105.064 178.398 106.4 179.053 105.888C179.947 105.178 179.649 104.637 179.887 104.296C179.172 104.069 178.428 103.898 177.683 103.728C177.117 104.183 176.552 104.666 175.986 105.149Z" fill="#93B9F9"/>
<path d="M189.357 109.215C187.481 107.708 185.367 106.429 183.133 105.462C183.431 106.173 183.699 107.139 183.401 107.31C183.371 107.338 183.342 107.338 183.312 107.367C184.801 107.879 186.23 108.504 187.6 109.243C187.63 109.243 187.69 109.272 187.719 109.272C187.719 109.272 188.821 109.129 189.357 109.215Z" fill="#93B9F9"/>
<path d="M171.668 105.917C171.817 105.689 171.668 105.32 171.787 105.32C173.127 105.206 174.646 104.666 175.301 103.586C175.122 103.614 173.395 103.756 173.395 103.756C173.365 103.5 173.306 103.301 173.276 103.159C172.829 103.131 172.382 103.131 171.936 103.102C172.114 104.268 169.107 104.439 167.885 104.552C167.617 104.581 167.498 104.041 167.647 103.898C167.707 103.813 169.583 103.728 169.077 103.785C170.06 103.699 170.298 103.643 170.298 103.159C169.94 103.188 169.553 103.188 169.196 103.245C167.647 103.387 166.158 103.643 164.729 103.984C164.907 104.097 165.086 104.211 165.235 104.325C165.026 104.296 164.61 104.211 164.163 104.126C160.381 105.149 156.985 106.912 154.067 109.215C154.424 109.726 155.169 111.205 155.199 111.347C155.347 112.314 154.692 112.768 154.246 113.735C154.216 113.792 154.186 113.877 154.156 113.934C158.594 109.527 164.61 106.571 171.489 105.974C171.549 105.917 171.608 105.917 171.668 105.917Z" fill="#93B9F9"/>
<path d="M177.237 152.029C177.505 152.768 178.219 153.166 178.279 153.991C178.398 155.27 182.151 155.185 182.895 155.099C182.895 155.099 180.036 153.991 180.036 154.133C179.917 152.91 180.572 152.939 180.513 152.228C180.423 151.347 179.53 150.693 179.917 149.414C180.364 148.021 180.304 148.077 181.823 147.935C181.734 147.31 181.585 146.713 181.346 146.144C182.508 144.012 185.486 141.766 186.26 141.169C187.332 140.316 186.499 138.383 186.886 137.274C187.213 136.308 188.464 135.313 188.405 134.147C188.405 133.891 188.315 133.692 188.196 133.55C185.456 138.952 180.929 143.415 175.331 146.258C175.896 147.395 176.671 148.447 177.028 149.726C177.237 150.494 176.998 151.318 177.237 152.029Z" fill="#2569E3"/>
<path d="M177.157 162.644L172.975 163.011L174.015 173.797L178.197 173.43L177.157 162.644Z" fill="#BABCBE"/>
<path d="M175.45 168.688C175.45 168.688 170.804 168.831 162.256 173.266L162.435 175.085L175.956 173.891L189.477 172.697L189.298 170.877C180.066 168.035 175.45 168.688 175.45 168.688Z" fill="#BABCBE"/>
<g opacity="0.1">
<g opacity="0.1">
<path opacity="0.1" d="M151 155.384C166.694 165.59 189.358 162.69 200.05 147.708C210.741 132.726 205.41 111.29 189.715 101.112C188.882 100.572 188.018 100.06 187.154 99.6056C186.916 99.4634 186.708 99.2929 186.559 99.0939C186.499 99.1507 186.469 99.2076 186.41 99.2644C185.814 100.089 186.082 101.198 187.005 101.681C187.839 102.107 188.643 102.591 189.447 103.102C204.279 112.74 208.805 132.839 198.709 146.997C188.614 161.155 167.707 164.055 152.876 154.417C152.072 153.905 151.327 153.365 150.583 152.797C149.779 152.171 148.587 152.342 147.992 153.166C147.962 153.223 147.932 153.28 147.873 153.365C148.141 153.422 148.379 153.536 148.617 153.706C149.332 154.247 150.136 154.815 151 155.384Z" fill="#272525"/>
</g>
</g>
<g opacity="0.1">
<g opacity="0.1">
<path opacity="0.1" d="M181.764 169.086C181.734 169.143 178.905 173.379 162.465 175.113L175.986 173.919L189.507 172.725L189.328 170.906C186.291 169.968 183.789 169.428 181.764 169.086Z" fill="#272525"/>
</g>
</g>
<path d="M205.264 88L203.189 89.6219L200.685 89.5081L200.389 89.935L201.015 90.2764L198.907 90.6748L197.82 91.8699L198.479 93.8049L200.422 95L202.596 94.2317L204.276 92.3537L207.24 90.1911L205.264 88Z" fill="#EFBFA5"/>
<path d="M204.1 88.2368C207.46 85.7133 210.819 83.1582 214.179 80.6347C215.092 79.9407 216.103 79.436 217.017 78.7421C218.321 77.7327 218.68 77.4172 218.223 75.9662C216.951 71.7393 214.212 67.954 212.972 63.7902C214.407 62.97 215.679 61.9922 217.18 61.3297C219.691 60.2572 220.246 61.9922 221.257 63.7902C222.464 65.9036 223.605 68.0486 224.649 70.2252C225.53 72.0232 229.901 79.6253 227.422 81.4233C225.66 82.7166 206.253 92.5899 206.449 93C206.416 92.8107 204.1 88.2368 204.1 88.2368Z" fill="#3E3E54"/>
<path d="M102.632 96.2791C102.782 97.1786 103.29 97.9938 103.977 98.6684C104.037 98.3592 104.097 98.05 104.156 97.7408C104.097 98.05 104.037 98.3592 103.977 98.6684C104.425 99.0901 104.933 99.4555 105.471 99.7366C106.876 100.439 108.52 100.664 110.133 100.664C111.418 100.664 112.703 100.524 113.958 100.777C115.213 101.03 116.439 101.789 116.767 102.969C116.947 103.616 116.887 104.431 117.485 104.796C117.754 104.965 118.112 104.993 118.441 104.993C119.457 105.021 120.593 104.993 121.28 104.29C122.326 103.194 121.728 101.002 123.133 100.383C123.551 100.214 124.029 100.243 124.477 100.158C126.39 99.849 127.346 97.797 127.167 95.9136C127.137 95.5201 127.047 95.1265 126.898 94.7892C126.091 92.7091 124.268 91.163 122.864 89.364C120.144 85.8783 118.292 81.212 119.965 77.0799C120.114 76.6863 120.294 76.2928 120.413 75.8992C120.473 75.6744 120.503 75.4495 120.533 75.2246C120.563 73.9878 119.577 72.9758 118.949 71.9076C118.889 71.7952 118.829 71.7108 118.77 71.5984C118.65 71.3173 118.531 71.0081 118.441 70.6989C118.441 70.6427 118.411 70.6145 118.411 70.5583C116.469 68.7312 115.692 65.358 116.977 62.8562C117.036 62.7156 117.126 62.5751 117.216 62.4345C117.126 62.5751 117.066 62.7156 116.977 62.8562C115.692 65.3861 116.469 68.7593 118.411 70.5583C117.694 67.663 118.471 63.1092 120.533 61.4225C121.34 60.7479 122.266 60.6355 123.282 60.6355C123.76 60.6355 123.94 60.7479 124.179 60.7198C124.298 60.6917 124.418 60.6636 124.597 60.5511C124.956 60.3263 125.284 59.7641 125.464 59.3143C126.42 59.8765 127.107 60.9166 127.316 62.4626C127.526 64.1492 127.526 65.9483 126.898 67.6349C126.27 69.3215 124.956 70.9238 123.252 71.5703C123.163 71.5984 123.043 71.6265 122.953 71.6827C123.043 71.8233 123.133 71.9638 123.282 72.1044C124.208 73.0601 125.733 73.285 127.107 73.4537C127.287 73.4818 127.436 73.4818 127.615 73.4256C127.884 73.3412 128.004 73.0601 128.004 72.779C128.004 72.526 127.914 72.273 127.824 72.02C127.018 69.3777 128.452 66.398 128.691 63.7276C128.93 61.0852 128.332 58.1899 126.091 56.4189C125.703 56.5314 125.344 56.6438 124.985 56.8125C124.956 56.7563 124.926 56.7282 124.866 56.6719C121.609 52.9895 116.977 56.1378 114.496 58.9489C112.464 61.282 110.731 63.9525 109.954 66.8759C109.237 69.6307 108.968 73.6785 109.297 76.4895C109.476 78.148 110.163 79.7503 110.522 81.3526C110.761 82.3646 110.85 83.3484 110.611 84.3604C110.133 86.4686 108.37 87.9866 106.667 89.4483C106.517 89.8137 106.368 90.2073 106.189 90.6008C106.039 90.9944 105.89 91.3879 105.74 91.7814C105.651 92.0344 105.561 92.3155 105.441 92.5685C105.531 92.3155 105.621 92.0344 105.74 91.7814C105.89 91.3879 106.039 90.9944 106.189 90.6008C106.338 90.2073 106.487 89.8418 106.667 89.4483C106.428 89.6451 106.189 89.8419 105.95 90.0386C104.097 91.6971 102.214 93.8897 102.632 96.2791ZM119.816 59.764C120.085 59.5954 120.324 59.4548 120.593 59.3424C120.353 59.4548 120.085 59.5954 119.816 59.764Z" fill="#3E3E54"/>
<path d="M104.142 62.7982L74.0659 101.106L76.8958 103.13L106.972 64.8227L104.142 62.7982Z" fill="#474EBB"/>
<path d="M101.297 60.768L71.2212 99.0754L74.0511 101.1L104.127 62.7925L101.297 60.768Z" fill="#DDDAE8"/>
<path d="M98.4687 58.7176L68.3926 97.025L71.2225 99.0495L101.299 60.7421L98.4687 58.7176Z" fill="#474EBB"/>
<path d="M68.3883 97.031L67.8184 97.7567L76.3281 103.846L76.8981 103.121L68.3883 97.031Z" fill="#292949"/>
<path d="M67.8308 97.7747L67.2609 98.5005L75.7706 104.59L76.3406 103.864L67.8308 97.7747Z" fill="#DEDFDE"/>
<path d="M67.2525 98.5008L66.6825 99.2266L75.1922 105.316L75.7622 104.591L67.2525 98.5008Z" fill="#292949"/>
<path d="M70.8036 110.909L74.6123 106.048L66.0887 99.9672L62.28 104.828C60.9149 106.574 61.2779 109.049 63.1062 110.352L64.9913 111.701C66.8481 113.027 69.4385 112.655 70.8036 110.909Z" fill="#F0F1F1"/>
<path d="M66.6736 99.2333L66.1038 99.9591L74.6145 106.048L75.1844 105.322L66.6736 99.2333Z" fill="#DEDFDE"/>
<path d="M98.4563 58.7361L106.982 64.8422L110.591 51.7822L98.4563 58.7361Z" fill="#F8E4B8"/>
<path d="M107.76 53.4106L109.757 54.8272L110.591 51.7822L107.76 53.4106Z" fill="#292949"/>
<path d="M67.4148 110.015L69.209 113L70.1266 111.936L69.209 109.483L69.8003 109.276L68.0468 107L66.9866 107.916L67.4148 110.015Z" fill="#EFBFA5"/>
<path d="M65.6016 78.4988L59.5935 89.8645L69.08 107.202L65.3557 109L49.1934 90.7956L55.0258 74.5818C56.2556 71.1785 60.7881 69.8942 63.9151 72.0775C66.0935 73.5544 66.7962 76.2513 65.6016 78.4988Z" fill="#353A85"/>
<path d="M62.0255 58.4619C63.6775 53.5905 70.9641 51.8898 72.6456 57.5683C73.1471 59.269 73.4716 61.085 73.1176 62.8145C72.7636 64.5441 71.6721 66.2159 70.0201 66.9366H69.9906C70.0496 67.3978 70.1086 67.8301 70.1971 68.2913C70.1971 68.3778 70.2266 68.4931 70.1676 68.5796C70.1086 68.6661 69.9906 68.6949 69.8726 68.7237C69.312 68.8102 68.781 68.8967 68.2205 68.9543C67.955 68.9832 67.66 69.0408 67.3945 68.9543C66.8045 68.7814 66.5685 68.0896 66.539 67.5131C66.539 67.3689 66.539 67.2248 66.539 67.0807C63.2645 66.0141 60.9339 61.6615 62.0255 58.4619Z" fill="#EFBFA5"/>
<path d="M71.0232 49.0221C72.2847 48.8143 73.378 50.1208 74.5273 50.8038C75.5084 51.368 76.6017 51.5164 77.6109 51.9916C78.62 52.4667 79.6012 53.4466 79.6292 54.664C80.6384 54.0998 81.7597 53.5356 82.909 53.7435C84.0583 53.9811 85.1235 55.4361 84.675 56.6238C84.2545 57.6928 82.937 57.9304 82.5165 58.9994C81.8157 60.6622 83.6939 63.2456 82.4324 64.3443C82.1241 64.6116 81.7036 64.6709 81.3952 64.9382C81.0308 65.2648 80.8906 65.8587 80.7225 66.3932C79.9656 68.739 77.723 70.2831 75.5084 69.9565C74.1348 69.2735 73.0416 67.8779 72.537 66.2447C71.9483 64.3146 72.9294 63.6316 73.0976 61.7906C73.2658 59.8011 72.6772 57.6928 71.4998 56.1487C70.7149 55.1391 69.6216 54.278 68.4723 54.1592C67.9957 54.0998 68.1359 54.5156 67.6033 54.1295C67.379 53.9514 67.0707 53.3278 66.9866 53.0308C68.2761 52.0212 69.3413 49.2894 71.0232 49.0221Z" fill="#3E3E54"/>
<path d="M55.3862 52.8934C54.7306 53.0585 53.9896 53.0585 53.3625 53.3062C52.4219 53.7189 52.479 54.6544 52.1939 55.4799C51.9089 56.3879 51.4529 57.626 50.8258 58.3414C50.3698 58.8642 49.7427 59.1394 49.2012 59.5521C48.6596 59.9373 48.1466 60.5427 48.1466 61.258C48.1466 61.9459 48.6311 62.5513 48.6881 63.2116C48.7737 64.2297 48.6026 64.725 48.9162 65.7705C49.0872 66.2933 49.2582 66.8711 49.6857 67.2288C50.2273 67.6966 50.9968 67.6966 51.6809 67.5865C52.3649 67.4765 53.0775 67.2839 53.733 67.504C55.1867 67.9718 54.9301 69.4025 55.3007 70.5857C55.8992 72.4017 58.0654 73.4473 59.747 72.8144C61.1721 72.2641 61.9702 70.6683 61.9132 69.1274C61.8847 68.357 61.5712 67.6141 61.5427 66.8161C61.5142 66.0732 61.9702 65.0001 61.2577 64.4223C61.0866 64.2847 60.8586 64.2022 60.7161 64.0371C60.6021 63.8995 60.5166 63.7344 60.4881 63.5418C60.3456 62.909 60.4881 62.2486 60.8586 61.7533C61.1436 61.3956 61.5142 61.148 61.6852 60.7353C61.8847 60.2675 61.7137 59.7172 61.6852 59.1669C61.5997 57.9012 62.3122 56.663 63.4238 56.1677C64.1364 55.8376 64.7919 55.6449 65.419 55.1497C65.5045 55.0671 66.9581 53.8565 66.9866 54.1041C66.9296 53.6363 66.6446 53.2511 66.3596 52.8659C65.9035 52.2606 65.3905 51.6552 64.7349 51.2975C62.6258 50.1144 62.5118 52.8659 60.8301 52.5082C60.4311 52.4257 60.1176 52.068 59.747 51.8478C59.063 51.4351 58.2079 51.5727 57.4954 51.9029C56.7828 52.2606 56.1272 52.7008 55.3862 52.8934Z" fill="#3E3E54"/>
</svg>
