<svg width="260" height="180" viewBox="0 0 260 180" fill="none" xmlns="http://www.w3.org/2000/svg">
<path d="M221.423 51.6274C213.35 47.1207 206.59 40.6665 202.007 32.8515C190.658 13.4827 165.36 0 135.974 0C95.9791 0 63.5506 24.9679 63.5506 55.7659C63.5506 56.7084 63.5831 57.6509 63.6416 58.581C64.5061 71.9763 59.8001 85.047 50.8691 95.3712C46.8846 99.9716 44.6161 105.259 44.6161 110.876C44.6161 128.716 67.4506 143.179 95.6151 143.179C105.248 143.179 114.257 141.487 121.94 138.547C133.536 134.109 146.335 133.541 158.223 137.199C165.796 139.527 174.077 140.813 182.754 140.813C218.784 140.813 247.995 118.697 247.995 91.42C248.001 75.091 237.543 60.6159 221.423 51.6274Z" fill="#DBE8FE"/>
<path d="M260 153.909H42.5621V155.282H260V153.909Z" fill="#D4E0F4"/>
<path opacity="0.71" d="M57.3495 178.982C89.0227 178.982 114.699 176.442 114.699 173.309C114.699 170.175 89.0227 167.635 57.3495 167.635C25.6762 167.635 0 170.175 0 173.309C0 176.442 25.6762 178.982 57.3495 178.982Z" fill="#C6D2EB"/>
<path opacity="0.71" d="M226.785 158.996C209.95 158.977 196.216 162.335 195.52 166.555C188.637 165.082 179.049 164.164 168.441 164.152C147.492 164.133 130.507 167.66 130.501 172.035C130.494 176.411 147.472 179.975 168.422 180C183.086 180.012 195.806 178.29 202.124 175.749C205.901 174.232 210.022 173.696 214.091 174.157C217.965 174.594 222.255 174.844 226.766 174.85C244.043 174.869 258.057 171.336 258.063 166.954C258.07 162.579 244.062 159.014 226.785 158.996Z" fill="#D4E0F4"/>
<path d="M185.764 84.8096L177.054 84.9907L201.52 163.821L212.999 170.843L185.764 84.8096Z" fill="#1C4B9E"/>
<path d="M213.694 93.9603L222.898 87.0567L247.059 160.244L239.005 166.324L213.694 93.9603Z" fill="#4783EE"/>
<path d="M203.053 87.0568H222.898L213.694 93.9605L203.768 93.0554L203.053 87.0568Z" fill="#CED9EA"/>
<path d="M239.005 166.324L213.694 93.9604L203.768 93.0554L227.357 164.801L239.005 166.324Z" fill="#1C4B9E"/>
<path d="M184.36 82.007L97.9616 91.1952C97.9616 91.1952 87.9646 92.5747 86.8531 85.8084C85.7416 79.0421 98.6571 79.0421 98.6571 79.0421L182.949 69.7914L184.36 82.007Z" fill="#E6F0FF"/>
<path d="M96.2324 92.5934C95.2444 92.5934 94.0354 92.5248 92.7939 92.3001C88.6209 91.5323 86.1119 89.3663 85.5464 86.0206C85.2604 84.3353 85.6894 82.7935 86.7944 81.5451C89.9664 77.956 97.7989 77.775 99.0144 77.7687L186.225 68.5181L186.517 71.0649L99.1509 80.328H99.0794C96.9279 80.328 90.8959 80.8523 88.8159 83.2055C88.2114 83.8859 88.0099 84.6536 88.1724 85.6087C89.1019 91.0766 98.0849 89.9468 98.1759 89.9344L98.2149 89.9281L187.687 80.7399L187.973 83.2867L98.5204 92.4748C98.3579 92.4873 97.4674 92.5934 96.2324 92.5934Z" fill="#3E3E54"/>
<path d="M87.0154 169.058L110.383 92.0005C110.461 91.7383 110.747 91.5885 111.02 91.6634L127.569 96.2887C127.842 96.3636 127.998 96.6382 127.92 96.9004L104.552 173.958C104.474 174.22 104.188 174.37 103.915 174.295L87.3664 169.669C87.0869 169.595 86.9309 169.32 87.0154 169.058Z" fill="#3E3E54"/>
<path d="M101.276 64.4733L193.576 54.8856C193.856 54.8544 194.109 55.0541 194.142 55.3225L195.468 67.1012C195.5 67.3696 195.292 67.613 195.013 67.6442L102.713 77.2319C102.433 77.2631 102.18 77.0634 102.147 76.795L100.821 65.0163C100.789 64.7417 100.997 64.4983 101.276 64.4733Z" fill="#5364A0"/>
<path d="M160.244 58.3437L161.642 71.1085L164.034 70.8651L162.5 58.1127L160.244 58.3437Z" fill="#FB765F"/>
<path d="M213.694 93.9605L203.768 93.0554L203.989 92.6122L213.694 93.4736L222.001 87.3627H203.378L203.053 87.0568H222.898L213.694 93.9605Z" fill="#4F81A3"/>
<path d="M213.213 171.511L185.803 84.9096C185.718 84.6474 185.874 84.3728 186.147 84.2916L202.638 79.479C202.911 79.3979 203.197 79.5477 203.281 79.8099L230.685 166.411C230.77 166.673 230.614 166.948 230.341 167.029L213.85 171.842C213.584 171.923 213.298 171.773 213.213 171.511Z" fill="#2569E3"/>
<path d="M85.8777 174.644H13.8447C13.3637 174.644 12.9737 174.27 12.9737 173.808V153.834C12.9737 153.372 13.3637 152.997 13.8447 152.997H85.8712C86.3522 152.997 86.7422 153.372 86.7422 153.834V173.808C86.7487 174.27 86.3587 174.644 85.8777 174.644Z" fill="#A7C7D2"/>
<path d="M25.3826 152.997H23.4391V174.644H25.3826V152.997Z" fill="#4F81A3"/>
<path d="M77.5839 152.997H74.0219V174.644H77.5839V152.997Z" fill="#4F81A3"/>
<path d="M28.2942 152.997H26.3507V174.644H28.2942V152.997Z" fill="#4F81A3"/>
<path d="M72.839 152.997H70.8955V174.644H72.839V152.997Z" fill="#4F81A3"/>
<path d="M88.1529 139.733H18.551V150.644H88.1529V139.733Z" fill="white"/>
<path d="M89.7651 152.928H20.1956C18.2586 152.928 16.6791 151.412 16.6791 149.551V141.543C16.6791 139.683 18.2586 138.166 20.1956 138.166H89.7651V140.575H20.1956C19.6431 140.575 19.1881 141.006 19.1881 141.543V149.551C19.1881 150.082 19.6431 150.519 20.1956 150.519H89.7651V152.928Z" fill="#2569E3"/>
<path d="M177.054 84.9907L185.764 84.8096L203.053 79.8847L202.813 79.3229L185.939 84.2916L176.781 84.3852L177.054 84.9907Z" fill="#2D2E75"/>
<path d="M123.951 110.012L106.396 105.103L104.634 110.916L122.188 115.825L123.951 110.012Z" fill="#7BADC9"/>
<path d="M121.741 117.315L104.186 112.405L103.816 113.628L121.371 118.537L121.741 117.315Z" fill="#FB765F"/>
<path d="M204.695 90.2917L192.207 94.2296L192.621 95.4394L205.108 91.5015L204.695 90.2917Z" fill="#232F63"/>
<path d="M205.435 92.483L192.948 96.4208L193.362 97.6307L205.849 93.6928L205.435 92.483Z" fill="#232F63"/>
<path d="M224.846 156.643L212.359 160.581L212.773 161.791L225.26 157.853L224.846 156.643Z" fill="#232F63"/>
<path d="M225.587 158.835L213.099 162.772L213.513 163.982L226 160.044L225.587 158.835Z" fill="#232F63"/>
<path d="M105.262 164.729L92.6434 161.201L92.2726 162.423L104.891 165.952L105.262 164.729Z" fill="#7BADC9"/>
<path d="M104.58 166.938L91.9611 163.409L91.5904 164.631L104.209 168.16L104.58 166.938Z" fill="#7BADC9"/>
<path d="M187.574 150.044C187.574 150.044 183.198 147.958 182.871 147.437C182.544 146.915 182.112 146.218 182.073 145.32C182.034 144.415 180.156 143.655 180.156 143.655C180.156 143.655 179.254 143.341 178.639 142.16C178.639 142.16 177.442 142.229 177.952 143.517C178.462 144.805 180.156 148.938 180.156 148.938C180.156 148.938 181.589 148.31 182.701 149.686C183.813 151.061 187.574 154.328 187.574 154.328V150.044Z" fill="#FAC2AE"/>
<path d="M177.952 143.511C177.952 143.511 181.968 145.697 182.498 148.479C183.028 151.256 187.012 152.142 187.012 152.142L186.384 153.26C186.384 153.26 184.107 151.313 182.328 149.296C182.328 149.296 181.55 148.611 180.909 149.177C180.268 149.742 177.605 144.779 177.952 143.511Z" fill="#F1A080"/>
<path d="M151.432 161.326C151.432 161.326 148.777 167.394 147.187 168.23C145.597 169.065 139.926 171.207 139.926 171.207C139.926 171.207 143.327 174.775 150.562 171.069C150.562 171.069 150.562 169.919 150.719 168.6C150.896 167.105 155.246 164.988 156.208 163.317C157.176 161.646 151.432 161.326 151.432 161.326Z" fill="#F1A080"/>
<path d="M137.008 172.834C136.799 172.413 136.825 171.829 137.106 171.722C137.492 171.571 138.873 171.063 139.651 170.887C140.43 170.711 141.633 170.629 141.195 170.749C140.757 170.874 141.398 171.647 142.085 171.703C144.472 171.904 146.435 170.862 147.828 170.767C149.843 170.635 150.582 168.883 150.719 168.588C151.053 168.826 152.047 170.441 152.145 170.937C152.231 171.383 152.381 172.2 152.159 172.627C152.002 172.922 151.668 173.506 151.674 174.172C151.674 174.172 151.249 174.361 150.203 174.392C149.542 174.411 148.692 174.21 148.692 174.21V173.205C148.692 173.205 148.162 173.117 147.468 173.142C146.775 173.167 145.918 173.462 145.499 173.732C145.172 173.94 144.825 174.292 144.44 174.373C143.321 174.612 142.516 174.681 141.306 174.574C138.748 174.348 137.368 173.55 137.008 172.834Z" fill="#1F2254"/>
<path d="M149.261 161.496C149.261 161.496 146.605 167.564 145.015 168.399C143.426 169.235 137.754 171.377 137.754 171.377C137.754 171.377 141.156 174.945 148.391 171.239C148.391 171.239 148.391 170.089 148.548 168.77C148.724 167.275 153.074 165.158 154.036 163.487C155.004 161.822 149.261 161.496 149.261 161.496Z" fill="#FAC2AE"/>
<path d="M134.837 173.01C134.627 172.589 134.654 172.005 134.935 171.898C135.321 171.747 136.701 171.239 137.479 171.063C138.258 170.887 139.462 170.805 139.023 170.925C138.585 171.05 139.226 171.823 139.913 171.879C142.301 172.08 144.263 171.038 145.656 170.943C147.671 170.811 148.41 169.059 148.548 168.764C148.881 169.002 149.876 170.617 149.974 171.113C150.059 171.559 150.209 172.376 149.987 172.803C149.83 173.098 149.496 173.682 149.503 174.348C149.503 174.348 149.078 174.537 148.031 174.568C147.37 174.587 146.52 174.386 146.52 174.386V173.374C146.52 173.374 145.99 173.286 145.297 173.312C144.603 173.337 143.746 173.632 143.328 173.902C143 174.109 142.654 174.461 142.268 174.543C141.149 174.782 140.345 174.851 139.134 174.744C136.577 174.524 135.196 173.726 134.837 173.01Z" fill="#2D2E75"/>
<path d="M177.69 124.678C177.69 124.678 177.54 127.146 178.22 128.667C178.22 128.667 178.39 130.168 177.677 131.035C176.964 131.902 178.449 131.952 179.476 131.713C179.476 131.713 180.182 131.858 180.431 133.233C180.68 134.609 182.393 136.136 183.25 135.746C184.107 135.357 187.96 133.259 188.889 133.862C189.818 134.465 194.502 139.226 194.502 139.226C194.502 139.226 198.407 140.049 198.427 137.706L198.152 136.714C198.152 136.714 194.201 133.208 193.92 131.468C193.645 129.728 195.483 125.808 193.292 124.671C191.1 123.534 185.082 123.151 185.082 123.151L177.69 124.678Z" fill="#FAC2AE"/>
<path d="M189.53 124.659C189.53 124.659 193.874 125.909 187.967 132.027C187.967 132.027 194.214 131.833 194.718 127.291C195.215 122.743 189.53 124.659 189.53 124.659Z" fill="#15204C"/>
<path d="M191.964 136.136C191.964 136.136 195.967 136.971 195.032 133.887L197.053 135.709C197.053 135.709 196.118 137.668 194.449 137.794L192.657 136.833L191.964 136.136Z" fill="#F1A080"/>
<path d="M179.921 126.644C179.921 126.644 174.066 126.235 176.369 120.902C178.671 115.569 183.735 116.549 183.735 116.549C183.735 116.549 177.16 124.659 179.921 126.644Z" fill="#15204C"/>
<path d="M178.56 119.596C178.56 119.596 174.635 126.085 180.863 126.198C187.097 126.305 187.588 128.302 187.588 128.302C187.588 128.302 186.011 125.3 188.588 124.709C191.166 124.125 193.364 127.322 193.024 129.496C192.683 131.669 190.571 132.436 190.571 132.436C190.571 132.436 195.215 134.974 196.994 129.244C198.767 123.515 194.011 116.731 187.777 116.153C181.543 115.569 178.56 119.596 178.56 119.596Z" fill="#3E3E54"/>
<path d="M163.953 153.832C163.953 153.832 160.336 162.312 154.69 165.924L152.734 164.41L161.565 151.47L163.953 153.832Z" fill="#1F2254"/>
<path d="M161.709 152.858C161.709 152.858 178.861 170.994 186.744 171.898C194.633 172.803 198.394 168.77 199.84 163.562C201.286 158.348 161.703 144.176 161.703 144.176C161.703 144.176 158.341 142.512 155.914 147.028C153.003 152.456 148.391 161.828 148.391 161.828C148.391 161.828 151.282 164.329 153.382 164.888C153.389 164.881 161.271 157.098 161.709 152.858Z" fill="#3E3E54"/>
<path d="M160.479 150.596V151.463L169.487 157.576C169.487 157.576 174.02 154.585 179.587 154.724L182.4 147.229L173.628 140.169L170.854 141.594L168.624 147.393L160.479 150.596Z" fill="#4F81A3"/>
<path d="M188.575 158.392C188.575 158.392 194.992 161.91 195.28 165.667C195.568 169.423 190.178 171.666 179.587 168.594C179.587 168.594 185.285 174.003 193.324 171.289C193.324 171.289 198.61 169.737 199.84 163.556L190.341 156.815L188.575 158.392Z" fill="#1F2254"/>
<path d="M179.463 147.236L181.386 147.054L178.357 154.315C178.357 154.315 175.054 153.763 169.808 156.815L169.48 154.73L175.047 150.766L179.463 147.236Z" fill="#A8B6CC"/>
<path d="M167.93 146.915L170.357 140.659L179.463 147.236L176.434 152.751L167.93 146.915Z" fill="#F5F8FC"/>
<path d="M160.296 148.574L167.93 146.915L176.434 152.751C176.434 152.751 171.515 153.304 169.487 154.73L160.296 148.574Z" fill="white"/>
<path d="M170.357 140.658L172.921 140.42L181.393 147.053L179.463 147.236L170.357 140.658Z" fill="#CED9EA"/>
<path d="M169.814 156.815L160.479 150.596L160.296 148.574L169.487 154.73L169.814 156.815Z" fill="#CED9EA"/>
<path d="M192.369 136.751C192.369 136.751 195.463 137.43 195.934 136.418C196.405 135.413 196.51 134.992 196.51 134.992C196.51 134.992 198.244 134.056 200.814 140.03C203.385 146.004 202.155 157.682 201.318 159.454C200.487 161.225 200.742 162.13 201.102 163.342C201.462 164.561 199.074 164.869 198.06 163.518C197.046 162.161 189.7 157.852 189.7 157.852L193.972 150.835L189.883 149.673L188.51 154.799L186.181 153.781C186.181 153.781 187.064 151.777 186.371 150.458C185.677 149.139 190.204 143.334 190.57 141.318C190.937 139.302 190.577 138.089 192.369 136.751Z" fill="#FB765F"/>
<path d="M189.497 149.001C189.497 149.001 192.925 150.634 194.338 150.182C194.338 150.182 191.532 157.243 190.276 158.197C189.026 159.146 187.796 159.284 184.755 157.689C181.713 156.093 174.805 152.443 174.805 152.443C174.805 152.443 171.586 152.305 169.958 151.645C169.958 151.645 168.656 151.507 167.354 150.709C167.354 150.709 165.542 149.214 169.781 149.874C174.013 150.534 184.741 152.355 188.228 154.573C188.222 154.566 189.203 152.437 189.497 149.001Z" fill="#FAC2AE"/>
<path d="M171.005 148.706C171.005 148.706 171.508 149.817 173.196 150.584C174.877 151.35 171.168 150.496 171.168 150.496C171.168 150.496 170.534 149.729 170.717 149.001C170.9 148.272 171.005 148.706 171.005 148.706Z" fill="#FAC2AE"/>
<path d="M170.887 150.044L171.836 150.163C171.836 150.163 170.828 149.905 170.75 148.875C170.75 148.881 170.521 149.403 170.887 150.044Z" fill="#F1A080"/>
<path d="M167.773 150.898C167.773 150.898 169.199 151.407 169.742 151.382C170.285 151.357 174.289 152.029 174.773 152.249C175.257 152.468 176.317 153.229 176.317 153.229L174.805 152.431C174.805 152.431 171.633 152.318 169.958 151.633C169.958 151.639 168.356 151.457 167.773 150.898Z" fill="#F1A080"/>
<path d="M190.099 144.378L188.987 148.574L189.491 148.995C189.491 148.995 189.354 151.922 188.215 154.56L187.901 154.378L188.896 151.08C189.157 150.408 189 149.491 188.784 148.8C188.68 148.48 188.66 148.115 188.876 147.544L190.099 144.378Z" fill="#B03E45"/>
<path d="M196.445 146.011C196.379 145.772 195.359 149.975 195.359 149.975L194.338 150.182C194.338 150.182 192.036 156.483 190.276 158.197C190.276 158.197 192.88 159.498 193.357 160.226C193.357 160.226 191.421 157.588 195.45 151.589C195.45 151.583 196.948 147.92 196.445 146.011Z" fill="#B03E45"/>
<path d="M141.094 39.2216L142.223 41.201C142.223 41.201 142.82 40.9562 142.689 40.3477C142.558 39.7392 142.471 39.1516 142.471 39.1516L141.094 39.2216Z" fill="#F1A080"/>
<path d="M142.289 29.4572L148.101 26.9462L150.832 36.6965L143.622 39.3614L142.289 29.4572Z" fill="#AFBED3"/>
<path d="M140.438 29.534L142.988 38.9976L148.101 34.4512L144.466 24.7148L140.438 29.534Z" fill="#E8EFFF"/>
<path d="M134.903 28.9675L133.075 30.1076L136.323 39.9279L138.13 38.0743L134.903 28.9675Z" fill="#AFBED3"/>
<path d="M152.398 47.1952C152.398 47.1952 149.259 45.3977 148.29 41.6836C147.321 37.9695 146.192 36.116 146.192 36.116L145.224 36.9763C145.224 36.9763 144.495 35.8851 144.218 38.0534C143.934 40.2217 143.111 42.7328 145.056 44.1247C147.001 45.5166 148.45 48.3773 148.45 48.3773L152.398 47.1952Z" fill="#FAC2AE"/>
<path d="M144 39.4594C144 39.4594 145.165 41.6976 144.452 43.5512L146.032 44.978C146.032 44.978 147.482 46.6218 148.45 48.3844C149.419 50.147 148.997 47.7059 148.997 47.7059C148.997 47.7059 145.027 43.817 145.369 42.2502C145.712 40.6834 144.073 39.0048 144.073 39.0048L144 39.4594Z" fill="#F1A080"/>
<path d="M113.285 50.6225C113.285 50.6225 112.105 48.7899 111.566 47.1952C111.566 47.1952 111.617 54.5743 108.558 58.5472C108.558 58.5472 107.924 60.5197 107.509 61.1422C106.395 62.7929 108.23 63.3454 108.23 63.3454C108.23 63.3454 94.3911 67.3113 96.6491 63.9819C96.6491 63.9819 105.55 62.569 105.499 55.9173C105.448 49.2655 106.307 40.0748 108.827 39.1515C111.355 38.2282 115.382 40.3685 120.809 48.3772L113.285 50.6225Z" fill="#FAC2AE"/>
<path d="M120.132 35.4584C120.132 35.4584 120.372 39.9839 121.545 42.4249C122.71 44.859 127.262 40.0468 127.262 40.0468L125.653 31.9052C125.653 31.9052 125.172 28.2681 119.207 30.4364C113.242 32.6047 99.7523 36.6475 99.7523 36.6475C99.7523 36.6475 98.9875 37.3609 90.2035 37.326C81.4195 37.291 99.1041 42.1592 99.1041 42.1592C99.1041 42.1592 99.8324 39.1375 102.047 38.9627C104.261 38.7808 113.482 40.5224 120.132 35.4584Z" fill="#FAC2AE"/>
<path d="M167.548 26.1698C167.548 26.1698 165.129 28.9956 164.204 31.045C163.279 33.0943 160.096 33.0594 160.096 33.0594C160.096 33.0594 160.3 34.2554 161.59 34.9968C161.59 34.9968 162.15 35.3815 161.225 37.277C160.3 39.1725 162.471 41.8444 164.365 41.9983C164.365 41.9983 164.525 44.1666 161.662 45.5165C161.662 45.5165 163.192 48.1465 165.974 46.8315C165.974 46.8315 167.467 43.2713 168.757 42.9985C170.046 42.7257 173.87 43.0755 175.603 39.2425C177.337 35.4095 179.187 29.765 175.807 28.6389C172.42 27.5267 167.548 26.1698 167.548 26.1698Z" fill="#FAC2AE"/>
<path d="M171.896 30.5833C171.896 30.5833 173.914 35.2835 170.483 36.6894C170.483 36.6894 176.565 34.3743 174.795 38.9836C174.795 38.9836 174.315 40.8861 170.483 42.7956C170.483 42.7956 174.031 44.6282 178.138 40.4525C182.246 36.2768 181.722 33.7238 181.722 33.7238L171.896 30.5833Z" fill="#160C4F"/>
<path d="M191.504 44.0897L172.748 46.3699C172.748 46.3699 170.578 46.7056 170.316 45.2368C170.046 43.7679 172.858 43.7259 172.858 43.7259L191.161 41.4318L191.504 44.0897Z" fill="white"/>
<path d="M191.292 42.1877L170.33 44.6887L170.359 44.9178L191.321 42.4168L191.292 42.1877Z" fill="#CED9EA"/>
<path d="M191.356 42.6726L170.199 45.1969L170.229 45.426L191.386 42.9017L191.356 42.6726Z" fill="#CED9EA"/>
<path d="M191.407 43.1609L170.446 45.6619L170.475 45.8909L191.437 43.3899L191.407 43.1609Z" fill="#CED9EA"/>
<path d="M172.304 46.8315C171.357 46.8315 170.105 46.5238 169.879 45.3137C169.806 44.908 169.901 44.5303 170.163 44.2226C170.877 43.3902 172.61 43.3133 172.909 43.3063L191.839 41.0051L191.948 41.8445L172.974 44.1456H172.952C172.326 44.1596 171.204 44.3275 170.84 44.7542C170.738 44.8731 170.709 44.999 170.738 45.1598C170.935 46.202 172.741 45.9502 172.763 45.9502L192.203 43.656L192.312 44.4954L172.887 46.7895C172.719 46.8175 172.515 46.8315 172.304 46.8315Z" fill="#231F20"/>
<path d="M188.936 44.8233L169.268 47.1699L169.69 50.4324L189.358 48.0857L188.936 44.8233Z" fill="#4F81A3"/>
<path d="M189.92 49.6708L170.252 52.0175L170.936 57.3068L190.604 54.9601L189.92 49.6708Z" fill="#7BADC9"/>
<path d="M194.017 47.5022L172.824 50.0309L173.038 51.6899L194.232 49.1612L194.017 47.5022Z" fill="#2D2E75"/>
<path d="M112.637 50.1469C112.637 50.1469 115.324 45.4536 119.833 45.5025L121.443 47.2022C121.443 47.2022 120.372 42.1032 120.423 40.3476C120.423 40.3476 124.931 38.4941 127.408 39.4173C127.408 39.4173 129.607 48.657 134.444 50.1469C140.715 52.0843 133.315 61.0583 133.315 61.0583C133.315 61.0583 120.831 65.0731 116.286 57.2603C112.484 50.7204 112.637 50.1469 112.637 50.1469Z" fill="#FB765F"/>
<path d="M115.004 55.0081C115.004 55.0081 123.679 63.4644 133.104 59.0579L132.805 61.2121C132.805 61.2051 119.578 65.9264 115.004 55.0081Z" fill="#B03E45"/>
<path d="M162.792 44.831C162.792 44.831 163.345 46.8874 166.193 46.3488C166.193 46.3488 165.654 55.8963 154.11 58.2395C154.11 58.2395 144.117 60.6945 132.944 61.5828C132.944 61.5828 129.724 53.1195 133.373 49.5943C133.373 49.5943 142.667 50.1329 149.914 47.1952C157.169 44.2645 162.792 44.831 162.792 44.831Z" fill="#2569E3"/>
<path d="M146.396 40.0399C146.396 40.0399 145.063 38.585 145.231 36.9693L145.61 36.6335L146.396 40.0399Z" fill="#F1A080"/>
<path d="M125.412 50.1538C125.412 50.1538 123.06 48.8948 121.45 47.1951L121.049 45.1667C121.049 45.1667 123.795 49.5733 125.412 50.1538Z" fill="#B03E45"/>
<path d="M111.566 47.1953C111.566 47.1953 110.597 45.5446 110.627 44.7892C110.627 44.7892 111.268 52.2873 108.558 58.5543C108.558 58.5543 111.588 54.9592 111.566 47.1953Z" fill="#F1A080"/>
<path d="M120.401 33.0453C120.401 33.0453 120.052 34.4582 120.132 35.4584C120.132 35.4584 118.675 36.4586 118.223 36.6964C118.223 36.6964 118.872 35.1576 120.401 33.0453Z" fill="#F1A080"/>
<path d="M98.5723 36.9413C98.5723 36.9413 98.7689 39.0537 100.99 39.2845C100.99 39.2845 99.7813 42.2082 99.7813 43.1035C99.7886 43.9987 86.8529 40.0189 86.8529 40.0189C86.8529 40.0189 84.6387 38.8508 85.9279 36.9343H98.5723V36.9413Z" fill="#232F63"/>
<path d="M105.142 58.5542C105.142 58.5542 106.388 60.3098 108.442 59.4635C108.442 59.4635 108.879 62.583 109.337 63.3594C109.796 64.1428 96.4965 66.7517 96.4965 66.7517C96.4965 66.7517 93.9691 66.7727 94.1148 64.4995L105.142 58.5542Z" fill="#232F63"/>
<path d="M136.323 39.9279L137.772 38.2282C137.772 38.2282 141.079 37.4449 142.98 38.9976L142.849 39.7251C142.856 39.7251 142.339 38.7948 136.323 39.9279Z" fill="#94A7BF"/>
<path d="M140.438 29.5341L142.988 38.9976C142.988 38.9976 139.2 38.0253 136.971 38.9556L134.531 28.6877C134.524 28.6877 138.421 27.8344 140.438 29.5341Z" fill="#CED9EA"/>
<path d="M141.604 43.1944C141.604 43.1944 140.948 47.8737 138.37 51.5388C135.791 55.204 133.963 59.2328 136.811 60.0511C139.659 60.8695 148.625 59.8972 154.751 57.3722C154.751 57.3722 151.692 53.1965 152.223 50.5107C152.223 50.5107 146.826 54.2247 141.604 55.6656C141.604 55.6656 144.117 49.8812 144.277 44.0547C144.277 44.0547 145.187 42.1522 144.16 39.8301C143.133 37.5079 143.272 37.1022 143.272 37.1022C143.272 37.1022 142.565 36.7735 142.485 38.5501C142.405 40.3267 142.361 40.8723 142.361 40.8723C142.361 40.8723 142.296 41.3898 141.545 39.3824C141.509 39.2775 139.899 39.4174 139.899 39.4174C139.899 39.4174 141.626 42.1872 141.604 43.1944Z" fill="#FAC2AE"/>
<path d="M143.155 51.0631C143.155 51.0631 140.46 55.9453 139.36 56.309L141.604 55.6655C141.604 55.6655 143.111 51.8255 143.155 51.0631Z" fill="#F1A080"/>
<path d="M151.604 50.9163C151.604 50.9163 150.883 54.0638 152.063 56.0013C153.243 57.9388 146.316 59.6944 146.316 59.6944C146.316 59.6944 152.973 58.5053 154.751 57.3722C154.751 57.3722 151.633 53.1965 152.223 50.5106L151.604 50.9163Z" fill="#F1A080"/>
<path d="M151.051 51.266L152.223 50.5106V49.972L156.142 48.3843L142.755 52.518L141.597 55.6655C141.604 55.6655 148.589 53.3364 151.051 51.266Z" fill="#5890A8"/>
<path d="M164.97 50.5037C162.981 53.875 158.764 55.6866 158.494 55.7985H158.487H158.48L154.743 57.3582L154.583 57.0225L147.329 59.4985C147.329 59.4985 157.897 58.8201 161.889 54.6304C164.052 52.6859 164.97 50.5037 164.97 50.5037Z" fill="#5890A8"/>
<path d="M169.842 17C169.842 17 162.507 20.4413 168.312 28.1772C174.118 35.9131 181.001 36.8783 181.001 36.8783C181.001 36.8783 184.992 34.1714 181.001 29.3313C177.016 24.5051 168.072 27.8344 169.842 17Z" fill="#3E3E54"/>
<path d="M113.291 75.3117L112.255 64.9852L111.473 65.0576L112.508 75.3841L113.291 75.3117Z" fill="#FB765F"/>
<path d="M111.755 74.1477L111.011 66.7228L110.228 66.7952L110.972 74.2201L111.755 74.1477Z" fill="#FB765F"/>
<path d="M110.339 74.2759L109.595 66.851L108.812 66.9234L109.556 74.3483L110.339 74.2759Z" fill="#FB765F"/>
<path d="M47.7705 136.258C47.7705 136.258 38.2824 136.279 39.1463 138.978C40.0102 141.678 49.1908 139.597 49.1908 139.597C49.1908 139.597 49.1249 136.068 47.7705 136.258Z" fill="#FB765F"/>
<path d="M40.4424 137.277C40.4424 137.277 46.5336 136.433 47.2291 138.142C47.2291 138.142 47.7708 139.014 47.6464 139.899L49.9452 139.386L48.0051 135.808C47.9978 135.808 41.5406 136.567 40.4424 137.277Z" fill="#B03E45"/>
<path d="M46.5405 88.9214C46.5405 88.9214 43.839 101.907 52.4267 103.341C52.4267 103.341 53.5614 108.34 51.1894 108.649C48.8174 108.958 56.6436 112.122 58.2616 108.909C58.2616 108.909 55.6699 105.281 57.5588 101.133C58.2616 99.5937 59.1474 98.5672 59.9747 97.8853C62.376 95.9168 62.5737 92.3664 60.3701 90.1939C60.2968 90.1236 60.2236 90.0533 60.1504 89.983C57.1268 87.2341 46.5405 88.9214 46.5405 88.9214Z" fill="#FAC2AE"/>
<path d="M52.295 107.862C52.295 107.862 53.5469 109.893 55.6188 108.888C57.6906 107.883 57.6906 107.883 57.6906 107.883L59.5062 109.464C59.5062 109.464 56.7828 113.198 54.5426 112.396C52.2877 111.581 50.699 109.514 52.295 107.862Z" fill="#F1A080"/>
<path d="M57.7713 108.058C57.7713 108.058 61.8199 109.218 64.6824 109.528C67.5449 109.837 69.1629 114.765 69.8145 118.028C70.4587 121.297 73.0504 127.983 71.7033 129.227C70.3562 130.472 54.4036 134.57 54.4036 134.57L39.1465 130.788C39.1465 130.788 41.3574 118.189 43.5757 113.261C43.5757 113.261 44.2273 110.407 46.1454 109.837C48.0562 109.268 51.9877 108.269 51.9877 108.269C51.9877 108.269 52.5807 110.421 54.4109 110.329C54.4036 110.343 57.2149 110.751 57.7713 108.058Z" fill="#3E3E54"/>
<path d="M47.7708 136.257L48.3199 140.068C48.3199 140.068 61.8859 141.573 72.0841 136.595C82.1579 131.681 80.1227 125.642 69.4119 128.545C69.1411 128.615 68.8775 128.714 68.6286 128.826C66.6519 129.684 57.215 133.705 47.7708 136.257Z" fill="#14204C"/>
<path d="M47.7708 135.576L47.8733 136.982C47.8733 136.982 60.0775 134.507 63.6942 130.858C63.6942 130.865 51.7096 135.266 47.7708 135.576Z" fill="#0C1530"/>
<path d="M51.6729 132.18C51.6729 132.18 57.8812 129.016 60.2605 129.171C62.6399 129.326 63.0133 132.074 56.212 134.148C49.4034 136.222 49.2936 134.409 51.6729 132.18Z" fill="#FB765F"/>
<path d="M46.1382 115.855C46.1382 115.855 44.7618 122.907 44.8643 126.274L47.0753 126.998C47.0826 127.005 46.0577 125.501 46.1382 115.855Z" fill="#152049"/>
<path d="M64.1992 116.27C64.1992 116.27 66.952 123.736 66.6298 126.429L63.6062 127.519C63.5989 127.526 66.2491 125.135 64.1992 116.27Z" fill="#152049"/>
<path d="M37.7409 123.996C37.7409 123.996 49.2935 123.216 51.7754 130.064L37.631 127.526L37.7409 123.996Z" fill="#CED9EA"/>
<path d="M37.6305 127.526L51.7749 130.064V131.421L37.4182 128.665L37.6305 127.526Z" fill="#4F81A3"/>
<path d="M51.7751 130.064L64.1038 126.148L64.5211 127.526L51.6726 131.674L51.7751 130.064Z" fill="#4F81A3"/>
<path d="M51.7751 130.064C51.7751 130.064 52.478 122.028 62.032 120.784L62.6616 125.424L51.7751 130.064Z" fill="#A2B3CC"/>
<path d="M62.9037 123.476L63.7017 126.274L51.783 130.057C51.7756 130.064 55.4508 125.192 62.9037 123.476Z" fill="#CED9EA"/>
<path d="M49.8352 99.2772H46.5992C45.8744 99.2772 45.2888 98.7148 45.2888 98.0188V97.2946C45.2888 96.5986 45.8744 96.0362 46.5992 96.0362H49.8352C50.5599 96.0362 51.1456 96.5986 51.1456 97.2946V98.0188C51.1456 98.7148 50.5599 99.2772 49.8352 99.2772ZM46.5919 96.3737C46.0648 96.3737 45.6328 96.7884 45.6328 97.2946V98.0188C45.6328 98.5249 46.0648 98.9397 46.5919 98.9397H49.8278C50.355 98.9397 50.7869 98.5249 50.7869 98.0188V97.2946C50.7869 96.7884 50.355 96.3737 49.8278 96.3737H46.5919Z" fill="#2D2E75"/>
<path d="M56.8782 99.3827H53.6423C52.9175 99.3827 52.3318 98.8203 52.3318 98.1243V97.4001C52.3318 96.7041 52.9175 96.1417 53.6423 96.1417H56.8782C57.603 96.1417 58.1887 96.7041 58.1887 97.4001V98.1243C58.1887 98.8203 57.603 99.3827 56.8782 99.3827ZM53.6423 96.4791C53.1151 96.4791 52.6832 96.8939 52.6832 97.4001V98.1243C52.6832 98.6305 53.1151 99.0453 53.6423 99.0453H56.8782C57.4053 99.0453 57.8372 98.6305 57.8372 98.1243V97.4001C57.8372 96.8939 57.4053 96.4791 56.8782 96.4791H53.6423Z" fill="#2D2E75"/>
<path d="M52.3611 97.4916C52.2147 97.2877 52.039 97.1682 51.8486 97.1471C51.4679 97.1049 51.0946 97.4142 51.0872 97.4213L50.853 97.1682C50.8749 97.1541 51.3435 96.7463 51.8926 96.8096C52.1927 96.8447 52.449 97.0064 52.6613 97.3017L52.3611 97.4916Z" fill="#2D2E75"/>
<path d="M51.9804 108.276C51.9804 108.276 52.9761 108.712 54.4037 110.336C54.4037 110.336 51.1604 111.243 50.8383 113.577C50.8383 113.577 49.8646 110.182 51.9804 108.276Z" fill="#A7C7D2"/>
<path d="M57.7716 108.058C57.7716 108.058 56.1097 109.9 54.4039 110.336C54.4039 110.336 57.6105 111.862 58.5256 113.781C58.5256 113.781 59.6092 109.443 57.7716 108.058Z" fill="#A7C7D2"/>
<path d="M64.631 93.3718C64.631 92.4156 64.06 91.593 63.2327 91.1853C63.8257 90.7634 64.1991 90.1729 64.1991 89.512C64.1991 88.4926 63.3059 87.6279 62.076 87.3255C62.0686 86.8264 61.8124 86.3975 61.4317 86.1655C61.439 86.1093 61.4464 86.046 61.4464 85.9827C61.4464 84.8789 60.1432 83.9861 58.5326 83.9861C57.7712 83.9861 57.083 84.19 56.5632 84.5134C56.2996 83.3815 55.2454 82.5308 53.9935 82.5308C52.9466 82.5308 52.0388 83.1213 51.6141 83.972C51.1602 83.6275 50.5599 83.4166 49.9083 83.4166C48.6857 83.4166 47.6608 84.1548 47.3826 85.1531C47.119 85.0406 46.8261 84.9703 46.5187 84.9703C45.3693 84.9703 44.4395 85.8632 44.4395 86.967C44.4395 87.2271 44.4907 87.4732 44.5859 87.6982C43.3047 87.7474 42.2798 88.7598 42.2798 89.9971C42.2798 90.6299 42.5433 91.1993 42.9679 91.6141C42.2651 92.0008 41.7892 92.732 41.7892 93.5616C41.7892 94.806 42.8362 95.8113 44.132 95.8113C45.4278 95.8113 46.4747 94.806 46.4747 93.5616C46.4747 93.3999 46.4601 93.2522 46.4235 93.0976C46.7822 93.0343 47.0751 92.7882 47.1922 92.4578C47.3606 92.5 47.5436 92.5281 47.7266 92.5281C48.4221 92.5281 49.0298 92.1906 49.3885 91.6704C49.6448 91.7758 49.9303 91.8321 50.2231 91.8321C50.9918 91.8321 51.6654 91.4454 52.0827 90.8548C52.3023 91.129 52.6318 91.2978 52.9905 91.2978H52.9978C53.071 91.9868 53.6714 92.5211 54.4108 92.5211C54.7549 92.5211 55.0624 92.4086 55.3113 92.2117C55.4943 92.978 56.2045 93.5475 57.0537 93.5475C57.3465 93.5475 57.6247 93.4772 57.8737 93.3577C58.0347 93.6741 58.3349 93.9061 58.7009 93.9904C58.5472 94.1803 58.4594 94.4193 58.4594 94.6724C58.4594 95.2911 58.9865 95.7973 59.6307 95.7973C59.9162 95.7973 60.1725 95.6988 60.3775 95.5442C60.3043 95.734 60.2603 95.9379 60.2603 96.1558C60.2603 96.6269 60.458 97.0557 60.7728 97.3721C60.048 97.5689 59.5282 98.1103 59.5282 98.7501C59.5282 99.5515 60.3482 100.205 61.3512 100.205C62.3615 100.205 63.1741 99.5515 63.1741 98.7501C63.1741 98.3915 63.0057 98.0611 62.7349 97.808C63.4304 97.5549 63.9282 96.9151 63.9282 96.1558C63.9282 95.8324 63.833 95.5231 63.672 95.2629C64.2576 94.8341 64.631 94.1451 64.631 93.3718Z" fill="#3E3E54"/>
<path d="M27.1618 131.153C27.1618 131.153 26.3491 126.591 37.4186 128.665C48.4881 130.739 52.5073 131.568 52.5073 131.568L52.2072 135.442C52.2072 135.442 44.4834 137.326 34.7171 137.115C34.7171 137.115 27.2643 135.765 27.1618 131.153Z" fill="#14204C"/>
<path d="M51.8707 103.228C51.8707 103.228 53.2032 103.587 55.6118 102.968C55.6118 102.968 54.6674 104.17 52.5662 104.149L52.5077 103.39L51.8707 103.228Z" fill="#F1A080"/>
</svg>
