<svg width="257" height="183" viewBox="0 0 257 183" fill="none" xmlns="http://www.w3.org/2000/svg">
<path d="M64.1774 2.70114C83.9401 0.320431 98.6188 15.676 131.465 9.84328C145.895 7.29592 145.122 3.96292 159.726 1.60602C168.025 0.272816 199.501 -4.7981 226.665 14.3666C230.553 17.1045 252.509 32.5791 256.322 57.6956C260.01 81.8836 243.113 90.3352 245.107 121.499C246.503 143.211 255.125 145.853 251.836 155.543C242.39 183.445 160.897 191.111 93.3355 172.208C57.5732 162.209 18.1475 151.186 4.6152 117.213C-14.1008 70.2419 27.7921 7.10546 64.1774 2.70114Z" fill="#DBE8FE"/>
<path d="M129.768 128.458H80.9284L71.6084 151H46.6682L93.5575 45.8062H117.602L164.636 151H139.088L129.768 128.458ZM122.11 109.97L105.428 69.6988L88.7457 109.97H122.11Z" fill="#8FB4EA"/>
<path d="M247.584 131.161V151H168.089V135.221L208.664 96.9003C212.97 92.7966 215.874 89.2637 217.377 86.3087C218.88 83.3537 219.631 80.4277 219.631 77.5161C219.631 73.3112 218.201 70.0745 215.347 67.8203C212.493 65.5662 208.31 64.4391 202.797 64.4391C198.188 64.4391 194.026 65.3133 190.327 67.0689C186.621 68.8246 183.514 71.4544 181.007 74.9585L163.277 63.536C167.381 57.4238 173.045 52.6409 180.256 49.1874C187.466 45.734 195.738 44 205.059 44C212.876 44 219.711 45.2788 225.57 47.8292C231.429 50.3795 235.988 53.992 239.246 58.652C242.498 63.312 244.13 68.7957 244.13 75.1102C244.13 80.8178 242.931 86.1787 240.525 91.1927C238.119 96.2067 233.459 101.914 226.552 108.323L202.356 131.168H247.584V131.161Z" fill="#8FB4EA"/>
<path d="M113.802 128.605C113.802 128.605 104.408 135.508 101.632 137.897C98.856 140.285 89.5958 141.483 88.8048 143.736C88.0139 145.99 88.8048 148.648 91.0509 148.648C93.2969 148.648 100.572 148.116 106.788 148.648C113.004 149.18 115.25 149.973 118.033 143.736C120.809 137.5 121.473 135.77 121.473 135.77C121.473 135.77 115.66 134.445 113.802 128.605Z" fill="#EADEDC"/>
<path d="M172.131 70.3481C172.131 70.3481 162.08 74.3312 160.759 77.9101C159.439 81.4964 156.79 93.1687 156.79 93.1687L156.26 108.959C156.26 108.959 171.87 116.521 177.817 119.576C183.772 122.63 191.308 130.859 190.517 137.889C189.726 144.919 187.406 145.384 187.406 145.384C187.406 145.384 195.539 138.825 196.733 126.217C197.927 113.608 195.808 93.1687 195.017 89.1931C194.226 85.21 193.301 80.1712 190.256 75.7912C187.212 71.4113 180.862 68.8881 180.862 68.8881L172.131 70.3481Z" fill="#F5EBE9"/>
<path d="M164.334 80.9647L162.64 88.317C162.379 89.5449 162.103 90.7578 161.886 91.9857C161.662 93.2136 161.468 94.404 161.424 95.6694C161.066 100.678 160.61 105.68 159.782 110.673C159.648 105.627 159.879 100.581 160.215 95.5421C160.357 92.9965 161.013 90.4808 161.722 88.07C162.439 85.6516 163.319 83.2782 164.334 80.9647Z" fill="#C4BEA9"/>
<path d="M188.876 143.736C189.346 142.816 190.13 141.393 190.525 137.896C191.316 130.866 183.78 122.638 177.825 119.583C171.87 116.528 156.268 108.966 156.268 108.966C156.268 108.966 140.695 97.2641 135.247 97.9379C129.808 98.6118 102.296 128.605 102.296 128.605C102.296 128.605 104.146 134.707 109.967 135.77C109.967 135.77 119.488 129.399 126.368 125.685C133.248 121.971 136.688 116.394 136.688 116.394C136.688 116.394 148.007 137.627 159.782 143.729C171.557 149.831 182.63 149.554 185.421 147.443C185.72 147.225 188.6 144.141 188.876 143.736Z" fill="#3E3E54"/>
<path d="M135.247 97.938C137.053 97.7134 139.986 98.8589 143.09 100.484C138.292 97.7134 133.516 95.4223 131.397 95.8192C129.718 96.1336 127.069 100.506 124.301 106.181C129.174 101.644 133.442 98.1626 135.247 97.938Z" fill="#3E3E54"/>
<path d="M126.368 125.685C121.794 128.156 116.07 131.787 112.735 133.958C112.735 133.958 115.794 137.635 120.548 137.897C120.548 137.897 134.039 123.828 136.688 116.394C136.688 116.401 133.248 121.972 126.368 125.685Z" fill="#3E3E54"/>
<path d="M146.478 93.835C142.374 92.2403 138.411 90.1214 136.688 87.9951C136.046 87.2015 135.867 86.5501 135.889 86.0559L132.718 80.9647C132.718 80.9647 131.726 85.3746 132.718 88.1673C133.71 90.9525 140.851 94.8383 140.851 94.8383L144.56 101.292C150.365 104.542 156.26 108.974 156.26 108.974V101.876C152.38 98.17 148.627 94.6736 146.478 93.835Z" fill="#FFAE85"/>
<path d="M132.718 80.9648L126.368 67.7576L135.247 55.314L136.687 55.913L128.651 67.6602L143.552 68.8881L152.357 91.252L137.486 88.8412L132.718 80.9648Z" fill="#4D5282"/>
<path d="M136.688 55.913L139.366 56.8115L133.695 65.4665L145.582 66.1703L153.551 85.6742L152.357 91.252L143.552 68.8881L128.651 67.6603L136.688 55.913Z" fill="#FFF9D9"/>
<path d="M102.296 128.605C102.296 128.605 92.9012 135.508 90.1253 137.897C87.3495 140.285 78.0893 141.483 77.2984 143.736C76.5074 145.99 77.2984 148.648 79.5444 148.648C81.7904 148.648 89.0658 148.116 95.2815 148.648C101.497 149.18 103.743 149.973 106.527 143.736C109.302 137.5 109.966 135.77 109.966 135.77C109.966 135.77 104.146 134.445 102.296 128.605Z" fill="#F5EBE9"/>
<path d="M155.603 41.9496C155.603 41.9496 156.529 52.5663 156.797 57.4778C157.059 62.3894 158.118 67.9597 164.602 67.6977C171.087 67.4357 172.139 67.0314 172.139 67.0314V71.6733L169.893 77.9101C169.893 77.9101 177.698 76.0533 180.869 68.8881V60.6598C180.869 60.6598 184.705 57.3431 183.384 52.4315C182.063 47.52 174.922 48.5832 175.183 58.2715L173.064 58.4062L172.273 48.0516C172.273 48.0516 167.117 44.338 165.132 39.9581C165.125 39.9581 159.573 41.9496 155.603 41.9496Z" fill="#FFC7AE"/>
<path d="M181.921 35.0465C181.921 35.0465 180.332 31.3329 174.915 30.6666C169.49 30.0002 163.804 30.5318 161.424 30.6666C159.043 30.8014 155.193 29.1018 153.357 30.6666C153.357 30.6666 149.388 32.5234 149.783 38.4981C150.044 42.4438 153.529 44.2931 155.872 45.1017C155.715 43.2374 155.603 41.9496 155.603 41.9496C159.573 41.9496 165.125 39.9581 165.125 39.9581C167.109 44.338 172.266 48.0516 172.266 48.0516L173.057 58.4062L175.176 58.2715C174.915 48.5832 182.056 47.52 183.376 52.4315C183.623 53.3375 183.69 54.1835 183.638 54.9697L183.652 54.9472C183.652 54.9472 185.488 49.5041 186.421 42.7358C187.346 35.9749 181.921 35.0465 181.921 35.0465Z" fill="#14204C"/>
<path d="M172.131 67.0313C172.131 67.0313 175.728 65.9007 176.676 65.1745C176.676 65.1745 174.646 67.8324 172.131 68.8881V67.0313Z" fill="#FFAE85"/>
<path d="M176.676 85.4795C176.676 85.4795 173.982 95.1678 172.93 100.873C172.93 100.873 167.774 96.8899 160.894 94.5015C154.014 92.1131 152.955 89.7247 152.955 89.7247C152.955 89.7247 152.559 86.1384 151.761 83.75C150.97 81.3617 148.589 80.9648 148.589 80.9648L149.753 84.2816C149.753 84.2816 149.649 85.3448 148.589 85.7416C147.53 86.1384 141.448 80.6953 140.128 80.9648C138.807 81.2269 138.672 82.29 138.672 82.29C138.672 82.29 136.426 80.2985 135.501 80.9648C134.576 81.6312 136.561 84.8132 136.561 84.8132C136.561 84.8132 134.971 85.8764 136.695 87.9952C138.411 90.1215 142.381 92.2404 146.485 93.8351C150.582 95.4299 160.506 106.675 166.058 110.674C171.609 114.672 177.698 117.457 180.869 112.014C184.041 106.571 186.533 89.7172 186.533 89.7172C186.533 89.7172 181.616 88.6616 176.676 85.4795Z" fill="#FFC7AE"/>
<path d="M179.28 76.4501C178.698 79.5422 177.981 82.5895 177.19 85.6217L177.004 85.0527C177.69 85.5394 178.474 85.9811 179.242 86.3929C180.019 86.8047 180.809 87.1866 181.63 87.5235C183.25 88.2198 184.936 88.7514 186.645 89.1856L186.07 89.4252C186.921 88.0775 187.697 86.61 188.353 85.1201C189.01 83.6227 189.547 82.0654 189.861 80.4257C189.861 82.0953 189.54 83.7724 189.032 85.3747C188.51 86.9844 187.853 88.5193 186.988 90.0092L186.801 90.3236L186.406 90.2488C184.608 89.9044 182.847 89.3428 181.153 88.639C179.466 87.8978 177.855 87.0443 176.347 85.8913L176.056 85.6667L176.168 85.3223C177.108 82.3424 178.131 79.3775 179.28 76.4501Z" fill="#C4BEA9"/>
<path d="M139.366 56.8115L143.09 66.0206L133.695 65.4665L139.366 56.8115Z" fill="#E5DAAE"/>
</svg>
