<svg width="257" height="183" viewBox="0 0 257 183" fill="none" xmlns="http://www.w3.org/2000/svg">
<path d="M64.1774 2.70114C83.9401 0.320431 98.6188 15.676 131.465 9.84328C145.895 7.29592 145.122 3.96292 159.726 1.60602C168.025 0.272816 199.501 -4.7981 226.665 14.3666C230.553 17.1045 252.509 32.5791 256.322 57.6956C260.01 81.8836 243.113 90.3352 245.107 121.499C246.503 143.211 255.125 145.853 251.836 155.543C242.39 183.445 160.897 191.111 93.3355 172.208C57.5732 162.209 18.1475 151.186 4.6152 117.213C-14.1008 70.2419 27.7921 7.10546 64.1774 2.70114Z" fill="#DBE8FE"/>
<path d="M129.004 106.429C132.542 111.064 134.315 116.766 134.315 123.543C134.315 133.129 130.589 140.498 123.144 145.652C115.691 150.806 104.836 153.39 90.5619 153.39H34V44H87.4442C100.779 44 111.011 46.5543 118.148 51.6553C125.285 56.7638 128.853 63.6903 128.853 72.4349C128.853 77.7463 127.576 82.4867 125.022 86.6562C122.468 90.8256 118.899 94.1086 114.316 96.4976C120.567 98.4809 125.465 101.794 129.004 106.429ZM59.1595 63.0668V88.8498H84.319C90.5694 88.8498 95.3098 87.753 98.5402 85.5668C101.771 83.3807 103.386 80.1503 103.386 75.8757C103.386 71.6086 101.771 68.4007 98.5402 66.2671C95.3098 64.1336 90.5694 63.0668 84.319 63.0668H59.1595ZM103.769 131.04C107.15 128.854 108.847 125.466 108.847 120.883C108.847 111.823 102.131 107.286 88.6912 107.286H59.1595V134.316H88.6912C95.3549 134.316 100.381 133.226 103.769 131.04Z" fill="#8FB4EA"/>
<path d="M188.856 44V153.382H163.539V64.3139H141.662V44H188.856Z" fill="#8FB4EA"/>
<path d="M173.55 57.5534C173.55 57.5534 167.505 64.6067 164.378 71.5266C161.252 78.4525 149.801 112.912 150.05 118.807C150.3 124.702 154.323 151.824 177.116 152.491C199.908 153.158 219.343 143.151 222.25 124.254C225.157 105.356 218.673 93.7903 219.569 81.0058C220.465 68.2213 221.355 45.7636 192.199 50.209C175.994 52.4408 173.55 57.5534 173.55 57.5534Z" fill="#2569E3"/>
<path d="M168.9 113.725C168.9 113.725 144.267 113.307 138.234 115.308C132.2 117.309 119.463 136.486 115.776 144.158C113.265 148.992 113.094 150.829 113.094 150.829C113.094 150.829 118.122 154.498 122.48 152.831C122.48 152.831 134.711 142.824 137.392 138.154C140.074 133.484 142.085 128.317 142.085 128.317L151.83 130.985C151.83 130.985 147.619 135.485 143.426 140.489C139.239 145.492 123.644 158.835 123.644 158.835C123.644 158.835 125.332 164.669 129.689 165.506C129.689 165.506 142.762 157.003 150.136 152.831C157.51 148.664 161.532 145.492 161.532 145.492C161.532 145.492 166.475 137.153 172.045 131.653C177.615 126.152 187.001 122.816 187.001 122.816L182.448 112.167L168.9 113.725Z" fill="#3E3E54"/>
<path d="M180.437 79.344C180.437 79.344 175.854 78.6466 173.008 79.344C170.162 80.0415 165.804 84.5415 160.941 92.4621C156.078 100.383 152.732 107.721 153.482 108.97C154.237 110.22 159.765 114.805 161.776 114.805C163.787 114.805 168.9 113.719 168.9 113.719L179.962 115.551C179.962 115.551 183.478 120.639 187.001 122.804C190.517 124.969 194.795 126.303 198.982 124.89C203.169 123.471 203.925 119.056 203.925 115.551C203.925 112.051 202.419 94.9547 201.664 91.9526C200.908 88.9506 199.567 85.6999 195.21 83.7834C190.852 81.867 187.165 80.0051 187.165 80.0051L180.437 79.344Z" fill="#FB765F"/>
<path d="M175.994 52.4408C175.994 52.4408 172.533 63.7819 172.082 68.2274C171.637 72.6728 174.653 75.5657 181.241 76.1237L180.01 81.0179C180.01 81.0179 179.565 83.6864 182.582 83.0193C185.599 82.3522 187.165 80.0172 187.165 80.0172L188.731 74.7288C188.731 74.7288 193.314 74.4377 194.32 69.8345C195.325 65.2314 191.078 63.5636 189.067 66.3412C187.055 69.1189 187.055 69.1189 187.055 69.1189L185.379 68.6762L187.055 62.2293C187.055 62.2293 184.264 59.4517 185.27 54.4483C185.27 54.4483 180.132 54.2239 179.572 51.3371C179.572 51.331 178.005 53.108 175.994 52.4408Z" fill="#FFC7AE"/>
<path d="M203.699 54.8849C202.468 47.5466 198.111 47.213 198.111 47.213C198.111 47.213 198.891 39.8747 189.511 39.0984C189.511 39.0984 186.269 36.2055 181.577 37.2062C176.884 38.2069 176.884 40.2082 176.884 40.2082C176.884 40.2082 171.411 40.651 170.07 44.4354C168.772 48.0863 169.565 52.5743 175.068 55.5763C175.604 53.7144 175.994 52.4348 175.994 52.4348C178.005 53.1019 179.572 51.3249 179.572 51.3249C180.132 54.2178 185.27 54.4361 185.27 54.4361C184.264 59.4395 187.055 62.2172 187.055 62.2172L185.379 68.664L187.055 69.1068C187.055 69.1068 187.055 69.1068 189.067 66.3291C191.078 63.5514 195.325 65.2192 194.32 69.8224C194.192 70.4107 194.003 70.9322 193.771 71.3871C193.771 71.3871 195.99 72.2058 199.567 69.8224C199.567 69.8224 201.578 69.1068 201.133 64.9949C201.133 65.0009 204.93 62.2233 203.699 54.8849Z" fill="#020D32"/>
<path d="M181.248 76.1237C181.248 76.1237 182.978 76.2874 183.984 76.1237C183.984 76.1237 182.46 77.4518 180.918 77.4336L181.248 76.1237Z" fill="#9B6459"/>
<path d="M155.493 106.969L154.908 84.9539C154.908 84.9539 165.128 86.7066 169.906 91.2916C169.906 91.2916 170.491 92.8745 172.673 91.7889C172.673 91.7889 186.415 87.7862 192.193 87.7862L191.608 112.633C191.608 112.633 186.495 113.464 173.172 116.8C173.172 116.8 170.156 118.553 169.065 115.969C169.071 115.975 163.623 109.807 155.493 106.969Z" fill="#CD9A79"/>
<path d="M172.673 91.795C172.673 91.795 186.415 87.7922 192.193 87.7922L187.586 86.1244C187.586 86.1244 180.126 87.0402 172.039 89.5449C172.039 89.5449 165.463 84.5355 157.754 83.1224L154.908 84.96C154.908 84.96 165.128 86.7127 169.906 91.2977C169.906 91.2977 170.491 92.8806 172.673 91.795Z" fill="#FFF9D9"/>
<path d="M183.253 118.813C183.253 118.813 180.023 117.983 178.286 116.982C176.543 115.981 173.593 111.815 173.55 110.729C173.508 109.644 174.848 110.232 174.848 110.232C174.848 110.232 174.178 108.146 174.763 107.478C175.348 106.811 177.597 110.311 178.401 111.311C178.401 111.311 177.615 108.139 177.95 107.394C178.286 106.641 179.206 107.06 180.211 109.146C181.217 111.233 184.398 114.138 184.398 114.138L188.914 113.167C188.914 113.167 188.091 114.902 187.001 115.32C187.001 115.308 186.97 118.31 183.253 118.813Z" fill="#FFC7AE"/>
<path d="M198.897 118.061C198.732 117.552 198.324 117.182 197.879 116.933C197.434 116.673 196.934 116.527 196.435 116.412C195.417 116.212 194.369 116.2 193.314 116.236C192.242 116.26 191.169 116.242 190.103 116.121C189.042 115.993 187.945 115.823 187.001 115.308C187.506 115.484 188.031 115.557 188.555 115.611C189.079 115.672 189.603 115.702 190.133 115.72C191.187 115.757 192.248 115.757 193.302 115.72C194.369 115.696 195.472 115.733 196.532 116.024C197.056 116.181 197.574 116.394 198.019 116.721C198.446 117.061 198.842 117.516 198.897 118.061Z" fill="#DD5543"/>
<path d="M192.949 106.557C193.247 108.115 193.393 109.68 193.497 111.251C193.589 112.821 193.637 114.398 193.534 115.975C193.235 114.416 193.089 112.846 192.985 111.281C192.894 109.71 192.845 108.139 192.949 106.557Z" fill="#DD5543"/>
<path d="M155.785 111.269C155.785 111.269 158.314 110.007 158.369 108.158C158.369 108.158 157.644 104.974 158.369 103.973C159.095 102.972 160.185 99.5518 160.35 98.2176C160.515 96.8833 159.515 97.4655 159.009 98.2176C158.509 98.9696 158.077 100.134 158.077 100.134C158.077 100.134 159.095 96.3011 159.095 94.2998C159.095 92.2984 158.314 92.7169 158.077 93.2142C157.839 93.7115 156.413 96.9682 156.413 96.9682C156.413 96.9682 156.504 93.3112 155.785 92.1771C155.066 91.043 154.487 92.4621 154.402 94.882C154.317 97.3018 153.981 100.219 153.061 102.263C152.141 104.307 149.795 107.721 155.785 111.269Z" fill="#FFC7AE"/>
<path d="M151.83 130.985C153.232 129.954 154.664 128.972 156.102 128.002C157.54 127.025 158.991 126.067 160.453 125.133C161.947 124.241 163.44 123.35 164.957 122.495L167.23 121.215C167.998 120.803 168.754 120.378 169.528 119.978C168.815 120.475 168.084 120.942 167.358 121.427L165.164 122.828C163.702 123.762 162.215 124.66 160.734 125.564C159.265 126.485 157.802 127.431 156.315 128.329C154.834 129.233 153.347 130.13 151.83 130.985Z" fill="#ADA895"/>
<path d="M124.046 159.926C124.046 159.926 118.463 163.614 114.325 165.506C110.187 167.398 103.38 169.4 102.929 171.286C102.484 173.178 101.923 177.623 106.506 178.733C111.089 179.843 114.325 177.175 118.012 176.174C121.699 175.173 123.26 174.73 124.046 173.396C124.826 172.062 129.689 165.5 129.689 165.5C129.689 165.5 126.392 165.579 124.046 159.926Z" fill="white"/>
<path d="M114.155 151.49C114.155 151.49 110.754 155.499 105.391 156.718C100.028 157.943 95.451 160.054 95 164.948C95 164.948 105.61 165.057 110.973 164.172C116.336 163.28 119.365 162.825 119.365 162.825C119.365 162.825 121.638 158.762 121.443 153.128C121.443 153.128 118.11 153.267 114.155 151.49Z" fill="white"/>
</svg>
