<svg width="243" height="178" viewBox="0 0 243 178" fill="none" xmlns="http://www.w3.org/2000/svg">
<path d="M182.654 172.712C164.296 175.22 150.435 160.804 119.948 166.754C106.556 169.354 107.319 172.513 93.761 174.934C86.0566 176.304 56.8358 181.513 31.3058 163.63C27.652 161.076 7.01732 146.636 3.13668 122.807C-0.615699 99.8593 14.9946 91.6164 12.7267 62.0165C11.1405 41.3938 3.08208 38.9883 6.01472 29.7366C14.4338 3.09591 90.161 -5.19805 153.277 11.9368C186.686 21.0002 223.518 30.9916 236.559 63.1195C254.597 107.54 216.452 168.076 182.654 172.712Z" fill="#DBE8FE"/>
<path d="M89.5701 149.05H24.3881C21.761 149.05 19.6309 146.967 19.6309 144.398V136.84C19.6309 134.271 21.761 132.187 24.3881 132.187H89.5819V149.05H89.5701Z" fill="#FB765F"/>
<path d="M100.777 133.924V147.314H101.925V149.05H54.6595C52.0323 149.05 49.9022 146.967 49.9022 144.398V136.84C49.9022 134.271 52.0323 132.187 54.6595 132.187H101.913V133.924H100.777Z" fill="#FB765F"/>
<path d="M100.765 147.315H58.1508C55.5237 147.315 53.3936 145.231 53.3936 142.662V138.576C53.3936 136.007 55.5237 133.924 58.1508 133.924H100.777V147.315H100.765Z" fill="#EFF7FE"/>
<path d="M92.6235 132.187H21.2523C17.9506 132.187 15.2761 129.572 15.2761 126.343V118.426C15.2761 115.197 17.9506 112.581 21.2523 112.581H92.6235V132.187Z" fill="url(#paint0_linear)"/>
<path d="M105.286 114.607V130.174H106.268V132.187H67.4524C64.1507 132.187 61.4762 129.572 61.4762 126.343V118.426C61.4762 115.197 64.1507 112.581 67.4524 112.581H106.268V114.595H105.286V114.607Z" fill="#5284FC"/>
<path d="M105.286 130.174H70.4584C67.1567 130.174 64.4822 127.558 64.4822 124.329V120.452C64.4822 117.223 67.1567 114.607 70.4584 114.607H105.286V130.174Z" fill="#EFF7FE"/>
<path d="M41.2042 112.582H95.4515C99.0254 112.582 101.925 109.746 101.925 106.251V94.8736C101.925 91.3784 99.0254 88.5428 95.4515 88.5428H41.2042V112.582Z" fill="#FB765F"/>
<path d="M31.4887 91.0196V110.105H30.4947V112.582H69.1684C72.7422 112.582 75.6416 109.746 75.6416 106.251V94.8736C75.6416 91.3784 72.7422 88.5428 69.1684 88.5428H30.4947V91.0196H31.4887Z" fill="#FB765F"/>
<path d="M31.4888 110.105H65.6892C69.2394 110.105 72.1151 107.292 72.1151 103.82V97.304C72.1151 93.8319 69.2394 91.0195 65.6892 91.0195H31.4888V110.105Z" fill="#EFF7FE"/>
<path d="M81.8187 88.5426H24.3052C20.5538 88.5426 17.5006 85.5681 17.5006 81.8877V71.1588C17.5006 67.4899 20.542 64.5038 24.3052 64.5038H81.8187V88.5426Z" fill="#669DBC"/>
<path d="M92.1145 66.9806V86.0658H93.1677V88.5426H52.1509C48.3995 88.5426 45.3463 85.5681 45.3463 81.8877V71.1588C45.3463 67.4899 48.3877 64.5038 52.1509 64.5038H93.1677V66.9806H92.1145Z" fill="#669DBC"/>
<path d="M92.1144 86.0659H55.6892C51.9497 86.0659 48.9202 83.103 48.9202 79.4457V73.601C48.9202 69.9437 51.9497 66.9808 55.6892 66.9808H92.1144V86.0659Z" fill="#EFF7FE"/>
<path d="M98.0435 64.504H37.9502C35.6189 64.504 33.7254 62.6522 33.7254 60.3721V50.4418C33.7254 48.1618 35.6189 46.31 37.9502 46.31H98.0435V64.504Z" fill="url(#paint1_linear)"/>
<path d="M108.339 48.1849V62.629H109.392V64.504H65.7836C63.4523 64.504 61.5588 62.6522 61.5588 60.3721V50.4418C61.5588 48.1618 63.4523 46.31 65.7836 46.31H109.38V48.1849H108.339Z" fill="#5284FC"/>
<path d="M108.339 62.6291H68.9906C66.6593 62.6291 64.7659 60.7773 64.7659 58.4972V52.3168C64.7659 50.0368 66.6593 48.185 68.9906 48.185H108.339V62.6291Z" fill="#EFF7FE"/>
<path d="M213.509 77.6219L147.037 77.9524C144.269 77.9651 142.021 75.779 142.008 73.0846L141.787 30.2912C141.774 27.584 144.01 25.3852 146.765 25.3725L213.223 25.0294C215.992 25.0166 218.24 27.2027 218.253 29.8972L218.474 72.6906C218.5 75.3977 216.264 77.6092 213.509 77.6219Z" fill="#2569E3"/>
<path d="M189.433 24.3979L170.784 24.4918L170.806 28.6098L189.455 28.5158L189.433 24.3979Z" fill="#706865"/>
<path d="M161.488 35.5784C161.488 35.5784 161.514 47.5382 160.176 52.3297L157.304 54.1091L147.141 54.1599C149.051 49.1269 149.025 35.6419 149.025 35.6419L161.488 35.5784Z" fill="white"/>
<path d="M157.304 54.1091V52.2916L160.189 52.2789L157.304 54.1091Z" fill="#C9C9C9"/>
<path d="M173.782 32.6299C173.782 32.6299 173.795 40.9039 172.872 44.2084L170.884 45.4412L163.854 45.4793C165.166 41.9969 165.153 32.668 165.153 32.668L173.782 32.6299Z" fill="white"/>
<path d="M170.884 45.4538V44.1956H172.872L170.884 45.4538Z" fill="#C9C9C9"/>
<path d="M191.027 34.7522C191.027 34.7522 191.053 46.0765 189.792 50.6266L187.063 52.3169L177.434 52.3678C179.24 47.589 179.214 34.8285 179.214 34.8285L191.027 34.7522Z" fill="white"/>
<path d="M187.077 52.3042L187.064 50.5884L189.793 50.5757L187.077 52.3042Z" fill="#C9C9C9"/>
<path d="M203.321 49.1778C203.321 49.1778 203.334 56.829 202.489 59.892L200.644 61.0359L194.133 61.074C195.355 57.8458 195.342 49.2286 195.342 49.2286L203.321 49.1778Z" fill="white"/>
<path d="M200.644 61.0359V59.8793L202.489 59.8666L200.644 61.0359Z" fill="#C9C9C9"/>
<path d="M203.321 33.4814C203.321 33.4814 203.334 41.1327 202.489 44.1957L200.644 45.3396L194.133 45.3777C195.355 42.1494 195.342 33.5323 195.342 33.5323L203.321 33.4814Z" fill="white"/>
<path d="M200.644 45.3396V44.183L202.489 44.1703L200.644 45.3396Z" fill="#C9C9C9"/>
<path d="M213.432 41.0437C213.432 41.0437 213.445 46.9156 212.795 49.2796L211.378 50.1565L206.388 50.1819C207.324 47.7036 207.311 41.0818 207.311 41.0818L213.432 41.0437Z" fill="white"/>
<path d="M211.378 50.1438L211.365 49.2542L212.781 49.2415L211.378 50.1438Z" fill="#C9C9C9"/>
<path d="M173.34 50.6266C173.34 50.6266 173.353 56.7273 172.573 59.1675L170.91 60.0826L165.01 60.1081C166.115 57.5407 166.102 50.6648 166.102 50.6648L173.34 50.6266Z" fill="white"/>
<path d="M170.91 60.0827L170.897 59.1548H172.573L170.91 60.0827Z" fill="#C9C9C9"/>
<path d="M165.4 64.7979H147.622V65.7003H165.4V64.7979Z" fill="white"/>
<path d="M168.129 71.0764H147.622V71.9787H168.129V71.0764Z" fill="white"/>
<path d="M160.254 67.937H147.622V68.8394H160.254V67.937Z" fill="white"/>
<path d="M145.971 83.4366H122.767V84.7911H145.971V83.4366Z" fill="#FFAA55"/>
<path d="M125.884 149.555H127.917L127.917 88.2739H125.884L125.884 149.555Z" fill="#3E3E54"/>
<path d="M158.48 83.0475H142.347V84.9783H158.48V83.0475Z" fill="#CCBDB7"/>
<path d="M153.471 66.636H147.357V84.7768H153.471V66.636Z" fill="#FB765F"/>
<path d="M203.827 84.8055H114.443V88.2925H203.827V84.8055Z" fill="#3E3E54"/>
<path d="M97.2943 63.711C97.2943 63.711 96.3219 77.1256 98.9886 78.725C100.668 79.7337 107.357 83.1197 107.165 83.7537C106.974 84.3877 103.394 89.4164 103.394 89.4164C103.394 89.4164 90.5466 81.1457 90.1341 78.5377C89.7363 75.9873 90.7676 58.9128 92.5355 58.1204C93.8615 57.5296 94.554 58.0195 96.2188 59.2298C98.5466 60.9157 97.2943 63.711 97.2943 63.711Z" fill="#FB765F"/>
<path d="M120.705 67.5435L121.839 67.1401C121.839 67.1401 120.425 63.8981 119.806 63.9702C119.099 64.0566 118.215 64.2872 118.215 64.2872L120.705 67.5435Z" fill="#EAD8CF"/>
<path d="M120.97 68.1055C120.822 68.0046 118.568 63.754 118.568 63.754L113.736 64.4024L116.344 69.4311L120.97 68.1055Z" fill="#DA9B5B"/>
<path d="M113.102 141.202C113.102 141.202 112.705 143.911 112.646 144.329C112.601 144.732 108.196 144.084 108.196 144.084L107.843 140.856C107.843 140.842 112.557 140.813 113.102 141.202Z" fill="#424773"/>
<path d="M112.705 143.968C112.705 143.968 114.105 145.597 115.445 146.317C116.786 147.023 118.907 147.311 119.703 148.046C120.278 148.579 121.795 150.87 116.197 150.827C110.598 150.784 107.902 151.144 107.313 150.265C106.709 149.386 108.182 143.781 108.182 143.781C108.182 143.781 109.493 144.257 112.705 143.968Z" fill="#292C47"/>
<path d="M141.257 141.216C141.257 141.216 140.859 143.925 140.8 144.343C140.756 144.746 136.351 144.098 136.351 144.098L135.998 140.871C136.012 140.871 140.712 140.842 141.257 141.216Z" fill="#424773"/>
<path d="M140.859 143.997C140.859 143.997 142.259 145.625 143.6 146.346C144.94 147.052 149.905 147.643 150.701 148.377C151.276 148.911 152.233 151.058 144.366 150.856C138.767 150.712 136.071 151.173 135.467 150.294C134.863 149.415 136.336 143.81 136.336 143.81C136.336 143.81 137.589 144.314 140.859 143.997Z" fill="#292C47"/>
<path d="M98.9294 94.3298C98.9294 94.3298 114.915 96.9811 118.524 97.5286C122.134 98.0761 141.699 102.845 144.159 104.301C146.104 105.453 143.143 133.205 142.45 143.781H134.745L134.156 112.038C124.903 112.269 118.303 109.92 111.57 110.929C104.837 111.923 99.224 113.35 94.9368 107.73C94.9368 107.73 94.7747 95.5546 98.9294 94.3298Z" fill="#3E3E54"/>
<path d="M114.679 143.81L107.165 143.349L106.429 112.024C102.451 112.125 101.081 111.88 97.8541 111.491L91.7842 97.7015C97.1028 98.739 114.134 102.946 116.403 104.286C118.362 105.454 115.372 133.234 114.679 143.81Z" fill="#292C47"/>
<path d="M106.282 35.7432C106.282 35.7432 112.145 34.1583 114.37 38.6106C116.609 43.063 115.593 51.4921 112.646 52.2846C109.7 53.0771 105.442 52.1694 104.219 49.4029C102.996 46.6364 102.009 42.7027 102.304 40.1524C102.598 37.602 104.72 36.3628 106.282 35.7432Z" fill="#EEA886"/>
<path d="M111.113 51.3914C111.113 51.3914 111.054 54.7774 111.437 55.4979C111.821 56.2183 103.275 56.0454 103.275 56.0454C103.275 56.0454 104.616 51.9821 103.865 48.524C103.099 45.0947 111.113 51.3914 111.113 51.3914Z" fill="#EEA886"/>
<path d="M103.393 47.2416C103.393 47.2416 103.85 48.1494 106.06 48.0053C108.27 47.8612 111.187 45.2532 112.13 45.0227C113.073 44.7921 113.117 44.2734 113.117 44.2734L113.618 45.1379L114.575 45.282C114.575 45.282 114.384 43.1207 115.341 41.7518C115.769 41.1467 114.693 33.4235 107.489 35.2102C107.489 35.2102 101.994 36.19 101.92 39.2015C101.846 42.1841 102.332 45.6422 103.393 47.2416Z" fill="#3A3F47"/>
<path d="M111.88 55.4114C111.88 55.4114 111.85 54.0281 111.217 53.8984C110.583 53.7688 104.498 52.9475 103.718 53.2501L103.379 55.0656C103.379 55.08 104.896 55.9877 111.88 55.4114Z" fill="#E2D2CA"/>
<path d="M113.633 43.6395C113.471 42.5156 112.16 41.2188 111.408 42.9766C110.657 44.7345 111.909 47.2993 112.764 47.1552C113.603 47.0256 113.854 45.1668 113.633 43.6395Z" fill="#EEA886"/>
<path d="M137.323 71.6934C137.308 71.6934 137.308 71.6934 137.323 71.6934C137.352 71.7081 137.352 71.7081 137.323 71.6934Z" fill="#323657"/>
<path d="M104.572 36.5502C104.572 36.5502 97.4267 36.2188 103.32 47.1263L104.572 36.5502Z" fill="#3A3F47"/>
<path d="M88.6606 147.527L89.191 148.997L111.644 142.182L110.568 139.228L88.6606 147.527Z" fill="#918783"/>
<path d="M112.41 117.269H109.861V141.144H112.41V117.269Z" fill="#918783"/>
<path d="M118.672 116.001H103.615V117.413H118.672V116.001Z" fill="#5E5854"/>
<path d="M133.802 147.527L133.272 148.997L110.819 142.182L111.806 139.04L133.802 147.527Z" fill="#918783"/>
<path d="M117.994 148.838V150.539L110.819 142.182L111.806 139.04L117.994 148.838Z" fill="#918783"/>
<path d="M135.909 149.559C135.909 150.697 134.966 151.605 133.817 151.605C132.653 151.605 131.725 150.683 131.725 149.559C131.725 148.421 132.668 147.513 133.817 147.513C134.966 147.513 135.909 148.435 135.909 149.559Z" fill="#BFB2AC"/>
<path d="M118.171 149.559C118.171 150.697 117.228 151.605 116.079 151.605C114.915 151.605 113.987 150.683 113.987 149.559C113.987 148.421 114.929 147.513 116.079 147.513C117.228 147.513 118.171 148.435 118.171 149.559Z" fill="#BFB2AC"/>
<path d="M90.7528 149.559C90.7528 150.697 89.8098 151.605 88.6607 151.605C87.4968 151.605 86.5686 150.683 86.5686 149.559C86.5686 148.421 87.5115 147.513 88.6607 147.513C89.8098 147.513 90.7528 148.435 90.7528 149.559Z" fill="#BFB2AC"/>
<path d="M126.377 116.001H96.0863C94.5982 116.001 93.3901 114.819 93.3901 113.364V113.292C93.3901 111.837 94.5982 110.655 96.0863 110.655H126.362C127.85 110.655 129.058 111.837 129.058 113.292V113.364C129.058 114.834 127.85 116.001 126.377 116.001Z" fill="#254380"/>
<path d="M192.395 88.2925H190.362V149.573H192.395V88.2925Z" fill="#3E3E54"/>
<path d="M174.097 75.3677H126.716C125.228 75.3677 124.034 74.1862 124.034 72.7453V41.6078C124.034 40.1525 125.243 38.9854 126.716 38.9854H174.097C175.585 38.9854 176.778 40.1669 176.778 41.6078V72.7597C176.793 74.2006 175.585 75.3677 174.097 75.3677Z" fill="#FB765F"/>
<path d="M174.715 40.9448H126.097V69.6617H174.715V40.9448Z" fill="#F5F7FF"/>
<path d="M161.338 84.8487V84.2003C161.338 84.2003 160.41 80.1658 153.824 80.1658C147.239 80.1658 147.371 84.8487 147.371 84.8487H161.338Z" fill="#FB765F"/>
<path d="M147.283 80.771C147.283 80.771 148.712 80.6558 149.242 80.3532C149.773 80.0506 152.896 77.9757 153.633 78.3071C154.369 78.6385 159.276 80.1082 159.099 80.7998C158.922 81.5059 158.48 81.4338 158.126 81.3042C157.787 81.1745 154.222 80.454 153.913 80.5693C153.913 80.5693 157.404 81.8229 157.419 82.7306C157.434 83.6384 156.683 83.8689 156.358 84.2004C156.02 84.5462 155.622 85.3963 154.723 85.4683C153.824 85.5404 149.419 84.0419 148.521 83.9698C147.622 83.8978 145.942 84.0275 145.824 83.8834C145.721 83.7537 147.283 80.771 147.283 80.771Z" fill="#EEA886"/>
<path d="M121.235 57.3277C116.668 56.5497 111.879 55.4114 111.879 55.4114L103.379 55.08C103.379 55.08 95.5848 56.7658 92.5056 58.1202C92.211 58.2499 92.211 64.9212 91.4154 66.6791L93.9642 71.9383C93.9642 71.9383 95.4375 82.3415 95.7469 86.9668C95.8942 89.0849 95.3491 107.499 95.3491 107.499C95.3491 107.499 96.1152 107.874 101.905 108.494C107.71 109.113 122.192 108.263 122.281 107.6C122.369 106.923 119.482 82.6585 119.349 81.405C119.157 79.4742 119.924 70.5695 119.924 70.5695C121.014 72.0104 123.798 78.48 126.701 81.5635C128.41 83.379 136.866 84.4885 138.458 84.5461C141.92 84.6614 148.255 85.3386 148.446 85.0072C148.594 84.8055 148.992 79.5174 148.594 79.3877C148.24 79.2725 136.498 78.6096 133.478 77.0535C132.373 76.4771 129.087 69.46 129.087 69.46C129.087 69.46 123.754 58.4228 121.235 57.3277Z" fill="#FB765F"/>
<path d="M104.498 106.952H90.237C87.3789 106.952 85.0658 104.69 85.0658 101.894V78.6817C85.0658 75.8863 87.3789 73.6241 90.237 73.6241H104.498C107.357 73.6241 109.67 75.8863 109.67 78.6817V101.894C109.67 104.69 107.357 106.952 104.498 106.952Z" fill="#254380"/>
<path d="M105.309 114.675C101.684 114.675 98.7379 113.479 96.5721 111.131C91.6514 105.828 92.5353 96.4913 92.5795 96.1022C92.6532 95.3674 93.3309 94.8343 94.0823 94.9063C94.8337 94.9783 95.3788 95.6267 95.3051 96.376C95.2904 96.4769 94.5095 104.935 98.6053 109.358C100.255 111.145 102.451 112.01 105.309 112.01C106.06 112.01 106.679 112.615 106.679 113.35C106.679 114.085 106.06 114.675 105.309 114.675Z" fill="#254380"/>
<path d="M143.408 44.7489H129.942C129.736 44.7489 129.559 44.576 129.559 44.3743V43.6106C129.559 43.4089 129.736 43.236 129.942 43.236H143.408C143.614 43.236 143.791 43.4089 143.791 43.6106V44.3743C143.791 44.5904 143.614 44.7489 143.408 44.7489Z" fill="#DFE1E8"/>
<path d="M143.408 48.0052H129.942C129.736 48.0052 129.559 47.8323 129.559 47.6306V46.8669C129.559 46.6652 129.736 46.4923 129.942 46.4923H143.408C143.614 46.4923 143.791 46.6652 143.791 46.8669V47.6306C143.791 47.8323 143.614 48.0052 143.408 48.0052Z" fill="#DFE1E8"/>
<path d="M142.495 67.3852H130.841C130.134 67.3852 129.545 66.8233 129.545 66.1172V51.4922C129.545 50.8006 130.119 50.2242 130.841 50.2242H142.495C143.202 50.2242 143.791 50.7862 143.791 51.4922V66.1172C143.791 66.8089 143.217 67.3852 142.495 67.3852Z" fill="#DFE1E8"/>
<path d="M169.986 67.3852H148.712C147.577 67.3852 146.664 66.4919 146.664 65.3824V45.2388C146.664 44.1293 147.577 43.236 148.712 43.236H169.986C171.12 43.236 172.034 44.1293 172.034 45.2388V65.3824C172.034 66.4919 171.106 67.3852 169.986 67.3852Z" fill="#DFE1E8"/>
<path d="M96.5424 49.7343C95.4816 50.3106 95.6142 53.0915 95.6142 53.0915H96.5424H97.4705C97.4558 53.0915 97.5884 50.3106 96.5424 49.7343Z" fill="#3E3E54"/>
<path d="M96.7043 41.8383H96.3655V50.5556H96.7043V41.8383Z" fill="#3E3E54"/>
<path d="M93.1245 42.4146L107.887 47.8035L121.205 36.0891L105.927 32.2419L93.1245 42.4146Z" fill="#3E3E54"/>
<defs>
<linearGradient id="paint0_linear" x1="53.9488" y1="106.787" x2="53.9488" y2="131.814" gradientUnits="userSpaceOnUse">
<stop stop-color="#2569E3"/>
<stop offset="1" stop-color="#5577FF"/>
</linearGradient>
<linearGradient id="paint1_linear" x1="65.8836" y1="40.933" x2="65.8836" y2="64.1575" gradientUnits="userSpaceOnUse">
<stop stop-color="#2569E3"/>
<stop offset="1" stop-color="#5577FF"/>
</linearGradient>
</defs>
</svg>
