<svg width="230" height="156" viewBox="0 0 230 156" fill="none" xmlns="http://www.w3.org/2000/svg">
<path opacity="0.18" d="M1.03299 70.1702C-2.98363 93.824 4.76313 119.961 23.4021 135.057C40.7081 149.045 64.1881 151.957 86.3409 153.802C120.023 156.625 155.495 157.943 185.915 143.182C192.562 139.966 198.958 135.977 206.109 134.108C210.201 133.03 214.627 132.573 217.913 129.937C221.199 127.301 222.59 123.136 223.654 119.112C227.209 105.399 227.402 89.5126 218.521 78.4883C208.085 65.5309 188.826 63.4865 176.507 52.3216C170.257 46.6513 166.188 38.9834 160.511 32.7449C142.807 13.2561 113.533 11.0008 87.2646 10.0753C66.0005 9.33722 44.0582 2.67693 28.5238 19.0729C15.0298 33.3131 4.21939 50.494 1.03299 70.1702Z" fill="#377EF9"/>
<path d="M144.757 139.074C144.783 139.284 144.74 139.495 144.631 139.69C144.452 139.88 144.218 140.038 143.945 140.154C143.672 140.27 143.367 140.341 143.052 140.361L142.577 139.879C141.34 140.715 139.464 140.738 137.777 140.692C136.3 140.655 134.829 140.6 133.339 140.545C133.216 140.553 133.092 140.542 132.975 140.511C132.859 140.48 132.754 140.43 132.667 140.366C132.584 140.246 132.566 140.108 132.617 139.98C132.761 139.476 133.118 139.017 133.638 138.667C134.159 138.317 134.816 138.093 135.52 138.026C136.649 137.939 137.809 138.274 138.918 138.095C140.364 137.861 141.423 136.67 142.932 136.647C144.44 136.624 144.719 138.233 144.757 139.074Z" fill="#3E3E54"/>
<path d="M144.757 139.074C144.783 139.284 144.74 139.495 144.631 139.69C144.452 139.88 144.218 140.038 143.945 140.154C143.672 140.27 143.367 140.341 143.052 140.361L142.577 139.879C141.34 140.715 139.464 140.738 137.777 140.692C136.3 140.655 134.829 140.6 133.339 140.545C133.216 140.553 133.092 140.542 132.975 140.511C132.859 140.48 132.754 140.43 132.667 140.366C132.584 140.246 132.566 140.108 132.617 139.98C132.761 139.476 133.118 139.017 133.638 138.667C134.159 138.317 134.816 138.093 135.52 138.026C136.649 137.939 137.809 138.274 138.918 138.095C140.364 137.861 141.423 136.67 142.932 136.647C144.44 136.624 144.719 138.233 144.757 139.074Z" fill="url(#paint0_linear)"/>
<path d="M124.952 106.172C123.067 106.685 121.263 107.47 119.596 108.503C119.116 108.815 118.699 109.217 118.366 109.687C117.928 110.406 117.7 111.237 117.71 112.083C117.576 116.663 120.948 120.474 124.093 123.74L134.458 134.48C135.654 135.722 136.901 136.994 138.486 137.633C140.07 138.272 142.095 138.124 143.21 136.805C139.569 132.103 136.033 127.318 132.601 122.45C132.459 122.302 132.354 122.122 132.295 121.924C132.235 121.727 132.223 121.517 132.259 121.314C132.45 120.776 133.176 120.722 133.739 120.799C136.517 121 139.301 120.513 141.854 119.379C144.408 118.246 146.655 116.5 148.404 114.29C149.524 112.847 150.446 111.036 150.104 109.225C149.802 107.622 148.56 106.373 147.237 105.45C140.018 100.403 132.357 103.758 124.952 106.172Z" fill="#3E3E54"/>
<path d="M124.946 106.183C123.061 106.698 121.258 107.483 119.59 108.516C119.11 108.828 118.693 109.23 118.36 109.7C117.927 110.41 117.702 111.232 117.71 112.068C117.571 116.65 120.948 120.463 124.093 123.73L134.456 134.475C135.657 135.712 136.898 136.985 138.482 137.631C140.066 138.276 142.097 138.122 143.205 136.802C139.573 132.089 136.04 127.302 132.605 122.44C132.462 122.292 132.356 122.112 132.296 121.914C132.235 121.717 132.222 121.507 132.256 121.303C132.448 120.764 133.179 120.741 133.736 120.788C136.514 120.99 139.298 120.504 141.851 119.37C144.405 118.236 146.651 116.488 148.399 114.276C149.518 112.826 150.447 111.014 150.104 109.209C149.797 107.598 148.555 106.349 147.203 105.432C140.008 100.406 132.373 103.768 124.946 106.183Z" fill="url(#paint1_linear)"/>
<path d="M129.329 121.205C130.112 121.645 131.007 121.833 131.895 121.743H147.626C148.634 121.813 149.646 121.664 150.595 121.305C151.378 120.876 152.083 120.31 152.678 119.633C155.464 116.852 158.515 114.365 161.786 112.21C162.01 112.095 162.192 111.909 162.303 111.678C162.345 111.555 162.361 111.424 162.349 111.294C162.252 109.521 160.393 108.298 158.661 108.239C156.93 108.179 155.278 108.93 153.638 109.509C146.026 112.216 137.097 111.56 130.653 116.53C129.433 117.446 127.39 119.822 129.329 121.205Z" fill="#3E3E54"/>
<path d="M129.329 121.205C130.112 121.645 131.007 121.833 131.895 121.743H147.626C148.634 121.813 149.646 121.664 150.595 121.305C151.378 120.876 152.083 120.31 152.678 119.633C155.464 116.852 158.515 114.365 161.786 112.21C162.01 112.095 162.192 111.909 162.303 111.678C162.345 111.555 162.361 111.424 162.349 111.294C162.252 109.521 160.393 108.298 158.661 108.239C156.93 108.179 155.278 108.93 153.638 109.509C146.026 112.216 137.097 111.56 130.653 116.53C129.433 117.446 127.39 119.822 129.329 121.205Z" fill="url(#paint2_linear)"/>
<path d="M171.824 115.08C172.118 115.362 181.791 138.989 181.904 140.333C182.006 141.533 181.111 142.476 180.414 143.412C181.315 143.238 184.227 141.923 184.885 141.245C185.102 141.052 185.26 140.795 185.338 140.507C185.373 140.228 185.346 139.945 185.259 139.679C184.692 137.495 181.559 122.923 181.111 120.115C180.97 118.954 180.704 117.814 180.318 116.718C179.928 115.612 179.194 114.679 178.238 114.071C177.757 113.778 177.208 113.631 176.653 113.648C176.098 113.665 175.558 113.845 175.093 114.167C174.481 114.131 172.402 114.852 171.824 115.08Z" fill="#E5C5D5"/>
<path d="M187.118 119.388C189.36 125.21 190.032 131.671 191.899 137.666C192.038 138.03 192.112 138.422 192.118 138.819C192.081 139.181 191.968 139.528 191.789 139.829C191.246 140.844 190.427 141.628 189.459 142.059C189.621 138.473 188.098 135.143 186.623 131.999L184.663 127.815C183.963 126.39 183.337 124.919 182.786 123.41C182.515 122.639 182.291 121.844 182.087 121.049C181.655 119.388 180.252 115.485 182.697 115.037C184.923 114.648 186.367 117.439 187.118 119.388Z" fill="url(#paint3_linear)"/>
<path d="M181.388 91.6447C179.878 91.7589 178.362 91.4343 176.829 91.5605C175.296 91.6867 173.701 92.4442 173.176 93.9651C174.037 94.8006 175.353 94.7586 176.516 94.6443C179.365 94.3618 185.759 94.5542 188.614 94.0733C189.754 93.8869 187.36 93.1114 188.392 92.6185C188.622 92.5377 188.832 92.405 189.008 92.2295C189.184 92.054 189.322 91.84 189.412 91.6026C187.309 89.5166 183.816 91.4703 181.388 91.6447Z" fill="url(#paint4_linear)"/>
<path d="M209.179 94.7059L209.679 106.351C209.734 107.548 209.765 108.814 209.124 109.82C207.99 111.648 205.356 111.896 203.124 111.937L188.039 112.208C186.945 112.158 185.852 112.318 184.825 112.677C183.831 113.099 185.081 115.047 185.142 116.082C185.142 116.47 183.203 115.909 182.898 116.175C182.665 116.326 182.378 116.384 182.1 116.337L174.642 115.961C173.985 115.964 173.333 115.856 172.715 115.643C171.221 115.03 170.618 113.365 170.166 111.885C169.546 110.137 169.193 108.315 169.118 106.473C169.118 104.634 169.788 102.714 171.276 101.535C173.063 100.112 175.599 100.025 177.929 100.014L192.85 99.9156C193.075 99.9425 193.304 99.9256 193.522 99.8659C193.74 99.8063 193.943 99.7051 194.118 99.5686C194.423 99.2391 194.392 98.7302 194.661 98.3775C194.967 98.0543 195.388 97.8487 195.844 97.7993L204.228 96.0358C205.098 95.7893 206.014 95.7301 206.911 95.8623C207.355 95.9374 207.762 96.147 208.07 96.4598C208.377 96.7726 208.57 97.1716 208.618 97.5969" fill="#3E3E54"/>
<path d="M126.191 107.97L115.283 113.484C113.578 114.271 111.963 115.242 110.463 116.378C110.083 116.582 109.798 116.927 109.667 117.341C109.536 117.755 109.57 118.204 109.762 118.593C111.419 123.732 116.134 127.13 120.555 130.159L125.902 133.821L134.794 139.909C135.443 140.354 136.173 140.817 136.943 140.682C138.061 140.495 138.623 139.094 138.345 137.981C138.067 136.868 137.221 136.018 136.41 135.221L128.167 127.095C126.203 125.161 124.204 123.181 122.953 120.72C128.879 118.376 135.35 117.954 141.566 116.566C143.075 116.328 144.512 115.751 145.772 114.878C146.971 113.935 147.776 112.324 147.359 110.841C146.946 109.744 146.168 108.826 145.158 108.246C143.627 107.13 141.824 106.458 139.944 106.3C138.681 106.23 137.424 106.488 136.167 106.418C135.049 106.353 134.273 105.726 133.27 105.574C130.994 105.228 128.149 106.98 126.191 107.97Z" fill="#3E3E54"/>
<path d="M197.529 94.7059H73.0588V97.4118H197.529V94.7059Z" fill="#377EF9"/>
<path d="M139.353 0H35.1765V71.7059H139.353V0Z" fill="#377EF9"/>
<path d="M65.978 35.1765C65.4278 34.5768 67.5199 34.9606 67.1873 34.241C65.452 30.7749 64.9441 26.7871 63.106 23.375C62.8158 22.8413 62.5014 22.3256 62.2354 21.7859C62.8321 21.4218 63.3771 20.9801 63.8558 20.4727C64.7181 19.583 65.4973 18.6176 66.1836 17.5883C66.2864 17.6902 66.4557 17.7622 66.5524 17.9121C72.363 26.7632 66.0083 33.8152 65.978 35.1765Z" fill="#3E3E54"/>
<path d="M56.0571 47.3596C59.6316 47.3014 63.4672 47.5865 66.2932 49.7859C68.3184 51.3686 69.5602 53.7426 70.5873 56.1049C72.4254 60.328 73.769 64.7505 74.5912 69.2839C74.6725 69.7261 76.0942 70.5931 75.6938 70.7967C75.5545 70.8666 73.4829 71.0528 73.3262 71.0586C61.355 71.431 49.8887 71.3262 37.9291 71.6928C37.671 71.732 37.4073 71.6828 37.1805 71.5531C36.9786 71.3633 36.8511 71.1075 36.8208 70.8316C35.7124 66.3455 34.6447 61.7314 35.4687 57.2046C35.5939 56.3594 35.8691 55.5436 36.2811 54.7957C37.2444 53.1782 38.8401 52.7069 40.3779 51.8457C41.788 51.0486 43.0065 50.0536 44.5095 49.4019C48.1304 47.8367 52.1518 47.4236 56.0571 47.3596Z" fill="white"/>
<path d="M51.8021 38.0527C51.2854 39.5362 51.391 41.1779 51.5076 42.7588L52.1687 51.8791C52.1417 52.2896 52.2422 52.6979 52.454 53.0379C52.6658 53.3779 52.9764 53.6295 53.3353 53.7519C54.9129 54.6882 56.6184 55.5759 58.4127 55.4604C60.207 55.3449 62.0569 53.9951 62.2235 52.0433C62.3291 50.7543 61.7124 49.5322 60.9958 48.5046C60.2792 47.477 59.4293 46.5285 58.9515 45.349C58.1683 43.3972 58.5127 41.1597 58.3627 39.0377C58.342 38.0153 58.0484 37.022 57.5183 36.1799C55.9018 33.9303 52.5687 35.8638 51.8021 38.0527Z" fill="url(#paint5_linear)"/>
<path d="M54.7407 45.7682C56.0703 47.019 57.674 47.9749 59.4372 48.5674C59.6309 48.6671 59.8495 48.7145 60.0695 48.7046C60.2894 48.6947 60.5024 48.6278 60.6853 48.5112C61.086 48.1363 60.7969 47.4989 60.5145 47.0303C59.7848 45.8093 59.2596 44.4875 58.9577 43.1127C58.8804 42.4393 58.6275 41.795 58.2221 41.2382C57.9816 40.9992 57.7021 40.7987 57.3944 40.6446C56.0807 39.9198 52.5403 38.1453 51.555 40.1822C50.7405 41.8255 53.6175 44.7122 54.7407 45.7682Z" fill="#D2B5C4"/>
<path d="M125.22 62.6889C124.864 63.1466 124.301 63.6335 124.519 64.1674C124.64 64.4549 124.956 64.5958 125.202 64.7835C125.82 65.346 126.198 66.1339 126.253 66.9778C126.311 67.8144 126.505 68.6353 126.827 69.4068C127.206 70.1461 128.078 70.7093 128.842 70.4101C129.295 70.2282 129.714 69.7647 130.179 69.9173C130.535 70.0346 130.684 70.4571 130.891 70.7739C131.176 71.1391 131.556 71.4145 131.988 71.5682C132.419 71.7218 132.885 71.7475 133.33 71.6422C134.217 71.417 135.053 71.0186 135.792 70.4688C136.118 70.2975 136.388 70.0324 136.567 69.7061C136.674 69.3965 136.674 69.0592 136.567 68.7497C136.309 67.7934 135.586 67.0541 134.983 66.2679C133.865 64.8051 133.114 63.0849 132.796 61.2573C132.578 59.9842 132.521 58.5584 131.648 57.6431C130.449 56.3993 127.854 56.6692 126.614 57.7957C125.225 58.9926 126.327 61.2339 125.22 62.6889Z" fill="url(#paint6_linear)"/>
<path d="M125.841 57.4551C125.901 57.6797 126.029 57.8795 126.208 58.0261C126.387 58.1727 126.607 58.2587 126.837 58.2719C127.294 58.331 127.756 58.2363 128.213 58.2719C128.742 58.3075 129.248 58.5025 129.666 58.8317C130.083 59.1609 130.394 59.6092 130.557 60.1185C130.914 61.3022 130.398 62.6872 130.885 63.8414C131.049 64.0663 131.418 63.8828 131.547 63.6342C131.675 63.3856 131.728 63.0779 131.951 62.9121C132.32 62.6399 132.847 62.9891 133.058 63.4034C133.285 63.8934 133.319 64.4527 133.151 64.9667C132.983 65.4806 132.627 65.9102 132.156 66.1674C132.249 66.5403 132.742 66.6468 133.111 66.5581C133.466 66.4149 133.842 66.3271 134.224 66.2976C135.096 66.3746 135.542 67.6057 136.414 67.6471C137 67.6471 137.463 67.1144 137.809 66.6172L138.81 65.1553C138.932 65.0117 139.007 64.8342 139.027 64.6463C139.015 64.4755 138.961 64.3105 138.869 64.1669C138.362 63.1658 138.193 62.0246 138.388 60.9175C138.635 59.5681 139.414 58.3133 139.349 56.9401C139.22 55.7808 138.679 54.7083 137.826 53.9216C135.829 51.8796 132.671 51.1576 129.895 51.489C129.44 51.5279 129 51.6674 128.605 51.8976C128.211 52.1277 127.871 52.4429 127.61 52.8207C126.86 53.821 125.665 56.2062 125.841 57.4551Z" fill="#3E3E54"/>
<path d="M134.547 68.4366C133.658 68.8951 132.801 69.4069 131.982 69.9688C131.727 70.1322 131.514 70.3467 131.36 70.5965C131.278 70.7332 131.235 70.887 131.235 71.0434C131.235 71.1998 131.278 71.3536 131.36 71.4903C131.645 71.868 132.182 71.6712 132.594 71.4903C134.485 70.5699 136.593 70.3093 138.615 70.1284C138.758 70.1356 138.899 70.1055 139.025 70.0416C139.15 69.9777 139.253 69.8824 139.323 69.7666C139.359 69.6329 139.362 69.4936 139.334 69.3585C139.305 69.2233 139.245 69.0957 139.158 68.9846C137.889 67.0534 136.193 67.5322 134.547 68.4366Z" fill="#2569E3"/>
<path d="M130.839 96.0089C129.361 92.986 128.277 89.7844 127.611 86.4828C126.609 87.3665 125.745 88.3963 125.047 89.5378C124.018 91.231 123.524 93.7413 125.088 94.9491C122.291 95.8073 119.337 96.0098 116.451 95.5411C115.627 95.4824 114.848 95.1395 114.246 94.5702C113.87 94.0819 113.663 93.4829 113.658 92.8651C113.522 90.7633 114.71 88.8332 115.857 87.0689L123.777 74.8491C124.043 74.3879 124.378 73.9705 124.771 73.6117C125.323 73.209 125.951 72.9231 126.617 72.771C131.625 71.274 136.716 70.076 141.863 69.1832C142.635 69.008 143.429 68.958 144.215 69.0352C146.414 69.3608 147.861 71.4507 148.966 73.3867C154.764 83.5107 158.874 95.0024 158.227 106.672C158.218 107.302 158.119 107.928 157.933 108.531C157.552 109.437 156.932 110.222 156.14 110.798C153.553 112.853 150.148 113.616 146.855 113.646C141.94 113.693 135.454 112.201 131.785 108.643C129.71 106.636 131.785 105.422 132.779 103.433C134.031 100.929 131.95 98.2823 130.839 96.0089Z" fill="#377EF9"/>
<path d="M148.112 115.158C146.172 105.405 148.851 98.6974 153.245 89.7707C154.723 86.772 156.801 83.7155 160.006 82.7737C161.489 82.3346 163.071 82.4039 164.596 82.1439C167.563 81.6413 170.294 79.9137 173.302 79.8328C173.447 79.8139 173.594 79.8241 173.735 79.8628C173.876 79.9014 174.008 79.9679 174.122 80.0581C174.274 80.2366 174.363 80.4598 174.376 80.6937C174.595 82.0034 174.579 83.3415 174.33 84.6457C173.88 87.0377 172.685 89.2102 171.697 91.4347C169.208 97.0393 167.974 103.121 168.083 109.253C168.153 110.002 168.078 110.757 167.864 111.478C167.566 112.145 167.124 112.737 166.57 113.211C162.529 117.117 157.205 119.347 152.009 121.491C151.626 121.687 151.198 121.781 150.768 121.762C150.488 121.695 150.226 121.572 149.995 121.4C149.765 121.228 149.572 121.011 149.428 120.763C148.27 119.125 147.797 117.099 148.112 115.118" fill="#3E3E54"/>
<path d="M148.112 115.158C146.172 105.405 148.851 98.6974 153.245 89.7707C154.723 86.772 156.801 83.7155 160.006 82.7737C161.489 82.3346 163.071 82.4039 164.596 82.1439C167.563 81.6413 170.294 79.9137 173.302 79.8328C173.447 79.8139 173.594 79.8241 173.735 79.8628C173.876 79.9014 174.008 79.9679 174.122 80.0581C174.274 80.2366 174.363 80.4598 174.376 80.6937C174.595 82.0034 174.579 83.3415 174.33 84.6457C173.88 87.0377 172.685 89.2102 171.697 91.4347C169.208 97.0393 167.974 103.121 168.083 109.253C168.153 110.002 168.078 110.757 167.864 111.478C167.566 112.145 167.124 112.737 166.57 113.211C162.529 117.117 157.205 119.347 152.009 121.491C151.626 121.687 151.198 121.781 150.768 121.762C150.488 121.695 150.226 121.572 149.995 121.4C149.765 121.228 149.572 121.011 149.428 120.763C148.27 119.125 147.797 117.099 148.112 115.118" fill="url(#paint7_linear)"/>
<path d="M128.904 121.765L121.765 144.765H123.928L131.235 122.281L128.904 121.765Z" fill="#377EF9"/>
<path d="M146.118 121.765L153.393 144.765H156.941L149.359 121.811L146.118 121.765Z" fill="#377EF9"/>
<path d="M162.513 117.706L170.471 143.412H167.604L159.647 119.135L162.513 117.706Z" fill="#377EF9"/>
<path d="M67.3742 32.2359C67.6674 34.011 67.7246 35.8174 67.5443 37.6076C67.1513 40.2513 65.7504 42.6386 63.6371 44.2659C62.7198 45.0063 61.6478 45.5295 60.501 45.7966C59.3543 46.0637 58.1622 46.0678 57.0136 45.8085C54.0361 44.9854 52.1524 42.1501 50.7183 39.3636C49.1384 36.315 47.7894 33.059 47.437 29.6079C47.0846 26.1569 47.8198 22.529 50.0256 19.8888C50.964 18.7652 52.1324 17.8574 53.4515 17.2272C54.7707 16.5969 56.2096 16.2591 57.6704 16.2365C59.1313 16.2139 60.5798 16.5072 61.9176 17.0964C63.2555 17.6856 64.4512 18.5569 65.4236 19.651C67.5443 22.0717 66.9853 29.0348 67.3742 32.2359Z" fill="url(#paint8_linear)"/>
<path d="M65.9366 17.2934C65.2673 18.3181 64.508 19.2782 63.6682 20.1619C63.2065 20.6666 62.6809 21.1058 62.1054 21.468C60.1052 22.7561 57.621 23.2928 55.5218 24.3484C54.8701 24.6327 54.2987 25.0797 53.8598 25.6485C52.9326 27.0142 53.4283 29.1014 52.297 30.2942C52.07 30.4891 51.8733 30.7184 51.7139 30.974C51.6105 31.2725 51.5883 31.594 51.6497 31.9044C52.0297 35.2378 52.0453 38.6042 51.6964 41.9412C50.3435 40.4861 48.3375 39.8778 46.8213 38.5956C43.7657 36.0252 43.375 31.4392 43.3225 27.4018C43.2128 25.3928 43.4216 23.3789 43.9406 21.4381C44.5238 19.5238 45.8533 17.7407 47.7077 17.0608C47.9933 16.9793 48.2662 16.8568 48.5183 16.697C48.8218 16.3974 49.0499 16.027 49.183 15.6176C51.1599 11.1985 56.3848 9.95214 60.6242 11.3953C62.3736 11.9917 64.2397 13.1129 65.0094 14.9199C65.1573 15.2733 65.2706 15.6409 65.3476 16.0172C65.785 15.886 66.1349 15.874 66.2515 16.0887C66.3681 16.3034 66.2398 16.7746 65.9366 17.2934Z" fill="#3E3E54"/>
<path d="M125.824 25.7059H79.8235V59.5294H125.824V25.7059Z" fill="white"/>
<path d="M104.176 57.4966C104.162 57.6273 104.12 57.7527 104.053 57.8635C103.985 57.9742 103.895 58.0673 103.788 58.1355C102.142 59.5369 100.253 60.5872 98.2258 61.2278C97.2786 61.5281 96.4528 61.6879 95.9731 62.6207C95.5965 63.5357 95.2938 64.4825 95.0683 65.451C94.4591 67.3944 93.6806 69.2744 92.7427 71.067C92.6273 71.2906 92.5059 71.5142 92.3723 71.7059H82.5294C82.687 71.3958 82.8922 71.1151 83.1366 70.8753C84.621 69.2237 85.9189 67.3971 87.0046 65.4318C87.1381 65.1954 87.2657 64.9591 87.3932 64.7163C87.8121 63.9432 88.2008 63.151 88.5712 62.3459C88.9416 61.5409 89.3423 59.6753 89.9981 59.0684C90.7996 58.3144 92.1416 58.5828 93.107 58.6083C94.6311 58.6595 96.1548 58.494 97.6368 58.1164C99.5677 57.6053 101.468 56.5638 103.442 56.8833C103.757 56.96 104.158 57.1389 104.176 57.4966Z" fill="url(#paint9_linear)"/>
<path d="M89.2941 32.4706H85.2353V52.7647H89.2941V32.4706Z" fill="#68E1FD"/>
<path d="M94.7059 39.2353H92V52.7647H94.7059V39.2353Z" fill="#68E1FD"/>
<path d="M101.471 37.8824H97.4118V52.7647H101.471V37.8824Z" fill="#68E1FD"/>
<path d="M108.235 39.2353H104.176V52.7647H108.235V39.2353Z" fill="#68E1FD"/>
<path d="M193.077 61.4028C192.96 61.6521 192.856 61.9089 192.768 62.172C192.68 62.4986 192.574 62.8187 192.448 63.1304C192.205 63.4806 192.089 63.917 192.124 64.3551C192.226 64.9468 192.703 65.2958 193.082 65.6982C193.475 66.105 193.798 66.586 194.035 67.1181C194.328 67.7926 194.517 68.5913 195.086 69.0055C195.844 69.5616 196.922 69.1829 197.723 69.6622C198.893 70.3603 198.335 73.0286 199.635 73.0582C200.742 73.0711 201.842 72.8708 202.885 72.4666C203.39 72.3269 203.832 71.9929 204.13 71.5259C204.564 70.6739 204.038 69.6444 203.697 68.7392C202.294 65.0355 204.033 60.4266 202.175 56.9714C201.545 55.8151 200.572 54.9282 199.419 54.4569C198.688 54.1473 197.896 54.0473 197.12 54.1664C196.343 54.2855 195.608 54.6197 194.983 55.1373C193.64 56.3206 194.225 58.344 193.683 59.9474C193.506 60.4447 193.304 60.9306 193.077 61.4028Z" fill="url(#paint10_linear)"/>
<path d="M194.249 51.2717C193.903 51.7884 193.665 52.3746 193.55 52.9928C193.435 53.611 193.445 54.2474 193.58 54.8612C193.715 55.475 193.972 56.0526 194.334 56.5569C194.696 57.0612 195.156 57.4811 195.683 57.7895C196.735 58.382 198.118 58.6486 198.681 59.7507C198.915 60.4297 199.055 61.14 199.096 61.8601C199.17 62.2393 199.398 62.6837 199.774 62.6541C200.388 62.6008 200.343 61.4098 200.94 61.2794C201.116 61.4494 201.252 61.6594 201.338 61.8931C201.423 62.1269 201.455 62.378 201.432 62.6269C201.409 62.8758 201.331 63.1158 201.204 63.3281C201.077 63.5404 200.905 63.7194 200.701 63.851C200.513 63.9576 200.269 64.0761 200.28 64.2954C200.291 64.5146 200.547 64.5976 200.735 64.6983C201.583 65.1723 201.304 66.6181 202.027 67.3113C202.218 67.4681 202.437 67.583 202.672 67.6491C202.906 67.7153 203.151 67.7314 203.392 67.6965C204.063 67.6225 204.71 67.3957 205.287 67.0322C205.864 66.6687 206.357 66.1773 206.732 65.593C207.478 64.4153 207.874 63.0342 207.87 61.6231C207.833 61.11 207.903 60.5947 208.075 60.1122C208.163 59.8701 208.338 59.6732 208.563 59.5627C208.788 59.4523 209.045 59.4368 209.281 59.5196C208.951 61.2972 208.621 63.1163 209.07 64.8524C209.339 65.8458 209.851 66.7498 210.555 67.4765C211.259 68.2033 212.131 68.7281 213.087 69C212.601 68.141 212.327 67.1699 212.291 66.1737C212.293 65.2213 212.404 64.2726 212.621 63.3474L213.377 59.4308C213.644 58.3087 213.774 57.156 213.764 56.0001C213.751 54.8302 213.314 53.7087 212.541 52.8597C212.149 52.4479 211.646 52.1706 211.099 52.0647C210.552 51.9588 209.987 52.0294 209.48 52.2672C209.102 52.5037 208.78 52.8247 208.536 53.207C208.292 53.5892 208.132 54.0231 208.069 54.4773C207.948 55.3842 207.957 56.3049 208.097 57.2088C206.876 55.885 205.749 54.4711 204.723 52.9782C204.175 52.0037 203.42 51.1727 202.516 50.5489C201.435 49.9563 200.138 50.0274 198.914 50.1222C197.208 50.2526 195.535 49.9386 194.249 51.2717Z" fill="#3E3E54"/>
<path d="M204.866 71.7059C204.004 71.7521 203.137 71.8445 202.286 71.9773C201.591 72.0625 200.914 72.2573 200.276 72.5548C199.568 72.9406 198.955 73.49 198.485 74.1603C196.582 76.7476 196.358 80.1953 195.535 83.3312C195.327 84.2546 194.965 85.1338 194.466 85.93C193.313 87.6279 191.281 88.4191 189.339 88.9389C188.477 89.1641 187.525 89.424 187.061 90.1979C186.819 90.6706 186.699 91.1997 186.714 91.734C186.663 92.8891 186.842 94.2636 187.833 94.7891C188.175 94.9444 188.541 95.0344 188.913 95.0548C191.068 95.2677 193.242 95.0839 195.334 94.5119C195.742 95.0894 195.334 95.9383 195.608 96.5909C195.882 97.2435 196.772 97.3879 197.494 97.4052C200.49 97.4508 203.484 97.2577 206.451 96.8277C206.779 96.8011 207.099 96.7069 207.391 96.5505C207.834 96.1858 208.136 95.6695 208.242 95.0952C209.418 90.7208 209.891 86.1771 209.641 81.6449C209.61 79.5355 209.334 77.4376 208.818 75.3962C208.499 74.2412 208.001 73.0457 207.022 72.3989C205.936 71.6885 204.542 71.8214 203.26 71.96" fill="#FB765F"/>
<path d="M186.686 143.716C186.686 143.927 186.597 144.202 186.305 144.215C186.013 144.228 185.876 143.974 185.858 143.785C185.84 143.595 185.858 143.332 185.602 143.229C185.346 143.126 185.007 143.311 184.721 143.453C182.971 144.37 178.137 144.801 175.953 144.762C175.28 143.449 179.626 143.039 180.626 142.665C181.429 142.376 182.293 142.169 183.066 141.838C183.84 141.506 184.382 140.882 185.168 140.735C186.942 140.404 186.704 142.979 186.686 143.716Z" fill="#3E3E54"/>
<path d="M194.781 142.877C194.847 143.12 194.836 143.375 194.751 143.614C194.726 143.672 194.689 143.724 194.641 143.769C194.593 143.813 194.536 143.849 194.473 143.874C194.41 143.898 194.342 143.912 194.274 143.913C194.205 143.914 194.136 143.903 194.072 143.88C194.042 143.517 193.933 143.164 193.752 142.839C193.705 142.744 193.63 142.663 193.534 142.605C193.261 142.475 192.965 142.741 192.789 142.974C192.487 143.461 192.026 143.854 191.469 144.102C191.123 144.201 190.761 144.248 190.398 144.243L188.527 144.297C188.466 144.297 184.132 144.791 184.077 144.764C184.023 144.737 183.696 144.368 184.973 143.549C185.906 142.953 190.258 140.333 190.258 140.333C189.586 141.96 192.256 139.656 192.759 139.466C194.744 138.734 194.587 141.76 194.781 142.877Z" fill="#3E3E54"/>
<path d="M104.176 97.4117H71.7059V140.706H104.176V97.4117Z" fill="#2569E3"/>
<path d="M32.5735 107.601C32.2738 105.951 32.5735 103.695 34.2014 103.412C35.265 103.229 36.2171 104.06 36.9634 104.844C40.4626 108.498 43.6236 112.464 46.4072 116.692C44.5311 111.489 43.1998 106.104 42.4346 100.625C42.1819 98.7986 42.0173 96.8248 42.8988 95.1986C43.7803 93.5724 46.131 92.6533 47.5355 93.8493C48.3112 94.5092 48.5698 95.5816 48.7931 96.5773L50.9499 106.352C51.038 102.399 49.7745 98.5099 49.8568 94.5681C49.9391 90.6264 51.8431 86.1721 55.6806 85.2353C56.5435 95.1787 56.2576 105.189 54.8285 115.066C56.2976 113.375 56.8618 111.101 57.9196 109.121C58.9774 107.142 60.9578 105.292 63.1674 105.669C63.6435 110.182 61.0342 114.371 58.5308 118.154C59.7061 117.046 61.0166 115.891 62.6444 115.602C64.2723 115.314 66.1704 116.304 66.288 117.959C66.4055 119.615 64.8012 120.687 63.4143 121.494L52.1898 127.94C51.7367 128.243 51.2234 128.444 50.6854 128.529C50.0408 128.532 49.4088 128.35 48.8636 128.005C41.2945 123.981 34.125 116.139 32.5735 107.601Z" fill="#68E1FD"/>
<path d="M32.5735 107.601C32.2738 105.951 32.5735 103.695 34.2014 103.412C35.265 103.229 36.2171 104.06 36.9634 104.844C40.4626 108.498 43.6236 112.464 46.4072 116.692C44.5311 111.489 43.1998 106.104 42.4346 100.625C42.1819 98.7986 42.0173 96.8248 42.8988 95.1986C43.7803 93.5724 46.131 92.6533 47.5355 93.8493C48.3112 94.5092 48.5698 95.5816 48.7931 96.5773L50.9499 106.352C51.038 102.399 49.7745 98.5099 49.8568 94.5681C49.9391 90.6264 51.8431 86.1721 55.6806 85.2353C56.5435 95.1787 56.2576 105.189 54.8285 115.066C56.2976 113.375 56.8618 111.101 57.9196 109.121C58.9774 107.142 60.9578 105.292 63.1674 105.669C63.6435 110.182 61.0342 114.371 58.5308 118.154C59.7061 117.046 61.0166 115.891 62.6444 115.602C64.2723 115.314 66.1704 116.304 66.288 117.959C66.4055 119.615 64.8012 120.687 63.4143 121.494L52.1898 127.94C51.7367 128.243 51.2234 128.444 50.6854 128.529C50.0408 128.532 49.4088 128.35 48.8636 128.005C41.2945 123.981 34.125 116.139 32.5735 107.601Z" fill="url(#paint11_linear)"/>
<path d="M58.1765 127.176H43.2941V142.059H58.1765V127.176Z" fill="#2569E3"/>
<path d="M50.1828 31.1239C49.9711 31.1014 49.758 31.1397 49.5597 31.2361C49.3409 31.3781 49.1527 31.5851 49.0114 31.8392C48.8701 32.0934 48.78 32.387 48.7488 32.6948C48.6519 33.4939 48.7197 34.3111 48.9458 35.0676C49.1718 35.8242 49.5484 36.4947 50.0394 37.0148C50.3677 37.4224 50.7781 37.7091 51.2262 37.8439C51.4512 37.9066 51.6855 37.8924 51.9046 37.8025C52.1237 37.7126 52.3198 37.5504 52.4724 37.3327C52.7351 36.783 52.8251 36.1291 52.7246 35.5C52.5762 33.4615 52.1114 31.2485 50.1828 31.1239Z" fill="#E5C5D6"/>
<path d="M51.5595 35.125C51.3714 34.8571 51.1585 34.5949 50.9219 34.3397C50.7894 34.2349 50.6353 34.1395 50.4628 34.0554C50.328 33.9714 50.1596 33.907 49.9717 33.8676C49.7838 33.8282 49.5819 33.8149 49.3831 33.829C49.2522 33.8531 49.1329 33.8939 49.0342 33.9481C48.9354 34.0024 48.8599 34.0688 48.8135 34.1422C48.7164 34.2964 48.6844 34.4614 48.7199 34.6239C48.7966 35.2352 49.2907 35.8055 50.0972 36.2138C50.2776 36.3093 50.4844 36.3874 50.7093 36.4451C51.0573 36.5094 51.4238 36.5355 51.789 36.5221C51.916 36.5319 52.0447 36.5319 52.1716 36.5221C52.4091 36.4502 52.593 36.3323 52.6897 36.1899C52.7865 36.0475 52.7897 35.8901 52.6987 35.7465C52.4777 35.4526 51.8315 35.414 51.5595 35.125Z" fill="#D2B5C4"/>
<path d="M184.802 121.204C185.585 121.645 186.48 121.833 187.37 121.743H203.11C204.119 121.813 205.132 121.664 206.081 121.305C206.865 120.873 207.572 120.306 208.171 119.629C210.956 116.842 214.007 114.351 217.279 112.193C217.493 112.083 217.667 111.904 217.774 111.684C217.815 111.561 217.831 111.43 217.82 111.299C217.722 109.523 215.863 108.298 214.13 108.239C212.397 108.179 210.744 108.931 209.103 109.511C201.487 112.223 192.551 111.566 186.074 116.545C184.905 117.439 182.862 119.819 184.802 121.204Z" fill="#3E3E54"/>
<path d="M204.388 118.839C202.414 108.993 203.78 98.7843 208.277 89.7707C209.785 86.772 211.907 83.7155 215.177 82.7737C216.691 82.3346 218.306 82.4039 219.862 82.1439C222.891 81.6413 225.678 79.9137 228.748 79.8328C228.896 79.8139 229.046 79.8241 229.189 79.8628C229.333 79.9014 229.467 79.9679 229.585 80.0581C229.739 80.2366 229.83 80.4598 229.844 80.6937C230.067 82.0034 230.051 83.3415 229.797 84.6457C229.337 87.0377 228.117 89.2102 227.11 91.4347C224.572 97.0402 223.313 103.121 223.421 109.253C223.492 110.002 223.416 110.757 223.197 111.478C222.893 112.145 222.443 112.737 221.877 113.211C217.752 117.117 212.319 119.347 207.016 121.491C206.624 121.687 206.188 121.781 205.749 121.762C205.464 121.695 205.196 121.572 204.961 121.4C204.726 121.228 204.529 121.011 204.382 120.763C203.199 119.125 202.717 117.099 203.038 115.118" fill="#3E3E54"/>
<path d="M204.388 118.839C202.414 108.993 203.78 98.7843 208.277 89.7707C209.785 86.772 211.907 83.7155 215.177 82.7737C216.691 82.3346 218.306 82.4039 219.862 82.1439C222.891 81.6413 225.678 79.9137 228.748 79.8328C228.896 79.8139 229.046 79.8241 229.189 79.8628C229.333 79.9014 229.467 79.9679 229.585 80.0581C229.739 80.2366 229.83 80.4598 229.844 80.6937C230.067 82.0034 230.051 83.3415 229.797 84.6457C229.337 87.0377 228.117 89.2102 227.11 91.4347C224.572 97.0402 223.313 103.121 223.421 109.253C223.492 110.002 223.416 110.757 223.197 111.478C222.893 112.145 222.443 112.737 221.877 113.211C217.752 117.117 212.319 119.347 207.016 121.491C206.624 121.687 206.188 121.781 205.749 121.762C205.464 121.695 205.196 121.572 204.961 121.4C204.726 121.228 204.529 121.011 204.382 120.763C203.199 119.125 202.717 117.099 203.038 115.118" fill="url(#paint12_linear)"/>
<path d="M184.371 121.765L177.235 144.765H179.397L186.706 122.281L184.371 121.765Z" fill="#377EF9"/>
<path d="M201.588 121.765L208.863 144.765H212.412L204.83 121.811L201.588 121.765Z" fill="#377EF9"/>
<path d="M217.984 117.706L225.941 143.412H223.075L215.118 119.135L217.984 117.706Z" fill="#377EF9"/>
<path d="M140.699 140.69C140.723 141.041 140.682 141.394 140.579 141.723C140.398 142.037 140.163 142.3 139.889 142.492C139.615 142.683 139.31 142.8 138.994 142.833L138.519 142.029C137.289 143.423 135.407 143.461 133.721 143.392C132.242 143.321 130.763 143.239 129.285 143.147C129.161 143.163 129.035 143.143 128.919 143.09C128.802 143.037 128.697 142.952 128.613 142.841C128.527 142.643 128.506 142.413 128.556 142.198C128.7 141.359 129.057 140.596 129.578 140.014C130.098 139.433 130.755 139.061 131.458 138.952C132.587 138.799 133.746 139.358 134.856 139.059C136.301 138.669 137.391 136.686 138.867 136.647C140.344 136.609 140.661 139.296 140.699 140.69Z" fill="#3E3E54"/>
<path d="M35.0227 59.5909V71.6136H76.3182C76.3182 68.6864 72.1363 59.9394 70.0454 55.9318L35.0227 59.5909Z" fill="white"/>
<defs>
<linearGradient id="paint0_linear" x1="132.604" y1="138.674" x2="144.757" y2="138.674" gradientUnits="userSpaceOnUse">
<stop stop-opacity="0"/>
<stop offset="0.99"/>
</linearGradient>
<linearGradient id="paint1_linear" x1="7484.31" y1="9735.9" x2="9301.69" y2="9735.9" gradientUnits="userSpaceOnUse">
<stop stop-opacity="0"/>
<stop offset="0.99"/>
</linearGradient>
<linearGradient id="paint2_linear" x1="8425.44" y1="3687.98" x2="10412.2" y2="3687.98" gradientUnits="userSpaceOnUse">
<stop stop-opacity="0"/>
<stop offset="0.99"/>
</linearGradient>
<linearGradient id="paint3_linear" x1="3801.87" y1="7901.45" x2="4026.57" y2="7901.45" gradientUnits="userSpaceOnUse">
<stop stop-color="#E5C5D5"/>
<stop offset="0.42" stop-color="#EAD4D1"/>
<stop offset="1" stop-color="#F0E9CB"/>
</linearGradient>
<linearGradient id="paint4_linear" x1="5389.58" y1="1013.26" x2="5852.12" y2="1013.26" gradientUnits="userSpaceOnUse">
<stop stop-color="#E5C5D5"/>
<stop offset="0.42" stop-color="#EAD4D1"/>
<stop offset="1" stop-color="#F0E9CB"/>
</linearGradient>
<linearGradient id="paint5_linear" x1="1275.55" y1="2990.81" x2="1486.4" y2="2990.81" gradientUnits="userSpaceOnUse">
<stop stop-color="#E5C5D5"/>
<stop offset="0.42" stop-color="#EAD4D1"/>
<stop offset="1" stop-color="#F0E9CB"/>
</linearGradient>
<linearGradient id="paint6_linear" x1="3031.85" y1="2700.08" x2="3289.87" y2="2700.08" gradientUnits="userSpaceOnUse">
<stop stop-color="#E5C5D5"/>
<stop offset="0.42" stop-color="#EAD4D1"/>
<stop offset="1" stop-color="#F0E9CB"/>
</linearGradient>
<linearGradient id="paint7_linear" x1="7667.39" y1="10199.4" x2="8935.36" y2="10199.4" gradientUnits="userSpaceOnUse">
<stop stop-opacity="0"/>
<stop offset="0.99"/>
</linearGradient>
<linearGradient id="paint8_linear" x1="2224.71" y1="3599.91" x2="2903.14" y2="3599.91" gradientUnits="userSpaceOnUse">
<stop stop-color="#E5C5D5"/>
<stop offset="0.42" stop-color="#EAD4D1"/>
<stop offset="1" stop-color="#F0E9CB"/>
</linearGradient>
<linearGradient id="paint9_linear" x1="3688.93" y1="2710.35" x2="4460.65" y2="2710.35" gradientUnits="userSpaceOnUse">
<stop stop-color="#E5C5D5"/>
<stop offset="0.42" stop-color="#EAD4D1"/>
<stop offset="1" stop-color="#F0E9CB"/>
</linearGradient>
<linearGradient id="paint10_linear" x1="4498.08" y1="3389.47" x2="4772.54" y2="3389.47" gradientUnits="userSpaceOnUse">
<stop stop-color="#E5C5D5"/>
<stop offset="0.42" stop-color="#EAD4D1"/>
<stop offset="1" stop-color="#F0E9CB"/>
</linearGradient>
<linearGradient id="paint11_linear" x1="3804.47" y1="10356.3" x2="3493.26" y2="14231" gradientUnits="userSpaceOnUse">
<stop stop-color="#377EF9"/>
<stop offset="0.99"/>
</linearGradient>
<linearGradient id="paint12_linear" x1="10307.2" y1="10199.4" x2="11549.8" y2="10199.4" gradientUnits="userSpaceOnUse">
<stop stop-opacity="0"/>
<stop offset="0.99"/>
</linearGradient>
</defs>
</svg>
