<svg width="167" height="193" viewBox="0 0 167 193" fill="none" xmlns="http://www.w3.org/2000/svg">
<g clip-path="url(#clip0)">
<path d="M21.9599 152.32C19.7982 141.747 24.2251 130.279 20.3839 120.194C17.2158 111.896 9.16129 106.519 4.43341 98.9962C-1.62125 89.3603 -1.46269 76.1892 4.82821 66.7051C11.4815 56.6879 23.3579 51.6696 32.7036 44.0855C38.7971 39.1351 43.881 33.0084 50.1783 28.3261C56.4757 23.6439 64.637 20.4642 72.1835 22.6389C77.0376 24.0349 81.0147 27.444 85.6585 29.386C96.1401 33.7742 108.02 30.1777 119.356 29.2988C129.251 28.5382 139.195 29.917 148.509 33.3412C154.409 35.5127 160.246 38.7118 163.683 43.9692C167.298 49.5013 167.735 56.6782 166.065 63.0698C164.395 69.4615 160.829 75.1907 156.861 80.4837C150.713 88.6849 143.076 98.2562 146.386 107.95C148.483 114.09 154.438 117.968 158.399 123.099C166.977 134.234 164.421 152.227 153.095 160.541C148.496 163.914 142.739 165.876 139.154 170.309C137.17 172.762 136.012 175.803 133.976 178.223C128.721 184.521 119.375 185.009 111.168 184.944C101.208 184.867 91.2493 184.712 81.293 184.479C72.5266 184.275 60.4237 186.011 52.0585 183.383C39.6741 179.486 24.5908 165.146 21.9599 152.32Z" fill="white"/>
<path opacity="0.2" d="M37.4994 175.066C32.6454 176.481 26.8819 179.525 27.2832 184.56C27.6942 189.71 34.1145 191.733 39.2566 192.212C49.0489 193.116 58.906 193.035 68.7403 192.951L109.88 192.606C119.378 192.525 128.941 192.438 138.257 190.602C141.209 190.021 144.28 189.18 146.412 187.048C148.545 184.915 149.305 181.157 147.279 178.934C145.393 176.866 142.121 176.959 139.649 175.641C136.885 174.168 135.41 171.117 133.177 168.923C128.274 164.15 120.572 164.15 113.722 164.444L68.8601 166.412C63.2876 166.655 55.5922 165.572 50.3531 167.705C45.8873 169.488 43.0687 175.066 37.4994 175.066Z" fill="url(#paint0_linear)"/>
<path d="M119.779 48.0989H54.7023C50.4737 48.0989 47.0458 51.5218 47.0458 55.7443V179.722C47.0458 183.945 50.4737 187.368 54.7023 187.368H119.779C124.008 187.368 127.436 183.945 127.436 179.722V55.7443C127.436 51.5218 124.008 48.0989 119.779 48.0989Z" fill="#68E1FD"/>
<path d="M119.779 48.0989H54.7023C50.4737 48.0989 47.0458 51.5218 47.0458 55.7443V179.722C47.0458 183.945 50.4737 187.368 54.7023 187.368H119.779C124.008 187.368 127.436 183.945 127.436 179.722V55.7443C127.436 51.5218 124.008 48.0989 119.779 48.0989Z" fill="url(#paint1_linear)"/>
<path d="M122.782 48.0989H57.7053C53.4768 48.0989 50.0488 51.5218 50.0488 55.7443V179.722C50.0488 183.945 53.4768 187.368 57.7053 187.368H122.782C127.011 187.368 130.439 183.945 130.439 179.722V55.7443C130.439 51.5218 127.011 48.0989 122.782 48.0989Z" fill="#377EF9"/>
<path d="M126.591 59.0533V162.858C126.591 164.627 125.888 166.323 124.635 167.574C123.382 168.825 121.684 169.527 119.912 169.527H60.5758C58.8046 169.527 57.1062 168.824 55.8538 167.573C54.6014 166.322 53.8974 164.626 53.8965 162.858V59.0533C53.8974 57.2847 54.6014 55.5888 55.8538 54.3382C57.1062 53.0876 58.8046 52.3846 60.5758 52.3838H76.5134V54.607C76.5134 55.5385 76.884 56.432 77.5436 57.0907C78.2033 57.7494 79.098 58.1195 80.031 58.1195H103.709C104.642 58.1195 105.537 57.7494 106.196 57.0907C106.856 56.432 107.227 55.5385 107.227 54.607V52.3967H119.912C121.681 52.3967 123.378 53.0976 124.63 54.3456C125.883 55.5936 126.588 57.2867 126.591 59.0533Z" fill="#3E3E54"/>
<path opacity="0.19" d="M103.907 54.1383C102.92 55.069 101.463 55.6183 100.975 56.885C100.57 57.932 100.975 59.0953 101.137 60.2069C101.46 62.7047 100.402 65.1379 99.6997 67.5582C99.0061 69.9503 98.6585 72.429 98.6674 74.9193C98.6674 76.1407 98.7419 77.4494 98.0979 78.4738C97.4539 79.4981 95.742 79.9538 95.0301 78.9617C94.884 78.7417 94.7747 78.4994 94.7065 78.2444C93.5512 74.5444 94.247 70.5472 94.1984 66.6599C94.1499 62.7726 92.9364 58.4037 89.4803 56.6168C88.7226 63.3736 87.5227 70.0736 85.8882 76.6739C85.5387 78.0957 84.775 79.8245 83.2994 79.7922C83.0276 77.6983 82.9208 75.5914 82.814 73.4781C82.3998 65.4686 81.9963 57.4548 81.6037 49.4367C81.5713 48.7904 81.5454 48.0731 81.8464 47.4979C82.2962 46.606 83.3415 46.2053 84.3026 45.9274C87.9528 44.8442 91.726 44.2285 95.5317 44.0952C98.0785 44.0048 101.832 44.5024 103.661 46.5575C105.366 48.4673 105.877 52.2771 103.907 54.1383Z" fill="#15151B"/>
<path d="M97.619 182.165H84.5323C83.4715 182.165 82.4542 181.744 81.7041 180.995C80.954 180.246 80.5326 179.231 80.5326 178.171C80.5309 177.647 80.6325 177.128 80.8318 176.643C81.0311 176.158 81.324 175.717 81.694 175.346C82.0639 174.974 82.5035 174.678 82.9877 174.476C83.472 174.274 83.9913 174.169 84.5161 174.168H97.619C98.6778 174.169 99.6926 174.591 100.441 175.339C101.189 176.087 101.609 177.101 101.609 178.158C101.611 178.682 101.51 179.202 101.311 179.687C101.112 180.172 100.82 180.613 100.45 180.985C100.08 181.357 99.6409 181.653 99.1568 181.855C98.6728 182.058 98.1535 182.163 97.6287 182.165H97.619Z" fill="url(#paint2_linear)"/>
<path d="M72.957 108.81C77.1373 108.81 80.5261 105.426 80.5261 101.252C80.5261 97.0775 77.1373 93.6936 72.957 93.6936C68.7766 93.6936 65.3878 97.0775 65.3878 101.252C65.3878 105.426 68.7766 108.81 72.957 108.81Z" stroke="white" stroke-width="0.82" stroke-miterlimit="10"/>
<path d="M92.4153 108.807C96.5956 108.807 99.9845 105.423 99.9845 101.248C99.9845 97.0742 96.5956 93.6903 92.4153 93.6903C88.235 93.6903 84.8462 97.0742 84.8462 101.248C84.8462 105.423 88.235 108.807 92.4153 108.807Z" stroke="white" stroke-width="0.82" stroke-miterlimit="10"/>
<path d="M111.874 108.807C116.054 108.807 119.443 105.423 119.443 101.248C119.443 97.0742 116.054 93.6903 111.874 93.6903C107.693 93.6903 104.305 97.0742 104.305 101.248C104.305 105.423 107.693 108.807 111.874 108.807Z" stroke="white" stroke-width="0.82" stroke-miterlimit="10"/>
<path d="M80.3218 123.007C81.282 118.944 78.7623 114.873 74.6937 113.914C70.6252 112.956 66.5486 115.472 65.5883 119.534C64.6281 123.597 67.1478 127.668 71.2163 128.627C75.2849 129.585 79.3615 127.069 80.3218 123.007Z" stroke="white" stroke-width="0.82" stroke-miterlimit="10"/>
<path d="M99.781 123.006C100.741 118.943 98.2215 114.873 94.153 113.914C90.0844 112.955 86.0078 115.471 85.0475 119.534C84.0873 123.596 86.607 127.667 90.6756 128.626C94.7441 129.585 98.8207 127.069 99.781 123.006Z" stroke="white" stroke-width="0.82" stroke-miterlimit="10"/>
<path d="M93.2567 159.765C98.9097 159.765 103.492 155.189 103.492 149.545C103.492 143.9 98.9097 139.324 93.2567 139.324C87.6037 139.324 83.0211 143.9 83.0211 149.545C83.0211 155.189 87.6037 159.765 93.2567 159.765Z" fill="#FB765F"/>
<path d="M119.243 123.009C120.204 118.946 117.684 114.875 113.615 113.916C109.547 112.958 105.47 115.474 104.51 119.536C103.55 123.599 106.069 127.67 110.138 128.629C114.207 129.587 118.283 127.071 119.243 123.009Z" stroke="white" stroke-width="0.82" stroke-miterlimit="10"/>
<path d="M86.9626 149.04C86.9057 149.04 86.8494 149.028 86.7971 149.005C86.7449 148.983 86.6975 148.95 86.6579 148.909C86.6182 148.868 86.587 148.82 86.566 148.767C86.545 148.714 86.5346 148.658 86.5354 148.601C86.5365 148.547 86.5474 148.493 86.5678 148.443C86.9173 147.557 87.8622 144.791 93.1532 144.791C98.1496 144.791 99.2758 147.551 99.6447 148.436C99.6901 148.542 99.6918 148.661 99.6493 148.767C99.6068 148.874 99.5237 148.959 99.4182 149.005C99.3663 149.028 99.31 149.04 99.2531 149.04H97.2533C97.1772 149.041 97.1025 149.02 97.037 148.982C96.9715 148.943 96.9177 148.887 96.8811 148.821C96.619 148.336 96.0236 146.006 93.0593 146.006C90.6452 146.006 89.7488 147.299 89.2505 148.746C89.2222 148.831 89.168 148.905 89.0954 148.958C89.0229 149.011 88.9357 149.04 88.846 149.04H86.9626Z" fill="white"/>
<path d="M89.0466 148.643H86.4771C85.8159 148.643 85.2798 149.178 85.2798 149.839V150.339C85.2798 151 85.8159 151.535 86.4771 151.535H89.0466C89.7078 151.535 90.2439 151 90.2439 150.339V149.839C90.2439 149.178 89.7078 148.643 89.0466 148.643Z" fill="white"/>
<path d="M99.4861 148.643H96.9167C96.2554 148.643 95.7194 149.178 95.7194 149.839V150.339C95.7194 151 96.2554 151.535 96.9167 151.535H99.4861C100.147 151.535 100.683 151 100.683 150.339V149.839C100.683 149.178 100.147 148.643 99.4861 148.643Z" fill="white"/>
<path d="M84.3964 26.3874C83.8818 25.5408 81.9208 20.9264 81.2024 19.2784L78.6653 13.4974C78.535 13.763 78.4673 14.0548 78.4673 14.3505C78.4673 14.6462 78.535 14.938 78.6653 15.2036C76.9783 15.2843 75.2984 15.4754 73.6365 15.7756C73.0637 15.879 72.3647 16.131 72.3162 16.7094C72.2806 17.1036 72.5815 17.4397 72.8792 17.7014C73.8902 18.5776 75.098 19.1973 76.4001 19.5078C77.1217 19.679 77.9501 19.8018 78.3773 20.4061C78.5874 20.7627 78.7115 21.1631 78.7397 21.5759C79.1282 24.2295 79.6684 26.8587 80.3578 29.4507C80.6037 30.3749 81.005 31.4218 81.8981 31.7127C82.4806 31.9033 83.1117 31.7127 83.6909 31.5188C85.4513 30.9274 87.215 30.2262 88.6518 29.0532C90.3766 27.6379 96.4183 20.0054 93.4282 18.2088C91.9817 17.3266 88.0175 22.0347 87.2441 22.9944C86.0759 24.4679 85.8332 25.1433 84.3964 26.3874Z" fill="#ECC4D7"/>
<path d="M119.213 36.3012C118.593 36.6427 117.907 36.8477 117.2 36.9022C116.747 36.9636 116.284 37.0024 115.825 37.0218C113.065 37.1349 110.24 36.5016 108.11 34.7792C106.978 33.8615 106.062 32.6627 104.8 31.9292C103.832 31.4158 102.771 31.0984 101.68 30.9953C100.793 30.8757 99.8874 30.8208 99.0039 30.7142C97.03 30.4783 94.8618 29.7932 93.946 28.0289C93.2988 26.8139 93.425 25.3566 93.6224 23.9994C93.9978 21.4143 94.6159 18.8292 94.7259 16.1956C94.7874 14.7738 94.6806 13.2874 93.9169 12.0821C93.4056 11.2807 92.6419 10.6797 92.0432 9.94293C90.3669 7.87486 91.5254 4.59825 93.7292 3.3671C94.1475 3.17605 94.5454 2.94329 94.9168 2.67235C95.3666 2.27813 95.6126 1.70294 96.0074 1.25055C97.1109 -0.0226082 99.0525 -0.0419964 100.719 0.0193996L103.583 0.142192C104.508 0.180968 105.576 0.300529 106.068 1.08252C106.447 1.68355 106.392 2.55602 106.932 2.99872C107.13 3.13999 107.348 3.24906 107.58 3.32186C108.622 3.71096 109.562 4.3327 110.328 5.13967C111.093 5.94664 111.664 6.91752 111.997 7.97826C112.822 10.712 111.974 13.7398 112.796 16.4703C112.856 16.7248 112.977 16.961 113.149 17.1586C113.392 17.3495 113.669 17.4941 113.964 17.5851C115.763 18.3768 116.32 20.6775 116.174 22.6325C116.094 23.7344 115.87 24.8945 116.278 25.9091C116.572 26.6459 117.161 27.2211 117.721 27.7833C118.902 28.9628 120.067 30.2521 120.553 31.8484C121.038 33.4447 120.634 35.4255 119.213 36.3012Z" fill="#3F3D56"/>
<path d="M115.825 37.0218C113.065 37.1349 110.24 36.5015 108.11 34.7792C106.978 33.8615 106.062 32.6627 104.8 31.9292C103.832 31.4158 102.771 31.0984 101.68 30.9953C100.518 29.7027 99.3696 28.3876 98.2564 27.0498C97.3956 26.0157 96.5478 24.9462 96.0333 23.7021C95.5187 22.458 95.3861 21.1945 95.221 19.902C94.7841 16.299 94.3602 12.5636 95.4896 9.11569C95.6317 8.61974 95.8501 8.14882 96.1368 7.71974C98.0784 5.0377 103.23 5.45778 104.923 8.15274C105.357 8.92304 105.659 9.76088 105.816 10.6312C106.124 12.0394 106.327 13.4683 106.424 14.9063C106.502 16.1051 106.547 17.4138 107.334 18.3219C107.825 18.8873 108.547 19.2137 109.078 19.7469C111.11 21.7794 109.502 25.5634 111.142 27.9287C111.566 28.4745 112.074 28.9491 112.647 29.3344C113.942 30.3038 115.365 31.2538 116.181 32.6659C116.996 34.078 117.003 35.9942 115.825 37.0218Z" fill="#25233A"/>
<path d="M89.2537 38.812C89.2537 38.812 77.2512 41.0061 76.9049 44.2148C76.5587 47.4236 79.0795 73.9952 79.0795 73.9952H81.827C81.827 73.9952 86.7619 59.454 85.9109 55.1789C85.0598 50.9038 84.1958 49.7146 84.1958 49.7146C84.1958 49.7146 89.1955 52.1802 93.9233 46.7418C98.6512 41.3034 96.5413 37.6681 96.5413 37.6681L89.2537 38.812Z" fill="#25233A"/>
<path d="M96.0042 38.1592C96.0042 38.1592 84.5582 42.3794 84.7654 45.5914C84.9725 48.8034 92.0173 74.5509 92.0173 74.5509L94.7259 74.0792C94.7259 74.0792 97.0915 58.9176 95.5188 54.8396C93.946 50.7616 92.904 49.7599 92.904 49.7599C92.904 49.7599 99.525 52.7974 103.415 46.7321C106.709 41.5877 101.253 36.3723 97.894 37.5194L96.0042 38.1592Z" fill="#25233A"/>
<path d="M89.2537 38.812V32.0617C89.2537 32.0617 87.2668 28.3779 86.9432 26.4811C86.7555 25.3825 88.1437 22.0121 89.7423 20.7099C90.8555 19.8051 91.684 18.1927 93.1078 18.1474L100.094 17.9374L103.518 27.6315L102.311 38.8702C102.311 38.8702 99.3761 37.3514 89.2537 38.812Z" fill="#FB765F"/>
<path d="M96.4313 37.2673C96.3504 37.3998 95.9556 38.0105 95.9944 38.1592C96.0333 38.3078 97.8552 38.3563 98.5089 38.4209C99.6221 38.5308 101.188 38.7441 102.302 38.8669C103.056 35.1734 102.68 32.8371 103.23 30.8434C103.334 30.6094 103.386 30.3559 103.382 30.1002C103.318 29.6542 101.722 27.3632 101.324 27.1919C100.03 26.6329 100.03 28.5879 99.8809 29.3117C99.3438 32.1715 97.9523 34.8115 96.4313 37.2673Z" fill="#E56C57"/>
<path d="M91.6678 6.71483C91.6678 6.71483 90.0498 12.1015 91.1565 13.0257C92.2633 13.9499 93.2276 14.0791 93.4541 14.538C93.6806 14.9968 94.2502 16.9453 93.4541 18.225C92.6581 19.5046 93.0367 21.3239 94.1984 20.7099C95.3602 20.0959 97.9425 18.212 97.9425 18.212L99.4311 12.806C99.4311 12.806 101.813 7.13814 101.444 5.8973C101.075 4.65645 95.2728 1.33137 91.6678 6.71483Z" fill="url(#paint3_linear)"/>
<path d="M98.6771 8.1204C98.8519 8.79899 98.5412 9.53574 98.7321 10.2111C98.9684 11.0448 99.8745 11.5036 100.719 11.6943C101.564 11.8849 102.48 11.9528 103.201 12.4407C104.017 12.9901 104.515 14.0564 105.466 14.2665C105.943 14.3348 106.429 14.2883 106.884 14.1307C107.932 13.8593 109.062 13.5362 109.722 12.6766C110.064 12.2026 110.269 11.6436 110.314 11.0609C110.547 8.7796 108.981 6.62751 107.029 5.41574C105.078 4.20398 102.774 3.7322 100.557 3.15379C99.3276 2.83065 96.4151 1.9194 95.7356 3.57386C95.2534 4.74685 96.3536 6.87955 97.729 5.7712C97.5963 6.68244 98.4668 7.29317 98.6771 8.1204Z" fill="#3F3D56"/>
<path d="M101.505 13.1355C101.505 13.1355 100.072 14.2923 99.2014 13.9756C98.3309 13.659 96.8391 15.5913 96.8391 15.5913C96.8391 15.5913 96.3795 16.3733 97.3957 16.7546C97.9614 16.956 98.5618 17.0424 99.1615 17.0085C99.7611 16.9747 100.348 16.8213 100.887 16.5575C102.745 15.6172 104.877 12.9222 105.674 12.1273C107.424 10.3468 107.033 6.31083 105.049 6.07494C103.065 5.83905 103.392 8.08809 103.463 8.19149C103.599 8.28472 103.744 8.36274 103.897 8.42415C104.11 8.51888 104.277 8.6943 104.361 8.91184C104.444 9.12939 104.438 9.37124 104.343 9.58421C104.327 9.61968 104.309 9.6542 104.288 9.68761C103.551 10.8638 102.256 12.8285 101.505 13.1355Z" fill="#68E1FD"/>
<path d="M101.505 13.1355C101.505 13.1355 100.072 14.2923 99.2014 13.9756C98.3309 13.659 96.8391 15.5913 96.8391 15.5913C96.8391 15.5913 96.3795 16.3733 97.3957 16.7546C97.9614 16.956 98.5618 17.0424 99.1615 17.0085C99.7611 16.9747 100.348 16.8213 100.887 16.5575C102.745 15.6172 104.877 12.9222 105.674 12.1273C107.424 10.3468 107.033 6.31083 105.049 6.07494C103.065 5.83905 103.392 8.08809 103.463 8.19149C103.599 8.28472 103.744 8.36274 103.897 8.42415C104.11 8.51888 104.277 8.6943 104.361 8.91184C104.444 9.12939 104.438 9.37124 104.343 9.58421C104.327 9.61968 104.309 9.6542 104.288 9.68761C103.551 10.8638 102.256 12.8285 101.505 13.1355Z" fill="url(#paint4_linear)"/>
<path d="M77.2965 77.0649C77.2451 77.1645 77.2216 77.2761 77.2286 77.388C77.2489 77.4627 77.2902 77.53 77.3475 77.582C77.4048 77.6341 77.4758 77.6688 77.5522 77.6821C77.7053 77.7053 77.8616 77.6976 78.0117 77.6594C79.0052 77.5076 80.0439 77.4623 80.8432 76.8548C81.6425 76.2473 82.636 74.6995 81.9435 73.8884C81.9435 73.8076 79.2349 73.8884 78.9372 74.1017C78.1703 74.6413 77.6622 76.2247 77.2965 77.0649Z" fill="url(#paint5_linear)"/>
<path d="M76.1282 78.8584L77.2965 77.0649C77.2965 77.0649 79.9824 78.3866 81.5357 75.5882C82.3318 74.1502 81.9434 73.8982 81.9434 73.8982C81.9434 73.8982 82.8851 74.1082 83.0372 75.8079C83.1278 76.8227 83.1278 77.8436 83.0372 78.8584L82.335 79.2461L81.9564 77.708C81.9564 77.708 80.1636 80.1347 79.6038 80.9587C79.319 81.3821 77.9857 81.702 76.7852 81.912C76.6235 81.9398 76.4578 81.9356 76.2978 81.8995C76.1377 81.8634 75.9864 81.7962 75.8523 81.7016C75.7183 81.6071 75.6042 81.4871 75.5166 81.3486C75.4291 81.21 75.3697 81.0556 75.3419 80.8941C75.2972 80.6382 75.3346 80.3747 75.4487 80.1412C75.6396 79.7664 75.8596 79.3463 76.1282 78.8584Z" fill="#68E1FD"/>
<path d="M90.6388 77.2265C90.5926 77.3276 90.5779 77.4402 90.5967 77.5497C90.6212 77.6183 90.6646 77.6786 90.7218 77.7237C90.779 77.7689 90.8478 77.797 90.9203 77.8049C91.0656 77.818 91.212 77.8015 91.3507 77.7565C92.2762 77.5561 93.3862 77.3235 94.1014 76.703C94.8165 76.0826 95.3537 74.5639 94.8198 73.979C94.8198 73.9079 92.273 74.1406 92.0044 74.3571C91.286 74.9225 90.9009 76.4251 90.6388 77.2265Z" fill="url(#paint6_linear)"/>
<path d="M89.6355 78.9908L90.6387 77.2265C90.6387 77.2265 93.2276 78.3122 94.522 75.5914C95.1692 74.1922 94.8068 73.9757 94.8068 73.9757C94.8068 73.9757 95.7031 74.1211 95.9458 75.7077C96.0909 76.6559 96.1504 77.6151 96.1238 78.5739L95.4766 78.9811L95.03 77.5496C95.03 77.5496 93.4897 79.9473 93.0204 80.7422C92.7777 81.1558 91.5513 81.5371 90.4316 81.8053C90.1295 81.8808 89.8098 81.8337 89.5424 81.6745C89.275 81.5152 89.0816 81.2567 89.0045 80.9555C88.9398 80.7023 88.9626 80.4347 89.0692 80.1961C89.2246 79.873 89.409 79.4658 89.6355 78.9908Z" fill="#68E1FD"/>
<path d="M76.1282 78.8584L77.2965 77.0649C77.2965 77.0649 79.9824 78.3866 81.5357 75.5882C82.3318 74.1502 81.9434 73.8982 81.9434 73.8982C81.9434 73.8982 82.8851 74.1082 83.0372 75.8079C83.1278 76.8227 83.1278 77.8436 83.0372 78.8584L82.335 79.2461L81.9564 77.708C81.9564 77.708 80.1636 80.1347 79.6038 80.9587C79.319 81.3821 77.9857 81.702 76.7852 81.912C76.6235 81.9398 76.4578 81.9356 76.2978 81.8995C76.1377 81.8634 75.9864 81.7962 75.8523 81.7016C75.7183 81.6071 75.6042 81.4871 75.5166 81.3486C75.4291 81.21 75.3697 81.0556 75.3419 80.8941C75.2972 80.6382 75.3346 80.3747 75.4487 80.1412C75.6396 79.7664 75.8596 79.3463 76.1282 78.8584Z" fill="url(#paint7_linear)"/>
<path d="M89.6355 78.9908L90.6387 77.2265C90.6387 77.2265 93.2276 78.3122 94.522 75.5914C95.1692 74.1922 94.8068 73.9757 94.8068 73.9757C94.8068 73.9757 95.7031 74.1211 95.9458 75.7077C96.0909 76.6559 96.1504 77.6151 96.1238 78.5739L95.4766 78.9811L95.03 77.5496C95.03 77.5496 93.4897 79.9473 93.0204 80.7422C92.7777 81.1558 91.5513 81.5371 90.4316 81.8053C90.1295 81.8808 89.8098 81.8337 89.5424 81.6745C89.275 81.5152 89.0816 81.2567 89.0045 80.9555C88.9398 80.7023 88.9626 80.4347 89.0692 80.1961C89.2246 79.873 89.409 79.4658 89.6355 78.9908Z" fill="url(#paint8_linear)"/>
<path d="M98.2435 21.7019C98.2435 21.7019 103.399 37.0348 109.295 31.2797C110.437 30.1649 105.9 13.8852 105.661 13.5072C105.421 13.1291 105.984 10.5989 105.421 10.1304C104.993 9.79121 104.52 9.51182 104.017 9.29993C104.017 9.29993 103.221 9.42918 103.25 9.96882C103.279 10.5085 102.486 10.9899 102.324 11.3712C102.162 11.7525 101.318 12.9223 101.454 13.407C101.641 13.9558 101.891 14.4807 102.201 14.971C102.324 15.097 104.421 24.7103 104.421 24.7103C104.421 24.7103 102.431 17.3331 100.095 17.9245C97.7581 18.5158 98.2435 21.7019 98.2435 21.7019Z" fill="url(#paint9_linear)"/>
</g>
<defs>
<linearGradient id="paint0_linear" x1="86.8623" y1="145.14" x2="89.8599" y2="259.234" gradientUnits="userSpaceOnUse">
<stop offset="0.01" stop-color="#3E3E54"/>
<stop offset="0.91" stop-opacity="0.85"/>
<stop offset="0.93" stop-opacity="0.89"/>
<stop offset="0.98"/>
</linearGradient>
<linearGradient id="paint1_linear" x1="27.8204" y1="117.56" x2="201.393" y2="118.108" gradientUnits="userSpaceOnUse">
<stop offset="0.01" stop-color="#2569E3"/>
<stop offset="0.93" stop-opacity="0.89"/>
<stop offset="0.98"/>
</linearGradient>
<linearGradient id="paint2_linear" x1="8772.25" y1="5067.38" x2="8788.8" y2="7413.62" gradientUnits="userSpaceOnUse">
<stop offset="0.01" stop-opacity="0"/>
<stop offset="0.93" stop-opacity="0.89"/>
<stop offset="0.98"/>
</linearGradient>
<linearGradient id="paint3_linear" x1="4541.1" y1="3525.29" x2="4896.25" y2="3525.29" gradientUnits="userSpaceOnUse">
<stop stop-color="#ECC4D7"/>
<stop offset="0.42" stop-color="#EFD4D1"/>
<stop offset="1" stop-color="#F2EAC9"/>
</linearGradient>
<linearGradient id="paint4_linear" x1="3252.85" y1="-5992.97" x2="3373.05" y2="-5908.86" gradientUnits="userSpaceOnUse">
<stop offset="0.01" stop-opacity="0"/>
<stop offset="0.93" stop-opacity="0.89"/>
<stop offset="0.98"/>
</linearGradient>
<linearGradient id="paint5_linear" x1="1926.04" y1="1618.49" x2="2001.97" y2="1618.49" gradientUnits="userSpaceOnUse">
<stop stop-color="#ECC4D7"/>
<stop offset="0.42" stop-color="#EFD4D1"/>
<stop offset="1" stop-color="#F2EAC9"/>
</linearGradient>
<linearGradient id="paint6_linear" x1="1935.26" y1="1622.3" x2="1996.54" y2="1622.3" gradientUnits="userSpaceOnUse">
<stop stop-color="#ECC4D7"/>
<stop offset="0.42" stop-color="#EFD4D1"/>
<stop offset="1" stop-color="#F2EAC9"/>
</linearGradient>
<linearGradient id="paint7_linear" x1="1977.7" y1="2011.04" x2="2066.75" y2="2090.8" gradientUnits="userSpaceOnUse">
<stop offset="0.01" stop-opacity="0"/>
<stop offset="0.93" stop-opacity="0.89"/>
<stop offset="0.98"/>
</linearGradient>
<linearGradient id="paint8_linear" x1="2116.26" y1="1950.12" x2="2202.11" y2="2038.47" gradientUnits="userSpaceOnUse">
<stop offset="0.01" stop-opacity="0"/>
<stop offset="0.93" stop-opacity="0.89"/>
<stop offset="0.98"/>
</linearGradient>
<linearGradient id="paint9_linear" x1="5041.73" y1="5427.03" x2="5434.74" y2="5427.03" gradientUnits="userSpaceOnUse">
<stop stop-color="#ECC4D7"/>
<stop offset="0.42" stop-color="#EFD4D1"/>
<stop offset="1" stop-color="#F2EAC9"/>
</linearGradient>
<clipPath id="clip0">
<rect width="167" height="193" fill="white"/>
</clipPath>
</defs>
</svg>
