<svg width="251" height="236" viewBox="0 0 251 236" fill="none" xmlns="http://www.w3.org/2000/svg">
<g clip-path="url(#clip0)">
<path d="M108.235 195.45C117.842 194.278 127.154 191.106 136.753 190.05C148.905 188.748 161.161 190.872 172.147 196.184C175.197 197.665 178.28 199.426 181.675 199.502C184.722 199.565 187.635 198.246 190.281 196.715C205.278 188.053 215.296 171.234 215.79 153.887C215.97 147.603 214.993 141.224 216.49 135.09C219.923 121.005 235.252 112.371 239.084 98.3889C241.719 88.7636 238.083 78.1206 231.224 70.9712C224.365 63.8217 214.656 59.9021 204.867 58.5418C194.177 57.0474 183.257 58.362 172.516 57.2466C152.207 55.1075 133.882 44.4406 114.167 39.2109C94.4522 33.9813 69.7748 36.045 58.4779 53.2133C51.6543 63.5807 51.2343 77.3194 43.8575 87.2992C37.6501 95.6909 27.2836 100.35 21.5354 109.071C6.12992 132.517 31.7571 151.269 44.0281 167.211C59.0398 186.71 83.451 198.477 108.235 195.45Z" fill="white"/>
<path d="M132.792 146.197C132.244 148.112 131.663 150.087 130.395 151.64C128.16 154.365 124.354 155.109 120.864 155.399C113.824 155.984 106.678 155.476 99.6083 155.422C97.2316 155.409 94.4749 155.632 93.1109 157.59C92.4997 158.467 92.2674 159.582 91.5515 160.367C90.8355 161.153 89.2602 161.302 88.9271 160.289C88.8315 159.838 88.8849 159.367 89.0793 158.949L90.8175 153.909C91.3987 152.225 91.9936 150.508 93.0564 149.073C94.1192 147.639 95.7309 146.507 97.5028 146.477C98.0978 146.472 98.6895 146.584 99.2896 146.591C101.513 146.62 103.461 145.19 105.316 143.94C109.678 141.008 114.797 138.699 119.982 139.206C119.444 136.363 119.496 133.437 120.133 130.609C120.771 127.781 121.981 125.112 123.689 122.77C125.443 120.393 127.887 118.311 130.8 117.909C131.921 117.757 133.062 117.907 134.104 118.345C135.146 118.783 136.051 119.493 136.727 120.401C138.275 122.624 137.577 125.223 137.203 127.737C136.286 134.013 134.537 140.114 132.792 146.197Z" fill="#3E3E54"/>
<path d="M132.702 146.417C132.153 148.336 131.573 150.307 130.305 151.86C128.071 154.585 124.264 155.329 120.773 155.623C113.727 156.221 106.586 155.704 99.5102 155.664C97.1352 155.646 94.3785 155.869 93.0128 157.832C92.4034 158.705 92.1693 159.824 91.4534 160.609C90.7374 161.394 89.1638 161.54 88.829 160.53C88.7334 160.079 88.7868 159.609 88.9812 159.19L90.7194 154.151C91.3023 152.463 91.8955 150.749 92.9583 149.315C94.0211 147.881 95.6328 146.749 97.4047 146.718C98.0015 146.709 98.5914 146.825 99.1915 146.832C101.416 146.857 103.364 145.427 105.218 144.182C109.58 141.25 114.699 138.941 119.884 139.448C119.347 136.604 119.398 133.677 120.036 130.848C120.674 128.019 121.885 125.35 123.592 123.007C125.347 120.63 127.789 118.552 130.701 118.151C131.823 117.998 132.964 118.148 134.006 118.586C135.048 119.024 135.953 119.734 136.629 120.643C138.177 122.866 137.479 125.465 137.105 127.978C136.189 134.25 134.443 140.347 132.702 146.417Z" fill="url(#paint0_linear)"/>
<path d="M131.488 119.063C129.95 122.855 127.535 126.228 124.443 128.901C122.836 130.287 121.039 131.501 119.762 133.184C111.232 144.255 94.3707 145.476 80.6807 149.11C75.1222 150.584 69.1265 151.939 65.2244 156.08C64.6958 156.645 64.1287 157.293 63.3448 157.365C62.2223 157.462 61.3635 156.209 61.4253 155.104C61.4871 153.999 62.2076 153.058 62.8922 152.181L66.536 147.506C66.9043 146.953 67.3907 146.489 67.9595 146.149C68.5773 145.91 69.228 145.77 69.888 145.733C74.669 145.04 77.8244 140.759 81.4324 137.644C85.5532 134.121 90.618 131.905 95.9818 131.278C97.4027 131.11 98.8804 131.044 100.166 130.436C101.452 129.828 102.518 128.628 103.488 127.506C106.73 123.77 110.158 120.2 113.758 116.811C115.196 115.456 122.707 109.587 124.536 108.776C129.224 106.707 129.717 114.252 131.488 119.063Z" fill="#3E3E54"/>
<path d="M160.627 93.1894C160.408 93.7275 160.145 94.2671 159.918 94.8264C159.19 96.6185 158.22 98.5245 156.445 99.2744C155.091 99.8448 153.558 99.6122 152.099 99.5129C141.53 98.7934 131.892 105.436 121.473 107.413C119.265 107.829 116.826 107.993 114.897 106.938C114.662 106.812 114.437 106.668 114.224 106.507C113.036 105.62 112.284 104.273 111.222 103.244C109.109 101.206 106.041 100.616 103.128 100.499C100.215 100.382 97.248 100.628 94.4175 99.9223C91.587 99.2168 88.8253 97.2558 88.2526 94.3825C87.9474 92.8173 88.3213 91.1971 88.2323 89.6062C87.8837 83.8525 81.7338 79.9772 80.6059 74.3562C80.5864 74.2594 80.5644 74.1567 80.5508 74.0574C80.4037 73.1666 80.3959 72.2575 80.5279 71.363C80.5566 71.1197 80.5991 70.8783 80.6551 70.6397C81.0329 68.9155 81.8735 67.3261 83.0853 66.0445L83.2419 65.8761C84.3094 64.8364 85.5836 64.0357 86.9799 63.5273C88.3762 63.0188 89.8627 62.8142 91.3407 62.927C95.4664 63.2554 98.9994 65.8752 102.861 67.36C106.906 68.914 111.445 69.2623 115.113 71.5618C117.974 73.3508 120.092 76.1955 122.343 78.7386C124.216 80.8471 126.194 82.771 128.812 83.7355C131.134 84.605 133.691 84.5972 136.173 84.411C140.72 84.0764 145.267 83.1988 149.842 83.3393C153.265 83.4417 156.807 84.1943 159.729 86.0378C162.818 88.0132 161.86 90.3833 160.627 93.1894Z" fill="#377EF9"/>
<path d="M153.111 95.1756C151.808 95.8607 150.262 95.7705 148.795 95.7968C142.24 95.9228 138.068 102.599 132.058 105.474C128.355 107.242 118.714 107.279 118.968 106.326C119.304 105.007 116.256 106.972 114.91 106.943C114.674 106.818 114.449 106.673 114.237 106.512C113.049 105.625 112.297 104.278 111.235 103.249C109.122 101.211 106.053 100.621 103.14 100.504C100.228 100.387 97.2607 100.633 94.4301 99.9274C91.5996 99.2218 88.838 97.2609 88.2652 94.3876C87.96 92.8223 88.3339 91.2022 88.245 89.6113C88.0165 85.782 85.2139 82.7877 83.0209 79.5474C81.877 77.9989 81.0557 76.2335 80.6059 74.3561C80.5864 74.2593 80.5644 74.1566 80.5508 74.0573C80.4037 73.1666 80.3959 72.2575 80.5279 71.3629C81.9023 70.7119 83.3998 70.3686 84.9163 70.3568C89.0592 70.3171 92.8175 72.6236 96.7707 73.7507C100.935 74.9488 105.488 74.9026 109.34 76.8819C114.828 79.6839 118.105 86.168 124.017 87.8047C126.414 88.4674 128.96 88.233 131.411 87.8465C135.924 87.1232 140.368 85.8483 144.93 85.5842C148.346 85.3922 151.947 85.8183 155.018 87.4162C155.677 87.7356 156.257 88.1972 156.718 88.7683C156.535 89.3158 156.33 89.8794 156.155 90.4549C155.62 92.2909 154.815 94.2737 153.111 95.1756Z" fill="url(#paint1_linear)"/>
<path d="M136.895 102.809C133.191 104.577 123.707 106.509 119.813 107.602C118.505 107.974 116.251 106.97 114.901 106.94C114.666 106.814 114.441 106.67 114.228 106.509C113.04 105.621 112.288 104.275 111.226 103.246C109.113 101.208 106.045 100.618 103.132 100.501C100.219 100.384 97.2522 100.63 94.4217 99.924C91.5912 99.2185 88.8295 97.2576 88.2568 94.3842C87.9516 92.819 88.3255 91.1989 88.2365 89.608C88.008 85.7787 85.2054 82.7843 83.0125 79.5441C83.3436 79.448 83.6948 79.4503 84.0237 79.5506C84.3526 79.651 84.6451 79.845 84.8658 80.1094C87.0064 83.358 91.2994 84.3121 95.1799 84.4718C99.0604 84.6316 103.13 84.3151 106.617 86.0083C110.549 87.9116 112.954 92.0076 116.529 94.5359C119.149 96.3735 122.296 97.3053 125.497 97.1918C127.242 97.1307 136.336 93.5049 137.252 94.9922C137.588 95.5387 143.801 94.5531 143.731 95.196C143.677 95.6921 137.077 102.36 136.895 102.809Z" fill="url(#paint2_linear)"/>
<path d="M198.996 84.9896C199.135 85.3538 199.163 85.7515 199.078 86.133C198.993 86.5145 198.797 86.8628 198.517 87.1345C197.948 87.6656 197.28 88.0788 196.553 88.3504C190.337 91.092 182.704 92.8336 176.499 95.5744C173.248 97.0131 172.54 97.2588 169.21 98.5072C167.03 99.3246 164.806 100.07 162.794 101.247C160.959 102.327 158.236 105.94 156.635 107.348L148.591 114.446C145.844 116.864 143.082 119.296 139.965 121.203C139.391 121.613 138.727 121.877 138.03 121.972C137.383 121.969 136.744 121.836 136.149 121.583C132.981 120.503 129.599 119.732 126.961 117.658C124.324 115.585 122.74 111.654 124.511 108.766C125.186 107.811 126.02 106.98 126.978 106.312L136.197 98.9764C138.976 96.7686 141.75 94.559 144.572 92.4031C146.78 90.7187 149.071 89.038 151.711 88.1956C154.043 87.4499 156.521 87.3952 158.962 87.3454C164.138 87.2366 169.251 87.3541 174.356 86.4663C179.547 85.5549 184.794 85.0206 190.057 84.8677C193.038 84.7853 196.017 84.8259 198.996 84.9896Z" fill="#FB765F"/>
<path d="M170.853 92.5803C171.612 92.2813 172.038 91.4868 172.652 90.9516C173.525 90.1906 174.727 89.993 175.86 89.7868C180.289 88.9463 184.574 87.4575 188.579 85.3682C184.292 84.7865 179.954 85.7045 175.72 86.6203L168.656 88.1438C165.851 88.7516 163.002 89.3711 160.474 90.7432C160.269 90.8356 160.092 90.9823 159.963 91.1676C159.684 91.6512 160.099 92.2097 160.376 92.6975C161.557 94.7616 162.511 96.092 164.416 93.9241C165.211 93.0178 165.866 92.5387 167.126 92.4185C168.385 92.2983 169.704 93.0317 170.853 92.5803Z" fill="#3F51B5"/>
<path d="M159.044 96.5443C159.52 96.9658 159.934 97.4531 160.274 97.9918C160.432 98.2534 160.62 98.4954 160.834 98.7128C160.941 98.8211 161.069 98.9064 161.21 98.9636C161.351 99.0209 161.502 99.0489 161.654 99.046C161.72 99.0414 161.783 99.0171 161.835 98.9761C161.892 98.9118 161.926 98.8294 161.929 98.7431C162.006 97.6055 161.977 96.4638 161.844 95.3325C161.835 95.1934 161.801 95.0572 161.743 94.9309C161.628 94.7618 161.468 94.6285 161.282 94.5461C160.758 94.2647 160.2 94.0529 159.621 93.9161C159.295 93.8238 158.947 93.8362 158.627 93.9514C158.378 94.081 158.169 94.2756 158.02 94.5146C157.72 94.9008 157.504 95.3464 157.387 95.8218C157.647 95.9277 157.976 95.9278 158.253 96.0406C158.539 96.1703 158.805 96.3398 159.044 96.5443Z" fill="url(#paint3_linear)"/>
<path d="M153.974 89.6478C153.1 90.5458 152.411 91.6076 151.945 92.7723C151.506 93.581 151.268 94.4841 151.254 95.4036C151.251 95.4747 151.268 95.545 151.304 95.6065C151.375 95.6833 151.471 95.7328 151.575 95.7464C152.131 95.8887 152.654 96.1348 153.118 96.472C153.151 96.492 153.176 96.5213 153.192 96.5562C153.206 96.5963 153.207 96.64 153.195 96.6809L152.979 97.7679C152.171 101.882 149.093 105.656 145.058 106.747C143.73 107.029 142.377 107.17 141.021 107.165C138.609 107.286 136.147 107.653 133.981 108.703C131.814 109.753 129.919 111.644 129.292 113.995C132.682 113.701 135.981 112.719 138.988 111.107C141.127 109.957 143.127 108.484 145.438 107.755C146.804 107.323 148.262 107.16 149.548 106.517C152.005 105.294 153.33 102.624 154.488 100.133C156.107 96.6444 157.712 92.4743 155.837 89.1408C155.484 89.2 154.258 89.3831 153.974 89.6478Z" fill="url(#paint4_linear)"/>
<path d="M204.71 81.975C205.588 82.0352 206.538 82.3027 207.011 83.043C207.276 83.5101 207.4 84.0457 207.366 84.5838C207.342 85.8477 206.844 87.2198 205.733 87.8299C205.026 88.1507 204.256 88.304 203.483 88.2781C201.832 88.4125 200.172 88.3638 198.533 88.1331C197.553 87.9622 196.163 87.4517 196.099 86.2461C196.043 85.177 197.338 84.5479 198.103 84.064C200.082 82.8243 202.335 81.8247 204.71 81.975Z" fill="url(#paint5_linear)"/>
<path d="M129.475 89.3653C126.505 89.7385 123.406 90.2614 121.04 92.1039C118.833 93.823 117.555 96.473 116.546 99.0889C115.401 101.961 114.586 104.953 114.115 108.007C114.065 108.347 114.048 108.75 114.307 108.969C114.514 109.101 114.763 109.151 115.005 109.109C116.148 109.024 117.261 108.691 118.267 108.133C119.273 107.576 120.147 106.807 120.831 105.879C121.313 105.211 121.69 104.476 122.128 103.785C123.153 102.275 124.328 100.873 125.635 99.6023C126.154 98.9995 126.772 98.4908 127.462 98.0983C128.163 97.8014 128.908 97.6268 129.666 97.5822C133.939 97.0771 138.222 96.645 142.514 96.2859C144.088 96.2171 145.649 95.9651 147.167 95.535C148.698 95.0957 150.022 94.1154 150.895 92.7751C151.693 91.426 154.08 88.6393 152.189 88.0094C150.298 87.3796 145.863 87.4634 143.905 87.5171C139.051 87.6676 134.272 88.7523 129.475 89.3653Z" fill="white"/>
<path d="M152.067 90.9759C151.651 91.6508 151.166 92.3128 150.886 92.7964C150.012 94.1336 148.689 95.1119 147.16 95.552C145.642 95.9821 144.081 96.2341 142.507 96.3029C138.221 96.6643 133.938 97.0964 129.659 97.5992C128.901 97.6452 128.156 97.8197 127.455 98.1154C126.762 98.5036 126.144 99.0129 125.628 99.6193C124.322 100.891 123.147 102.292 122.121 103.802C121.684 104.493 121.306 105.228 120.82 105.894C120.134 106.819 119.259 107.586 118.255 108.144C117.251 108.701 116.14 109.036 114.998 109.126C114.756 109.17 114.507 109.118 114.302 108.982C114.041 108.767 114.064 108.362 114.112 108.026C114.583 104.965 115.399 101.967 116.546 99.089C117.553 96.4671 118.831 93.8274 121.04 92.104C123.412 90.259 126.511 89.736 129.471 89.3637C134.285 88.7575 139.051 87.6677 143.898 87.5341C145.875 87.4932 150.315 87.4213 152.184 88.0222C153.405 88.4296 152.846 89.7327 152.067 90.9759Z" fill="#FB765F"/>
<path d="M150.201 87.8731C150.774 89.2331 151.472 90.5362 152.285 91.7655C153.101 93.0081 154.311 93.936 155.72 94.3994C155.972 94.4671 156.292 94.4986 156.447 94.2853C156.603 94.0719 156.467 93.7551 156.337 93.5197C155.629 92.2451 155.279 90.6569 155.824 89.2935C156.089 88.641 156.545 88.012 156.456 87.3144C156.323 86.436 155.425 85.943 154.598 85.6513C153.769 85.3589 152.919 85.1323 152.055 84.9737C151.325 84.8401 144.912 85.0633 145.524 85.5096C145.626 85.5854 148.89 85.0553 150.201 87.8731Z" fill="#FB765F"/>
<path d="M151.146 86.1248C150.918 85.9318 150.721 85.7053 150.561 85.4529C150.482 85.327 150.44 85.1809 150.44 85.0315C150.44 84.8821 150.482 84.7355 150.561 84.6088C150.666 84.4795 150.802 84.3801 150.957 84.3207C152.109 83.8014 153.453 83.9674 154.696 84.2153C156.486 84.5726 158.385 85.1465 159.49 86.6021C159.63 86.7874 159.757 87.0414 159.636 87.2438C159.557 87.3512 159.444 87.4289 159.316 87.4643C158.472 87.7927 157.575 87.9123 156.717 88.1906C155.859 88.4689 155.215 89.2238 154.386 89.5141C152.826 90.0601 152.09 87.0463 151.146 86.1248Z" fill="url(#paint6_linear)"/>
<path d="M152.067 90.9758C151.651 91.6507 151.166 92.3127 150.886 92.7963C150.012 94.1336 148.689 95.1118 147.16 95.552C145.642 95.9821 144.081 96.234 142.507 96.3028C138.221 96.6642 133.938 97.0963 129.659 97.5991C128.901 97.6451 128.156 97.8196 127.455 98.1153C126.762 98.5035 126.144 99.0128 125.628 99.6192C124.322 100.891 123.147 102.292 122.121 103.802C121.683 104.493 121.306 105.228 120.82 105.894C120.104 106.878 119.17 107.682 118.092 108.241C118.576 106.297 119.189 104.388 119.925 102.524C120.933 99.9085 122.211 97.2585 124.419 95.5394C126.784 93.6968 129.884 93.1739 132.855 92.7966C137.667 92.1946 142.429 91.103 147.275 90.9737C148.378 90.9235 150.284 90.8883 152.067 90.9758Z" fill="url(#paint7_linear)"/>
<path d="M107.834 111.488C108.709 110.979 109.685 110.672 110.691 110.59C111.697 110.509 112.707 110.654 113.647 111.016C114.558 111.243 115.402 111.682 116.111 112.298C116.627 112.813 116.979 113.469 117.124 114.186C117.269 114.902 117.2 115.647 116.926 116.326C116.745 116.797 116.411 117.194 115.978 117.452C115.763 117.579 115.515 117.64 115.266 117.626C115.017 117.613 114.777 117.526 114.578 117.376C114.519 117.333 114.471 117.275 114.439 117.209C114.407 117.143 114.392 117.069 114.394 116.996C114.406 116.913 114.438 116.834 114.487 116.767C114.891 116.177 115.12 115.484 115.147 114.769C115.158 114.411 115.082 114.057 114.927 113.736C114.771 113.415 114.54 113.137 114.254 112.926C113.692 112.644 113.087 112.457 112.464 112.372C111.518 112.288 109.836 112.291 109.053 112.807C108.27 113.323 107.736 114.528 106.765 114.76C106.109 114.913 105.193 114.828 105.154 113.899C105.115 112.97 107.121 111.845 107.834 111.488Z" fill="#3E3E54"/>
<path d="M162.717 96.9359C162.684 97.1394 162.604 97.3835 162.41 97.4278C162.324 97.4404 162.237 97.43 162.157 97.3975C162.077 97.3651 162.008 97.3119 161.955 97.2433C161.381 96.63 161.186 95.6869 160.491 95.2123C160.041 94.9849 159.572 94.7946 159.091 94.6432C158.634 94.4281 158.217 93.923 158.395 93.4476C158.545 93.079 158.956 92.9105 159.332 92.7818C160.001 92.5598 160.649 92.2656 161.31 92.0156C162.131 91.7075 162.251 91.7366 162.472 92.6162C162.836 94.0245 162.919 95.4924 162.717 96.9359Z" fill="#FB765F"/>
<path d="M155.678 93.7307C155.601 93.7281 155.526 93.747 155.459 93.7852C155.405 93.8329 155.365 93.8961 155.347 93.9664C155.177 94.514 155.172 95.0986 155.33 95.6478C155.465 96.1962 155.669 96.733 155.765 97.305C156.292 97.2679 156.801 97.0881 157.237 96.7845C157.672 96.481 158.019 96.065 158.239 95.5807C158.332 95.4 158.389 95.2026 158.406 95.0001C158.422 94.7975 158.399 94.5939 158.336 94.401C157.972 93.4633 156.449 93.6786 155.678 93.7307Z" fill="#FB765F"/>
<path d="M152.778 101.689C152.039 103.118 150.85 104.262 149.399 104.941C148.341 105.346 147.212 105.523 146.085 105.461C143.735 105.419 141.425 104.866 139.115 104.52C136.805 104.174 134.369 104.019 132.128 104.757C129.122 105.752 126.804 108.211 125 110.82L128.92 111.919C129.146 112 129.387 112.032 129.627 112.013C129.915 111.942 130.18 111.798 130.399 111.597C132.679 109.833 135.266 108.386 138.088 107.81C140.696 107.29 143.388 107.539 146.034 107.336C148.68 107.132 151.487 106.352 153.179 104.285C153.796 103.483 154.3 102.6 154.677 101.661C155.214 100.433 155.687 99.1738 156.12 97.9034C156.466 97.0508 156.612 96.1302 156.546 95.2136C155.615 96.0797 154.641 96.7301 154.272 97.9625C153.91 99.255 153.409 100.505 152.778 101.689Z" fill="white"/>
<path d="M116.188 106.727C115.497 106.89 114.871 107.263 114.396 107.796C113.243 108.863 112.019 110.029 111.67 111.565C111.561 111.97 111.57 112.396 111.695 112.794C111.815 113.066 111.996 113.305 112.223 113.495C112.45 113.685 112.717 113.82 113.005 113.889C113.58 114.023 114.176 114.052 114.763 113.977C115.868 113.887 117.071 113.675 117.804 112.838C118.434 112.107 118.558 111.101 118.664 110.152C118.73 109.532 119.132 107.795 118.718 107.281C118.373 106.875 116.704 106.665 116.188 106.727Z" fill="url(#paint8_linear)"/>
<path d="M122.1 118.502C122.433 118.603 122.741 118.776 123.002 119.007C123.227 119.264 123.379 119.578 123.442 119.916C123.694 121.182 123.505 122.5 122.906 123.647C122.305 124.781 121.578 125.844 120.738 126.813L114.772 134.261C114.243 135.032 113.542 135.667 112.725 136.115C111.364 136.727 109.792 136.227 108.403 135.702C102.613 133.523 96.9821 130.939 91.3897 128.298C90.0329 127.739 88.7753 126.965 87.665 126.005C87.0317 125.392 86.5031 124.546 86.5976 123.686C86.6659 123.276 86.8108 122.883 87.0244 122.526C87.6545 121.416 88.3541 120.347 89.1189 119.325C90.8374 116.928 92.5747 114.509 94.7409 112.507C95.4097 111.822 96.2215 111.295 97.1171 110.965C97.6687 110.805 98.2416 110.734 98.8144 110.756C101.589 110.802 103.906 112.434 106.499 113.206C109.898 114.218 113.265 115.315 116.602 116.496C118.44 117.127 120.272 117.796 122.1 118.502Z" fill="#3E3E54"/>
<path d="M121.454 118.328C121.787 118.432 122.095 118.604 122.357 118.833C122.583 119.091 122.737 119.406 122.801 119.744C123.051 121.011 122.862 122.327 122.265 123.475C121.663 124.609 120.934 125.671 120.093 126.64L114.126 134.088C113.598 134.858 112.896 135.494 112.079 135.942C110.718 136.554 109.147 136.054 107.756 135.533C101.968 133.35 96.341 130.768 90.7427 128.129C89.3859 127.57 88.1283 126.796 87.0181 125.836C86.3889 125.225 85.8562 124.377 85.9506 123.517C86.0205 123.107 86.1667 122.714 86.3817 122.359C87.0107 121.248 87.7088 120.178 88.4719 119.156C90.1905 116.759 91.9278 114.34 94.094 112.338C94.7635 111.654 95.5751 111.127 96.4701 110.796C97.021 110.635 97.5937 110.566 98.1657 110.591C100.942 110.633 103.259 112.265 105.856 113.039C109.249 114.048 112.616 115.144 115.955 116.327C117.792 116.961 119.625 117.628 121.454 118.328Z" fill="url(#paint9_linear)"/>
<path d="M162.684 85.0121C162.878 84.9204 163.05 84.7884 163.189 84.6251C163.298 84.4606 163.373 84.2762 163.41 84.0828C163.691 82.8594 163.778 81.5719 164.327 80.4375C164.933 79.2325 165.97 78.3009 167.229 77.8305C168.481 77.3737 169.841 77.316 171.124 77.6653C171.974 77.8452 172.737 78.3083 173.29 78.9798C173.988 79.9396 173.965 81.2282 173.772 82.4136C173.58 83.599 173.274 84.7875 173.502 85.9513C173.564 86.2679 173.658 86.6414 173.444 86.9148C173.337 87.02 173.215 87.1085 173.082 87.1776C172.061 87.8584 172.237 89.6082 171.206 90.2754C170.952 90.4258 170.669 90.518 170.376 90.5454C169.111 90.6927 167.885 90.1012 166.616 90.0051C165.383 89.9619 164.159 90.2503 163.071 90.8406C161.97 91.3803 160.953 92.0976 159.897 92.73C159.454 93.0683 158.919 93.2631 158.364 93.2882C157.809 93.3132 157.26 93.1674 156.792 92.8703C156.615 92.8347 156.447 92.7642 156.298 92.6628C156.149 92.5614 156.021 92.4311 155.923 92.2795C155.824 92.128 155.757 91.9581 155.724 91.7798C155.692 91.6015 155.695 91.4184 155.733 91.2409C155.736 90.5115 155.855 89.7867 156.086 89.0939C156.594 87.7457 157.563 87.606 158.718 87.0536C160.07 86.4117 161.392 85.7312 162.684 85.0121Z" fill="url(#paint10_linear)"/>
<path d="M173.303 76.2457C172.597 75.4444 171.646 74.9005 170.599 74.6981C169.989 74.5217 169.354 74.4539 168.72 74.4975C166.917 74.6636 165.457 76.099 163.68 76.4434C163.035 76.5713 162.347 76.5532 161.761 76.8484C161.479 76.9884 161.235 77.1934 161.047 77.4465C160.859 77.6996 160.733 77.9936 160.679 78.3045C160.675 78.5602 160.616 78.8123 160.507 79.0437C160.319 79.2581 160.083 79.4247 159.819 79.5295C159.45 79.7491 159.158 80.079 158.983 80.473C158.809 80.8671 158.762 81.3054 158.848 81.7265C159.085 82.8097 160.145 83.4923 160.524 84.5148C160.718 85.0379 160.78 85.6947 161.267 85.9668C161.624 86.11 162.022 86.1072 162.378 85.959C163.308 85.6851 164.264 85.1899 164.685 84.3097C164.811 84.0004 164.9 83.6715 165.064 83.3776C165.129 83.2225 165.233 83.0867 165.365 82.9831C165.497 82.8796 165.653 82.8117 165.819 82.7859C166.01 82.7977 166.194 82.8647 166.349 82.9791C166.503 83.0934 166.621 83.2502 166.689 83.4307C166.852 83.7781 166.909 84.1668 167.066 84.5168C167.075 84.548 167.096 84.5743 167.125 84.5899C167.14 84.5949 167.155 84.5967 167.171 84.5955C167.187 84.5942 167.202 84.5898 167.216 84.5826C167.406 84.4815 167.566 84.3294 167.676 84.1433C167.786 83.9572 167.843 83.7443 167.84 83.5282C167.828 83.0955 167.875 82.6628 167.98 82.2425C168.101 81.985 168.275 81.7561 168.49 81.5712C168.705 81.3863 168.958 81.2496 169.229 81.1704C169.762 80.9819 170.319 80.9021 170.879 80.7298C171.766 80.4287 173.024 79.7206 173.572 78.9264C174.12 78.1322 173.859 76.965 173.303 76.2457Z" fill="#3E3E54"/>
<path d="M157.02 92.1881C157.212 92.6315 157.435 93.2302 157.049 93.5277C156.664 93.8252 156.24 93.5296 155.864 93.3326C155.578 93.1663 155.26 93.0614 154.931 93.0245C154.602 92.9877 154.268 93.0196 153.951 93.1183C153.119 93.4417 152.587 94.4005 151.702 94.5294C152.206 92.3304 153.073 90.23 154.265 88.315C154.439 88.0229 154.642 87.7497 154.871 87.4998C155.321 87.0968 155.836 86.7751 156.394 86.549C156.752 86.4526 157.128 86.4619 157.48 86.5756C157.831 86.6894 158.141 86.9028 158.374 87.1902C158.374 87.1902 156.86 88.214 156.736 88.6768C156.439 89.8483 156.539 91.0841 157.02 92.1881Z" fill="#FB765F"/>
<path d="M122.31 80.7983C121.88 81.8575 120.313 81.9267 119.362 81.2987C118.411 80.6707 117.834 79.6315 117.073 78.7895C114.569 76.0251 110.427 75.7492 106.968 74.3835C102.742 72.7212 99.3469 69.2789 95.0921 67.6394C92.1127 66.4999 88.8563 66.2918 85.7481 67.0422C85.4342 67.0846 85.126 67.1631 84.8297 67.2762C84.6644 67.3572 82.6382 69.0514 80.6525 70.6337C81.0304 68.9095 81.871 67.3201 83.0828 66.0385L83.2394 65.8701C84.3077 64.8311 85.5825 64.0314 86.9793 63.524C88.376 63.0165 89.8627 62.813 91.3407 62.9269C95.4663 63.2554 98.9994 65.8751 102.861 67.3599C106.906 68.914 111.445 69.2623 115.113 71.5618C117.974 73.3508 120.092 76.1955 122.343 78.7386C122.386 79.067 122.41 79.3929 122.433 79.7229C122.471 80.0857 122.429 80.4529 122.31 80.7983Z" fill="url(#paint11_linear)"/>
</g>
<defs>
<linearGradient id="paint0_linear" x1="98.5966" y1="134.542" x2="132.21" y2="148.196" gradientUnits="userSpaceOnUse">
<stop stop-opacity="0"/>
<stop offset="0.99"/>
</linearGradient>
<linearGradient id="paint1_linear" x1="10338.4" y1="10107.1" x2="17306.4" y2="5884.21" gradientUnits="userSpaceOnUse">
<stop stop-color="#377EF9"/>
<stop offset="0.99"/>
</linearGradient>
<linearGradient id="paint2_linear" x1="7904.57" y1="8311.87" x2="10884.5" y2="3941.49" gradientUnits="userSpaceOnUse">
<stop stop-opacity="0"/>
<stop offset="0.99"/>
</linearGradient>
<linearGradient id="paint3_linear" x1="159.404" y1="97.4802" x2="164.672" y2="90.1853" gradientUnits="userSpaceOnUse">
<stop stop-opacity="0"/>
<stop offset="0.72" stop-opacity="0.51"/>
<stop offset="0.99"/>
</linearGradient>
<linearGradient id="paint4_linear" x1="2061.2" y1="5649.87" x2="7252.66" y2="8416.31" gradientUnits="userSpaceOnUse">
<stop stop-opacity="0"/>
<stop offset="0.99"/>
</linearGradient>
<linearGradient id="paint5_linear" x1="197.208" y1="83.202" x2="206.72" y2="87.0659" gradientUnits="userSpaceOnUse">
<stop stop-color="#E5C5D5"/>
<stop offset="0.42" stop-color="#EAD4D1"/>
<stop offset="1" stop-color="#F0E9CB"/>
</linearGradient>
<linearGradient id="paint6_linear" x1="2345.42" y1="1565.58" x2="2422.12" y2="1764.17" gradientUnits="userSpaceOnUse">
<stop stop-opacity="0"/>
<stop offset="0.99"/>
</linearGradient>
<linearGradient id="paint7_linear" x1="4761.08" y1="5885.96" x2="3499.25" y2="8677.45" gradientUnits="userSpaceOnUse">
<stop stop-opacity="0"/>
<stop offset="0.99"/>
</linearGradient>
<linearGradient id="paint8_linear" x1="805.053" y1="2063.25" x2="887.425" y2="2096.71" gradientUnits="userSpaceOnUse">
<stop stop-color="#E5C5D5"/>
<stop offset="0.42" stop-color="#EAD4D1"/>
<stop offset="1" stop-color="#F0E9CB"/>
</linearGradient>
<linearGradient id="paint9_linear" x1="4054.27" y1="5953.26" x2="4574.85" y2="8217.2" gradientUnits="userSpaceOnUse">
<stop stop-color="#111116"/>
<stop offset="0.99"/>
</linearGradient>
<linearGradient id="paint10_linear" x1="3553.46" y1="3456.31" x2="4030.14" y2="3649.95" gradientUnits="userSpaceOnUse">
<stop stop-color="#E5C5D5"/>
<stop offset="0.42" stop-color="#EAD4D1"/>
<stop offset="1" stop-color="#F0E9CB"/>
</linearGradient>
<linearGradient id="paint11_linear" x1="101.657" y1="72.9072" x2="102.122" y2="61.5845" gradientUnits="userSpaceOnUse">
<stop offset="0.02" stop-color="#377EF9"/>
<stop offset="1" stop-color="white"/>
</linearGradient>
<clipPath id="clip0">
<rect width="200.59" height="173.128" fill="white" transform="translate(65.1562) rotate(22.1076)"/>
</clipPath>
</defs>
</svg>
