<svg width="61" height="61" viewBox="0 0 61 61" fill="none" xmlns="http://www.w3.org/2000/svg">
<path d="M30.5 15C25.1716 15 20.8366 19.335 20.8366 24.6634C20.8366 27.73 22.2824 30.5915 24.7277 32.4136V33.2206C24.1322 33.7439 23.7552 34.5105 23.7552 35.3638C23.7552 36.1152 24.0475 36.7994 24.5238 37.3096C24.0475 37.8197 23.7552 38.5037 23.7552 39.2551C23.7552 40.5351 24.6021 41.6209 25.7653 41.9814C26.1394 44.2576 28.1195 45.9999 30.5 45.9999C32.8805 45.9999 34.8608 44.2576 35.2349 41.9814C36.3979 41.6207 37.245 40.5351 37.245 39.2549C37.245 38.5037 36.9527 37.8195 36.4764 37.3093C36.9527 36.7992 37.245 36.1152 37.245 35.3638C37.245 34.5105 36.868 33.7439 36.2723 33.2203V32.4136C38.7176 30.5915 40.1633 27.73 40.1633 24.6634C40.1633 19.335 35.8283 15 30.5 15ZM34.3913 34.3265C34.9632 34.3265 35.4286 34.7919 35.4286 35.3638C35.4286 35.9359 34.9632 36.4014 34.3913 36.4014H26.6089C26.0368 36.4014 25.5713 35.9359 25.5713 35.3638C25.5713 34.7919 26.0368 34.3265 26.6089 34.3265H34.3913ZM30.5 44.1835C29.1718 44.1835 28.0436 43.3108 27.6583 42.1089H33.3417C32.9566 43.311 31.8282 44.1835 30.5 44.1835ZM34.3913 40.2925H26.6089C26.0368 40.2925 25.5713 39.827 25.5713 39.2551C25.5713 38.683 26.0368 38.2178 26.6089 38.2178H34.3913C34.9632 38.2178 35.4286 38.683 35.4286 39.2551C35.4286 39.827 34.9632 40.2925 34.3913 40.2925ZM34.8589 31.1889C34.607 31.3576 34.4559 31.6407 34.4559 31.9436V32.5117C34.4344 32.5113 34.4128 32.5101 34.3913 32.5101H33.3537V28.9307L34.6579 27.6266C35.0126 27.2718 35.0126 26.6969 34.6579 26.3421C34.3033 25.9873 33.7281 25.9873 33.3736 26.3421L31.8034 27.9123C31.6331 28.0826 31.5373 28.3134 31.5373 28.5544V32.5101H29.4627V28.5544C29.4627 28.3137 29.3669 28.0826 29.1966 27.9123L27.6264 26.3421C27.2719 25.9876 26.6969 25.9876 26.3421 26.3421C25.9874 26.6969 25.9874 27.2718 26.3421 27.6266L27.6463 28.9307V32.5103H26.6089C26.5872 32.5103 26.5656 32.5113 26.5441 32.5117V31.9436C26.5441 31.6407 26.393 31.3576 26.1411 31.1889C23.9572 29.7268 22.653 27.2874 22.653 24.6634C22.653 20.3364 26.1733 16.8164 30.5 16.8164C34.8267 16.8164 38.3469 20.3364 38.3469 24.6634C38.3469 27.2874 37.0428 29.7268 34.8589 31.1889Z" fill="#2569E3"/>
<path d="M18.7619 24.6634C18.7619 24.1617 18.3554 23.7552 17.8537 23.7552H15.9082C15.4066 23.7552 15 24.1617 15 24.6634C15 25.1648 15.4066 25.5716 15.9082 25.5716H17.8537C18.3554 25.5716 18.7619 25.1648 18.7619 24.6634Z" fill="#2569E3"/>
<path d="M45.0918 23.7552H43.1463C42.6449 23.7552 42.2381 24.1617 42.2381 24.6634C42.2381 25.1648 42.6449 25.5716 43.1463 25.5716H45.0918C45.5935 25.5716 46 25.1648 46 24.6634C46 24.1617 45.5935 23.7552 45.0918 23.7552Z" fill="#2569E3"/>
<path d="M19.0938 30.1999L17.4089 31.1726C16.9747 31.4236 16.8259 31.9789 17.0766 32.4134C17.2447 32.7048 17.5501 32.8675 17.8639 32.8675C18.0179 32.8675 18.1742 32.8285 18.3171 32.7457L20.002 31.7731C20.4365 31.5222 20.5852 30.9669 20.3345 30.5324C20.0838 30.0979 19.5283 29.9492 19.0938 30.1999Z" fill="#2569E3"/>
<path d="M41.4528 19.2487C41.6068 19.2487 41.7629 19.2094 41.906 19.1269L43.5911 18.1539C44.0254 17.9032 44.1744 17.3479 43.9234 16.9134C43.6725 16.4789 43.1172 16.3301 42.6829 16.5811L40.9978 17.5539C40.5636 17.8046 40.4146 18.3601 40.6655 18.7944C40.8337 19.0857 41.139 19.2487 41.4528 19.2487Z" fill="#2569E3"/>
<path d="M43.5909 31.1726L41.906 30.2001C41.4715 29.9494 40.916 30.0982 40.6653 30.5326C40.4146 30.9669 40.5636 31.5224 40.9978 31.7731L42.683 32.7457C42.8258 32.8282 42.9819 32.8675 43.1361 32.8675C43.45 32.8675 43.7553 32.7045 43.9235 32.4131C44.1744 31.9789 44.0254 31.4233 43.5909 31.1726Z" fill="#2569E3"/>
<path d="M20.0022 17.5536L18.3173 16.5811C17.8828 16.3302 17.3275 16.4792 17.0768 16.9136C16.8259 17.3481 16.9749 17.9034 17.4091 18.1541L19.094 19.1269C19.2371 19.2094 19.3932 19.2487 19.5472 19.2487C19.8613 19.2487 20.1664 19.0857 20.3348 18.7944C20.5855 18.3599 20.4365 17.8046 20.0022 17.5536Z" fill="#2569E3"/>
<circle cx="30.5" cy="30.5" r="29.5" stroke="#2569E3" stroke-width="2"/>
</svg>
