<svg width="61" height="61" viewBox="0 0 61 61" fill="none" xmlns="http://www.w3.org/2000/svg">
<path d="M43.125 36.848V23.9749L44.3906 23.5023C44.7563 23.3658 44.9993 23.0164 45 22.6258C45.0007 22.2352 44.759 21.8851 44.3938 21.7471L29.3313 16.0596C29.1177 15.9788 28.8823 15.9788 28.6689 16.0596L13.6064 21.7471C13.2407 21.8851 12.9993 22.2352 13 22.6258C13.0007 23.0164 13.2437 23.3658 13.6096 23.5023L18.6875 25.3987V32.2335C18.6875 32.6168 18.9209 32.9615 19.2769 33.1038C22.3831 34.3465 25.6545 34.9764 29 34.9764C32.3455 34.9764 35.6169 34.3465 38.7231 33.1038C39.0791 32.9615 39.3125 32.6168 39.3125 32.2335V25.3987L41.25 24.6751V36.848C40.1589 37.2349 39.375 38.2769 39.375 39.4991C39.375 40.2188 39.6472 40.876 40.0935 41.3741C39.6472 41.8721 39.375 42.5294 39.375 43.2491V47.0616C39.375 47.5794 39.7947 47.9991 40.3125 47.9991H44.0625C44.5803 47.9991 45 47.5794 45 47.0616V43.2491C45 42.5294 44.7278 41.8721 44.2815 41.3741C44.728 40.876 45 40.2188 45 39.4991C45 38.2769 44.2163 37.2349 43.125 36.848ZM29 17.9388L41.3958 22.6192C40.8469 22.8243 29.5466 27.0443 29 27.2484C28.5872 27.0943 17.4939 22.9515 16.6042 22.6192L29 17.9388ZM37.4375 31.5902C31.9722 33.6158 26.0278 33.6158 20.5625 31.5902V26.0989L28.6721 29.1275C28.8835 29.2064 29.1165 29.2064 29.3281 29.1275L37.4375 26.0989V31.5902ZM42.1875 38.5616C42.7043 38.5616 43.125 38.9822 43.125 39.4991C43.125 40.0162 42.7043 40.4366 42.1875 40.4366C41.6707 40.4366 41.25 40.0162 41.25 39.4991C41.25 38.9822 41.6707 38.5616 42.1875 38.5616ZM43.125 46.1241H41.25V43.2491C41.25 42.7322 41.6707 42.3116 42.1875 42.3116C42.7043 42.3116 43.125 42.7322 43.125 43.2491V46.1241Z" fill="#2569E3"/>
<path d="M29.9375 22.625C29.9375 23.1428 29.5178 23.5625 29 23.5625C28.4822 23.5625 28.0625 23.1428 28.0625 22.625C28.0625 22.1072 28.4822 21.6875 29 21.6875C29.5178 21.6875 29.9375 22.1072 29.9375 22.625Z" fill="#2569E3"/>
<circle cx="30.5" cy="30.5" r="29.5" stroke="#2569E3" stroke-width="2"/>
</svg>
