<svg width="61" height="61" viewBox="0 0 61 61" fill="none" xmlns="http://www.w3.org/2000/svg">
<path d="M43.5522 25.0417H41.4299L34.4221 18.0339C34.217 16.3274 32.761 15 31 15C29.239 15 27.7832 16.3274 27.5779 18.0339L20.5701 25.0417H18.448C16.5466 25.0417 15 26.5884 15 28.4897V43.5522C15 45.4534 16.5466 47 18.448 47H43.5522C45.4534 47 47 45.4534 47 43.5522V28.4897C47 26.5884 45.4534 25.0417 43.5522 25.0417ZM31 16.875C31.8672 16.875 32.5728 17.5806 32.573 18.4478V18.448C32.5728 19.3154 31.8672 20.021 31 20.021C30.1326 20.021 29.4272 19.3152 29.4272 18.448C29.4272 17.5806 30.1326 16.875 31 16.875ZM28.0435 20.2197C28.6472 21.2231 29.7463 21.896 31 21.896C32.2537 21.896 33.353 21.2231 33.9565 20.2197L38.7783 25.0417H23.2217L28.0435 20.2197ZM45.125 43.5522C45.125 44.4194 44.4194 45.125 43.5522 45.125H18.448C17.5806 45.125 16.875 44.4194 16.875 43.5522V28.4897C16.875 27.6223 17.5806 26.9167 18.448 26.9167H43.5522C44.4194 26.9167 45.125 27.6223 45.125 28.4897V43.5522Z" fill="#2569E3"/>
<path d="M22.0879 34.1731C22.0879 33.6912 22.4998 33.3999 23.2229 33.3999C24.0664 33.3999 24.2974 33.7815 24.6086 33.7815C24.9702 33.7815 25.1309 33.3196 25.1309 33.0886C25.1309 32.4255 23.8152 32.2852 23.2229 32.2852C22.0681 32.2852 20.7825 32.7974 20.7825 34.2937C20.7825 36.6736 24.0061 36.2117 24.0061 37.718C24.0061 38.3206 23.4839 38.5918 22.8813 38.5918C21.8572 38.5918 21.5859 37.8184 21.1743 37.8184C20.863 37.8184 20.6018 38.2402 20.6018 38.5215C20.6018 39.1038 21.606 39.7666 22.9214 39.7666C24.3074 39.7666 25.3118 39.0237 25.3118 37.5876C25.3118 34.9863 22.0879 35.4182 22.0879 34.1731Z" fill="#2569E3"/>
<path d="M29.3281 32.717C29.2378 32.4158 28.8662 32.2751 28.4846 32.2751C28.113 32.2751 27.7415 32.4158 27.6511 32.717L25.7129 39.0334C25.7029 39.0737 25.6929 39.1138 25.6929 39.134C25.6929 39.4553 26.1648 39.6763 26.5164 39.6763C26.7373 39.6763 26.908 39.606 26.9583 39.4153L27.3396 38.0796H29.6394L30.021 39.4153C30.0713 39.606 30.2419 39.6763 30.4629 39.6763C30.8145 39.6763 31.2864 39.4451 31.2864 39.134C31.2864 39.1038 31.2764 39.0737 31.2664 39.0334L29.3281 32.717ZM27.6108 37.0552L28.4846 33.9722L29.3582 37.0552H27.6108Z" fill="#2569E3"/>
<path d="M35.7346 38.5315H33.2844V32.7371C33.2844 32.4558 32.9531 32.3352 32.6316 32.3352C32.3003 32.3352 31.979 32.4558 31.979 32.7371V39.2646C31.979 39.5356 32.2603 39.6763 32.5515 39.6763H35.7349C35.9958 39.6763 36.1265 39.385 36.1265 39.1038C36.1265 38.8127 35.9958 38.5315 35.7346 38.5315Z" fill="#2569E3"/>
<path d="M40.9863 33.4802C41.2476 33.4802 41.3982 33.209 41.3982 32.8977C41.3982 32.6267 41.2676 32.3354 40.9863 32.3354H37.4114C37.1201 32.3354 36.8391 32.4758 36.8391 32.7471V39.2646C36.8391 39.5356 37.1201 39.6763 37.4114 39.6763H40.9863C41.2676 39.6763 41.3982 39.385 41.3982 39.1138C41.3982 38.8025 41.2476 38.5315 40.9863 38.5315H38.1445V36.5129H39.6709C39.9521 36.5129 40.0825 36.2417 40.0825 36.011C40.0825 35.7397 39.9319 35.4888 39.6709 35.4888H38.1445V33.4802H40.9863Z" fill="#2569E3"/>
<circle cx="30.5" cy="30.5" r="29.5" stroke="#2569E3" stroke-width="2"/>
</svg>
