<svg width="61" height="61" viewBox="0 0 61 61" fill="none" xmlns="http://www.w3.org/2000/svg">
<path d="M27.8575 39.0005C27.3568 39.0005 26.9493 38.5929 26.9493 38.0922C26.9493 37.5906 26.5427 37.184 26.0411 37.184C25.5394 37.184 25.1329 37.5906 25.1329 38.0922C25.1329 39.2798 25.8968 40.2916 26.959 40.6638V41.459C26.959 41.9606 27.3655 42.3672 27.8672 42.3672C28.3688 42.3672 28.7754 41.9606 28.7754 41.459V40.6572C29.8274 40.2797 30.5821 39.2727 30.5821 38.0922C30.5821 36.5899 29.3598 35.3676 27.8575 35.3676C27.3568 35.3676 26.9493 34.9601 26.9493 34.4594C26.9493 33.9585 27.3568 33.5512 27.8575 33.5512C28.3582 33.5512 28.7657 33.9585 28.7657 34.4594C28.7657 34.9611 29.1722 35.3676 29.6739 35.3676C30.1755 35.3676 30.5821 34.9611 30.5821 34.4594C30.5821 33.279 29.8274 32.2719 28.7754 31.8942V30.5605C28.7754 30.0589 28.3688 29.6523 27.8672 29.6523C27.3655 29.6523 26.959 30.0589 26.959 30.5605V31.8876C25.8968 32.2599 25.1329 33.2717 25.1329 34.4594C25.1329 35.9618 26.3552 37.184 27.8575 37.184C28.3582 37.184 28.7657 37.5913 28.7657 38.0922C28.7657 38.5929 28.3582 39.0005 27.8575 39.0005Z" fill="#2569E3"/>
<path d="M19.7019 44.5168C21.5918 45.5286 24.1866 46 27.8672 46C30.8619 46 33.1158 45.6897 34.867 45.0298C35.3672 45.6225 36.1148 46 36.9492 46H44.2754C45.7777 46 47 44.7777 47 43.2754C47 42.5782 46.7363 41.9415 46.3039 41.459C46.7365 40.9765 47 40.3398 47 39.6426C47 38.9453 46.7363 38.3087 46.3039 37.8262C46.7365 37.3437 47 36.707 47 36.0098C47 35.3125 46.7363 34.6758 46.3039 34.1934C46.7365 33.7109 47 33.0742 47 32.377C47 30.8746 45.7777 29.6523 44.2754 29.6523H36.9492C36.8608 29.6523 36.7733 29.6568 36.6869 29.6654C35.7754 28.5613 34.7073 27.6356 33.5304 26.9256C33.9616 26.4436 34.2246 25.8076 34.2246 25.1113C34.2246 24.026 33.5865 23.087 32.6658 22.6492L34.1799 18.0063C34.27 17.7296 34.2222 17.4266 34.0515 17.1913C33.8805 16.9557 33.6073 16.8164 33.3164 16.8164H30.4357C30.0606 15.7592 29.0512 15 27.8672 15C26.683 15 25.6731 15.7592 25.2982 16.8164H22.418C22.1271 16.8164 21.8539 16.9557 21.6829 17.1913C21.5121 17.4266 21.4644 17.7296 21.5545 18.0063L23.0686 22.6492C22.1479 23.087 21.5098 24.026 21.5098 25.1113C21.5098 25.8081 21.773 26.4445 22.2049 26.9268C18.5609 29.1261 16 33.3031 16 37.8262C16 40.9507 17.2455 43.2016 19.7019 44.5168ZM45.1836 36.0098C45.1836 36.5105 44.7761 36.918 44.2754 36.918H36.9492C36.4485 36.918 36.041 36.5105 36.041 36.0098C36.041 35.5091 36.4485 35.1016 36.9492 35.1016H44.2754C44.7761 35.1016 45.1836 35.5091 45.1836 36.0098ZM45.1836 39.6426C45.1836 40.1433 44.7761 40.5508 44.2754 40.5508H36.9492C36.4485 40.5508 36.041 40.1433 36.041 39.6426C36.041 39.1419 36.4485 38.7344 36.9492 38.7344H44.2754C44.7761 38.7344 45.1836 39.1419 45.1836 39.6426ZM44.2754 44.1836H36.9492C36.4485 44.1836 36.041 43.7761 36.041 43.2754C36.041 42.7747 36.4485 42.3672 36.9492 42.3672H44.2754C44.7761 42.3672 45.1836 42.7747 45.1836 43.2754C45.1836 43.7761 44.7761 44.1836 44.2754 44.1836ZM45.1836 32.377C45.1836 32.8776 44.7761 33.2852 44.2754 33.2852H36.9492C36.4485 33.2852 36.041 32.8776 36.041 32.377C36.041 31.8763 36.4485 31.4688 36.9492 31.4688H44.2754C44.7761 31.4688 45.1836 31.8763 45.1836 32.377ZM31.474 26.0195H24.2606C24.2526 26.0193 24.2445 26.0195 24.2365 26.0195H24.2344C23.7337 26.0195 23.3262 25.612 23.3262 25.1113C23.3262 24.6116 23.732 24.2048 24.2315 24.2034H24.2341C24.2363 24.2034 24.2384 24.2031 24.2405 24.2031H31.4936C31.4957 24.2031 31.4981 24.2034 31.5002 24.2034H31.5028C32.0023 24.2048 32.4082 24.6116 32.4082 25.1113C32.4082 25.612 32.0007 26.0195 31.5 26.0195H31.4972C31.4896 26.0195 31.4818 26.0193 31.474 26.0195ZM26.0508 18.6328C26.5524 18.6328 26.959 18.2262 26.959 17.7246C26.959 17.2239 27.3665 16.8164 27.8672 16.8164C28.3679 16.8164 28.7754 17.2239 28.7754 17.7246V19.541C28.7754 20.0427 29.182 20.4492 29.6836 20.4492C30.1852 20.4492 30.5918 20.0427 30.5918 19.541V18.6328H32.065L30.8408 22.3867H24.8935L23.6693 18.6328H26.0508ZM24.4115 27.8359H31.3193C32.6946 28.4104 33.9481 29.3151 34.9935 30.4827C34.5181 30.9735 34.2246 31.6414 34.2246 32.377C34.2246 33.0742 34.4883 33.7109 34.9207 34.1934C34.4883 34.6758 34.2246 35.3125 34.2246 36.0098C34.2246 36.707 34.4883 37.3437 34.9207 37.8262C34.4883 38.3087 34.2246 38.9453 34.2246 39.6426C34.2246 40.3398 34.4883 40.9765 34.9207 41.459C34.4883 41.9415 34.2246 42.5782 34.2246 43.2754C34.2246 43.2941 34.2256 43.3125 34.226 43.331C32.6897 43.9111 30.6434 44.1836 27.8672 44.1836C24.4974 44.1836 22.1751 43.7806 20.5592 42.9154C18.688 41.9136 17.8164 40.2965 17.8164 37.8262C17.8164 33.5425 20.5202 29.4603 24.4115 27.8359Z" fill="#2569E3"/>
<circle cx="30.5" cy="30.5" r="29.5" stroke="#2569E3" stroke-width="2"/>
</svg>
