<svg width="61" height="61" viewBox="0 0 61 61" fill="none" xmlns="http://www.w3.org/2000/svg">
<path d="M43.475 38.3162C44.4837 37.4556 45.125 36.1769 45.125 34.75C45.125 32.165 43.0219 30.0625 40.4375 30.0625C40.1162 30.0625 39.8031 30.095 39.5 30.1569V28.1875H42.3125C43.8631 28.1875 45.125 26.9256 45.125 25.375V17.875C45.125 16.3206 43.8687 15 42.3125 15H29.125C27.875 15 26.8444 15.8469 26.4694 16.9375H19.6875C18.1369 16.9375 16.875 18.1994 16.875 19.75V25.375C16.875 26.9256 18.1369 28.1875 19.6875 28.1875H20.625V30.1569C18.4881 30.5925 16.875 32.4862 16.875 34.75C16.875 36.1769 17.5163 37.4556 18.525 38.3162C16.4319 39.4244 15 41.64 15 44.1875V46.0625C15 46.58 15.42 47 15.9375 47H27.1875C27.705 47 28.125 46.58 28.125 46.0625V44.1875C28.125 41.64 26.6931 39.4244 24.6 38.3162C25.6088 37.4556 26.25 36.1769 26.25 34.75C26.25 32.8306 25.09 31.1781 23.4344 30.4537L25.7006 28.1875H34.4244L37.4112 31.1744C36.3962 32.035 35.75 33.3181 35.75 34.75C35.75 36.1769 36.3913 37.4556 37.4 38.3162C35.3069 39.4244 33.875 41.64 33.875 44.1875V46.0625C33.875 46.58 34.295 47 34.8125 47H46.0625C46.58 47 47 46.58 47 46.0625V44.1875C47 41.64 45.5681 39.4244 43.475 38.3162ZM26.25 44.1875V45.125H16.875V44.1875C16.875 41.5681 18.9781 39.4375 21.5625 39.4375C24.1469 39.4375 26.25 41.5681 26.25 44.1875ZM23.5506 32.7625C24.06 33.2713 24.375 33.975 24.375 34.75C24.375 36.3006 23.1131 37.5625 21.5625 37.5625C20.0119 37.5625 18.75 36.3006 18.75 34.75C18.75 33.1994 20.0113 31.9381 21.5619 31.9375C21.5619 31.9375 21.5619 31.9375 21.5625 31.9375C22.3381 31.9375 23.0413 32.2531 23.5506 32.7625ZM25.3125 26.3125C25.0638 26.3125 24.8256 26.4113 24.6494 26.5869L22.5 28.7369V27.25C22.5 26.7325 22.08 26.3125 21.5625 26.3125H19.6875C19.1706 26.3125 18.75 25.8919 18.75 25.375V19.75C18.75 19.2331 19.1706 18.8125 19.6875 18.8125H26.3125V20.6875H21.5625C21.045 20.6875 20.625 21.1075 20.625 21.625C20.625 22.1425 21.045 22.5625 21.5625 22.5625H26.3125V25.375C26.3125 25.7037 26.37 26.0194 26.4738 26.3125H25.3125ZM40.4375 31.9375C41.9881 31.9375 43.25 33.1994 43.25 34.75C43.25 36.3006 41.9881 37.5625 40.4375 37.5625C38.8869 37.5625 37.625 36.3006 37.625 34.75C37.625 33.1994 38.8869 31.9375 40.4375 31.9375ZM35.4756 26.5869C35.2994 26.4113 35.0613 26.3125 34.8125 26.3125H29.125C28.6081 26.3125 28.1875 25.8919 28.1875 25.375V17.875C28.1875 17.3425 28.6256 16.875 29.125 16.875H42.3125C42.8119 16.875 43.25 17.3425 43.25 17.875V25.375C43.25 25.8919 42.8294 26.3125 42.3125 26.3125H38.5625C38.045 26.3125 37.625 26.7325 37.625 27.25V28.7369L35.4756 26.5869ZM45.125 45.125H35.75V44.1875C35.75 41.5681 37.8531 39.4375 40.4375 39.4375C43.0219 39.4375 45.125 41.5681 45.125 44.1875V45.125Z" fill="#2569E3"/>
<path d="M40.4375 18.8125H31C30.4822 18.8125 30.0625 19.2322 30.0625 19.75C30.0625 20.2678 30.4822 20.6875 31 20.6875H40.4375C40.9552 20.6875 41.375 20.2678 41.375 19.75C41.375 19.2322 40.9552 18.8125 40.4375 18.8125Z" fill="#2569E3"/>
<path d="M40.4375 22.5625H31C30.4822 22.5625 30.0625 22.9822 30.0625 23.5C30.0625 24.0178 30.4822 24.4375 31 24.4375H40.4375C40.9552 24.4375 41.375 24.0178 41.375 23.5C41.375 22.9822 40.9552 22.5625 40.4375 22.5625Z" fill="#2569E3"/>
<circle cx="30.5" cy="30.5" r="29.5" stroke="#2569E3" stroke-width="2"/>
</svg>
