<svg width="61" height="61" viewBox="0 0 61 61" fill="none" xmlns="http://www.w3.org/2000/svg">
<path d="M44.1504 19.093H40.4289C40.4424 18.6809 40.4499 18.2662 40.4499 17.8496C40.4499 17.3803 40.0694 17 39.6003 17H21.3997C20.9306 17 20.5501 17.3803 20.5501 17.8496C20.5501 18.2662 20.5576 18.6809 20.5711 19.093H16.8496C16.3803 19.093 16 19.4734 16 19.9427C16 23.7495 16.995 27.3411 18.8015 30.0561C20.5872 32.7401 22.9659 34.2796 25.5355 34.4294C26.1181 35.0633 26.7338 35.5801 27.3753 35.9744V39.7505H25.9499C24.2268 39.7505 22.8252 41.1524 22.8252 42.8753V44.3006H22.7648C22.2955 44.3006 21.9152 44.6811 21.9152 45.1502C21.9152 45.6194 22.2955 45.9998 22.7648 45.9998H38.2352C38.7045 45.9998 39.0848 45.6194 39.0848 45.1502C39.0848 44.6811 38.7045 44.3006 38.2352 44.3006H38.1748V42.8753C38.1748 41.1524 36.7732 39.7505 35.0501 39.7505H33.6247V35.9744C34.2662 35.5803 34.8821 35.0633 35.4647 34.4294C38.0341 34.2796 40.4128 32.7401 42.1987 30.0561C44.0052 27.3411 45 23.7495 45 19.9427C45 19.4734 44.6197 19.093 44.1504 19.093ZM20.2162 29.1149C18.7261 26.8756 17.8506 23.9467 17.7171 20.7923H20.666C20.9724 24.6699 21.8827 28.2542 23.3053 31.0993C23.5319 31.5524 23.7688 31.9806 24.0146 32.3837C22.6015 31.85 21.2937 30.7345 20.2162 29.1149ZM36.4756 42.8753V44.3008H24.5244V42.8753C24.5244 42.0894 25.1638 41.4497 25.9499 41.4497H35.0501C35.8362 41.4497 36.4756 42.0894 36.4756 42.8753ZM31.9255 39.7505H29.0745V36.7127C29.5415 36.8357 30.0174 36.8997 30.5 36.8997C30.9826 36.8997 31.4585 36.8357 31.9255 36.7127V39.7505ZM32.4517 34.6913C32.4134 34.7071 32.3767 34.7261 32.3415 34.7471C31.741 35.0458 31.1239 35.2004 30.5 35.2004C29.8763 35.2004 29.2594 35.0458 28.6592 34.7475C28.6236 34.7261 28.5866 34.7071 28.5479 34.6909C27.8817 34.3387 27.2372 33.8068 26.6276 33.1078C26.5956 33.062 26.5595 33.0198 26.5194 32.9813C25.9143 32.2629 25.345 31.3792 24.8251 30.3393C23.2637 27.2168 22.3619 23.111 22.2592 18.6992H38.7408C38.6379 23.111 37.7361 27.217 36.1749 30.3393C35.655 31.3792 35.0857 32.2629 34.4808 32.9813C34.4405 33.0198 34.404 33.0623 34.3721 33.1081C33.7626 33.8072 33.1179 34.3389 32.4517 34.6913ZM40.7838 29.1149C39.7063 30.7345 38.3985 31.85 36.9854 32.3837C37.2312 31.9806 37.4681 31.5524 37.6947 31.0993C39.1173 28.2542 40.0274 24.6699 40.334 20.7923H43.2829C43.1494 23.9467 42.2739 26.8756 40.7838 29.1149Z" fill="#2569E3"/>
<circle cx="30.5" cy="30.5" r="29.5" stroke="#2569E3" stroke-width="2"/>
</svg>
