<svg width="480" height="376" viewBox="0 0 480 376" fill="none" xmlns="http://www.w3.org/2000/svg">
<g opacity="0.5">
<path opacity="0.5" d="M220.444 320.639C206.403 320.691 192.363 321.055 178.323 322.666C173.038 323.29 167.858 324.642 162.573 325.161C152.004 326.253 141.59 328.28 130.97 329.216C122.421 329.944 113.821 330.411 105.324 331.347C97.3457 332.231 88.4864 332.023 80.5596 330.567C74.7052 329.476 68.799 328.852 62.9964 327.085C56.5203 325.109 49.5261 323.706 42.7909 323.758C33.2063 323.81 23.8289 323.862 14.6587 327.293C11.4466 328.488 7.50908 330.515 5.02225 333.062C-0.573108 338.936 -1.35024 353.542 4.24512 359.624C13.6743 369.864 33.7762 373.867 46.9874 374.074C61.4421 374.282 75.5341 373.139 90.0406 372.515C103.511 371.891 116.929 371.008 130.452 371.06C158.014 371.112 185.576 371.06 213.087 369.136C238.939 367.317 264.844 367.941 290.748 367.941C317.326 367.941 343.697 368.149 370.068 371.839C381.569 373.451 393.278 374.022 404.831 375.114C415.193 376.102 425.089 375.114 435.399 374.178C444.051 373.399 452.651 371.06 460.526 367.161C466.743 364.042 477.83 354.426 479.747 346.993C485.083 326.253 404.365 326.721 391.983 326.773C378.098 326.825 364.161 327.293 350.277 326.773C344.474 326.565 338.723 325.369 333.024 324.07C327.377 322.77 321.626 323.082 315.927 322.562C291.992 320.275 267.952 320.639 243.913 320.639C236.09 320.691 228.267 320.639 220.444 320.639Z" fill="#DBE8FE"/>
</g>
<path d="M130.814 187.986C130.711 187.882 130.555 187.778 130.452 187.726C129.156 187.207 128.172 187.675 126.825 187.467C126.203 187.415 125.53 185.959 124.701 186.947C124.39 187.311 123.768 188.298 123.147 189.078C122.214 190.222 120.349 191.105 118.743 191.521C116.567 192.093 114.235 192.613 112.059 192.872C107.397 193.34 102.164 193.392 97.5011 192.976C97.8638 185.231 93.5119 177.434 86.7249 173.692C85.9996 173.276 85.2742 172.964 84.4453 172.912C83.7718 172.912 83.0983 173.172 82.4766 173.484C76.0523 176.811 79.4198 182.788 81.9585 187.675C83.5645 190.741 85.3261 193.756 87.3466 196.563C90.1961 200.514 94.289 201.293 99.0036 201.137C103.977 200.981 109.055 200.721 113.925 199.526C116.308 198.954 118.38 197.915 120.608 197.031C122.836 196.147 123.095 197.187 125.219 196.927C126.41 196.771 127.654 196.875 128.794 196.459C130.866 195.783 131.54 193.652 132.369 191.885C132.576 191.417 132.679 191.157 132.679 190.689C132.628 189.962 132.161 189.39 131.695 188.818C131.436 188.558 131.177 188.246 130.814 187.986Z" fill="#E5D1BD"/>
<path d="M80.197 191.833C81.6477 194.068 83.2019 196.199 84.7562 198.226C87.0876 201.189 89.678 204.36 93.3565 205.192C94.7553 205.504 96.2578 205.452 97.7084 205.4C104.599 205.036 111.438 204.568 118.277 203.84C118.795 200.254 118.743 196.563 118.173 193.028C118.018 192.041 117.758 190.949 116.981 190.274C115.842 189.286 114.132 189.598 112.681 190.014C110.298 190.637 107.915 191.261 105.583 191.937C104.806 192.145 103.977 192.353 103.252 191.937C102.786 191.677 102.475 191.209 102.216 190.793C96.9831 182.425 94.289 174.472 91.3877 165.115C90.0925 161.009 88.7455 156.746 85.896 153.524C79.7307 146.662 68.3846 150.769 68.7473 160.281C69.1099 171.145 74.0318 182.425 80.197 191.833Z" fill="#FB765F"/>
<path d="M290.955 290.907L291.317 312.686C291.162 318.716 291.732 324.746 292.094 330.775C292.457 336.389 291.317 342.107 293.96 347.305C294.789 348.916 296.55 350.06 297.897 348.188C298.933 346.733 298.467 344.238 298.726 342.575C300.643 329.943 304.218 317.676 305.979 304.993C307.844 291.738 302.715 292.05 290.955 290.907Z" fill="#EACDB0"/>
<path d="M292.199 343.562L290.8 347.201L297.639 353.231L303.959 353.49L305.98 350.164L297.535 342.783L292.199 343.562Z" fill="#292949"/>
<path d="M275.568 291.115L271.631 312.53C270.284 322.095 267.123 331.451 265.776 341.015C265.465 343.198 265.621 345.641 264.688 347.721C263.808 349.748 262.046 349.852 260.492 348.448C258.419 346.577 259.352 343.302 259.404 340.755C259.663 323.966 258.316 307.384 258.005 290.543C258.005 290.335 258.005 290.075 258.16 289.919C258.316 289.815 258.471 289.815 258.679 289.815C260.336 289.919 275.516 291.582 275.568 291.115Z" fill="#EACDB0"/>
<path d="M259.352 344.446L257.176 347.669L262.512 355.102L268.574 356.817L271.32 354.01L264.74 344.914L259.352 344.446Z" fill="#292949"/>
<path d="M313.285 304.733L310.332 273.649L308.933 253.429L304.115 236.9L278.21 232.845L246.193 238.355L244.638 244.593L250.804 302.394L281.682 304.733L281.267 268.763L286.034 291.063L285.826 304.733H313.285Z" fill="#1A3151"/>
<path d="M252.98 176.083C252.928 177.123 252.928 178.162 252.876 179.254C252.513 200.618 253.653 222.189 253.809 243.709C264.792 241.994 275.879 241.058 287.018 240.85C289.609 240.798 301.317 242.617 302.923 241.058C305.151 238.979 302.716 239.343 302.872 236.64C303.079 233.105 301.369 230.246 302.043 226.036C302.768 221.15 304.27 216.263 305.151 211.377C306.861 201.553 307.897 191.573 308.26 181.593C308.571 172.756 308.26 163.556 304.426 155.551C295.048 135.799 264.844 136.162 256.554 156.799C254.119 162.88 253.239 169.482 252.98 176.083Z" fill="white"/>
<path d="M287.07 148.43L278.884 163.4C279.299 178.526 279.765 193.704 280.179 208.83C280.386 215.796 280.594 222.813 280.749 229.778C280.801 232.221 280.853 234.612 280.956 237.055C281.008 238.147 280.697 239.966 281.319 240.85C282.666 242.773 287.588 242.201 289.712 242.357C293.028 242.617 296.447 242.877 299.608 244.073C301.68 244.852 303.7 245.996 305.876 246.308C306.395 246.36 306.913 246.412 307.327 246.048C307.742 245.684 307.845 245.06 307.897 244.489C308.674 234.093 308.674 223.385 309.244 212.833C309.71 204.568 310.798 196.251 310.436 187.934C310.021 179.41 308.726 170.937 307.068 162.568C306.084 157.63 304.996 152.588 302.25 148.326C299.193 143.492 294.789 141.568 289.453 140.529C287.536 140.165 280.49 137.462 281.682 141.776C282.2 144.011 285.619 146.714 287.07 148.43Z" fill="#474EBB"/>
<path d="M269.196 149.833L277.381 164.803C277.226 164.803 276.345 201.553 276.293 204.048C276.034 213.509 275.775 222.917 275.516 232.377C275.464 234.976 275.775 238.095 275.257 240.642C274.532 244.229 270.75 243.553 267.538 243.813C260.492 244.437 253.083 245.632 246.037 245.32C244.016 245.216 246.659 202.593 246.659 198.59C246.659 184.296 243.706 168.39 250.959 155.447C253.083 151.652 256.761 145.623 260.906 143.752C264.74 142.036 270.18 141.724 274.325 140.737L274.532 143.44L269.196 149.833Z" fill="#474EBB"/>
<path d="M287.018 113.499C288.313 115.786 288.934 118.385 289.038 120.984C289.09 121.66 289.142 122.492 289.66 122.908C290.281 123.323 289.712 124.311 290.178 123.739C290.644 123.167 292.198 121.088 292.25 120.361C292.406 118.645 292.406 116.878 292.25 115.163C292.095 113.655 291.784 112.096 290.8 110.952C290.23 110.276 289.453 109.809 288.675 109.341C287.587 108.665 286.396 107.989 285.152 107.729C282.976 107.314 281.578 108.093 283.546 109.653C284.945 110.692 286.137 111.94 287.018 113.499Z" fill="#292949"/>
<path d="M273.237 143.128C273.237 144.219 273.029 145.311 273.962 146.143C274.428 146.558 275.05 146.714 275.62 146.818C277.174 147.078 278.728 146.974 280.231 146.506C280.853 146.299 281.474 146.039 281.889 145.623C282.459 145.103 282.459 144.583 282.51 143.907C282.562 143.128 282.718 142.296 282.821 141.464C283.029 139.697 283.132 137.878 283.184 136.059C285.826 135.591 288.935 134.759 289.816 131.952C290.075 131.068 290.126 130.133 290.126 129.197C290.178 125.351 290.178 121.504 290.23 117.658C290.23 116.306 290.23 114.955 289.764 113.707C288.987 111.524 286.966 110.277 284.946 109.445C279.868 107.366 274.014 107.47 269.299 110.38C268.056 111.16 266.864 112.148 266.191 113.551C265.103 115.682 265.206 118.281 265.414 120.724C265.569 122.96 265.724 125.195 265.88 127.482C266.087 130.081 266.45 133.044 268.47 134.395C269.558 135.123 270.905 135.279 271.838 136.214C273.444 137.826 272.667 140.321 273.133 142.296C273.237 142.556 273.237 142.816 273.237 143.128Z" fill="#EACDB0"/>
<path d="M291.111 127.638C291.059 126.91 290.748 124.831 289.712 126.13C289.453 126.494 289.349 126.962 289.349 127.43C289.349 127.898 289.349 128.366 289.194 128.781C288.883 129.769 287.795 130.237 286.81 130.185C286.448 130.185 286.033 130.133 285.671 129.925C285.36 129.717 285.101 129.457 284.842 129.145C284.22 128.418 283.598 127.69 282.977 127.014C281.889 125.767 279.764 126.338 278.366 126.494C276.708 126.702 275.05 127.222 273.703 128.314C273.547 128.418 273.444 128.521 273.288 128.677C272.978 128.937 272.615 129.249 272.252 129.405C270.957 130.029 269.403 129.353 268.47 128.21C268.056 127.69 267.693 126.962 267.019 126.91C266.501 126.858 266.035 127.222 265.776 127.69C265.517 128.158 265.465 128.729 265.413 129.249C265.31 131.224 265.569 133.304 266.398 135.019C268.263 138.814 271.838 139.281 275.464 139.229C276.915 139.177 278.314 139.177 279.764 139.125C282.355 139.073 285.153 138.969 287.329 137.41C289.246 136.059 290.437 133.771 290.903 131.38C291.111 130.185 291.162 128.885 291.111 127.638ZM281.526 133.044C280.127 133.979 278.625 134.031 277.122 133.564C276.449 133.356 276.76 132.264 277.381 132.472C278.676 132.836 279.868 132.836 281.008 132.056C281.578 131.692 282.096 132.68 281.526 133.044Z" fill="#3E3E54"/>
<path d="M291.629 106.846C291.888 105.91 292.043 104.974 292.199 103.987C291.318 104.299 290.334 104.403 289.453 104.247C289.453 103.675 289.453 103.155 289.453 102.583C289.453 102.116 283.236 101.804 282.769 101.752C278.055 101.388 273.755 100.972 269.506 103.519C265.88 105.702 263.548 108.925 262.979 113.135C262.46 117.138 263.756 122.44 266.087 125.766C266.087 124.675 265.465 122.18 265.724 121.14C265.88 120.101 266.242 119.113 266.709 118.229C267.693 116.41 269.196 114.903 270.905 113.811C273.651 112.096 276.863 111.16 280.075 110.692C283.029 110.276 286.603 109.913 289.505 110.692C290.903 111.056 291.111 111.42 291.991 110.017C292.147 109.757 293.338 106.846 293.183 106.846C292.613 106.846 292.147 106.846 291.629 106.846Z" fill="#3E3E54"/>
<path d="M310.487 162.776C309.14 162.724 307.845 162.153 306.705 161.373C302.198 158.358 300.177 152.848 297.69 148.222C296.188 145.467 294.737 141.361 292.458 139.229C292.043 138.814 287.07 136.474 287.121 136.319L287.381 134.967L288.728 135.227L289.505 134.655L285.878 132.784L288.261 128.781L293.649 128.625C295.204 131.64 296.033 135.071 298.312 137.67C299.245 138.762 300.385 139.697 301.421 140.685C303.234 142.4 304.736 144.375 306.394 146.247C308.467 148.638 311.627 150.613 312.87 153.628C313.544 155.291 314.684 159.138 313.907 160.801C313.285 162.101 311.834 162.776 310.487 162.776Z" fill="#EACDB0"/>
<path d="M314.425 156.591C314.736 156.643 315.098 156.695 315.357 156.954C315.616 157.214 315.668 157.63 315.72 157.994C316.083 162.256 315.409 166.571 314.684 170.781C313.7 176.655 312.456 182.944 308.363 187.259C305.98 189.754 302.146 191.417 299.141 189.754C296.499 188.35 295.515 185.024 295.1 182.061C293.857 173.224 295.359 164.076 299.348 156.123C299.608 155.603 299.918 155.031 300.385 154.719C301.576 153.888 305.255 155.187 306.654 155.447C309.192 155.759 311.834 156.175 314.425 156.591Z" fill="#474EBB"/>
<path d="M246.762 138.294C248.524 136.838 249.197 134.447 248.369 132.264C246.918 128.314 245.467 124.363 244.017 120.413C243.188 118.177 241.633 115.578 241.633 113.239C241.582 109.133 243.032 104.507 243.861 100.556C244.276 98.5291 244.431 95.6702 245.519 93.9029C245.726 93.591 248.42 91.1479 248.369 91.044L247.954 90.2123L247.177 90.6281L246.555 90.4202L248.472 88.5489L246.244 86.4697L242.825 87.4054C242.41 89.5885 242.514 91.9276 241.582 94.0068C241.167 94.8905 240.649 95.6702 240.183 96.5019C239.354 97.9053 238.784 99.4647 238.11 100.972C237.437 102.428 236.504 103.727 235.883 105.182C234.484 108.353 233.137 111.576 231.738 114.799L238.11 135.643C239.198 139.385 243.758 140.737 246.762 138.294Z" fill="#EACDB0"/>
<path d="M261.891 140.269C259.3 139.125 256.865 137.618 254.896 135.747C253.964 134.915 249.819 126.962 250.596 126.754C250.544 126.754 250.493 126.806 250.389 126.806L249.819 127.014H249.767C248.524 126.91 246.296 128.106 245.053 128.521C241.115 129.769 237.23 131.224 233.188 131.9C233.188 135.435 233.862 138.969 234.846 142.348C235.727 145.467 237.281 147.962 238.473 150.925C239.716 153.94 241.271 156.799 242.877 159.605C243.291 160.281 247.177 168.39 246.97 168.442C249.249 168.078 251.011 166.259 252.358 164.44C255.622 160.125 257.176 154.252 261.269 150.769C264.481 148.014 268.626 147.754 268.211 142.244C266.139 141.828 263.963 141.153 261.891 140.269Z" fill="#474EBB"/>
<path d="M194.28 125.974C194.332 126.598 193.969 127.326 193.762 127.898C192.985 129.925 192.726 132.16 193.037 134.291C195.109 134.291 197.233 134.603 199.202 135.279C199.616 133.719 200.083 132.16 200.497 130.549C200.549 130.289 200.653 130.029 200.808 129.873C201.015 129.613 201.326 129.509 201.637 129.353C203.295 128.677 204.901 127.742 206.248 126.546C206.559 126.286 206.818 126.026 206.973 125.663C207.129 125.351 207.129 124.987 207.129 124.623C207.129 121.764 207.129 118.957 207.129 116.098C207.129 115.786 207.129 115.422 206.921 115.163C206.714 114.903 206.403 114.747 206.092 114.643C205.626 114.487 205.108 114.279 204.642 114.123C204.486 114.071 204.383 114.019 204.227 113.967C203.243 113.603 202.984 113.655 202.051 113.967C201.844 114.019 199.772 114.487 199.72 114.331C200.031 117.346 199.15 120.465 197.337 122.856C197.233 123.012 197.078 123.219 196.87 123.219C196.663 123.219 196.456 123.064 196.301 122.908C195.627 122.18 195.109 121.348 194.694 120.465C193.917 120.672 193.14 120.88 192.363 121.036C192.156 122.284 192.57 123.687 193.451 124.623C193.555 124.727 193.658 124.779 193.71 124.883C194.021 125.247 194.228 125.403 194.28 125.974Z" fill="#EACDB0"/>
<path d="M202.155 130.289L192.363 128.677L182.416 155.967L158.946 151.964L164.075 183.412L193.969 165.427L202.155 130.289Z" fill="#353A85"/>
<path d="M124.856 339.872C123.354 339.976 122.007 339.456 120.556 339.3C120.608 334.206 121.178 329.32 122.266 324.278C124.493 326.773 126.359 325.317 126.307 329.995C126.307 331.555 124.545 337.585 124.856 339.872Z" fill="#E5D1BD"/>
<path d="M120.245 336.753C118.535 336.129 118.173 340.184 118.173 341.119C118.173 341.691 118.224 342.263 118.069 342.835C117.914 343.458 117.499 343.978 117.137 344.446C116.308 345.485 115.479 346.525 114.701 347.513C114.339 347.981 113.976 348.448 113.769 349.02C113.303 350.424 114.08 352.035 115.375 352.711C119.882 354.998 124.027 349.436 125.011 345.797C125.167 345.226 125.27 344.654 125.374 344.082C125.581 342.886 126.514 340.339 126.048 339.144C125.478 337.792 123.872 338.78 122.784 338.26C121.747 337.844 120.919 337.013 120.245 336.753Z" fill="#292949"/>
<path d="M152.367 255.976C148.17 267.516 143.3 278.795 140.502 290.855C137.083 305.773 131.54 320.275 128.69 335.245C126.877 335.297 125.012 335.245 123.198 334.986C121.126 334.726 117.81 334.154 117.033 331.867C116.67 330.671 117.033 328.8 117.137 327.604C117.344 323.706 117.603 319.807 117.862 315.961C118.691 304.941 119.209 293.817 121.23 283.006C123.354 271.622 125.374 260.134 127.239 248.751C128.224 242.877 129.415 237.003 130.866 231.234C131.229 229.726 135.166 214.392 135.943 214.496C145.062 215.952 153.61 218.966 161.589 223.697C162.366 224.164 163.091 224.684 163.402 225.516C163.661 226.348 163.402 227.023 163.195 227.803C160.812 234.872 157.651 241.526 155.113 248.595C154.18 250.986 153.299 253.429 152.367 255.976Z" fill="#474EBB"/>
<path d="M153.196 339.092C154.594 339.612 156.045 339.56 157.444 339.82C158.895 334.934 159.827 330.1 160.242 325.005C157.392 326.721 155.993 324.798 154.698 329.268C154.284 330.671 154.128 336.961 153.196 339.092Z" fill="#E5D1BD"/>
<path d="M158.895 338.312C158.895 341.067 161.071 344.03 162.262 346.525C162.418 346.837 162.521 347.097 162.573 347.461C162.573 347.929 162.262 348.396 162.003 348.76C161.589 349.28 161.174 349.852 160.552 350.112C159.931 350.372 159.257 350.216 158.636 350.112C157.548 349.852 156.511 349.592 155.475 349.28C155.216 349.176 154.957 349.124 154.75 348.916C154.491 348.708 154.335 348.396 154.18 348.136C153.455 346.629 152.833 345.589 152.833 343.926C152.885 342.211 153.092 340.443 152.781 338.728C152.626 337.896 152.418 336.857 153.144 336.389C153.714 336.025 154.698 336.545 155.268 336.597C156.304 336.753 157.288 336.701 158.273 337.273C158.48 337.377 158.636 337.533 158.791 337.689C158.843 337.844 158.895 338.104 158.895 338.312Z" fill="#292949"/>
<path d="M151.745 250.726C152.367 262.993 153.662 275.209 152.729 287.528C151.59 302.758 152.574 318.3 150.864 333.426C152.574 334.05 154.387 334.518 156.201 334.83C158.273 335.193 161.589 335.661 162.988 333.686C163.713 332.698 163.868 330.723 164.179 329.58C165.164 325.785 166.044 321.991 166.925 318.196C169.412 307.436 172.21 296.676 173.453 285.709C174.8 274.169 176.251 262.681 177.857 251.194C178.686 245.268 179.307 239.342 179.618 233.365C179.722 231.805 180.499 216.004 179.722 215.848C170.552 214.496 161.537 214.86 152.522 216.991C151.641 217.199 150.761 217.511 150.294 218.187C149.776 218.862 149.828 219.642 149.828 220.422C149.984 227.907 151.072 235.184 151.382 242.669C151.486 245.424 151.641 248.023 151.745 250.726Z" fill="#474EBB"/>
<path d="M146.616 152.328C146.461 152.38 146.305 152.432 146.15 152.484C143.715 153.42 141.591 155.083 139.57 156.747C136.513 159.242 135.011 160.333 133.819 164.024C132.731 167.454 132.006 171.093 131.332 174.628C127.861 192.821 127.188 210.91 124.701 229.259C124.027 234.249 123.509 240.122 127.188 243.553C133.716 238.459 141.901 238.147 149.828 238.147C155.372 238.147 160.812 236.328 166.407 236.952C171.743 237.523 176.354 236.224 181.794 236.588C183.089 236.692 184.747 236.64 185.265 235.444C183.4 229.83 183.452 223.801 182.986 217.875C181.898 202.593 176.821 187.935 174.8 172.756C174.127 167.61 173.764 159.034 169.775 155.135C165.423 150.873 155.579 150.821 149.984 151.653C148.792 151.705 147.704 151.964 146.616 152.328Z" fill="#353A85"/>
<path d="M150.761 152.068C150.864 152.224 150.968 152.432 151.123 152.588C151.745 153.212 152.677 153.576 153.558 153.732C154.75 153.888 155.941 153.68 157.081 153.472C158.635 153.16 158.584 152.224 158.843 150.821C158.946 150.041 159.05 149.262 159.102 148.482C159.154 148.066 158.946 146.507 159.257 146.195C159.464 145.987 160.19 146.039 160.552 145.883C161.071 145.623 161.537 145.103 161.848 144.583C162.366 143.804 162.625 142.868 162.936 141.984C163.402 140.425 163.868 138.814 164.386 137.254C164.853 135.643 165.371 134.031 165.526 132.316C165.785 129.769 165.371 126.234 163.454 124.363C161.744 122.7 159.205 122.076 156.874 121.764C153.817 121.348 150.605 121.92 147.963 123.583C146.875 124.259 145.891 125.091 145.217 126.286C144.233 128.106 144.336 130.393 144.44 132.472C144.543 134.447 144.647 136.371 144.751 138.346C144.854 140.581 145.165 143.18 146.823 144.427C147.704 145.051 148.895 145.207 149.673 146.039C150.605 147.078 150.553 148.638 150.605 149.937C150.502 150.717 150.45 151.445 150.761 152.068Z" fill="#EACDB0"/>
<path d="M160.501 126.754C160.604 126.962 160.708 127.118 160.76 127.326C161.122 128.366 160.863 129.561 161.226 130.601C161.796 132.264 163.713 133.252 163.972 134.967C164.231 136.37 163.246 137.722 163.195 139.125C163.091 140.685 164.075 142.14 163.92 143.7C163.765 145.051 162.936 146.922 162.158 147.962C162.417 147.65 164.645 147.754 165.215 147.39C166.096 146.87 166.2 146.507 166.459 145.571C166.718 144.635 166.51 143.752 166.925 142.816C167.443 141.672 168.427 140.841 168.79 139.593C169.256 137.93 168.375 136.162 168.479 134.395C168.583 131.744 170.862 129.249 170.033 126.754C169.567 125.299 168.116 124.363 167.339 123.012C166.718 122.024 166.51 120.828 166.096 119.737C165.681 118.645 164.956 117.554 163.816 117.19C163.195 116.982 162.521 117.086 161.899 116.982C160.811 116.774 159.879 115.994 158.791 115.63C157.288 115.111 154.542 116.67 153.662 117.97C152.781 119.269 153.247 120.361 154.128 121.504C155.579 123.323 159.257 124.571 160.501 126.754Z" fill="#3E3E54"/>
<path d="M139.881 118.957C138.948 119.633 137.808 120.101 136.979 120.88C135.373 122.44 135.063 124.883 134.959 127.118C134.907 129.093 134.026 130.913 134.234 132.992C134.389 134.395 134.959 135.799 136.099 136.63C137.498 137.67 139.725 137.826 140.347 139.437C141.021 141.205 139.207 143.44 140.295 144.999C140.917 145.831 142.109 145.987 142.989 146.558C143.974 147.182 144.492 148.326 145.062 149.313C145.683 150.301 146.564 151.341 147.704 151.341C147.756 149.573 147.808 148.17 147.03 146.507C146.564 145.571 145.269 143.804 146.305 142.764C146.927 141.932 148.429 141.62 148.481 140.581C148.481 140.061 148.17 139.645 147.859 139.229C146.823 137.618 146.668 135.487 147.393 133.667C148.118 131.9 149.569 130.445 151.331 129.613C153.351 128.625 153.04 128.106 153.61 126.182C154.128 124.363 155.164 123.947 156.77 123.323C158.221 122.752 158.687 122.388 159.205 121.036C159.62 120.049 160.086 118.853 159.516 117.762C159.05 116.878 158.273 116.254 157.496 115.63C155.838 114.383 154.025 113.083 151.952 113.187C150.812 113.291 149.724 113.811 148.585 113.863C147.808 113.915 147.082 113.759 146.305 113.707C145.01 113.655 143.611 114.071 142.575 114.851C141.539 115.63 141.539 116.462 140.969 117.554C140.813 118.177 140.399 118.593 139.881 118.957Z" fill="#3E3E54"/>
<path d="M144.492 111.628C144.699 110.38 144.543 108.769 143.404 108.353C142.782 108.145 142.057 108.353 141.383 108.249C139.933 107.937 139.466 106.222 138.689 104.975C138.585 104.767 138.43 104.611 138.223 104.507C137.912 104.403 137.601 104.507 137.29 104.507C135.84 104.663 134.803 103.259 133.456 102.739C131.798 102.116 129.726 103.155 129.208 104.871C129.001 105.598 129.053 106.326 128.845 107.054C128.068 109.913 123.872 111.16 123.768 114.123C123.716 116.15 125.633 118.074 124.908 119.893C124.442 121.088 122.887 121.868 123.095 123.168C123.198 123.999 124.079 124.519 124.908 124.519C125.737 124.519 126.462 124.051 127.084 123.531C128.068 122.648 128.794 121.556 129.726 120.673C130.659 119.737 131.902 119.009 133.197 119.165C134.441 119.321 135.581 120.309 136.824 120.101C137.808 119.945 138.585 119.061 139.518 118.801C140.451 118.541 141.383 118.905 142.316 119.009C143.248 119.061 144.44 118.593 144.44 117.606C144.44 117.398 144.388 117.138 144.44 116.93C144.647 116.306 145.683 116.358 145.891 115.734C145.372 114.955 144.699 115.267 144.336 114.227C144.129 113.395 144.388 112.408 144.492 111.628Z" fill="#3E3E54"/>
<path d="M333.698 168.598H139.207V304.058H333.698V168.598Z" fill="#8CABEF"/>
<path opacity="0.2" d="M190.187 172.912H143.767V214.288C143.767 191.417 164.542 172.912 190.187 172.912Z" fill="#DDDAE8"/>
<g opacity="0.2">
<path opacity="0.2" d="M224.226 304.057H333.698V234.716C333.698 234.716 323.595 304.057 224.226 304.057Z" fill="#3B3387"/>
</g>
<path opacity="0.49" d="M313.751 74.2018C313.751 74.15 313.751 74.0983 313.751 74.0465C313.803 74.0465 313.803 74.0983 313.854 74.0983C313.803 74.15 313.751 74.2018 313.751 74.2018Z" fill="#808080"/>
<path d="M42.2207 347.565L41.9099 351.983L50.3547 356.973L55.0175 352.919L50.9764 348.188L42.5316 343.198L42.2207 347.565Z" fill="#FB765F"/>
<path d="M37.869 214.08L36.9364 227.387L50.5621 286.436L41.8582 346.109L50.4067 348.5L75.6894 277.08L76.5702 255.456L71.4929 210.858L37.869 214.08Z" fill="#3E3E54"/>
<path d="M92.8382 221.929L98.2263 277.86L93.8744 350.943L85.7404 351.619L75.0159 285.449L58.2817 219.85L92.8382 221.929Z" fill="#3E3E54"/>
<path d="M85.7404 350.632L86.1031 355.05L95.2214 358.688L99.2107 353.906L94.4961 349.904L85.7404 350.632Z" fill="#FB765F"/>
<path d="M30.0978 221.046C29.4761 226.14 28.9062 233.001 30.8231 233.469C31.1858 233.573 31.5484 233.417 31.9111 233.261C35.4859 231.753 38.1282 229.414 41.6512 227.959C45.3296 226.451 49.4225 225.88 53.4118 225.568C59.3698 225.1 65.4315 225.048 71.3895 225.568C76.1041 225.984 80.7669 226.867 85.3779 227.751C89.2117 228.479 92.7347 229.986 96.724 230.142C100.817 230.298 104.91 229.466 108.588 227.699C108.744 227.647 108.847 227.543 108.951 227.439C109.003 227.283 109.003 227.127 108.951 226.971C108.381 224.632 108.018 222.293 106.671 220.266C105.221 217.979 104.288 215.172 103.304 212.677C101.283 207.427 99.4699 201.917 98.2265 196.459C96.3095 188.974 93.9781 181.593 92.1648 174.056C90.8696 168.858 89.7816 163.556 87.8647 158.514C86.3622 154.563 83.5127 148.794 79.6271 146.714C78.2801 146.039 76.7776 145.831 75.2751 145.623C70.7678 144.999 66.2604 144.427 61.753 143.803C60.0951 143.596 58.3854 143.388 56.8312 143.907C54.4998 144.687 52.9455 146.922 51.5985 149.001C45.5887 158.41 41.2885 168.754 38.3872 179.566C36.8848 185.231 35.3823 190.897 34.1389 196.615C32.74 203.009 31.5484 209.402 30.7713 215.9C30.7195 216.627 30.4086 218.654 30.0978 221.046Z" fill="#FB765F"/>
<path d="M65.8977 169.534C65.7941 172.133 65.1724 174.628 64.5507 177.175C60.7168 192.457 56.8829 207.739 53.1009 223.021C65.2242 224.164 77.3475 225.36 89.5225 226.504C89.678 220.63 89.8334 214.808 89.9888 208.934C90.0924 205.192 90.1961 201.397 89.7816 197.655C89.1081 191.625 87.1393 185.803 85.2224 180.033C81.5958 169.378 78.021 158.722 74.3943 148.118C74.1871 147.546 73.9799 146.974 73.5654 146.506C73.0473 145.987 72.322 145.727 71.6485 145.571C68.2291 144.583 64.3952 143.7 60.8722 143.855C59.6806 146.922 62.3229 152.796 63.2036 155.915C64.447 160.333 66.0531 164.803 65.8977 169.534Z" fill="#F7F7F7"/>
<path d="M70.4052 147.65C67.9184 147.286 65.3798 146.922 62.8929 146.558C62.9447 144.531 63.2038 142.504 63.5664 140.529C63.5146 140.789 59.7326 138.242 59.4217 137.722C58.541 136.214 58.6446 133.875 58.3856 132.16C57.8675 128.521 57.4012 124.519 59.5772 121.556C61.8568 118.541 66.1051 117.865 69.8871 118.125C74.6017 118.489 79.7308 120.412 81.7514 124.727C83.5647 128.625 80.2489 133.719 79.0573 137.514C78.4874 139.385 77.6585 141.516 75.7933 142.14C74.809 142.452 73.6692 142.296 72.7884 142.816C71.1824 143.699 71.286 146.039 70.4052 147.65Z" fill="#EACDB0"/>
<path d="M89.8852 118.489C90.4551 115.89 90.9732 113.343 91.5431 110.744C91.7504 109.809 91.9576 108.769 91.7504 107.833C91.3877 106.222 89.937 105.13 88.4346 104.559C86.9321 103.987 85.2743 103.779 83.72 103.259C82.0621 102.687 80.5078 101.804 78.7981 101.7C75.4824 101.492 72.6847 104.299 69.3689 104.455C64.8097 104.715 60.8723 102.22 57.6601 107.21C57.0384 108.145 56.8312 109.237 56.2613 110.172C55.5359 111.42 54.448 112.304 53.5154 113.395C49.4225 118.125 49.7852 125.974 53.619 130.756C55.4841 133.044 56.1577 135.071 58.9553 136.006C57.9192 133.2 60.7686 122.7 64.4989 121.868C65.4833 121.66 68.2291 123.115 69.2653 123.375C71.5967 123.947 73.8245 124.571 75.8968 125.714C79.0054 127.43 82.4766 128.729 85.9996 129.353C86.4659 129.457 86.9321 129.509 87.3466 129.249C87.7093 128.989 87.8129 128.521 87.9165 128.105C88.5382 124.935 89.2117 121.712 89.8852 118.489Z" fill="#3E3E54"/>
<path d="M221.324 62.6109C219.563 50.7075 227.645 39.5838 239.509 37.6606C239.457 37.2967 239.354 36.9329 239.302 36.517C237.126 21.9626 247.125 8.39589 261.632 6.21273C269.507 5.0172 277.122 7.46025 282.77 12.2944C286.448 6.52461 292.51 2.31424 299.815 1.22266C312.767 -0.700592 324.89 7.87609 327.481 20.6112C327.999 20.5072 328.569 20.3513 329.139 20.2993C341.106 18.48 352.245 26.7968 354.007 38.7521C355.457 48.4204 350.38 57.5169 342.143 61.6753C343.593 64.0664 344.629 66.7693 345.044 69.6802C346.754 81.2717 338.775 92.1355 327.222 93.8508C326.341 94.0068 325.46 94.0588 324.579 94.0588L327.947 116.566C328.102 117.554 326.911 118.125 326.444 117.658L309.244 99.7766C306.239 102.48 302.457 104.351 298.209 105.027C290.437 106.17 283.08 102.999 278.521 97.2295C275.257 100.036 271.216 101.96 266.657 102.635C253.757 104.559 241.685 95.6182 239.768 82.6752C239.665 82.1034 239.613 81.5316 239.561 81.0118C230.391 79.6083 222.775 72.3312 221.324 62.6109Z" fill="#5D66D3"/>
<path d="M262.979 58.7644C266.191 58.2966 266.916 63.2867 263.704 63.7545C260.492 64.2223 259.767 59.2322 262.979 58.7644Z" fill="white"/>
<path d="M285.308 55.3858C288.521 54.9179 289.246 59.908 286.034 60.3758C282.873 60.8437 282.148 55.8536 285.308 55.3858Z" fill="white"/>
<path d="M313.285 51.1753C316.497 50.7075 317.223 55.6976 314.011 56.1654C310.85 56.6332 310.073 51.6951 313.285 51.1753Z" fill="white"/>
<path d="M315.995 216.775C313.249 218.958 310.555 221.141 307.809 223.324C309.208 225.456 310.555 227.639 311.902 229.822C312.575 230.914 310.762 231.797 310.14 230.706C308.897 228.626 307.602 226.599 306.306 224.572C303.664 226.703 300.97 228.834 298.328 230.966C297.343 231.745 296.048 230.238 297.033 229.458C299.778 227.275 302.472 225.092 305.218 222.909C303.612 220.518 301.954 218.126 300.245 215.735C299.519 214.696 300.97 213.396 301.747 214.436C303.457 216.827 305.115 219.218 306.721 221.661C309.363 219.53 312.057 217.399 314.699 215.268C315.736 214.436 317.031 215.943 315.995 216.775Z" fill="white"/>
<path d="M306.203 245.572C305.581 241.881 304.648 238.347 303.353 234.864C303.042 234.084 302.11 234.24 301.644 234.76C299.001 237.827 296.929 241.154 295.271 244.844C294.857 245.78 296.152 246.507 296.825 245.936C297.758 245.208 298.587 244.376 299.416 243.545C294.857 258.151 290.505 276.084 274.081 279.463C259.419 282.478 251.13 266.052 244.757 255.552C239.317 246.559 233.515 236.839 224.345 231.225C214.605 225.196 202.585 225.612 192.69 231.069C182.69 236.527 174.712 246.611 174.919 258.411C168.702 258.047 163.314 262.621 162.174 268.859C161.242 274.109 163.884 282.685 169.997 282.426C169.945 282.841 170.101 283.257 170.619 283.413C177.561 285.232 184.141 280.762 185.488 273.745C186.731 267.351 183.416 260.23 176.836 258.671C176.162 242.661 192.586 229.146 207.714 228.782C232.686 228.159 240.509 256.592 253.669 272.497C257.606 277.228 262.631 281.23 268.952 281.75C274.858 282.27 280.557 279.827 285.065 276.084C296.048 267.039 298.328 252.329 302.783 239.49C303.405 241.621 303.923 243.753 304.286 245.988C304.493 247.235 306.41 246.819 306.203 245.572ZM175.437 260.386C175.541 260.438 175.696 260.438 175.852 260.438C176.059 260.49 176.266 260.49 176.473 260.542C188.597 263.297 184.452 283.569 172.38 281.646C172.899 280.97 172.484 279.723 171.5 280.034C164.298 282.218 163.003 271.354 164.765 266.832C166.422 262.465 170.826 259.814 175.437 260.386Z" fill="white"/>
<path d="M165.282 274.525C165.179 273.901 165.127 273.277 165.127 272.653C164.971 265.428 168.702 260.646 176.059 262.361C179.841 263.245 182.068 268.079 182.068 271.666C182.068 274.057 181.343 276.76 179.271 278.007C175.955 280.086 168.132 280.346 165.956 276.396C165.645 275.876 165.438 275.2 165.282 274.525Z" fill="#FB765F"/>
<path d="M223.004 161.783L171.124 88.0083L165.917 91.6942L217.797 165.469L223.004 161.783Z" fill="#FB765F"/>
<path d="M233.428 154.416L181.547 80.6412L176.34 84.3271L228.221 158.102L233.428 154.416Z" fill="#FB765F"/>
<path d="M228.231 158.121L176.35 84.3459L171.143 88.0318L223.024 161.807L228.231 158.121Z" fill="white"/>
<path d="M181.584 80.6438L180.598 79.2422L164.977 90.2998L165.963 91.7014L181.584 80.6438Z" fill="#BABCBE"/>
<path d="M180.596 79.2429L179.61 77.8413L163.989 88.8989L164.975 90.3005L180.596 79.2429Z" fill="#F7F7F7"/>
<path d="M179.572 77.8002L178.587 76.3986L162.966 87.4562L163.951 88.8578L179.572 77.8002Z" fill="#BABCBE"/>
<path d="M155.683 77.0614L162.003 86.0539L177.598 74.9822L171.277 65.9896C168.79 62.403 163.868 61.5714 160.293 64.0664L157.548 65.9896C154.025 68.5886 153.144 73.5267 155.683 77.0614Z" fill="#E8E8E8"/>
<path d="M178.586 76.3987L177.601 74.9971L161.98 86.0547L162.965 87.4563L178.586 76.3987Z" fill="#F7F7F7"/>
<path d="M233.447 154.459L217.853 165.479L239.198 179.254L233.447 154.459Z" fill="#EED5D5"/>
<path d="M237.851 173.484L234.225 176.031L239.198 179.254L237.851 173.484Z" fill="#292949"/>
<path opacity="0.25" d="M71.752 277.912C71.752 277.912 158.584 281.602 159.672 280.926C160.76 280.251 160.138 192.821 156.719 189.494C156.77 189.442 77.0365 272.454 71.752 277.912Z" fill="#3B455A"/>
<path d="M156.667 277.912H67.5556C69.628 264.345 71.0786 248.387 70.9232 230.402C70.7678 216.211 70.8714 203.944 68.799 190.326C98.4855 190.326 126.98 188.454 156.719 188.454C157.962 200.929 158.843 214.548 158.946 229.206C159.05 246.88 158.118 263.201 156.667 277.912Z" fill="#474EBB"/>
<path d="M109.469 225.048C108.847 219.174 106.775 212.313 100.921 209.662C94.289 206.699 87.1394 209.766 81.026 212.625C80.197 213.041 80.9223 214.236 81.7513 213.873C82.373 213.613 82.9947 213.301 83.6164 213.041C84.8598 226.244 82.3212 239.395 83.2537 252.598C83.0465 252.857 83.0983 253.273 83.3056 253.533C83.3056 253.845 83.3574 254.105 83.3574 254.417C83.461 255.352 84.8598 255.352 84.808 254.417C84.7562 254.105 84.7562 253.793 84.7562 253.481C96.5686 249.427 110.971 238.927 109.469 225.048ZM99.3663 243.345C95.118 247.192 90.0925 250.103 84.7044 251.974C83.8754 238.771 86.4141 225.62 85.0671 212.417C90.1443 210.234 95.8433 208.571 100.972 211.274C106.412 214.132 108.226 221.929 108.226 227.595C108.122 234.041 103.874 239.239 99.3663 243.345Z" fill="white"/>
<path d="M120.453 233.573C118.328 232.741 115.427 233.781 113.666 234.924C111.023 236.64 109.314 239.499 108.64 242.565C107.397 248.335 108.951 255.664 115.893 256.236C122.525 256.756 127.55 250.726 128.276 244.541C128.846 239.343 125.737 233.729 120.453 233.573ZM126.618 245.632C125.582 250.362 121.8 254.781 116.619 254.781C110.246 254.781 108.899 248.023 109.987 242.929C110.454 240.642 111.541 238.459 113.355 236.9C114.443 235.964 116.256 234.924 117.966 234.716C118.121 235.028 118.38 235.236 118.795 235.132C119.209 235.028 119.624 234.976 120.038 234.976C120.194 235.028 120.349 235.132 120.504 235.236C120.867 235.496 121.23 235.34 121.385 235.08C125.685 235.912 127.55 241.422 126.618 245.632Z" fill="white"/>
<path d="M139.933 250.05C139.881 249.999 139.881 249.947 139.829 249.947C139 249.063 137.86 249.635 137.446 250.518C137.031 251.09 136.669 251.714 136.772 252.442C136.876 253.221 137.498 253.897 138.327 253.897C139.207 253.897 139.881 253.169 140.088 252.39C140.399 252.078 140.606 251.558 140.502 250.986C140.399 250.57 140.192 250.258 139.933 250.05Z" fill="white"/>
<path d="M143.249 217.459C142.575 216.264 140.71 216.264 139.518 216.212C139.104 216.212 138.793 216.575 138.793 216.939C138.534 225.412 138.482 233.937 138.586 242.409C138.586 242.929 139.052 243.137 139.466 243.085C139.57 243.969 140.865 243.969 140.917 243.033C141.073 236.744 141.591 230.454 142.575 224.216C142.782 222.813 143.041 221.462 143.249 220.058C143.352 219.278 143.663 218.239 143.249 217.459ZM140.192 217.667C140.244 217.667 140.295 217.667 140.399 217.667C140.347 217.771 140.295 217.875 140.295 217.979C140.295 218.239 140.244 218.499 140.192 218.759C140.192 218.395 140.192 218.031 140.192 217.667ZM140.088 222.501C140.192 222.553 140.295 222.605 140.451 222.605C140.295 223.385 140.14 224.112 140.036 224.684C140.088 223.957 140.088 223.229 140.088 222.501Z" fill="white"/>
<path d="M88.8494 216.056C88.7976 215.9 88.7458 215.744 88.6421 215.588C87.7614 214.392 86.5698 214.288 85.3782 213.353C84.8601 212.937 85.0155 211.222 83.6685 211.689C83.2022 211.845 82.0624 212.417 81.0262 212.833C79.5238 213.353 77.296 213.145 75.5345 212.625C73.2031 211.949 70.7163 211.17 68.5403 210.13C63.9293 207.999 59.0593 205.088 54.9145 202.073C59.5255 195.004 59.7846 185.336 55.5363 178.058C55.07 177.279 54.6037 176.551 53.8266 176.083C53.2049 175.719 52.4277 175.563 51.7024 175.511C43.8793 174.992 43.7238 182.477 43.3612 188.506C43.1539 192.249 43.1539 196.095 43.4648 199.838C43.9311 205.088 47.2986 208.103 51.7542 210.598C56.5206 213.249 61.3388 215.848 66.5715 217.459C69.1102 218.239 71.597 218.447 74.1874 218.915C76.7261 219.33 76.4152 220.474 78.5394 221.41C79.731 221.929 80.8708 222.709 82.1142 223.021C84.3938 223.541 86.2589 221.981 88.0204 220.734C88.4349 220.422 88.7457 220.214 88.953 219.798C89.3156 219.07 89.1602 218.291 89.0566 217.511C89.1084 216.939 89.0048 216.471 88.8494 216.056Z" fill="#E5D1BD"/>
<path d="M39.4235 191.365C39.5271 194.276 39.7861 197.135 40.097 199.838C40.6151 203.892 41.2886 208.311 44.2417 211.169C45.3815 212.261 46.7803 213.041 48.1792 213.768C54.8107 217.251 61.5459 220.63 68.281 223.801C70.7678 220.734 72.7366 217.303 74.1872 213.613C74.6017 212.573 74.9643 211.429 74.6017 210.39C74.0836 208.83 72.2703 208.155 70.716 207.739C68.1774 207.011 65.5869 206.283 63.0483 205.556C62.2194 205.296 61.2868 205.036 60.8723 204.256C60.5615 203.788 60.5615 203.165 60.5615 202.593C60.3024 191.885 62.2194 182.944 64.7062 172.6C65.7942 168.026 66.8822 163.296 66.0014 158.722C64.0845 148.898 51.1841 146.351 46.2622 155.447C40.6151 165.843 38.9572 179.15 39.4235 191.365Z" fill="#FB765F"/>
<path d="M318.725 197.187C319.191 196.667 319.295 196.459 320.072 196.147C320.797 195.835 321.678 195.68 322.559 195.108C323.181 194.692 323.025 193.184 324.476 193.756C324.994 193.964 325.978 194.64 327.015 195.056C328.517 195.628 330.693 195.576 332.506 195.16C339.656 193.6 346.805 192.145 354.162 191.417C354.577 191.365 354.991 191.365 355.354 191.105C355.976 190.637 356.079 189.962 356.235 189.234C356.96 185.959 357.841 182.737 359.188 179.618C360.379 176.863 361.83 174.212 364.161 172.237C366.493 170.261 369.55 169.274 372.451 170.209C374.575 170.885 376.388 172.393 376.803 174.628C377.891 180.19 372.814 184.348 369.757 188.246C366.856 191.937 364.421 195.056 361.364 198.434C361.001 198.85 360.638 199.266 360.12 199.474C359.602 199.734 358.981 199.734 358.411 199.734C351.106 199.63 343.956 199.37 336.755 200.826C334.786 201.241 332.973 200.826 331.107 201.449C329.916 201.865 329.294 203.009 328.206 203.58C327.118 204.152 325.823 204.724 324.631 204.776C322.248 204.932 320.746 203.165 319.088 201.709C317.793 200.566 316.808 200.202 315.098 200.67C314.891 200.722 314.684 200.878 314.477 200.826C313.803 200.67 313.544 199.89 313.855 199.318C314.218 198.746 314.788 198.538 315.409 198.331C316.031 198.123 316.756 197.915 317.43 197.915C317.741 197.915 318.052 197.915 318.259 197.707C318.466 197.551 318.518 197.395 318.725 197.187Z" fill="#E5D1BD"/>
<path d="M369.601 186.271C365.457 184.712 361.156 183.724 357.115 181.853C358.566 178.318 362.814 164.024 363.54 162.308C366.337 155.759 366.855 152.952 370.689 149.521C378.823 142.14 388.511 147.026 388.149 157.474C387.734 168.806 381.673 178.578 375.093 187.363C374.938 187.571 374.73 187.727 374.523 187.779C374.264 187.882 373.901 187.779 373.591 187.675C372.244 187.155 370.896 186.739 369.601 186.271Z" fill="#AAB4B5"/>
<path d="M372.192 342.419C370.741 342.471 369.343 342.159 367.944 342.003C367.218 327.916 368.565 313.102 369.135 298.964C372.762 299.171 376.337 299.327 379.963 299.535C377.425 307.124 375.663 314.921 374.627 322.822C374.42 324.07 372.399 342.367 372.192 342.419Z" fill="#E5D1BD"/>
<path d="M367.477 339.248C366.597 339.092 366.079 339.508 365.457 340.028C365.094 340.34 364.887 340.807 364.473 341.015C364.058 341.223 363.644 341.275 363.177 341.327C360.587 341.587 354.577 341.483 357.789 345.849C360.69 349.8 368.41 348.241 372.866 347.149C373.176 347.097 373.487 347.045 373.695 346.785C373.902 346.577 374.057 346.213 374.161 345.901C374.679 344.03 375.352 341.691 373.073 340.911C372.088 340.599 371.208 341.223 370.172 340.859C369.239 340.651 368.358 339.404 367.477 339.248Z" fill="#292949"/>
<path d="M361.002 307.436C368.358 307.28 375.715 307.124 383.072 307.02C389.03 278.587 394.263 249.947 398.822 221.254C399.185 219.018 399.495 216.731 398.874 214.548C397.682 210.442 393.278 208.103 389.134 207.323C382.658 206.127 370.69 207.791 367.374 214.548C363.851 221.721 364.421 234.508 363.592 242.409C361.261 263.981 360.38 285.761 361.002 307.436Z" fill="#3E3E54"/>
<path d="M414.312 342.419C415.763 342.471 417.162 342.159 418.561 342.003C419.286 327.916 417.939 313.102 417.369 298.964C413.742 299.171 410.168 299.327 406.541 299.535C409.08 307.124 410.841 314.921 411.877 322.822C412.085 324.07 414.105 342.367 414.312 342.419Z" fill="#E5D1BD"/>
<path d="M418.975 339.248C419.856 339.092 420.374 339.508 420.996 340.028C421.359 340.34 421.566 340.807 421.98 341.015C422.395 341.223 422.809 341.275 423.276 341.327C425.866 341.587 431.876 341.483 428.664 345.849C425.762 349.8 418.043 348.241 413.587 347.149C413.276 347.097 412.966 347.045 412.758 346.785C412.551 346.577 412.396 346.213 412.292 345.901C411.774 344.03 411.1 341.691 413.38 340.911C414.364 340.599 415.245 341.223 416.281 340.859C417.214 340.651 418.095 339.404 418.975 339.248Z" fill="#292949"/>
<path d="M425.452 307.436C418.095 307.28 410.738 307.124 403.381 307.02C397.423 278.587 392.19 249.947 387.631 221.254C387.269 219.018 386.958 216.731 387.579 214.548C388.771 210.442 393.175 208.103 397.319 207.323C403.796 206.127 415.763 207.791 419.079 214.548C422.602 221.721 422.032 234.508 422.861 242.409C425.193 263.981 426.073 285.761 425.452 307.436Z" fill="#3E3E54"/>
<path d="M406.593 151.393C412.499 157.006 416.903 164.284 419.597 171.769C424.312 185.076 424.415 199.214 424.467 213.145C424.467 217.771 424.519 222.397 424.519 227.023C424.519 231.598 424.156 232.533 419.183 231.961C410.064 230.87 400.531 228.947 392.294 224.892C388.356 222.969 384.678 220.526 380.533 218.966C374.523 216.731 368.358 217.771 362.4 216.316C364.99 208.467 366.804 201.813 368.151 193.756C369.498 185.439 370.741 176.395 372.762 168.182C373.953 163.244 376.181 158.67 378.461 154.148C379.963 151.133 381.621 148.014 384.212 145.779C391.931 139.229 400.687 145.779 406.593 151.393Z" fill="#474EBB"/>
<path d="M385.3 131.9C386.439 134.343 388.253 136.37 389.703 138.606C391.154 140.789 391.672 142.764 392.035 145.259C392.294 147.078 392.967 148.482 395.143 148.794C399.288 149.365 398.096 145.987 399.029 143.492C400.117 140.633 402.397 138.398 404.003 135.851C408.614 128.521 407.318 114.019 397.734 110.9C387.217 107.574 381.88 124.467 385.3 131.9Z" fill="#E5D1BD"/>
<path d="M401.982 124.831C403.174 124.883 404.469 124.987 405.35 125.767C406.231 126.546 406.127 128.314 404.987 128.521C403.951 128.677 402.552 127.586 401.93 128.417C401.568 128.885 401.879 129.561 402.19 130.133C403.278 132.264 403.64 134.707 403.122 136.942C403.537 137.358 404.21 136.942 404.625 136.526C406.541 134.447 407.992 132.004 408.976 129.353C409.339 129.977 409.909 130.549 410.583 130.913C410.168 129.925 410.427 128.833 410.686 127.846C411.567 124.155 412.189 119.789 409.598 116.774C408.199 115.163 406.127 114.227 404.003 113.811C401.879 113.395 399.755 113.499 397.63 113.603C396.698 113.655 395.61 113.863 395.403 114.695C397.423 115.475 399.444 117.086 400.48 118.957C400.687 119.477 401.879 124.831 401.982 124.831Z" fill="#3E3E54"/>
<path d="M397.786 115.89C397.837 115.942 397.941 115.994 397.993 116.046C398.874 116.722 399.754 117.606 400.842 117.866C402.448 118.333 404.106 117.554 405.661 118.074C407.422 118.697 408.562 120.777 409.805 122.024C411.878 124.051 414.468 125.559 417.214 126.39C418.613 126.806 420.115 127.066 421.566 127.17C422.239 127.222 423.12 127.326 423.794 127.17C424.674 126.91 424.623 126.546 423.69 126.234C420.737 125.299 419.856 121.192 420.063 118.437C420.219 116.254 420.996 114.019 420.167 112.044C419.545 110.536 418.198 109.705 416.903 108.873C415.452 107.885 413.898 108.145 412.292 107.678C410.582 107.21 409.184 105.858 407.474 105.494C405.661 105.131 403.795 105.962 401.982 106.326C400.48 106.638 398.874 106.586 397.371 106.274C396.024 105.962 394.729 105.442 393.33 105.442C391.309 105.442 389.392 106.742 388.253 108.405C386.595 110.744 385.507 114.747 386.077 117.866C385.973 117.398 387.579 115.63 387.942 115.267C388.615 114.487 389.496 113.759 390.532 113.603C392.967 113.291 395.817 114.487 397.786 115.89Z" fill="#3E3E54"/>
<path d="M348.36 258.835L347.79 264.969C347.635 266.944 348.878 268.711 350.691 268.867L365.042 270.167C366.804 270.323 368.41 268.867 368.565 266.84L369.135 260.706L348.36 258.835Z" fill="#B1B1B2"/>
<path d="M401.153 180.397C403.122 158.774 389.082 139.801 369.86 138.034C350.588 136.266 333.387 152.38 331.47 174.004C330.797 181.697 332.092 189.026 334.941 195.42C342.972 214.548 343.852 230.038 343.852 230.038L361.416 231.65L378.979 233.261C378.979 233.261 382.605 218.187 393.952 200.825C397.785 195.108 400.428 188.09 401.153 180.397Z" fill="#FB765F"/>
<path d="M343.386 230.038L341.003 256.132C340.899 257.224 341.573 258.159 342.557 258.263L374.989 261.226C375.922 261.33 376.803 260.498 376.906 259.407L379.289 233.313L343.386 230.038Z" fill="#DDDDDD"/>
<path opacity="0.2" d="M401.153 173.016C390.532 191.677 370.638 220.11 343.749 229.986C343.749 230.038 343.749 230.09 343.749 230.09L361.312 231.702L378.875 233.313C378.875 233.313 382.502 218.239 393.848 200.877C397.785 195.16 400.428 188.142 401.101 180.449C401.36 177.902 401.36 175.459 401.153 173.016Z" fill="#3B3387"/>
<path opacity="0.5" d="M336.806 177.799C338.516 158.93 353.54 144.843 370.327 146.403C380.17 147.286 388.408 153.316 393.226 161.945C388.926 151.237 379.652 143.44 368.41 142.4C351.624 140.841 336.599 154.927 334.889 173.796C334.164 181.645 335.874 189.078 339.293 195.212C337.221 189.962 336.236 183.984 336.806 177.799Z" fill="white"/>
<path d="M354.576 231.078L354.887 180.553L360.275 186.583L366.233 177.902L370.637 187.259L376.906 182.529L368.099 232.325L369.912 232.481L379.497 178.162L371.311 184.296L366.544 174.212L360.12 183.516L353.126 175.667L352.763 230.922L354.576 231.078Z" fill="#F6F7F7"/>
<path d="M352.763 225.88L352.712 230.922L354.525 231.078L354.577 224.84C354.007 225.204 353.385 225.516 352.763 225.88Z" fill="#EDECED"/>
<path d="M371.726 211.793L368.099 232.273L369.912 232.429L373.953 209.61C373.228 210.39 372.451 211.118 371.726 211.793Z" fill="#EDECED"/>
<path d="M342.8 236.547L342.364 241.361L378.275 244.639L378.712 239.825L342.8 236.547Z" fill="#C4C4C4"/>
<path d="M341.86 246.843L341.423 251.658L377.334 254.936L377.771 250.122L341.86 246.843Z" fill="#C4C4C4"/>
<path d="M361.519 248.647L377.735 250.103L378.253 244.645L368.254 243.709C365.975 245.58 363.747 247.244 361.519 248.647Z" fill="#C2C2C4"/>
<path d="M378.668 239.81L379.238 233.313L378.668 233.261C377.839 234.457 375.87 236.64 373.072 239.291L378.668 239.81Z" fill="#C2C2C4"/>
<path d="M342.557 258.315L374.99 261.278C375.922 261.382 376.803 260.55 376.907 259.459L377.321 254.937L353.903 252.805C348.93 255.041 344.474 256.132 341.055 256.652C341.158 257.536 341.78 258.211 342.557 258.315Z" fill="#C2C2C4"/>
<path d="M368.254 243.709L378.253 244.645L378.668 239.81L373.124 239.291C371.518 240.902 369.86 242.357 368.254 243.709Z" fill="#B1B1B2"/>
<path d="M353.903 252.805L377.321 254.937L377.735 250.103L361.519 248.647C358.877 250.31 356.338 251.714 353.903 252.805Z" fill="#B1B1B2"/>
<path d="M368.876 264.449C364.421 268.451 356.546 269.075 353.955 269.179L365.094 270.219C366.856 270.375 368.462 268.919 368.617 266.892L368.876 264.449Z" fill="#9E9E9E"/>
<path d="M377.425 208.519C377.476 208.363 377.528 208.259 377.632 208.103C378.409 207.063 379.445 206.959 380.481 206.179C380.948 205.816 380.792 204.308 381.932 204.724C382.346 204.88 383.331 205.4 384.212 205.712C385.507 206.179 387.475 205.971 388.978 205.556C390.998 204.984 393.174 204.308 395.04 203.424C397.06 202.489 398.977 201.449 400.894 200.358C402.5 199.422 404.987 198.382 406.179 196.979C408.199 194.588 405.868 188.818 405.609 185.855C405.35 182.788 405.609 173.64 409.753 173.38C416.54 172.964 416.696 179.462 416.955 184.66C417.162 187.934 417.11 191.261 416.851 194.484C416.437 199.058 413.484 201.657 409.598 203.84C405.453 206.127 401.257 208.363 396.697 209.714C394.47 210.39 392.346 210.598 390.066 210.962C387.838 211.325 388.149 212.313 386.284 213.093C385.248 213.561 384.263 214.184 383.175 214.444C381.207 214.912 379.601 213.509 378.098 212.417C377.735 212.157 377.476 211.949 377.269 211.585C376.958 210.962 377.062 210.286 377.166 209.61C377.217 209.298 377.321 208.934 377.425 208.519Z" fill="#E5D1BD"/>
<path d="M416.851 186.479C413.017 187.207 409.132 187.986 405.298 188.714C405.557 188.662 400.842 171.405 400.583 170.365C399.651 166.415 398.718 162.308 399.495 158.306C401.205 149.781 405.298 147.702 410.479 156.643C415.349 165.115 422.965 175.199 421.462 184.816C421.41 185.024 421.41 185.231 421.255 185.387C421.099 185.595 420.789 185.699 420.478 185.751C419.286 186.011 418.095 186.219 416.851 186.479Z" fill="#474EBB"/>
<path d="M200.523 211.679C199.551 211.679 198.609 211.541 197.697 211.265C196.797 210.989 196.083 210.623 195.555 210.167L196.365 208.349C196.881 208.757 197.511 209.093 198.255 209.357C199.011 209.609 199.767 209.735 200.523 209.735C201.459 209.735 202.155 209.585 202.611 209.285C203.079 208.985 203.313 208.589 203.313 208.097C203.313 207.737 203.181 207.443 202.917 207.215C202.665 206.975 202.341 206.789 201.945 206.657C201.549 206.525 201.009 206.375 200.325 206.207C199.365 205.979 198.585 205.751 197.985 205.523C197.397 205.295 196.887 204.941 196.455 204.461C196.035 203.969 195.825 203.309 195.825 202.481C195.825 201.785 196.011 201.155 196.383 200.591C196.767 200.015 197.337 199.559 198.093 199.223C198.861 198.887 199.797 198.719 200.901 198.719C201.669 198.719 202.425 198.815 203.169 199.007C203.913 199.199 204.555 199.475 205.095 199.835L204.357 201.653C203.805 201.329 203.229 201.083 202.629 200.915C202.029 200.747 201.447 200.663 200.883 200.663C199.959 200.663 199.269 200.819 198.813 201.131C198.369 201.443 198.147 201.857 198.147 202.373C198.147 202.733 198.273 203.027 198.525 203.255C198.789 203.483 199.119 203.663 199.515 203.795C199.911 203.927 200.451 204.077 201.135 204.245C202.071 204.461 202.839 204.689 203.439 204.929C204.039 205.157 204.549 205.511 204.969 205.991C205.401 206.471 205.617 207.119 205.617 207.935C205.617 208.631 205.425 209.261 205.041 209.825C204.669 210.389 204.099 210.839 203.331 211.175C202.563 211.511 201.627 211.679 200.523 211.679Z" fill="white"/>
<path d="M213.499 210.977C213.235 211.193 212.911 211.355 212.527 211.463C212.155 211.571 211.759 211.625 211.339 211.625C210.283 211.625 209.467 211.349 208.891 210.797C208.315 210.245 208.027 209.441 208.027 208.385V203.759H206.443V201.959H208.027V199.763H210.277V201.959H212.851V203.759H210.277V208.331C210.277 208.799 210.391 209.159 210.619 209.411C210.847 209.651 211.177 209.771 211.609 209.771C212.113 209.771 212.533 209.639 212.869 209.375L213.499 210.977Z" fill="white"/>
<path d="M224.656 201.887V211.499H222.514V210.275C222.154 210.707 221.704 211.043 221.164 211.283C220.624 211.511 220.042 211.625 219.418 211.625C218.134 211.625 217.12 211.271 216.376 210.563C215.644 209.843 215.278 208.781 215.278 207.377V201.887H217.528V207.071C217.528 207.935 217.72 208.583 218.104 209.015C218.5 209.435 219.058 209.645 219.778 209.645C220.582 209.645 221.218 209.399 221.686 208.907C222.166 208.403 222.406 207.683 222.406 206.747V201.887H224.656Z" fill="white"/>
<path d="M237.016 198.143V211.499H234.856V210.257C234.484 210.713 234.022 211.055 233.47 211.283C232.93 211.511 232.33 211.625 231.67 211.625C230.746 211.625 229.912 211.421 229.168 211.013C228.436 210.605 227.86 210.029 227.44 209.285C227.02 208.529 226.81 207.665 226.81 206.693C226.81 205.721 227.02 204.863 227.44 204.119C227.86 203.375 228.436 202.799 229.168 202.391C229.912 201.983 230.746 201.779 231.67 201.779C232.306 201.779 232.888 201.887 233.416 202.103C233.944 202.319 234.394 202.643 234.766 203.075V198.143H237.016ZM231.94 209.699C232.48 209.699 232.966 209.579 233.398 209.339C233.83 209.087 234.172 208.733 234.424 208.277C234.676 207.821 234.802 207.293 234.802 206.693C234.802 206.093 234.676 205.565 234.424 205.109C234.172 204.653 233.83 204.305 233.398 204.065C232.966 203.813 232.48 203.687 231.94 203.687C231.4 203.687 230.914 203.813 230.482 204.065C230.05 204.305 229.708 204.653 229.456 205.109C229.204 205.565 229.078 206.093 229.078 206.693C229.078 207.293 229.204 207.821 229.456 208.277C229.708 208.733 230.05 209.087 230.482 209.339C230.914 209.579 231.4 209.699 231.94 209.699Z" fill="white"/>
<path d="M248.96 201.887L244.46 212.273C244.04 213.317 243.53 214.049 242.93 214.469C242.33 214.901 241.604 215.117 240.752 215.117C240.272 215.117 239.798 215.039 239.33 214.883C238.862 214.727 238.478 214.511 238.178 214.235L239.078 212.579C239.294 212.783 239.546 212.945 239.834 213.065C240.134 213.185 240.434 213.245 240.734 213.245C241.13 213.245 241.454 213.143 241.706 212.939C241.97 212.735 242.21 212.393 242.426 211.913L242.588 211.535L238.394 201.887H240.734L243.758 208.997L246.8 201.887H248.96Z" fill="white"/>
<path d="M259.098 205.055H261.312V210.077C260.664 210.593 259.908 210.989 259.044 211.265C258.18 211.541 257.292 211.679 256.38 211.679C255.096 211.679 253.938 211.403 252.906 210.851C251.874 210.287 251.064 209.513 250.476 208.529C249.888 207.545 249.594 206.435 249.594 205.199C249.594 203.963 249.888 202.853 250.476 201.869C251.064 200.885 251.874 200.117 252.906 199.565C253.95 199.001 255.12 198.719 256.416 198.719C257.472 198.719 258.432 198.893 259.296 199.241C260.16 199.589 260.886 200.099 261.474 200.771L259.998 202.211C259.038 201.251 257.88 200.771 256.524 200.771C255.636 200.771 254.844 200.957 254.148 201.329C253.464 201.701 252.924 202.223 252.528 202.895C252.144 203.567 251.952 204.335 251.952 205.199C251.952 206.039 252.144 206.795 252.528 207.467C252.924 208.139 253.464 208.667 254.148 209.051C254.844 209.435 255.63 209.627 256.506 209.627C257.49 209.627 258.354 209.411 259.098 208.979V205.055Z" fill="white"/>
<path d="M268.502 211.625C267.53 211.625 266.654 211.415 265.874 210.995C265.094 210.575 264.482 209.993 264.038 209.249C263.606 208.493 263.39 207.641 263.39 206.693C263.39 205.745 263.606 204.899 264.038 204.155C264.482 203.411 265.094 202.829 265.874 202.409C266.654 201.989 267.53 201.779 268.502 201.779C269.486 201.779 270.368 201.989 271.148 202.409C271.928 202.829 272.534 203.411 272.966 204.155C273.41 204.899 273.632 205.745 273.632 206.693C273.632 207.641 273.41 208.493 272.966 209.249C272.534 209.993 271.928 210.575 271.148 210.995C270.368 211.415 269.486 211.625 268.502 211.625ZM268.502 209.699C269.33 209.699 270.014 209.423 270.554 208.871C271.094 208.319 271.364 207.593 271.364 206.693C271.364 205.793 271.094 205.067 270.554 204.515C270.014 203.963 269.33 203.687 268.502 203.687C267.674 203.687 266.99 203.963 266.45 204.515C265.922 205.067 265.658 205.793 265.658 206.693C265.658 207.593 265.922 208.319 266.45 208.871C266.99 209.423 267.674 209.699 268.502 209.699Z" fill="white"/>
</svg>
