<svg width="50" height="50" viewBox="0 0 50 50" fill="none" xmlns="http://www.w3.org/2000/svg">
<path d="M33.8867 17.6758C33.334 17.6758 32.7871 17.7041 32.249 17.7588C32.2979 17.2451 32.3242 16.7285 32.3242 16.2109C32.3242 7.32227 25.1113 0 16.2109 0C7.31445 0 0 7.31738 0 16.2109C0 25.0996 7.31055 32.3242 16.2109 32.3242C16.7588 32.3242 17.3047 32.2949 17.8486 32.2402C17.7998 32.75 17.7734 33.2666 17.7734 33.7891C17.7734 42.6777 24.9863 50 33.8867 50C42.7754 50 50 42.6895 50 33.7891C50 24.9043 42.7715 17.6758 33.8867 17.6758ZM16.2109 29.3945C8.8877 29.3945 2.92969 23.4805 2.92969 16.2109C2.92969 8.8877 8.8877 2.92969 16.2109 2.92969C23.4805 2.92969 29.3945 8.8877 29.3945 16.2109C29.3945 16.9346 29.334 17.6562 29.2178 18.3662C27.1729 18.9863 25.2988 20.0029 23.6855 21.3262C23.3379 20.7373 20.5449 18.0312 16.2109 18.0312C13.4717 18.0312 10.8975 19.0977 8.95996 21.0342C8.38867 21.6064 8.38867 22.5342 8.95996 23.1064C9.53223 23.6777 10.46 23.6777 11.0322 23.1064C12.415 21.7227 14.2549 20.9609 16.2109 20.9609C19.5762 20.9609 21.2988 23.0928 21.6533 23.3135C20.1992 25.0098 19.0908 27.0107 18.4385 29.2061C17.7051 29.3311 16.959 29.3945 16.2109 29.3945ZM33.8867 47.0703C26.6172 47.0703 20.7031 41.1123 20.7031 33.7891C20.7031 26.5195 26.6172 20.6055 33.8867 20.6055C41.1562 20.6055 47.0703 26.5195 47.0703 33.7891C47.0703 41.1123 41.1562 47.0703 33.8867 47.0703Z" fill="#25233A"/>
<path d="M41.0397 36.0384C40.4677 35.4663 39.5402 35.4663 38.9681 36.0384C37.5848 37.4218 35.7455 38.1836 33.7891 38.1836C31.8326 38.1836 29.9934 37.4218 28.6101 36.0384C28.0379 35.4663 27.1106 35.4663 26.5385 36.0384C25.9664 36.6104 25.9664 37.5379 26.5385 38.11C28.4751 40.0467 31.0501 41.1133 33.7891 41.1133C36.5281 41.1133 39.1031 40.0467 41.0397 38.11C41.6118 37.5379 41.6118 36.6104 41.0397 36.0384Z" fill="#25233A"/>
<path d="M27.9297 26.4648C27.1207 26.4648 26.4648 27.1207 26.4648 27.9297V30.8594C26.4648 31.6684 27.1207 32.3242 27.9297 32.3242C28.7387 32.3242 29.3945 31.6684 29.3945 30.8594V27.9297C29.3945 27.1207 28.7387 26.4648 27.9297 26.4648Z" fill="#25233A"/>
<path d="M10.3516 8.88672C9.54258 8.88672 8.88672 9.54258 8.88672 10.3516V13.2812C8.88672 14.0902 9.54258 14.7461 10.3516 14.7461C11.1605 14.7461 11.8164 14.0902 11.8164 13.2812V10.3516C11.8164 9.54258 11.1605 8.88672 10.3516 8.88672Z" fill="#25233A"/>
<path d="M39.6484 26.4648C38.8395 26.4648 38.1836 27.1207 38.1836 27.9297V30.8594C38.1836 31.6684 38.8395 32.3242 39.6484 32.3242C40.4574 32.3242 41.1133 31.6684 41.1133 30.8594V27.9297C41.1133 27.1207 40.4574 26.4648 39.6484 26.4648Z" fill="#25233A"/>
<path d="M22.0703 8.88672C21.2613 8.88672 20.6055 9.54258 20.6055 10.3516V13.2812C20.6055 14.0902 21.2613 14.7461 22.0703 14.7461C22.8793 14.7461 23.5352 14.0902 23.5352 13.2812V10.3516C23.5352 9.54258 22.8793 8.88672 22.0703 8.88672Z" fill="#25233A"/>
</svg>
