<svg width="15" height="50" viewBox="0 0 15 50" fill="none" xmlns="http://www.w3.org/2000/svg">
<path d="M33.8867 17.6758C33.334 17.6758 32.7871 17.7041 32.249 17.7588C32.2979 17.2451 32.3242 16.7285 32.3242 16.2109C32.3242 7.32227 25.1113 0 16.2109 0C7.31445 0 0 7.31738 0 16.2109C0 25.0996 7.31055 32.3242 16.2109 32.3242C16.7588 32.3242 17.3047 32.2949 17.8486 32.2402C17.7998 32.75 17.7734 33.2666 17.7734 33.7891C17.7734 42.6777 24.9863 50 33.8867 50C42.7754 50 50 42.6895 50 33.7891C50 24.9043 42.7715 17.6758 33.8867 17.6758ZM16.2109 29.3945C8.8877 29.3945 2.92969 23.4805 2.92969 16.2109C2.92969 8.8877 8.8877 2.92969 16.2109 2.92969C23.4805 2.92969 29.3945 8.8877 29.3945 16.2109C29.3945 16.9346 29.334 17.6562 29.2178 18.3662C27.1729 18.9863 25.2988 20.0029 23.6855 21.3262C23.3379 20.7373 20.5449 18.0312 16.2109 18.0312C13.4717 18.0312 10.8975 19.0977 8.95996 21.0342C8.38867 21.6064 8.38867 22.5342 8.95996 23.1064C9.53223 23.6777 10.46 23.6777 11.0322 23.1064C12.415 21.7227 14.2549 20.9609 16.2109 20.9609C19.5762 20.9609 21.2988 23.0928 21.6533 23.3135C20.1992 25.0098 19.0908 27.0107 18.4385 29.2061C17.7051 29.3311 16.959 29.3945 16.2109 29.3945ZM33.8867 47.0703C26.6172 47.0703 20.7031 41.1123 20.7031 33.7891C20.7031 26.5195 26.6172 20.6055 33.8867 20.6055C41.1562 20.6055 47.0703 26.5195 47.0703 33.7891C47.0703 41.1123 41.1562 47.0703 33.8867 47.0703Z" fill="#25233A"/>
</svg>
