<svg width="50" height="50" viewBox="0 0 50 50" fill="none" xmlns="http://www.w3.org/2000/svg">
<path d="M25.0977 0C11.29 0 0.748047 12.1484 0.12793 26.4775C0.0449219 26.917 0 27.3691 0 27.832C0 31.4443 2.62988 34.4521 6.07422 35.0479C6.64746 36.8086 8.30371 38.0859 10.2539 38.0859C12.6768 38.0859 14.6484 36.1143 14.6484 33.6914V21.9727C14.6484 19.8086 13.0752 18.0059 11.0117 17.6445C13.835 12.3027 19.1943 8.78906 25.0977 8.78906C30.8965 8.78906 36.2383 12.25 39.0791 17.6289C36.9707 17.9512 35.3516 19.7764 35.3516 21.9727V33.6914C35.3516 36.1143 37.3232 38.0859 39.7461 38.0859C41.6963 38.0859 43.3525 36.8086 43.9258 35.0479C45.0908 34.8457 46.1621 34.3711 47.0703 33.6875V36.6211C47.0703 42.3828 42.4707 47.0703 36.8164 47.0703H32.1699C32.332 46.6123 32.4219 46.1191 32.4219 45.6055C32.4219 43.1826 30.4502 41.2109 28.0273 41.2109H22.0703C19.6475 41.2109 17.6758 43.1826 17.6758 45.6055C17.6758 48.0283 19.6475 50 22.0703 50H36.8164C40.332 50 43.6475 48.5898 46.1504 46.0293C48.6328 43.4893 50 40.1484 50 36.6211V27.832C50 12.1826 38.6123 0 25.0977 0ZM5.85938 31.9756C4.53135 31.5047 3.88574 30.6043 3.61328 30.1674C3.05195 29.2672 2.92969 28.6861 2.92969 27.6367C2.92969 25.7904 4.17031 24.289 5.85938 23.6885V31.9756ZM6.07422 20.6162C5.25 20.7588 4.47363 21.0391 3.76758 21.4326C4.72656 17.3672 6.57617 13.707 9.06543 10.7363C9.26855 11.1377 9.53516 11.5088 9.8584 11.832C10.1748 12.1484 10.5293 12.4043 10.9082 12.6006C9.41211 14.3613 8.19141 16.4131 7.33789 18.6895C6.75977 19.2031 6.31836 19.8652 6.07422 20.6162ZM11.7188 21.9727V33.6914C11.7188 34.499 11.0615 35.1562 10.2539 35.1562C9.44629 35.1562 8.78906 34.499 8.78906 33.6914V21.9727C8.78906 21.1279 9.48535 20.5078 10.2539 20.5078C11.0615 20.5078 11.7188 21.1641 11.7188 21.9727ZM38.168 9.76074C37.7109 10.2178 36.9561 10.3008 36.377 9.84082C33.082 7.23047 29.1807 5.85938 25.0977 5.85938C21.0801 5.85938 17.0127 7.22559 13.7041 9.85449C13.1699 10.2783 12.4072 10.2383 11.9297 9.76074C11.6582 9.48926 11.5273 9.13672 11.5273 8.78906C11.5273 8.49707 11.6191 8.20898 11.7959 7.97461C15.5049 4.80371 20.1172 2.92969 25.0977 2.92969C29.6436 2.92969 34.2529 4.52051 38.2002 7.85352C38.6943 8.36914 38.7031 9.22559 38.168 9.76074ZM28.0273 47.0703H22.0703C21.2627 47.0703 20.6055 46.4131 20.6055 45.6055C20.6055 44.7979 21.2627 44.1406 22.0703 44.1406H28.0273C28.835 44.1406 29.4922 44.7979 29.4922 45.6055C29.4922 46.4131 28.835 47.0703 28.0273 47.0703ZM41.2109 33.6914C41.2109 34.499 40.5537 35.1562 39.7461 35.1562C38.9385 35.1562 38.2812 34.499 38.2812 33.6914V21.9727C38.2812 21.165 38.9385 20.5078 39.7461 20.5078C40.5537 20.5078 41.2109 21.165 41.2109 21.9727V33.6914ZM42.8135 18.8301C41.9648 16.5166 40.7451 14.4111 39.21 12.5908C39.5811 12.3955 39.9287 12.1426 40.2393 11.832C40.5684 11.5029 40.8379 11.125 41.042 10.7158C43.543 13.7061 45.3975 17.3984 46.3496 21.5C45.6133 21.0713 44.7959 20.7666 43.9258 20.6162C43.7031 19.9326 43.3174 19.3213 42.8135 18.8301ZM44.1406 31.9756V23.6885C45.8457 24.293 47.0703 25.9219 47.0703 27.832C47.0703 29.7422 45.8457 31.3711 44.1406 31.9756Z" fill="#25233A"/>
</svg>
