<svg width="50" height="50" viewBox="0 0 50 50" fill="none" xmlns="http://www.w3.org/2000/svg">
<path d="M49.9027 39.4053C49.7299 38.875 49.2719 38.4883 48.7201 38.4082L44.4389 37.7861L42.5248 33.9072C42.2777 33.4072 41.7689 33.0898 41.2113 33.0898C40.6537 33.0898 40.1439 33.4072 39.8969 33.9072L37.9828 37.7861L33.7016 38.4082C33.5043 38.4365 33.3187 38.5049 33.1547 38.6055C32.9896 38.5049 32.8041 38.4365 32.6068 38.4082L28.3256 37.7861L26.4115 33.9072C26.1644 33.4072 25.6547 33.0898 25.098 33.0898C24.5404 33.0898 24.0307 33.4072 23.7836 33.9072L21.8695 37.7861L17.5883 38.4082C17.3715 38.4395 17.1684 38.5195 16.9926 38.6357C16.8158 38.5195 16.6127 38.4395 16.3959 38.4082L12.1146 37.7861L10.2006 33.9072C9.95351 33.4072 9.44374 33.0898 8.8871 33.0898C8.32948 33.0898 7.81972 33.4072 7.57265 33.9072L5.65956 37.7842L1.28358 38.4072C0.727919 38.4863 0.266005 38.877 0.0951066 39.4121C-0.0757918 39.9473 0.0745988 40.5332 0.481825 40.9199L3.66347 43.9404L2.93104 48.292C2.83925 48.8408 3.06581 49.3955 3.51698 49.7217C3.96815 50.0479 4.56483 50.0908 5.058 49.832L8.8871 47.8184L12.7152 49.832C13.2072 50.0893 13.8031 50.0498 14.2562 49.7217C14.7074 49.3955 14.934 48.8408 14.8422 48.292L14.1078 43.9287L16.9926 41.1162L19.8764 43.9287L19.142 48.292C19.0502 48.8408 19.2767 49.3955 19.7279 49.7217C20.1791 50.0479 20.7758 50.0908 21.2689 49.832L25.098 47.8184L28.9262 49.832C29.4182 50.0893 30.0141 50.0498 30.4672 49.7217C30.9184 49.3955 31.1449 48.8408 31.0531 48.292L30.3187 43.9287L33.1547 41.1641L35.9896 43.9287L35.2553 48.292C35.1635 48.8408 35.39 49.3955 35.8412 49.7217C36.2924 50.0479 36.8891 50.0908 37.3822 49.832L41.2113 47.8184L45.0394 49.832C45.5314 50.0893 46.1273 50.0498 46.5805 49.7217C47.0316 49.3955 47.2582 48.8408 47.1664 48.292L46.432 43.9287L49.5316 40.9063C49.931 40.5176 50.0746 39.9356 49.9027 39.4053ZM11.5131 42.3662C11.1693 42.7012 11.0111 43.1836 11.0912 43.6582L11.4623 45.8633L9.56874 44.8672C9.35487 44.7549 9.1205 44.6992 8.8871 44.6992C8.65272 44.6992 8.41835 44.7549 8.20546 44.8672L6.31093 45.8633L6.68202 43.6582C6.76308 43.1777 6.59901 42.6875 6.24647 42.3525L4.69569 40.8809L6.83827 40.5752C7.31679 40.5068 7.73085 40.2069 7.94472 39.7734L8.8871 37.8652L9.82851 39.7734C10.0414 40.2051 10.4545 40.5049 10.931 40.5742L13.0375 40.8809L11.5131 42.3662ZM27.724 42.3662C27.3803 42.7012 27.223 43.1836 27.3021 43.6582L27.6732 45.8633L25.7797 44.8672C25.5658 44.7549 25.3314 44.6992 25.098 44.6992C24.8637 44.6992 24.6293 44.7549 24.4164 44.8672L22.5219 45.8633L22.893 43.6582C22.973 43.1836 22.8148 42.7012 22.4711 42.3662L20.9467 40.8809L23.0531 40.5742C23.5297 40.5049 23.9428 40.2051 24.1557 39.7734L25.098 37.8652L26.0394 39.7734C26.2523 40.2051 26.6654 40.5049 27.142 40.5742L29.2484 40.8809L27.724 42.3662ZM43.8373 42.3662C43.4935 42.7012 43.3363 43.1836 43.4154 43.6582L43.7865 45.8633L41.893 44.8672C41.6791 44.7549 41.4447 44.6992 41.2113 44.6992C40.9769 44.6992 40.7426 44.7549 40.5287 44.8672L38.6352 45.8633L39.0062 43.6582C39.0863 43.1836 38.9281 42.7012 38.5844 42.3662L37.06 40.8809L39.1664 40.5742C39.643 40.5049 40.056 40.2051 40.2689 39.7734L41.2113 37.8652L42.1527 39.7734C42.3656 40.2051 42.7787 40.5049 43.2553 40.5742L45.3617 40.8809L43.8373 42.3662Z" fill="#25233A"/>
<path d="M25.0258 0C16.141 0 8.91251 7.22852 8.91251 16.1133C8.91251 21.3164 11.3627 25.9541 15.1625 28.9229C15.2807 29.0508 15.4213 29.1572 15.5785 29.2363C18.2348 31.1777 21.4994 32.3242 25.0258 32.3242C28.5522 32.3242 31.8168 31.1777 34.4731 29.2363C34.6303 29.1572 34.7709 29.0508 34.8891 28.9229C38.6889 25.9541 41.1391 21.3164 41.1391 16.1133C41.1391 7.22852 33.9106 0 25.0258 0ZM25.0258 29.3945C22.3334 29.3945 19.8275 28.5771 17.7387 27.1758C18.1127 23.4365 21.2387 20.5078 25.0258 20.5078C28.8129 20.5078 31.9389 23.4365 32.3129 27.1758C30.224 28.5771 27.7183 29.3945 25.0258 29.3945ZM20.6313 13.1836C20.6313 10.7607 22.6029 8.78906 25.0258 8.78906C27.4486 8.78906 29.4203 10.7607 29.4203 13.1836C29.4203 15.6064 27.4486 17.5781 25.0258 17.5781C22.6029 17.5781 20.6313 15.6064 20.6313 13.1836ZM34.8491 24.9609C34.0503 22.2715 32.1948 20.0381 29.772 18.7559C31.3481 17.4111 32.3501 15.4131 32.3501 13.1836C32.3501 9.14551 29.0649 5.85938 25.0259 5.85938C20.9878 5.85938 17.7017 9.14551 17.7017 13.1836C17.7017 15.4131 18.7036 17.4111 20.2808 18.7559C17.8569 20.0381 16.0015 22.2715 15.2026 24.9609C13.1138 22.6104 11.8423 19.5088 11.8423 16.1133C11.8423 8.84375 17.7564 2.92969 25.0259 2.92969C32.2954 2.92969 38.2095 8.84375 38.2095 16.1133C38.2094 19.5088 36.9379 22.6104 34.8491 24.9609Z" fill="#25233A"/>
</svg>
