<svg width="90" height="30" viewBox="0 0 90 30" fill="none" xmlns="http://www.w3.org/2000/svg">
<rect width="6" height="6" fill="#FB765F"/>
<rect x="12" width="6" height="6" fill="#FB765F"/>
<rect x="24" width="6" height="6" fill="#FB765F"/>
<rect x="36" width="6" height="6" fill="#FB765F"/>
<rect x="48" width="6" height="6" fill="#FB765F"/>
<rect x="60" width="6" height="6" fill="#FB765F"/>
<rect y="12" width="6" height="6" fill="#FB765F"/>
<rect x="12" y="12" width="6" height="6" fill="#FB765F"/>
<rect x="24" y="12" width="6" height="6" fill="#FB765F"/>
<rect x="36" y="12" width="6" height="6" fill="#FB765F"/>
<rect x="48" y="12" width="6" height="6" fill="#FB765F"/>
<rect x="60" y="12" width="6" height="6" fill="#FB765F"/>
<rect x="72" y="12" width="6" height="6" fill="#FB765F"/>
<rect y="24" width="6" height="6" fill="#FB765F"/>
<rect x="12" y="24" width="6" height="6" fill="#FB765F"/>
<rect x="24" y="24" width="6" height="6" fill="#FB765F"/>
<rect x="36" y="24" width="6" height="6" fill="#FB765F"/>
<rect x="48" y="24" width="6" height="6" fill="#FB765F"/>
<rect x="60" y="24" width="6" height="6" fill="#FB765F"/>
<rect x="72" y="24" width="6" height="6" fill="#FB765F"/>
<rect x="84" y="24" width="6" height="6" fill="#FB765F"/>
</svg>
