<svg width="87" height="30" viewBox="0 0 87 30" fill="none" xmlns="http://www.w3.org/2000/svg">
<path d="M5.53971 17.8685L10.2005 6.66479H14.8081L6.898 23.3888H2.79649L0 6.66479H4.34121L5.53971 17.8685Z" fill="#162D5A"/>
<path d="M18.51 23.3888H14.222L17.0718 6.66479H21.3597L18.51 23.3888Z" fill="#162D5A"/>
<path d="M17.5779 2.39531C17.5513 1.71547 17.791 1.14441 18.2438 0.682115C18.6965 0.219824 19.2558 0.00227554 19.9217 0.00227554C20.5609 -0.024918 21.1202 0.192631 21.5996 0.600534C22.0789 1.03563 22.3186 1.5795 22.3453 2.23215C22.3719 2.88479 22.1588 3.42867 21.7061 3.89096C21.28 4.35325 20.694 4.62518 20.0016 4.62518C19.3624 4.65238 18.8031 4.46202 18.3237 4.02692C17.8443 3.64621 17.5779 3.10234 17.5779 2.39531Z" fill="#162D5A"/>
<path d="M31.6401 18.657C31.7999 17.8412 31.2406 17.243 29.9622 16.8622L28.5773 16.5087C25.328 15.5841 23.73 13.9797 23.8099 11.6411C23.8632 10.0638 24.529 8.78575 25.8607 7.77959C27.1923 6.77342 28.7637 6.28394 30.628 6.31113C32.4657 6.33833 33.9572 6.82781 35.1024 7.80678C36.2476 8.78575 36.8336 10.091 36.8336 11.7227L32.5989 11.6955C32.6255 10.2542 31.9331 9.54717 30.5215 9.51997C29.8557 9.51997 29.2697 9.68314 28.7903 10.0367C28.3109 10.3902 28.018 10.8253 27.8848 11.4235C27.725 12.2393 28.3376 12.8376 29.7225 13.1639L30.3617 13.3271C31.7466 13.6806 32.812 14.0613 33.5577 14.4964C34.3034 14.9315 34.8627 15.4754 35.2622 16.128C35.6617 16.7807 35.8481 17.5693 35.8215 18.4667C35.7949 19.5272 35.4486 20.4518 34.8094 21.2404C34.1702 22.029 33.2914 22.6545 32.1728 23.0896C31.0542 23.5247 29.8823 23.715 28.6572 23.6878C26.8461 23.6606 25.328 23.144 24.1029 22.0834C22.9044 21.0229 22.2652 19.6632 22.2652 18.0044L26.2868 18.0316C26.3401 19.636 27.1657 20.4518 28.7903 20.4518C29.5893 20.4518 30.2285 20.2886 30.7346 19.9623C31.2406 19.6632 31.5602 19.2281 31.6401 18.657Z" fill="#162D5A"/>
<path d="M52.5473 12.2394C52.7071 10.5262 52.281 9.13929 51.2423 8.05155C50.2036 6.96381 48.7388 6.39274 46.8744 6.33835C44.8769 6.31116 43.1724 6.80064 41.8141 7.80681C40.4558 8.78578 39.7367 10.0911 39.6568 11.6955L43.9448 11.6683C44.0779 10.9885 44.3709 10.499 44.8503 10.1455C45.3031 9.79194 45.889 9.60158 46.5548 9.62878C47.0609 9.62878 47.4604 9.79194 47.7533 10.0639C48.0729 10.3358 48.2594 10.7165 48.286 11.206C48.3126 11.5051 48.3126 11.8315 48.2327 12.185L48.0197 13.1911L46.0222 13.1639C43.6252 13.1639 41.7076 13.6534 40.2694 14.6324C38.8578 15.6114 38.0855 16.9982 38.0322 18.8202C37.9789 20.1799 38.4051 21.3492 39.3372 22.2738C40.296 23.1984 41.4679 23.6879 42.9061 23.6879C44.4508 23.7422 45.8624 23.1168 47.0875 21.8659C47.0609 22.4641 47.1141 22.9536 47.2473 23.3887H51.4553L51.482 23.0896C51.2955 22.5729 51.2156 21.9747 51.2156 21.2404L51.2955 20.2615L52.5473 12.2394ZM47.194 18.657C46.2885 19.7992 45.1965 20.343 43.9714 20.2887C43.4387 20.2887 43.0126 20.1255 42.693 19.7992C42.4001 19.4729 42.2669 19.0378 42.3468 18.4667C42.4001 17.9772 42.5599 17.5421 42.8262 17.2158C43.5186 16.2912 44.6639 15.7745 46.2352 15.7473L47.7267 15.7745L47.194 18.657Z" fill="#162D5A"/>
<path d="M66.9295 6.63758L66.3702 8.26919C65.5179 7.01829 64.2129 6.36564 62.4551 6.33845C60.4043 6.31125 58.6998 7.09987 57.3415 8.73148C56.0098 10.3359 55.1842 12.4298 54.8646 15.0132C54.7847 15.8562 54.7581 16.6176 54.7847 17.2431C54.8646 19.1466 55.3973 20.6967 56.3294 21.8932C57.2616 23.0897 58.54 23.6879 60.138 23.7151C61.6294 23.7695 62.9611 23.1713 64.1596 21.9476L63.9199 22.9537C63.6269 24.0958 63.0943 24.9932 62.3219 25.6187C61.5229 26.2713 60.5908 26.5433 59.4722 26.5161C58.034 26.4617 56.8355 25.8362 55.9033 24.6125L53.7726 27.2775C54.4385 28.1205 55.2907 28.7731 56.3294 29.2354C57.3681 29.7249 58.4335 29.9697 59.5787 29.9969C61.8958 30.0512 63.84 29.3986 65.3847 28.1205C66.9561 26.8152 67.8883 25.0476 68.1812 22.8449L70.8712 6.69197L66.9295 6.63758ZM64.5058 18.5484C63.6003 19.6089 62.5882 20.0984 61.4164 20.0712C60.6707 20.044 60.0847 19.7449 59.6852 19.1466C59.2857 18.5484 59.0993 17.7869 59.0993 16.808C59.0993 16.3457 59.1259 15.7474 59.1792 14.986C59.3656 13.4632 59.845 12.2123 60.5907 11.2877C61.3365 10.3631 62.2686 9.90081 63.3606 9.95519C64.5325 10.0096 65.3315 10.4991 65.7576 11.478L64.5058 18.5484Z" fill="#162D5A"/>
<path d="M86.3981 10.5261C85.9187 9.22085 85.1463 8.21468 84.1076 7.48046C83.0689 6.74623 81.8172 6.36552 80.379 6.33833C78.0885 6.28394 76.1709 7.07255 74.5996 8.67697C73.5342 9.79191 72.7619 11.1788 72.2825 12.8104C72.2825 12.8104 71.9096 14.2789 71.9096 14.9859C71.9096 14.9859 71.9629 12.8104 78.9408 12.8104L79.1272 10.5261L83.4684 15.0131L78.488 19.3912L78.6212 17.2158C74.0403 17.2158 72.6553 18.4123 72.2558 19.3097C72.2825 19.3912 72.3091 19.4728 72.3357 19.5272C72.8418 20.8053 73.5875 21.8387 74.6262 22.5457C75.6649 23.2799 76.89 23.6334 78.3282 23.6606C80.6453 23.715 82.5895 22.8992 84.1609 21.2676C85.7589 19.6088 86.6644 17.4605 86.8775 14.7955C87.0639 13.2455 86.9041 11.8314 86.3981 10.5261Z" fill="#162D5A"/>
</svg>
