<svg width="93" height="14" viewBox="0 0 93 14" fill="none" xmlns="http://www.w3.org/2000/svg">
<rect y="5" width="5" height="5" rx="2.5" fill="#25233A"/>
<rect x="10" y="5" width="5" height="5" rx="2.5" fill="#25233A"/>
<rect x="20" y="5" width="5" height="5" rx="2.5" fill="#25233A"/>
<path d="M49.338 13L49.32 4.648L45.18 11.56H44.136L39.996 4.756V13H37.782V0.399999H39.708L44.694 8.734L49.626 0.399999H51.534L51.57 13H49.338ZM63.844 8.248C63.844 8.404 63.832 8.626 63.808 8.914H56.266C56.398 9.622 56.74 10.186 57.292 10.606C57.856 11.014 58.552 11.218 59.38 11.218C60.436 11.218 61.306 10.87 61.99 10.174L63.196 11.56C62.764 12.076 62.218 12.466 61.558 12.73C60.898 12.994 60.154 13.126 59.326 13.126C58.27 13.126 57.34 12.916 56.536 12.496C55.732 12.076 55.108 11.494 54.664 10.75C54.232 9.994 54.016 9.142 54.016 8.194C54.016 7.258 54.226 6.418 54.646 5.674C55.078 4.918 55.672 4.33 56.428 3.91C57.184 3.49 58.036 3.28 58.984 3.28C59.92 3.28 60.754 3.49 61.486 3.91C62.23 4.318 62.806 4.9 63.214 5.656C63.634 6.4 63.844 7.264 63.844 8.248ZM58.984 5.08C58.264 5.08 57.652 5.296 57.148 5.728C56.656 6.148 56.356 6.712 56.248 7.42H61.702C61.606 6.724 61.312 6.16 60.82 5.728C60.328 5.296 59.716 5.08 58.984 5.08ZM66.305 3.388H68.555V7.294H73.397V3.388H75.647V13H73.397V9.202H68.555V13H66.305V3.388ZM87.4464 3.28C88.4064 3.28 89.2644 3.49 90.0204 3.91C90.7764 4.318 91.3704 4.9 91.8024 5.656C92.2344 6.4 92.4504 7.246 92.4504 8.194C92.4504 9.142 92.2344 9.994 91.8024 10.75C91.3704 11.494 90.7764 12.076 90.0204 12.496C89.2644 12.916 88.4064 13.126 87.4464 13.126C86.6064 13.126 85.8384 12.964 85.1424 12.64C84.4464 12.304 83.8704 11.836 83.4144 11.236C82.9584 10.624 82.6644 9.928 82.5324 9.148H80.9124V13H78.6624V3.388H80.9124V7.114H82.5684C82.7124 6.358 83.0124 5.692 83.4684 5.116C83.9244 4.528 84.4944 4.078 85.1784 3.766C85.8624 3.442 86.6184 3.28 87.4464 3.28ZM87.4464 11.218C87.9744 11.218 88.4484 11.098 88.8684 10.858C89.2884 10.606 89.6184 10.252 89.8584 9.796C90.0984 9.328 90.2184 8.794 90.2184 8.194C90.2184 7.282 89.9544 6.556 89.4264 6.016C88.9104 5.464 88.2504 5.188 87.4464 5.188C86.6424 5.188 85.9824 5.464 85.4664 6.016C84.9504 6.556 84.6924 7.282 84.6924 8.194C84.6924 9.106 84.9504 9.838 85.4664 10.39C85.9944 10.942 86.6544 11.218 87.4464 11.218Z" fill="#25233A"/>
</svg>
