<svg width="135" height="102" viewBox="0 0 135 102" fill="none" xmlns="http://www.w3.org/2000/svg">
<path opacity="0.18" d="M0.606048 45.8889C-1.75048 61.1864 2.7945 78.0901 13.7299 87.8528C23.8832 96.8994 37.6588 98.7822 50.6557 99.9756C70.417 101.802 91.2279 102.654 109.075 93.1072C112.975 91.0274 116.728 88.4475 120.923 87.239C123.324 86.542 125.921 86.2465 127.848 84.5417C129.776 82.8369 130.593 80.1434 131.217 77.5408C133.302 68.6722 133.416 58.3981 128.205 51.2684C122.082 42.8885 110.783 41.5663 103.556 34.3457C99.8891 30.6785 97.5016 25.7195 94.171 21.6849C83.7844 9.08095 66.6095 7.62243 51.1977 7.02386C38.7222 6.54653 25.8487 2.23914 16.7347 12.8428C8.81789 22.0524 2.47549 33.1637 0.606048 45.8889Z" fill="#377EF9"/>
<path d="M84.9284 90.4507C84.9436 90.5863 84.9181 90.7228 84.854 90.849C84.7495 90.9716 84.6122 91.0742 84.452 91.1492C84.2919 91.2243 84.1128 91.27 83.9279 91.283L83.6489 90.9708C82.9236 91.5119 81.8226 91.5267 80.8332 91.497C79.9666 91.4732 79.1037 91.4375 78.2296 91.4019C78.1572 91.4073 78.0842 91.3997 78.016 91.3796C77.9478 91.3595 77.8861 91.3275 77.8353 91.2859C77.7862 91.2087 77.7755 91.1195 77.8056 91.0362C77.8901 90.7103 78.0996 90.4136 78.4049 90.1872C78.7102 89.9608 79.0961 89.816 79.5091 89.7729C80.1712 89.7164 80.8518 89.9334 81.5027 89.8175C82.3508 89.6659 82.972 88.896 83.8572 88.8811C84.7424 88.8663 84.9061 89.9067 84.9284 90.4507Z" fill="#3E3E54"/>
<path d="M84.9284 90.4507C84.9436 90.5863 84.9181 90.7228 84.854 90.849C84.7495 90.9716 84.6122 91.0742 84.452 91.1492C84.2919 91.2243 84.1128 91.27 83.9279 91.283L83.6489 90.9708C82.9236 91.5119 81.8226 91.5267 80.8332 91.497C79.9666 91.4732 79.1037 91.4375 78.2296 91.4019C78.1572 91.4073 78.0842 91.3997 78.016 91.3796C77.9478 91.3595 77.8861 91.3275 77.8353 91.2859C77.7862 91.2087 77.7755 91.1195 77.8056 91.0362C77.8901 90.7103 78.0996 90.4136 78.4049 90.1872C78.7102 89.9608 79.0961 89.816 79.5091 89.7729C80.1712 89.7164 80.8518 89.9334 81.5027 89.8175C82.3508 89.6659 82.972 88.896 83.8572 88.8811C84.7424 88.8663 84.9061 89.9067 84.9284 90.4507Z" fill="url(#paint0_linear)"/>
<path d="M73.3089 69.1724C72.2028 69.5042 71.1446 70.0119 70.1662 70.6801C69.8848 70.8818 69.6399 71.1414 69.4444 71.4454C69.1877 71.9104 69.0542 72.4481 69.0597 72.9953C68.9814 75.9572 70.9596 78.4216 72.805 80.534L78.8859 87.4795C79.5873 88.2831 80.3193 89.1059 81.2489 89.5192C82.1784 89.9324 83.3666 89.8368 84.0204 88.9834C81.8844 85.9424 79.8098 82.8479 77.7964 79.6997C77.7132 79.6042 77.6515 79.4876 77.6166 79.3598C77.5816 79.232 77.5744 79.0966 77.5955 78.965C77.7079 78.6168 78.1335 78.5823 78.4637 78.6321C80.0935 78.7618 81.7271 78.4467 83.2252 77.7138C84.7233 76.9808 86.0416 75.8517 87.0676 74.4226C87.7248 73.4889 88.2661 72.3179 88.0652 71.147C87.8882 70.1099 87.1596 69.3025 86.3833 68.7055C82.1477 65.4413 77.6534 67.611 73.3089 69.1724Z" fill="#3E3E54"/>
<path d="M73.3049 69.1797C72.1992 69.5124 71.1413 70.0203 70.1628 70.6881C69.8815 70.8899 69.6366 71.1497 69.4411 71.4539C69.1872 71.9132 69.0549 72.4444 69.0599 72.9853C68.9782 75.9487 70.9594 78.4143 72.8045 80.5277L78.8844 87.4767C79.589 88.2769 80.3175 89.1 81.2469 89.5174C82.1762 89.9347 83.3677 89.8351 84.0179 88.9813C81.8869 85.9338 79.8137 82.8377 77.7984 79.6931C77.7149 79.5976 77.6527 79.4812 77.6172 79.3533C77.5817 79.2255 77.5738 79.09 77.5942 78.958C77.7065 78.6096 78.1354 78.5943 78.4622 78.6249C80.0919 78.7556 81.7254 78.4409 83.2234 77.7075C84.7214 76.9741 86.0393 75.8439 87.0646 74.4134C87.7216 73.4754 88.2663 72.3038 88.0654 71.1361C87.885 70.0947 87.1565 69.2869 86.3634 68.6934C82.1422 65.4429 77.6623 67.6176 73.3049 69.1797Z" fill="url(#paint1_linear)"/>
<path d="M75.8768 78.8943C76.3362 79.1792 76.861 79.3004 77.3823 79.2422H86.6113C87.203 79.2878 87.7966 79.1914 88.3531 78.9593C88.8126 78.6815 89.2261 78.3155 89.5751 77.8777C91.2099 76.079 93.0001 74.4708 94.9187 73.0771C95.0504 73.003 95.1571 72.8822 95.2226 72.7332C95.2469 72.6534 95.2561 72.5688 95.2496 72.4847C95.1922 71.3381 94.1018 70.5469 93.0858 70.5087C92.0697 70.4705 91.1009 70.9559 90.1388 71.3305C85.6729 73.081 80.4339 72.6567 76.6532 75.8711C75.9375 76.4635 74.7392 78 75.8768 78.8943Z" fill="#3E3E54"/>
<path d="M75.8768 78.8943C76.3362 79.1792 76.861 79.3004 77.3823 79.2422H86.6113C87.203 79.2878 87.7966 79.1914 88.3531 78.9593C88.8126 78.6815 89.2261 78.3155 89.5751 77.8777C91.2099 76.079 93.0001 74.4708 94.9187 73.0771C95.0504 73.003 95.1571 72.8822 95.2226 72.7332C95.2469 72.6534 95.2561 72.5688 95.2496 72.4847C95.1922 71.3381 94.1018 70.5469 93.0858 70.5087C92.0697 70.4705 91.1009 70.9559 90.1388 71.3305C85.6729 73.081 80.4339 72.6567 76.6532 75.8711C75.9375 76.4635 74.7392 78 75.8768 78.8943Z" fill="url(#paint2_linear)"/>
<path d="M100.808 74.9327C100.981 75.1151 106.656 90.3954 106.722 91.2648C106.782 92.041 106.257 92.6504 105.848 93.2559C106.376 93.1433 108.085 92.2933 108.471 91.8548C108.598 91.7299 108.691 91.5638 108.737 91.3774C108.757 91.197 108.741 91.0136 108.69 90.8418C108.358 89.429 106.519 80.0054 106.257 78.189C106.174 77.4384 106.018 76.7013 105.791 75.9923C105.563 75.2768 105.132 74.6733 104.571 74.2807C104.289 74.0908 103.967 73.9961 103.641 74.0071C103.315 74.018 102.999 74.1342 102.726 74.3428C102.367 74.3195 101.147 74.7852 100.808 74.9327Z" fill="#E5C5D5"/>
<path d="M109.781 77.7192C111.096 81.4842 111.491 85.6629 112.586 89.54C112.668 89.7754 112.711 90.029 112.714 90.286C112.693 90.5202 112.627 90.7443 112.522 90.9393C112.203 91.5958 111.723 92.1022 111.154 92.3812C111.249 90.0618 110.356 87.9087 109.491 85.8755L108.341 83.1696C107.93 82.2477 107.563 81.2965 107.24 80.3207C107.08 79.8221 106.949 79.308 106.83 78.7938C106.576 77.7192 105.753 75.195 107.188 74.9051C108.494 74.6539 109.341 76.4591 109.781 77.7192Z" fill="url(#paint3_linear)"/>
<path d="M106.419 59.777C105.533 59.8508 104.644 59.6409 103.745 59.7225C102.845 59.8042 101.909 60.294 101.602 61.2776C102.107 61.818 102.879 61.7908 103.561 61.7169C105.233 61.5342 108.984 61.6586 110.659 61.3476C111.327 61.2271 109.923 60.7256 110.528 60.4068C110.663 60.3545 110.787 60.2687 110.89 60.1552C110.993 60.0417 111.074 59.9033 111.127 59.7498C109.893 58.4007 107.844 59.6642 106.419 59.777Z" fill="url(#paint4_linear)"/>
<path d="M122.724 61.7566L123.018 69.2879C123.05 70.0619 123.068 70.8809 122.692 71.5315C122.027 72.7132 120.481 72.874 119.172 72.9002L110.321 73.0759C109.68 73.0436 109.039 73.1466 108.436 73.3788C107.853 73.6518 108.586 74.912 108.622 75.5814C108.622 75.8319 107.484 75.4692 107.305 75.6412C107.168 75.7389 107 75.7765 106.837 75.7459L102.462 75.5029C102.076 75.5048 101.693 75.4352 101.331 75.2972C100.455 74.9008 100.1 73.8238 99.8357 72.8665C99.4717 71.7365 99.2645 70.5578 99.2203 69.3664C99.2203 68.1772 99.6139 66.9357 100.487 66.1729C101.535 65.253 103.023 65.1969 104.39 65.1894L113.144 65.1258C113.276 65.1432 113.41 65.1323 113.538 65.0937C113.666 65.0552 113.785 64.9897 113.888 64.9015C114.067 64.6883 114.049 64.3593 114.206 64.1311C114.386 63.9221 114.633 63.7891 114.9 63.7572L119.819 62.6167C120.33 62.4573 120.867 62.419 121.394 62.5045C121.654 62.553 121.893 62.6886 122.073 62.8909C122.254 63.0932 122.367 63.3512 122.395 63.6263" fill="#3E3E54"/>
<path d="M74.0358 70.3348L67.6359 73.9005C66.6359 74.4098 65.6879 75.0374 64.8081 75.7724C64.5854 75.904 64.4177 76.1276 64.3408 76.3952C64.264 76.6629 64.2841 76.9534 64.3969 77.2048C65.3689 80.528 68.1355 82.7258 70.7288 84.6848L73.8659 87.0531L79.083 90.9902C79.4636 91.2782 79.8919 91.5775 80.3439 91.4904C80.9999 91.3691 81.3296 90.4635 81.1664 89.7435C81.0033 89.0236 80.5071 88.4741 80.0312 87.9588L75.1948 82.703C74.0426 81.4526 72.87 80.1718 72.1359 78.5803C75.6128 77.0646 79.4093 76.7917 83.0561 75.8937C83.9414 75.7398 84.7845 75.3669 85.5237 74.8024C86.2272 74.1923 86.6996 73.1502 86.4549 72.1916C86.2123 71.4818 85.7557 70.8882 85.1634 70.5129C84.2652 69.7916 83.2077 69.3567 82.1045 69.2549C81.3636 69.2094 80.626 69.3761 79.8885 69.3306C79.2325 69.289 78.7771 68.8835 78.1891 68.785C76.8534 68.5614 75.1846 69.6944 74.0358 70.3348Z" fill="#3E3E54"/>
<path d="M115.889 61.7566H42.8633V63.5065H115.889V61.7566Z" fill="#377EF9"/>
<path d="M81.7576 0.507812H20.6378V46.8819H81.7576V0.507812Z" fill="#377EF9"/>
<path d="M38.7089 23.2573C38.3861 22.8695 39.6135 23.1177 39.4184 22.6523C38.4003 20.4107 38.1023 17.8317 37.0239 15.625C36.8537 15.2799 36.6692 14.9463 36.5131 14.5973C36.8632 14.3618 37.183 14.0761 37.4638 13.748C37.9698 13.1726 38.4269 12.5483 38.8295 11.8826C38.8898 11.9485 38.9892 11.995 39.0459 12.092C42.4549 17.8162 38.7267 22.377 38.7089 23.2573Z" fill="#3E3E54"/>
<path d="M32.8884 31.1364C34.9855 31.0987 37.2359 31.2831 38.8939 32.7055C40.082 33.7291 40.8106 35.2644 41.4132 36.7922C42.4916 39.5233 43.2799 42.3835 43.7623 45.3154C43.8099 45.6014 44.644 46.162 44.4091 46.2938C44.3274 46.3389 43.112 46.4593 43.0201 46.4631C35.9967 46.7039 29.2694 46.6362 22.2528 46.8733C22.1014 46.8986 21.9466 46.8668 21.8136 46.7829C21.6952 46.6602 21.6203 46.4947 21.6025 46.3163C20.9523 43.4151 20.3258 40.431 20.8093 37.5034C20.8827 36.9568 21.0442 36.4292 21.2859 35.9455C21.851 34.8994 22.7873 34.5946 23.6895 34.0377C24.5168 33.5221 25.2317 32.8787 26.1135 32.4572C28.2379 31.4449 30.5972 31.1778 32.8884 31.1364Z" fill="white"/>
<path d="M30.3919 25.1177C30.0888 26.0772 30.1507 27.1389 30.2192 28.1612L30.607 34.0596C30.5912 34.325 30.6502 34.5891 30.7744 34.809C30.8987 35.0289 31.0809 35.1916 31.2915 35.2708C32.2171 35.8763 33.2177 36.4504 34.2704 36.3757C35.3231 36.301 36.4084 35.428 36.5062 34.1658C36.5681 33.3322 36.2063 32.5418 35.7859 31.8772C35.3655 31.2127 34.8668 30.5992 34.5865 29.8364C34.127 28.5741 34.329 27.1271 34.241 25.7547C34.2289 25.0935 34.0567 24.4511 33.7456 23.9066C32.7972 22.4516 30.8417 23.7021 30.3919 25.1177Z" fill="url(#paint5_linear)"/>
<path d="M32.116 30.1076C32.8961 30.9166 33.837 31.5347 34.8715 31.9179C34.9851 31.9824 35.1134 32.0131 35.2424 32.0067C35.3715 32.0003 35.4964 31.957 35.6037 31.8816C35.8388 31.6391 35.6692 31.2269 35.5035 30.9239C35.0754 30.1342 34.7673 29.2794 34.5902 28.3902C34.5448 27.9547 34.3964 27.538 34.1585 27.1779C34.0175 27.0233 33.8535 26.8937 33.673 26.794C32.9022 26.3253 30.825 25.1776 30.247 26.495C29.7691 27.5578 31.457 29.4247 32.116 30.1076Z" fill="#D2B5C4"/>
<path d="M73.4657 41.0504C73.2569 41.3463 72.9269 41.6613 73.0549 42.0066C73.1256 42.1925 73.3108 42.2836 73.4556 42.405C73.8182 42.7688 74.0395 43.2784 74.0719 43.8241C74.1061 44.3652 74.2199 44.896 74.4086 45.395C74.6309 45.8731 75.1428 46.2374 75.5906 46.0439C75.8567 45.9263 76.1025 45.6265 76.3753 45.7251C76.5841 45.801 76.6716 46.0742 76.7928 46.2791C76.9601 46.5154 77.1832 46.6935 77.4365 46.7928C77.6897 46.8922 77.9628 46.9088 78.224 46.8407C78.7445 46.6951 79.2351 46.4374 79.6687 46.0818C79.8598 45.9711 80.0179 45.7996 80.1233 45.5885C80.1857 45.3884 80.1857 45.1702 80.1233 44.97C79.9718 44.3516 79.5475 43.8735 79.1939 43.365C78.538 42.419 78.0975 41.3064 77.9109 40.1245C77.7829 39.3011 77.7492 38.3791 77.2374 37.7871C76.5335 36.9827 75.0114 37.1573 74.284 37.8858C73.4691 38.6599 74.1157 40.1093 73.4657 41.0504Z" fill="url(#paint6_linear)"/>
<path d="M73.8302 37.6654C73.8653 37.8107 73.9407 37.9399 74.0456 38.0347C74.1505 38.1296 74.2795 38.1852 74.4144 38.1937C74.6825 38.2319 74.954 38.1707 75.222 38.1937C75.5322 38.2167 75.8289 38.3428 76.074 38.5558C76.3191 38.7687 76.5012 39.0585 76.5968 39.3879C76.8064 40.1535 76.504 41.0492 76.7892 41.7956C76.8855 41.9411 77.102 41.8224 77.1776 41.6617C77.2532 41.5009 77.2841 41.3018 77.4147 41.1947C77.6312 41.0186 77.9405 41.2444 78.0643 41.5124C78.1977 41.8292 78.2172 42.191 78.1188 42.5234C78.0204 42.8558 77.8115 43.1336 77.535 43.2999C77.59 43.5411 77.8787 43.61 78.0952 43.5526C78.304 43.46 78.5241 43.4032 78.7482 43.3842C79.2603 43.4339 79.5215 44.2301 80.0335 44.2569C80.3772 44.2569 80.6487 43.9124 80.8515 43.5909L81.4392 42.6454C81.5104 42.5525 81.5548 42.4377 81.5663 42.3162C81.5596 42.2057 81.5276 42.099 81.4735 42.0061C81.1761 41.3587 81.0771 40.6207 81.1917 39.9047C81.3361 39.032 81.7932 38.2205 81.7554 37.3324C81.6795 36.5827 81.362 35.889 80.8618 35.3802C79.6899 34.0596 77.8374 33.5927 76.2084 33.807C75.9419 33.8322 75.6837 33.9224 75.452 34.0712C75.2204 34.2201 75.021 34.4239 74.8681 34.6683C74.4282 35.3152 73.7271 36.8578 73.8302 37.6654Z" fill="#3E3E54"/>
<path d="M78.9382 44.7676C78.4162 45.0641 77.9135 45.3951 77.4333 45.7584C77.2836 45.8642 77.1587 46.0029 77.0679 46.1644C77.0201 46.2528 76.995 46.3523 76.995 46.4534C76.995 46.5546 77.0201 46.654 77.0679 46.7424C77.2355 46.9867 77.5506 46.8594 77.7919 46.7424C78.9013 46.1472 80.1381 45.9786 81.3246 45.8617C81.4083 45.8663 81.4915 45.8469 81.565 45.8055C81.6384 45.7642 81.6991 45.7026 81.7402 45.6277C81.7611 45.5412 81.7631 45.4511 81.7464 45.3637C81.7296 45.2764 81.6943 45.1938 81.643 45.1219C80.899 43.873 79.9035 44.1827 78.9382 44.7676Z" fill="#2569E3"/>
<path d="M76.7623 62.5992C75.8957 60.6442 75.2592 58.5736 74.8685 56.4384C74.281 57.0099 73.774 57.6759 73.3644 58.4142C72.7607 59.5092 72.4709 61.1327 73.3885 61.9138C71.7478 62.4688 70.0143 62.5998 68.3209 62.2967C67.8375 62.2587 67.3807 62.0369 67.0273 61.6687C66.8067 61.353 66.6856 60.9656 66.6823 60.566C66.603 59.2067 67.2998 57.9585 67.9725 56.8175L72.6193 48.9146C72.7756 48.6163 72.9722 48.3464 73.2023 48.1143C73.5266 47.8539 73.8951 47.669 74.2855 47.5706C77.2234 46.6025 80.2103 45.8277 83.2305 45.2503C83.683 45.137 84.1488 45.1047 84.6104 45.1546C85.9006 45.3652 86.7492 46.7168 87.3977 47.9688C90.7991 54.5163 93.2105 61.9483 92.831 69.4951C92.8259 69.903 92.7678 70.3079 92.6585 70.6974C92.4351 71.2837 92.0712 71.7909 91.6064 72.1638C90.0885 73.4925 88.0911 73.9864 86.1593 74.0056C83.2754 74.0362 79.4704 73.0713 77.3177 70.7701C76.1 69.4721 77.3177 68.6872 77.9007 67.4007C78.6355 65.781 77.4143 64.0695 76.7623 62.5992Z" fill="#377EF9"/>
<path d="M86.8963 74.9837C85.7581 68.6762 87.3299 64.3379 89.9077 58.5648C90.7749 56.6254 91.9944 54.6487 93.8744 54.0397C94.745 53.7557 95.6731 53.8005 96.5674 53.6324C98.3085 53.3073 99.9108 52.19 101.676 52.1377C101.761 52.1255 101.847 52.132 101.929 52.1571C102.012 52.1821 102.089 52.2251 102.157 52.2834C102.246 52.3989 102.298 52.5432 102.306 52.6945C102.434 53.5415 102.425 54.4069 102.279 55.2503C102.014 56.7973 101.313 58.2023 100.734 59.6409C99.2735 63.2656 98.5497 67.1989 98.6134 71.1649C98.6544 71.6491 98.6107 72.1375 98.4847 72.6035C98.3102 73.0346 98.051 73.4175 97.7259 73.7245C95.3547 76.2505 92.2315 77.6928 89.1828 79.0791C88.9579 79.206 88.707 79.2665 88.4545 79.2547C88.2907 79.2112 88.1366 79.1314 88.0016 79.0203C87.8665 78.9092 87.7532 78.769 87.6686 78.6083C86.989 77.5493 86.7119 76.239 86.8963 74.9576" fill="#3E3E54"/>
<path d="M86.8963 74.9837C85.7581 68.6762 87.3299 64.3379 89.9077 58.5648C90.7749 56.6254 91.9944 54.6487 93.8744 54.0397C94.745 53.7557 95.6731 53.8005 96.5674 53.6324C98.3085 53.3073 99.9108 52.19 101.676 52.1377C101.761 52.1255 101.847 52.132 101.929 52.1571C102.012 52.1821 102.089 52.2251 102.157 52.2834C102.246 52.3989 102.298 52.5432 102.306 52.6945C102.434 53.5415 102.425 54.4069 102.279 55.2503C102.014 56.7973 101.313 58.2023 100.734 59.6409C99.2735 63.2656 98.5497 67.1989 98.6134 71.1649C98.6544 71.6491 98.6107 72.1375 98.4847 72.6035C98.3102 73.0346 98.051 73.4175 97.7259 73.7245C95.3547 76.2505 92.2315 77.6928 89.1828 79.0791C88.9579 79.206 88.707 79.2665 88.4545 79.2547C88.2907 79.2112 88.1366 79.1314 88.0016 79.0203C87.8665 78.9092 87.7532 78.769 87.6686 78.6083C86.989 77.5493 86.7119 76.239 86.8963 74.9576" fill="url(#paint7_linear)"/>
<path d="M75.6275 79.2566L71.4387 94.1313H72.708L76.9951 79.5902L75.6275 79.2566Z" fill="#377EF9"/>
<path d="M85.7264 79.2566L89.9947 94.1313H92.0765L87.6282 79.2866L85.7264 79.2566Z" fill="#377EF9"/>
<path d="M95.3457 76.6313L100.014 93.256H98.3326L93.6641 77.5554L95.3457 76.6313Z" fill="#377EF9"/>
<path d="M39.5281 21.3556C39.7001 22.5036 39.7337 23.6718 39.6279 24.8296C39.3973 26.5394 38.5754 28.0833 37.3356 29.1357C36.7974 29.6146 36.1685 29.953 35.4957 30.1257C34.8229 30.2984 34.1235 30.3011 33.4496 30.1334C31.7027 29.601 30.5976 27.7674 29.7562 25.9653C28.8293 23.9937 28.0378 21.8879 27.8311 19.656C27.6243 17.4241 28.0557 15.0779 29.3498 13.3704C29.9003 12.6437 30.5858 12.0566 31.3598 11.649C32.1337 11.2415 32.9779 11.0229 33.835 11.0084C34.692 10.9938 35.5419 11.1834 36.3268 11.5645C37.1117 11.9455 37.8132 12.509 38.3837 13.2166C39.6279 14.7821 39.2999 19.2854 39.5281 21.3556Z" fill="url(#paint8_linear)"/>
<path d="M38.6846 11.6919C38.2919 12.3546 37.8465 12.9756 37.3538 13.5471C37.0829 13.8734 36.7745 14.1575 36.4369 14.3917C35.2634 15.2248 33.8059 15.5719 32.5743 16.2546C32.192 16.4385 31.8567 16.7276 31.5992 17.0954C31.0553 17.9786 31.3461 19.3285 30.6823 20.0999C30.5491 20.226 30.4338 20.3742 30.3402 20.5395C30.2796 20.7326 30.2665 20.9405 30.3026 21.1412C30.5255 23.2971 30.5347 25.4742 30.33 27.6323C29.5362 26.6912 28.3593 26.2978 27.4698 25.4686C25.6771 23.8063 25.4478 20.8404 25.417 18.2293C25.3527 16.93 25.4751 15.6276 25.7797 14.3724C26.1218 13.1344 26.9019 11.9812 27.9898 11.5415C28.1574 11.4888 28.3175 11.4096 28.4654 11.3062C28.6435 11.1125 28.7773 10.8729 28.8554 10.6081C30.0152 7.75021 33.0806 6.94413 35.5679 7.87749C36.5943 8.26317 37.6891 8.98826 38.1407 10.1569C38.2274 10.3855 38.2939 10.6232 38.3391 10.8666C38.5957 10.7817 38.801 10.774 38.8694 10.9128C38.9378 11.0517 38.8625 11.3564 38.6846 11.6919Z" fill="#3E3E54"/>
<path d="M73.82 17.1326H46.832V39.0072H73.82V17.1326Z" fill="white"/>
<path d="M61.1198 37.6924C61.1114 37.7769 61.0865 37.858 61.047 37.9296C61.0075 38.0012 60.9544 38.0614 60.8918 38.1056C59.9264 39.0119 58.818 39.6912 57.6285 40.1055C57.0728 40.2997 56.5883 40.403 56.3069 41.0062C56.0859 41.598 55.9083 42.2103 55.776 42.8367C55.4186 44.0935 54.9619 45.3094 54.4116 46.4687C54.3439 46.6133 54.2727 46.7579 54.1943 46.8819H48.4196C48.512 46.6813 48.6324 46.4998 48.7758 46.3447C49.6467 45.2766 50.4082 44.0953 51.0451 42.8243C51.1235 42.6714 51.1983 42.5185 51.2731 42.3615C51.5189 41.8615 51.7469 41.3492 51.9642 40.8286C52.1815 40.3079 52.4166 39.1014 52.8014 38.7089C53.2716 38.2213 54.0589 38.3948 54.6254 38.4114C55.5195 38.4445 56.4135 38.3374 57.283 38.0932C58.4158 37.7626 59.5309 37.0891 60.6887 37.2957C60.8739 37.3453 61.1091 37.461 61.1198 37.6924Z" fill="url(#paint9_linear)"/>
<path d="M52.3884 21.5072H50.0071V34.632H52.3884V21.5072Z" fill="#68E1FD"/>
<path d="M55.5635 25.8826H53.976V34.6324H55.5635V25.8826Z" fill="#68E1FD"/>
<path d="M59.5322 25.0071H57.1509V34.6319H59.5322V25.0071Z" fill="#68E1FD"/>
<path d="M63.5011 25.8826H61.1198V34.6324H63.5011V25.8826Z" fill="#68E1FD"/>
<path d="M113.277 40.2184C113.208 40.3796 113.148 40.5457 113.096 40.7158C113.045 40.927 112.982 41.1341 112.909 41.3357C112.766 41.5621 112.698 41.8444 112.718 42.1277C112.778 42.5104 113.058 42.7361 113.28 42.9963C113.511 43.2594 113.701 43.5705 113.84 43.9146C114.011 44.3508 114.122 44.8674 114.456 45.1352C114.901 45.4949 115.533 45.25 116.003 45.5599C116.69 46.0114 116.362 47.7371 117.125 47.7562C117.774 47.7646 118.42 47.635 119.031 47.3736C119.328 47.2833 119.587 47.0673 119.762 46.7652C120.016 46.2142 119.708 45.5485 119.508 44.963C118.685 42.5677 119.705 39.587 118.615 37.3525C118.245 36.6047 117.675 36.0311 116.998 35.7263C116.569 35.526 116.105 35.4613 115.649 35.5384C115.194 35.6154 114.762 35.8316 114.396 36.1663C113.608 36.9316 113.951 38.2402 113.633 39.2771C113.529 39.5987 113.41 39.913 113.277 40.2184Z" fill="url(#paint10_linear)"/>
<path d="M113.965 33.6669C113.762 34.001 113.622 34.3801 113.555 34.7799C113.487 35.1797 113.493 35.5913 113.572 35.9883C113.652 36.3853 113.802 36.7588 114.015 37.085C114.227 37.4111 114.497 37.6826 114.806 37.8821C115.424 38.2653 116.235 38.4377 116.565 39.1505C116.702 39.5896 116.785 40.0489 116.809 40.5147C116.852 40.7599 116.986 41.0473 117.206 41.0282C117.567 40.9937 117.54 40.2234 117.89 40.1391C117.994 40.249 118.074 40.3849 118.124 40.536C118.174 40.6872 118.193 40.8496 118.179 41.0105C118.166 41.1715 118.12 41.3267 118.045 41.464C117.971 41.6014 117.87 41.7171 117.75 41.8022C117.64 41.8712 117.496 41.9478 117.503 42.0896C117.51 42.2314 117.66 42.2851 117.77 42.3502C118.268 42.6568 118.104 43.5918 118.528 44.0401C118.64 44.1415 118.769 44.2158 118.906 44.2586C119.044 44.3014 119.188 44.3118 119.329 44.2892C119.723 44.2413 120.102 44.0947 120.441 43.8596C120.779 43.6245 121.069 43.3067 121.288 42.9288C121.726 42.1672 121.959 41.274 121.956 40.3614C121.935 40.0295 121.976 39.6963 122.076 39.3842C122.128 39.2277 122.231 39.1003 122.363 39.0289C122.495 38.9574 122.646 38.9474 122.784 39.001C122.59 40.1506 122.397 41.327 122.66 42.4498C122.818 43.0923 123.118 43.6769 123.531 44.147C123.944 44.617 124.456 44.9564 125.017 45.1322C124.732 44.5767 124.571 43.9487 124.55 43.3044C124.551 42.6884 124.616 42.0749 124.743 41.4765L125.187 38.9435C125.344 38.2179 125.42 37.4724 125.414 36.7248C125.406 35.9682 125.15 35.2429 124.697 34.6938C124.467 34.4275 124.172 34.2482 123.851 34.1797C123.53 34.1112 123.198 34.1569 122.901 34.3106C122.679 34.4636 122.49 34.6712 122.347 34.9184C122.204 35.1656 122.11 35.4462 122.073 35.74C122.002 36.3265 122.007 36.9219 122.09 37.5065C121.373 36.6504 120.712 35.736 120.11 34.7705C119.788 34.1403 119.345 33.6028 118.815 33.1994C118.181 32.8162 117.42 32.8621 116.702 32.9234C115.701 33.0078 114.719 32.8047 113.965 33.6669Z" fill="#3E3E54"/>
<path d="M120.194 46.882C119.688 46.9118 119.179 46.9716 118.68 47.0575C118.273 47.1126 117.875 47.2386 117.501 47.431C117.085 47.6805 116.726 48.0358 116.45 48.4693C115.334 50.1426 115.202 52.3723 114.719 54.4004C114.597 54.9976 114.385 55.5662 114.092 56.0811C113.416 57.1792 112.224 57.6909 111.084 58.027C110.578 58.1727 110.02 58.3408 109.747 58.8413C109.606 59.147 109.535 59.4892 109.544 59.8347C109.514 60.5817 109.619 61.4707 110.201 61.8105C110.401 61.911 110.616 61.9692 110.834 61.9823C112.098 62.1201 113.374 62.0012 114.601 61.6313C114.841 62.0048 114.601 62.5538 114.762 62.9758C114.923 63.3979 115.445 63.4913 115.869 63.5025C117.626 63.5319 119.383 63.407 121.123 63.129C121.316 63.1118 121.504 63.0508 121.675 62.9497C121.935 62.7138 122.112 62.3799 122.174 62.0085C122.864 59.1795 123.142 56.2409 122.995 53.3098C122.977 51.9456 122.815 50.5888 122.513 49.2686C122.325 48.5216 122.033 47.7485 121.458 47.3302C120.821 46.8708 120.004 46.9567 119.251 47.0463" fill="#FB765F"/>
<path d="M109.528 93.4525C109.528 93.589 109.475 93.7672 109.304 93.7756C109.133 93.7839 109.053 93.6196 109.042 93.497C109.032 93.3745 109.042 93.2046 108.892 93.1377C108.742 93.0709 108.543 93.1906 108.375 93.2826C107.348 93.8759 104.512 94.1544 103.231 94.1293C102.836 93.2798 105.385 93.0152 105.972 92.7728C106.444 92.5862 106.95 92.4525 107.404 92.238C107.858 92.0235 108.176 91.6196 108.637 91.5249C109.678 91.3105 109.538 92.9762 109.528 93.4525Z" fill="#3E3E54"/>
<path d="M114.277 92.9099C114.316 93.0675 114.309 93.2326 114.259 93.3869C114.245 93.4241 114.223 93.4581 114.195 93.4869C114.167 93.5157 114.134 93.5388 114.097 93.5547C114.06 93.5707 114.02 93.5793 113.979 93.58C113.939 93.5807 113.899 93.5734 113.861 93.5587C113.844 93.3243 113.78 93.0956 113.673 92.8854C113.646 92.8241 113.601 92.7718 113.545 92.7346C113.385 92.6504 113.211 92.8223 113.108 92.9731C112.931 93.2879 112.661 93.5423 112.334 93.7025C112.131 93.7663 111.918 93.7971 111.705 93.7937L110.608 93.8288C110.572 93.8288 108.029 94.1479 107.997 94.1303C107.965 94.1128 107.773 93.8743 108.523 93.3448C109.07 92.959 111.624 91.2652 111.624 91.2652C111.229 92.3173 112.796 90.8268 113.091 90.7041C114.256 90.2307 114.163 92.1875 114.277 92.9099Z" fill="#3E3E54"/>
<path d="M61.1198 63.5067H42.0695V91.5062H61.1198V63.5067Z" fill="#2569E3"/>
<path d="M19.1107 70.0962C18.9349 69.0293 19.1107 67.5699 20.0658 67.3869C20.6898 67.2688 21.2484 67.8061 21.6862 68.3129C23.7392 70.6765 25.5937 73.2414 27.2269 75.9758C26.1262 72.6107 25.3451 69.1282 24.8962 65.5846C24.7479 64.4033 24.6514 63.1268 25.1685 62.0751C25.6857 61.0234 27.0648 60.429 27.8889 61.2025C28.344 61.6293 28.4957 62.3228 28.6267 62.9668L29.892 69.2884C29.9438 66.7315 29.2025 64.2166 29.2507 61.6674C29.299 59.1182 30.4161 56.2375 32.6675 55.6316C33.1738 62.0622 33.0061 68.536 32.1676 74.9241C33.0296 73.8305 33.3605 72.3596 33.9811 71.0793C34.6018 69.799 35.7637 68.6025 37.06 68.8464C37.3393 71.7652 35.8085 74.4745 34.3397 76.9208C35.0293 76.2044 35.7981 75.4576 36.7532 75.2709C37.7082 75.0841 38.8219 75.7243 38.8908 76.7951C38.9598 77.8658 38.0185 78.5593 37.2049 79.0813L30.6195 83.25C30.3537 83.446 30.0525 83.5759 29.7369 83.6311C29.3587 83.6326 28.9879 83.515 28.6681 83.2919C24.2273 80.6894 20.021 75.6176 19.1107 70.0962Z" fill="#68E1FD"/>
<path d="M19.1107 70.0962C18.9349 69.0293 19.1107 67.5699 20.0658 67.3869C20.6898 67.2688 21.2484 67.8061 21.6862 68.3129C23.7392 70.6765 25.5937 73.2414 27.2269 75.9758C26.1262 72.6107 25.3451 69.1282 24.8962 65.5846C24.7479 64.4033 24.6514 63.1268 25.1685 62.0751C25.6857 61.0234 27.0648 60.429 27.8889 61.2025C28.344 61.6293 28.4957 62.3228 28.6267 62.9668L29.892 69.2884C29.9438 66.7315 29.2025 64.2166 29.2507 61.6674C29.299 59.1182 30.4161 56.2375 32.6675 55.6316C33.1738 62.0622 33.0061 68.536 32.1676 74.9241C33.0296 73.8305 33.3605 72.3596 33.9811 71.0793C34.6018 69.799 35.7637 68.6025 37.06 68.8464C37.3393 71.7652 35.8085 74.4745 34.3397 76.9208C35.0293 76.2044 35.7981 75.4576 36.7532 75.2709C37.7082 75.0841 38.8219 75.7243 38.8908 76.7951C38.9598 77.8658 38.0185 78.5593 37.2049 79.0813L30.6195 83.25C30.3537 83.446 30.0525 83.5759 29.7369 83.6311C29.3587 83.6326 28.9879 83.515 28.6681 83.2919C24.2273 80.6894 20.021 75.6176 19.1107 70.0962Z" fill="url(#paint11_linear)"/>
<path d="M34.1318 82.756H25.4004V92.3808H34.1318V82.756Z" fill="#FB765F"/>
<path d="M29.442 20.6366C29.3177 20.6221 29.1927 20.6469 29.0764 20.7092C28.948 20.801 28.8376 20.9349 28.7547 21.0993C28.6718 21.2636 28.6189 21.4535 28.6006 21.6526C28.5438 22.1694 28.5836 22.6978 28.7162 23.1871C28.8488 23.6764 29.0698 24.11 29.3578 24.4464C29.5504 24.71 29.7912 24.8954 30.0541 24.9826C30.1861 25.0232 30.3235 25.0139 30.4521 24.9558C30.5807 24.8977 30.6957 24.7928 30.7852 24.652C30.9394 24.2965 30.9922 23.8736 30.9332 23.4667C30.8461 22.1484 30.5734 20.7172 29.442 20.6366Z" fill="#E5C5D6"/>
<path d="M30.2496 23.2237C30.1393 23.0505 30.0144 22.881 29.8755 22.7159C29.7978 22.6481 29.7074 22.5864 29.6062 22.532C29.5271 22.4777 29.4283 22.436 29.3181 22.4106C29.2078 22.3851 29.0894 22.3765 28.9727 22.3856C28.896 22.4012 28.826 22.4275 28.768 22.4627C28.7101 22.4978 28.6658 22.5407 28.6386 22.5881C28.5816 22.6879 28.5628 22.7946 28.5837 22.8997C28.6287 23.295 28.9185 23.6639 29.3917 23.9279C29.4976 23.9897 29.6189 24.0402 29.7509 24.0775C29.955 24.119 30.17 24.136 30.3843 24.1273C30.4588 24.1336 30.5343 24.1336 30.6088 24.1273C30.7481 24.0808 30.856 24.0045 30.9127 23.9124C30.9695 23.8203 30.9714 23.7186 30.918 23.6257C30.7883 23.4356 30.4093 23.4107 30.2496 23.2237Z" fill="#D2B5C4"/>
<path d="M108.422 78.8937C108.882 79.1791 109.407 79.3005 109.929 79.2421H119.164C119.756 79.2878 120.35 79.1913 120.907 78.9588C121.367 78.6796 121.782 78.3131 122.133 77.8753C123.767 76.0727 125.557 74.4615 127.476 73.0663C127.602 72.9949 127.704 72.8794 127.767 72.7371C127.791 72.6572 127.8 72.5724 127.794 72.4882C127.736 71.3396 126.645 70.547 125.629 70.5087C124.612 70.4704 123.643 70.9567 122.68 71.3319C118.211 73.0855 112.969 72.6605 109.169 75.8805C108.483 76.4586 107.284 77.9978 108.422 78.8937Z" fill="#3E3E54"/>
<path d="M119.913 77.364C118.755 70.9964 119.557 64.3941 122.195 58.5648C123.08 56.6254 124.324 54.6487 126.243 54.0397C127.132 53.7557 128.079 53.8005 128.992 53.6324C130.769 53.3073 132.404 52.19 134.205 52.1377C134.292 52.1255 134.38 52.132 134.464 52.1571C134.548 52.1821 134.627 52.2251 134.696 52.2834C134.787 52.3989 134.84 52.5432 134.848 52.6945C134.979 53.5415 134.97 54.4069 134.82 55.2503C134.551 56.7973 133.835 58.2023 133.244 59.6409C131.755 63.2662 131.016 67.1991 131.08 71.1649C131.122 71.6491 131.077 72.1375 130.948 72.6035C130.77 73.0346 130.506 73.4175 130.174 73.7245C127.754 76.2505 124.566 77.6928 121.455 79.0791C121.225 79.206 120.969 79.2665 120.712 79.2547C120.545 79.2112 120.387 79.1314 120.249 79.0203C120.112 78.9092 119.996 78.769 119.91 78.6083C119.216 77.5493 118.933 76.239 119.121 74.9576" fill="#3E3E54"/>
<path d="M119.913 77.364C118.755 70.9964 119.557 64.3941 122.195 58.5648C123.08 56.6254 124.324 54.6487 126.243 54.0397C127.132 53.7557 128.079 53.8005 128.992 53.6324C130.769 53.3073 132.404 52.19 134.205 52.1377C134.292 52.1255 134.38 52.132 134.464 52.1571C134.548 52.1821 134.627 52.2251 134.696 52.2834C134.787 52.3989 134.84 52.5432 134.848 52.6945C134.979 53.5415 134.97 54.4069 134.82 55.2503C134.551 56.7973 133.835 58.2023 133.244 59.6409C131.755 63.2662 131.016 67.1991 131.08 71.1649C131.122 71.6491 131.077 72.1375 130.948 72.6035C130.77 73.0346 130.506 73.4175 130.174 73.7245C127.754 76.2505 124.566 77.6928 121.455 79.0791C121.225 79.206 120.969 79.2665 120.712 79.2547C120.545 79.2112 120.387 79.1314 120.249 79.0203C120.112 78.9092 119.996 78.769 119.91 78.6083C119.216 77.5493 118.933 76.239 119.121 74.9576" fill="url(#paint12_linear)"/>
<path d="M108.169 79.2566L103.983 94.1313H105.252L109.539 79.5902L108.169 79.2566Z" fill="#377EF9"/>
<path d="M118.271 79.2566L122.539 94.1313H124.621L120.172 79.2866L118.271 79.2566Z" fill="#377EF9"/>
<path d="M127.89 76.6313L132.558 93.256H130.877L126.208 77.5554L127.89 76.6313Z" fill="#377EF9"/>
<path d="M82.5474 91.4954C82.5617 91.7224 82.5375 91.9508 82.4768 92.1638C82.3709 92.367 82.2328 92.5367 82.0721 92.6608C81.9114 92.7849 81.7322 92.8603 81.5472 92.8817L81.2683 92.3618C80.5469 93.2629 79.4425 93.2877 78.4534 93.2431C77.5858 93.1969 76.7181 93.1441 75.8505 93.0847C75.7778 93.0949 75.7042 93.0824 75.6358 93.048C75.5673 93.0136 75.5059 92.9583 75.4564 92.8866C75.406 92.7587 75.394 92.61 75.4229 92.4708C75.5076 91.9285 75.7172 91.435 76.0224 91.0587C76.3277 90.6825 76.7134 90.4422 77.1259 90.3715C77.7878 90.2725 78.4683 90.6339 79.119 90.4408C79.9668 90.1883 80.6064 88.906 81.4728 88.8812C82.3392 88.8565 82.5251 90.5943 82.5474 91.4954Z" fill="#3E3E54"/>
<path d="M20.5477 37.3005V45.0278H44.7755C44.7755 43.1464 42.322 37.5245 41.0953 34.9487L20.5477 37.3005Z" fill="white"/>
<defs>
<linearGradient id="paint0_linear" x1="77.7981" y1="90.192" x2="84.9284" y2="90.192" gradientUnits="userSpaceOnUse">
<stop stop-opacity="0"/>
<stop offset="0.99"/>
</linearGradient>
<linearGradient id="paint1_linear" x1="4391" y1="6296.98" x2="5457.24" y2="6296.98" gradientUnits="userSpaceOnUse">
<stop stop-opacity="0"/>
<stop offset="0.99"/>
</linearGradient>
<linearGradient id="paint2_linear" x1="4943.17" y1="2385.62" x2="6108.81" y2="2385.62" gradientUnits="userSpaceOnUse">
<stop stop-opacity="0"/>
<stop offset="0.99"/>
</linearGradient>
<linearGradient id="paint3_linear" x1="2230.54" y1="5110.59" x2="2362.36" y2="5110.59" gradientUnits="userSpaceOnUse">
<stop stop-color="#E5C5D5"/>
<stop offset="0.42" stop-color="#EAD4D1"/>
<stop offset="1" stop-color="#F0E9CB"/>
</linearGradient>
<linearGradient id="paint4_linear" x1="3162.03" y1="655.8" x2="3433.4" y2="655.8" gradientUnits="userSpaceOnUse">
<stop stop-color="#E5C5D5"/>
<stop offset="0.42" stop-color="#EAD4D1"/>
<stop offset="1" stop-color="#F0E9CB"/>
</linearGradient>
<linearGradient id="paint5_linear" x1="748.366" y1="1934.74" x2="872.067" y2="1934.74" gradientUnits="userSpaceOnUse">
<stop stop-color="#E5C5D5"/>
<stop offset="0.42" stop-color="#EAD4D1"/>
<stop offset="1" stop-color="#F0E9CB"/>
</linearGradient>
<linearGradient id="paint6_linear" x1="1778.77" y1="1746.72" x2="1930.14" y2="1746.72" gradientUnits="userSpaceOnUse">
<stop stop-color="#E5C5D5"/>
<stop offset="0.42" stop-color="#EAD4D1"/>
<stop offset="1" stop-color="#F0E9CB"/>
</linearGradient>
<linearGradient id="paint7_linear" x1="4498.41" y1="6596.73" x2="5242.32" y2="6596.73" gradientUnits="userSpaceOnUse">
<stop stop-opacity="0"/>
<stop offset="0.99"/>
</linearGradient>
<linearGradient id="paint8_linear" x1="1305.22" y1="2328.67" x2="1703.25" y2="2328.67" gradientUnits="userSpaceOnUse">
<stop stop-color="#E5C5D5"/>
<stop offset="0.42" stop-color="#EAD4D1"/>
<stop offset="1" stop-color="#F0E9CB"/>
</linearGradient>
<linearGradient id="paint9_linear" x1="2164.27" y1="1753.36" x2="2617.03" y2="1753.36" gradientUnits="userSpaceOnUse">
<stop stop-color="#E5C5D5"/>
<stop offset="0.42" stop-color="#EAD4D1"/>
<stop offset="1" stop-color="#F0E9CB"/>
</linearGradient>
<linearGradient id="paint10_linear" x1="2639" y1="2192.57" x2="2800.02" y2="2192.57" gradientUnits="userSpaceOnUse">
<stop stop-color="#E5C5D5"/>
<stop offset="0.42" stop-color="#EAD4D1"/>
<stop offset="1" stop-color="#F0E9CB"/>
</linearGradient>
<linearGradient id="paint11_linear" x1="2232.07" y1="6698.23" x2="2010.51" y2="9200.62" gradientUnits="userSpaceOnUse">
<stop stop-color="#377EF9"/>
<stop offset="0.99"/>
</linearGradient>
<linearGradient id="paint12_linear" x1="6047.2" y1="6596.73" x2="6776.19" y2="6596.73" gradientUnits="userSpaceOnUse">
<stop stop-opacity="0"/>
<stop offset="0.99"/>
</linearGradient>
</defs>
</svg>
