<svg width="135" height="131" viewBox="0 0 135 131" fill="none" xmlns="http://www.w3.org/2000/svg">
<path opacity="0.24" d="M133.574 100.155C131.773 106.804 128.209 112.052 123.667 116.042C116.457 122.354 106.784 125.46 97.7726 125.83C83.069 126.428 68.2782 122.055 53.7344 124.785C44.9432 126.438 36.4353 130.659 27.5472 130.717C19.4267 130.765 10.4104 125.82 7.65994 116.756C7.39503 115.889 7.19079 114.991 7.04981 114.074C6.45905 110.216 7.02076 106.216 6.95297 102.264C6.77138 91.1194 1.66034 80.9941 0.33355 69.9556C-1.96896 50.8657 7.92385 31.6922 21.5331 22.1102C35.7791 12.1103 53.1509 12.583 68.7721 7.71482C84.5628 2.77595 105.331 -3.12755 120.585 6.42866C123.66 8.3579 126.555 11.0685 128.122 14.853C129.383 17.8916 129.688 21.3771 129.981 24.7758C131.424 41.766 132.867 58.7509 134.31 75.7305C135.017 83.8976 135.688 92.3606 133.574 100.155Z" fill="#4B8CFB"/>
<path opacity="0.24" d="M120.541 115.726C113.535 122.174 104.137 125.347 95.3802 125.724C81.093 126.335 66.7211 121.868 52.5892 124.657C44.047 126.345 35.7801 130.658 27.1438 130.717C19.2532 130.767 10.4922 125.715 7.8197 116.455C14.8327 107.468 32.5853 106.032 40.4899 108.335C44.0964 109.386 47.6018 111.015 51.2224 111.968C55.7911 113.163 60.4798 113.262 65.1261 112.927C71.9203 112.441 78.6699 111.055 85.3371 109.156C95.3449 106.308 106.197 102.442 115.363 108.722C117.113 109.918 118.777 111.521 119.847 113.788C120.132 114.394 120.365 115.044 120.541 115.726Z" fill="#377FFA"/>
<path opacity="0.3" d="M29.3849 115.619C27.321 116.605 25.053 118.579 25.8002 120.749C26.3434 122.328 28.1999 122.959 29.8194 123.361C34.5528 124.531 39.4936 125.521 44.2732 124.551C47.4299 123.913 50.3463 122.45 53.3714 121.338C56.7247 120.107 60.2211 119.307 63.7764 118.957C64.7935 118.858 66.0411 118.628 66.3406 117.641C66.7027 116.48 65.3795 115.537 64.2471 115.099C58.6677 112.932 52.5616 113.096 46.7057 112.527C40.7582 111.965 34.7696 113.033 29.3849 115.619Z" fill="#377FFA"/>
<path opacity="0.5" d="M100.673 54.5885C100.672 55.5285 100.462 56.4291 100.091 57.0929C99.7187 57.7566 99.215 58.1294 98.69 58.1294H48.9464C48.4221 58.1276 47.9196 57.754 47.5489 57.0903C47.1782 56.4267 46.9695 55.5271 46.9685 54.5885C46.969 53.6497 47.1775 52.7496 47.5484 52.0857C47.9192 51.4219 48.4219 51.0485 48.9464 51.0476H98.69C98.9502 51.0463 99.208 51.1369 99.4486 51.3143C99.6892 51.4916 99.9079 51.7522 100.092 52.0812C100.276 52.4101 100.423 52.8009 100.522 53.2311C100.622 53.6614 100.673 54.1227 100.673 54.5885V54.5885Z" fill="#377EF9"/>
<path d="M97.9398 58.8516C100.341 58.8516 102.288 56.9065 102.288 54.5071C102.288 52.1077 100.341 50.1626 97.9398 50.1626C95.5382 50.1626 93.5914 52.1077 93.5914 54.5071C93.5914 56.9065 95.5382 58.8516 97.9398 58.8516Z" fill="url(#paint0_linear)"/>
<path d="M76.7309 58.0701H50.3974C49.4752 58.0684 48.5912 57.7016 47.9391 57.0501C47.287 56.3985 46.9198 55.5153 46.9181 54.5939C46.919 53.6722 47.2858 52.7885 47.9381 52.1368C48.5904 51.4851 49.4749 51.1185 50.3974 51.1177H76.6222C76.0858 51.5291 75.6531 52.0602 75.3587 52.6685C75.0644 53.2769 74.9166 53.9456 74.9272 54.6212C74.9377 55.2968 75.1063 55.9606 75.4195 56.5594C75.7327 57.1583 76.1818 57.6757 76.7309 58.0701V58.0701Z" fill="url(#paint1_linear)"/>
<path d="M47.4496 111.8L47.5583 114.201C47.3825 114.676 47.0967 115.102 46.7242 115.445C46.3517 115.788 45.9032 116.038 45.4154 116.175C44.9535 116.295 44.47 116.308 44.0024 116.212C43.5348 116.115 43.0958 115.912 42.7195 115.619L42.8907 111.6" fill="#E5C5D6"/>
<path d="M38.1012 113.991L38.2099 116.392C38.0343 116.867 37.7486 117.293 37.3761 117.636C37.0035 117.979 36.5549 118.229 36.067 118.365C35.6054 118.487 35.1219 118.5 34.6542 118.404C34.1866 118.308 33.7475 118.106 33.3711 117.812L33.539 113.79" fill="#E5C5D6"/>
<path d="M49.5102 72.2167L47.7557 112.34C47.1425 112.791 46.4068 113.045 45.6457 113.07C44.1744 113.155 43.9077 113.261 42.8478 112.297L38.2065 70.4704L49.6023 69.1877L49.5102 72.2167Z" fill="#606161"/>
<path d="M49.5102 72.2167L47.7557 112.34C47.1425 112.791 46.4068 113.045 45.6457 113.07C44.1744 113.155 43.9077 113.261 42.8478 112.297L38.2065 70.4704L49.6023 69.1877L49.5102 72.2167Z" fill="#25233A"/>
<path d="M43.0387 76.0384L38.4304 114.846C38.4304 114.846 37.772 115.527 35.9682 115.55C33.9142 115.576 33.7298 115.297 33.269 114.261L32.3802 69.7502L42.9301 71.5459L43.0387 76.0384Z" fill="#606161"/>
<path d="M43.0387 76.0384L38.4304 114.846C38.4304 114.846 37.772 115.527 35.9682 115.55C33.9142 115.576 33.7298 115.297 33.269 114.261L32.3802 69.7502L42.9301 71.5459L43.0387 76.0384Z" fill="#3E3E54"/>
<path d="M44.4871 72.1608C43.0462 72.6447 41.5628 72.9916 40.0565 73.1967C38.0815 73.4006 35.9716 72.437 34.3981 72.3581C32.3079 72.2496 32.252 72.1838 32.252 70.8222C32.252 70.1382 49.6123 68.4971 49.6123 68.4971C49.6123 68.4971 49.5333 69.7501 49.5366 70.9077C49.5366 71.7793 49.1646 71.7299 47.5846 71.8187C46.0046 71.9075 45.7149 71.4307 44.4871 72.1608Z" fill="#25233A"/>
<path d="M37.6371 41.5292C37.6371 41.5292 34.724 42.2824 32.6469 43.7952C31.3632 44.7292 32.2519 70.8224 32.2519 70.8224C32.377 70.8027 37.9564 73.062 43.3515 72.1379C47.9598 71.3486 49.6057 69.1944 49.6057 69.1944C49.6057 69.1944 50.0204 44.157 49.1284 43.1276C48.7268 42.6672 44.3587 41.0557 44.3587 41.0557C44.3587 41.0557 42.4463 43.9037 37.6371 41.5292Z" fill="#FB765F"/>
<path d="M45.05 54.0627H37.9992C36.9684 54.0627 36.1328 54.8976 36.1328 55.9275V66.6324C36.1328 67.6623 36.9684 68.4972 37.9992 68.4972H45.05C46.0808 68.4972 46.9164 67.6623 46.9164 66.6324V55.9275C46.9164 54.8976 46.0808 54.0627 45.05 54.0627Z" fill="#F2FBFF"/>
<path d="M36.7615 67.5335V55.0361C36.7615 54.9096 36.7865 54.7843 36.8349 54.6674C36.8834 54.5505 36.9545 54.4442 37.044 54.3547C37.1336 54.2653 37.2399 54.1943 37.3569 54.1459C37.4739 54.0974 37.5993 54.0725 37.726 54.0725H37.0973C36.8415 54.0725 36.5962 54.174 36.4153 54.3547C36.2344 54.5355 36.1328 54.7806 36.1328 55.0361V67.5335C36.1328 67.789 36.2344 68.0341 36.4153 68.2149C36.5962 68.3956 36.8415 68.4971 37.0973 68.4971H37.726C37.5993 68.4971 37.4739 68.4722 37.3569 68.4237C37.2399 68.3753 37.1336 68.3043 37.044 68.2149C36.9545 68.1254 36.8834 68.0192 36.8349 67.9022C36.7865 67.7853 36.7615 67.66 36.7615 67.5335V67.5335Z" fill="#D2E8EC"/>
<path d="M46.8308 30.0909C46.7873 29.3295 46.6182 28.5806 46.3305 27.8742C46.3305 27.8742 47.9763 27.0323 47.6472 30.058C47.318 33.0837 47.6834 33.3468 46.4523 34.9911L46.1857 34.3334C46.5017 32.7811 46.9592 32.0247 46.8308 30.0909Z" fill="#606161"/>
<path d="M38.6016 35.731L37.6503 41.5291C37.6503 41.5291 39.7833 44.6501 42.4792 44.1864C45.1751 43.7227 44.5068 42.4598 44.5068 42.4598L44.1579 37.5628C44.1579 37.5628 41.7089 37.9838 38.6016 35.731Z" fill="#E5C5D6"/>
<path d="M38.2527 37.7667L38.5819 35.731C41.7024 37.9936 43.3153 37.03 43.3153 37.03L44.0691 39.6611C43.6453 40.1021 43.0757 40.3745 42.466 40.4273C40.9782 40.5392 39.4673 39.3716 38.2527 37.7667Z" fill="#D2B5C4"/>
<path d="M37.749 40.832L34.928 42.1475C34.928 42.1475 39.3816 46.8472 40.7378 46.7518C40.7378 46.7518 42.0183 44.374 43.223 43.9991L37.749 40.832Z" fill="#F2FBFF"/>
<path d="M48.8058 42.9597C48.8058 42.9597 51.2054 43.2261 52.5616 52.2012C53.819 60.5119 55.1554 63.7316 52.5912 65.0274C49.0461 66.8066 47.5681 66.3133 47.5681 66.3133C47.5681 66.3133 46.3535 63.8369 47.0513 62.1497C47.0513 62.1497 47.9368 61.8208 49.6517 61.0348L49.5991 54.6875C49.5991 54.6875 45.5141 41.6837 48.8058 42.9597Z" fill="#FB765F"/>
<path d="M44.3028 41.6378C44.0689 42.4806 43.7046 43.2818 43.2231 44.0123C43.4865 44.1142 45.2146 45.3278 45.2442 46.1335C45.2442 46.1335 46.9592 42.2528 46.2515 41.6411C45.6579 41.3379 45.048 41.0678 44.4246 40.832L44.3028 41.6378Z" fill="#F2FBFF"/>
<path d="M33.7957 43.1077C33.7957 43.1077 29.4244 44.5186 28.9273 51.4908C28.4796 57.8282 27.3407 62.4588 28.269 64.34C29.4737 66.7934 37.9004 67.2013 37.9004 67.2013C38.1037 65.9794 38.0521 64.7287 37.749 63.5277L33.1407 61.6893C33.1407 61.6893 33.8714 44.1963 33.7957 43.1077Z" fill="#FB765F"/>
<path d="M49.5892 47.7681L50.4812 60.3082C50.5602 61.4066 48.6017 62.0743 48.6017 62.0743C48.6017 62.0743 48.9868 55.9538 48.9309 55.6611C48.8749 55.3684 49.4312 48.6659 49.5892 47.7681Z" fill="url(#paint2_linear)"/>
<path d="M36.146 31.5083C36.3764 34.728 39.678 40.411 42.8972 40.1808C46.1165 39.9506 47.0481 33.2974 46.8308 30.0909C46.6136 26.8843 44.7933 25.0524 41.5641 25.2794C40.0194 25.3889 38.5814 26.1064 37.5656 27.2742C36.5498 28.442 36.0392 29.9648 36.146 31.5083V31.5083Z" fill="#E5C5D6"/>
<path d="M38.8451 25.4635C38.8451 25.4635 39.8326 23.7566 42.8445 24.0888C45.8564 24.4209 46.5674 26.5521 47.364 26.2232C48.1605 25.8943 49.6155 27.1539 48.6247 28.5878C47.6339 30.0217 46.0242 30.4098 44.0459 29.4594C42.0676 28.5089 39.6022 28.4102 39.1084 28.9923C38.6147 29.5745 39.7668 35.4976 39.7668 35.4976C39.7668 35.4976 39.7668 35.7705 39.2203 35.537C38.6739 35.3035 39.0195 31.7253 37.9037 31.5313C36.7878 31.3372 36.689 33.8104 37.5745 34.557C38.2592 35.1358 38.3974 37.1156 38.3974 37.1156C38.3974 37.1156 34.8588 34.751 35.1057 30.64C35.3526 26.529 36.903 25.0557 38.8451 25.4635Z" fill="#606161"/>
<path d="M46.709 63.0181C46.2934 62.6039 45.7325 62.3679 45.1455 62.3604C44.2041 62.3768 43.4108 62.7057 42.0513 62.8011C40.6918 62.8964 41.6003 64.1527 41.6629 65.0111C41.7254 65.8695 41.5279 66.9318 41.8176 67.185C42.1073 67.4382 46.9789 66.8167 47.4859 66.2345C47.7229 65.9649 47.5616 63.5048 46.709 63.0181Z" fill="#E5C5D6"/>
<path d="M48.029 62.3801C48.029 62.3801 48.2133 65.9123 48.5721 66.1622L46.8242 66.5569C46.4781 65.9929 46.2595 65.36 46.1839 64.7027C46.1083 64.0454 46.1774 63.3796 46.3864 62.7518L48.029 62.3801Z" fill="#F2FBFF"/>
<path d="M47.2455 63.679C47.4292 63.679 47.578 63.5303 47.578 63.3468C47.578 63.1634 47.4292 63.0146 47.2455 63.0146C47.0619 63.0146 46.9131 63.1634 46.9131 63.3468C46.9131 63.5303 47.0619 63.679 47.2455 63.679Z" fill="#D2E8EC"/>
<path d="M43.7268 66.6949C43.6478 66.0831 43.9374 65.4944 44.023 64.4453C44.1086 63.3962 43.4305 63.1298 42.4364 63.0213C42.1665 62.9917 41.9525 62.9555 41.7781 62.9292C40.8531 63.1528 41.5905 64.2743 41.6431 65.0603C41.6958 65.8463 41.518 66.9415 41.7879 67.1882C41.8999 67.2901 42.7491 67.2441 43.7366 67.1158C43.7514 66.9757 43.7481 66.8342 43.7268 66.6949Z" fill="#D2B5C4"/>
<path d="M48.029 62.3801C48.029 62.3801 48.2133 65.9123 48.5721 66.1622L46.8242 66.5569C46.4781 65.9929 46.2595 65.36 46.1839 64.7027C46.1083 64.0454 46.1774 63.3796 46.3864 62.7518L48.029 62.3801Z" fill="#F2FBFF"/>
<path d="M47.2455 63.679C47.4292 63.679 47.578 63.5303 47.578 63.3468C47.578 63.1634 47.4292 63.0146 47.2455 63.0146C47.0619 63.0146 46.9131 63.1634 46.9131 63.3468C46.9131 63.5303 47.0619 63.679 47.2455 63.679Z" fill="#D2E8EC"/>
<path d="M33.7958 49.0046L32.4561 61.2586L34.0295 61.9854L33.7958 49.0046Z" fill="#DA6753"/>
<path d="M36.1164 67.0403L32.14 66.3826L32.2519 70.8093C32.2519 70.8093 32.6897 66.8857 34.194 67.5205C35.6983 68.1552 36.1164 67.0403 36.1164 67.0403Z" fill="#DA6753"/>
<path d="M50.5175 60.7817L47.9467 62.3012L49.6945 61.6894L50.5175 60.7817Z" fill="url(#paint3_linear)"/>
<path d="M44.339 36.8592C44.339 36.8592 44.2502 36.7803 43.5721 36.8263C42.7727 36.8663 41.9715 36.81 41.1856 36.6586C40.6655 36.527 40.4154 36.606 40.4647 37.3163C40.5141 38.0267 41.0704 38.6318 42.4397 38.7042C43.9704 38.7864 44.6123 38.2109 44.7439 37.5235C44.813 36.9973 44.5267 36.846 44.339 36.8592Z" fill="#E5C5D6"/>
<path d="M38.4468 63.6364C39.0203 63.5148 39.5854 63.3566 40.1387 63.1628C40.8661 62.8899 41.0933 63.0477 42.1631 63.1628C43.2329 63.278 43.9603 63.5476 43.8682 64.6165C43.776 65.6853 43.4666 66.2872 43.539 66.9186C43.6114 67.5501 43.4238 68.0796 42.4922 68.1026C41.5607 68.1256 38.4336 67.1719 38.4336 67.1719" fill="#E5C5D6"/>
<path d="M37.4297 63.3469H39.0525C39.0525 63.3469 39.7503 65.6852 38.8418 67.2935L37.0347 67.2277C37.0347 67.2277 37.6568 64.9683 37.4297 63.3469Z" fill="#F2FBFF"/>
<path d="M38.2494 64.4915C38.4458 64.4915 38.6049 64.3237 38.6049 64.1166C38.6049 63.9096 38.4458 63.7417 38.2494 63.7417C38.0531 63.7417 37.8939 63.9096 37.8939 64.1166C37.8939 64.3237 38.0531 64.4915 38.2494 64.4915Z" fill="#D2E8EC"/>
<path d="M48.7597 50.3168L46.0506 50.8397L45.9189 50.0077L48.6313 49.4814L48.7597 50.3168Z" fill="#F2FBFF"/>
<path d="M39.7602 117.592C40.7262 118.06 41.583 118.726 42.2751 119.546C42.6767 120.022 43.0355 120.628 42.8972 121.233C42.8389 121.455 42.7288 121.66 42.5761 121.831C42.4234 122.003 42.2322 122.136 42.0183 122.219C41.5919 122.383 41.1302 122.433 40.6786 122.364C39.8834 122.24 39.1084 122.01 38.3744 121.68C36.9458 121.114 35.5074 120.519 34.2697 119.611C33.6838 119.181 33.111 118.608 33.0616 117.881C33.0616 117.602 33.1637 117.26 33.4402 117.224C33.5585 117.211 33.6782 117.227 33.7891 117.27C34.6046 117.509 35.4554 117.606 36.304 117.556C36.6209 117.551 36.9311 117.463 37.2026 117.299C37.4593 117.138 37.6338 116.796 37.9597 116.767C38.4403 116.694 39.3257 117.382 39.7602 117.592Z" fill="#68E1FD"/>
<path d="M42.4462 115.208C42.4462 115.043 42.466 114.83 42.6273 114.793C42.705 114.781 42.7844 114.798 42.8511 114.839C43.4667 115.149 43.9538 115.701 44.6122 115.908C45.6227 116.237 46.7518 115.579 47.2455 114.635C47.2782 114.55 47.34 114.479 47.42 114.435C47.5094 114.41 47.6048 114.421 47.6866 114.464C48.7887 114.848 49.8605 115.315 50.8927 115.859C51.4655 116.188 52.0711 116.661 52.0744 117.316C52.0581 117.557 51.9774 117.789 51.8408 117.988C51.7041 118.187 51.5166 118.345 51.2976 118.447C50.8564 118.643 50.3783 118.743 49.8953 118.74C48.1833 118.808 46.4737 118.554 44.8558 117.99C44.1612 117.747 43.1046 117.451 42.5516 116.931C42.1533 116.533 42.4627 115.747 42.4462 115.208Z" fill="#68E1FD"/>
<path d="M39.7602 117.592C40.7262 118.06 41.583 118.726 42.2751 119.546C42.6767 120.022 43.0355 120.628 42.8972 121.233C42.8389 121.455 42.7288 121.66 42.5761 121.831C42.4234 122.003 42.2322 122.136 42.0183 122.219C41.5919 122.383 41.1302 122.433 40.6786 122.364C39.8834 122.24 39.1084 122.01 38.3744 121.68C36.9458 121.114 35.5074 120.519 34.2697 119.611C33.6838 119.181 33.111 118.608 33.0616 117.881C33.0616 117.602 33.1637 117.26 33.4402 117.224C33.5585 117.211 33.6782 117.227 33.7891 117.27C34.6046 117.509 35.4554 117.606 36.304 117.556C36.6209 117.551 36.9311 117.463 37.2026 117.299C37.4593 117.138 37.6338 116.796 37.9597 116.767C38.4403 116.694 39.3257 117.382 39.7602 117.592Z" fill="#377FFA"/>
<path d="M42.4462 115.208C42.4462 115.043 42.466 114.83 42.6273 114.793C42.705 114.781 42.7844 114.798 42.8511 114.839C43.4667 115.149 43.9538 115.701 44.6122 115.908C45.6227 116.237 46.7518 115.579 47.2455 114.635C47.2782 114.55 47.34 114.479 47.42 114.435C47.5094 114.41 47.6048 114.421 47.6866 114.464C48.7887 114.848 49.8605 115.315 50.8927 115.859C51.4655 116.188 52.0711 116.661 52.0744 117.316C52.0581 117.557 51.9774 117.789 51.8408 117.988C51.7041 118.187 51.5166 118.345 51.2976 118.447C50.8564 118.643 50.3783 118.743 49.8953 118.74C48.1833 118.808 46.4737 118.554 44.8558 117.99C44.1612 117.747 43.1046 117.451 42.5516 116.931C42.1533 116.533 42.4627 115.747 42.4462 115.208Z" fill="#377FFA"/>
<path d="M122.235 0H73.6989C71.2939 0 69.3442 1.95157 69.3442 4.35896V36.2136C69.3442 38.621 71.2939 40.5726 73.6989 40.5726H122.235C124.64 40.5726 126.59 38.621 126.59 36.2136V4.35896C126.59 1.95157 124.64 0 122.235 0Z" fill="white"/>
<path d="M91.4755 38.5825L98.4264 47.9495L102.689 38.3596L91.4755 38.5825Z" fill="white"/>
<path d="M98.3361 24.9337C96.3956 24.9337 94.4987 24.3582 92.8852 23.2802C91.2717 22.2021 90.0141 20.6698 89.2715 18.8771C88.5289 17.0843 88.3346 15.1116 88.7132 13.2084C89.0918 11.3052 90.0262 9.55703 91.3984 8.18491C92.7705 6.81279 94.5188 5.87837 96.422 5.4998C98.3252 5.12124 100.298 5.31553 102.091 6.05812C103.884 6.8007 105.416 8.05823 106.494 9.67167C107.572 11.2851 108.148 13.182 108.148 15.1225C108.145 17.7237 107.11 20.2177 105.271 22.0571C103.432 23.8965 100.937 24.931 98.3361 24.9337V24.9337ZM98.3361 6.39693C96.6108 6.39893 94.9247 6.91237 93.4911 7.87236C92.0575 8.83234 90.9406 10.1958 90.2818 11.7903C89.6229 13.3849 89.4515 15.139 89.7893 16.8309C90.1272 18.5228 90.959 20.0766 92.1797 21.2959C93.4005 22.5152 94.9553 23.3452 96.6476 23.6811C98.34 24.017 100.094 23.8436 101.688 23.1829C103.282 22.5221 104.644 21.4038 105.602 19.9691C106.561 18.5344 107.072 16.8478 107.072 15.1225C107.069 12.8074 106.148 10.588 104.51 8.95197C102.872 7.3159 100.651 6.39693 98.3361 6.39693V6.39693Z" fill="#27AE60"/>
<path d="M96.9853 19.0321L93.541 16.0848L94.5215 14.9271L96.8345 16.9038L102.733 10.1799L103.869 11.186L96.9853 19.0321Z" fill="#27AE60"/>
<path d="M83.184 33.4645C82.7987 33.4645 82.4512 33.3803 82.1415 33.2117C81.8318 33.0395 81.5887 32.8032 81.4123 32.5027C81.2358 32.1986 81.1476 31.8597 81.1476 31.4859C81.1476 31.1122 81.2358 30.7751 81.4123 30.4746C81.5887 30.1705 81.8318 29.9342 82.1415 29.7656C82.4512 29.5934 82.7987 29.5073 83.184 29.5073C83.5693 29.5073 83.9168 29.5934 84.2265 29.7656C84.5362 29.9342 84.7793 30.1687 84.9558 30.4691C85.1322 30.7696 85.2204 31.1085 85.2204 31.4859C85.2204 31.8633 85.1322 32.2023 84.9558 32.5027C84.7793 32.8032 84.5362 33.0395 84.2265 33.2117C83.9168 33.3803 83.5693 33.4645 83.184 33.4645ZM83.184 32.838C83.4361 32.838 83.663 32.7812 83.8646 32.6676C84.0663 32.5504 84.2247 32.3891 84.34 32.1839C84.4552 31.9751 84.5128 31.7424 84.5128 31.4859C84.5128 31.2294 84.4552 30.9986 84.34 30.7934C84.2247 30.5846 84.0663 30.4233 83.8646 30.3098C83.663 30.1925 83.4361 30.1339 83.184 30.1339C82.9319 30.1339 82.7051 30.1925 82.5034 30.3098C82.3017 30.4233 82.1433 30.5846 82.0281 30.7934C81.9128 30.9986 81.8552 31.2294 81.8552 31.4859C81.8552 31.7424 81.9128 31.9751 82.0281 32.1839C82.1433 32.3891 82.3017 32.5504 82.5034 32.6676C82.7051 32.7812 82.9319 32.838 83.184 32.838Z" fill="#27AE60"/>
<path d="M89.6401 32.805V34.2285H88.9919V33.4096H86.0912V34.2285H85.4376L85.443 32.805H85.605C85.8427 32.794 86.0083 32.6163 86.102 32.2719C86.1992 31.9238 86.2586 31.4273 86.2802 30.7824L86.3234 29.5623H89.0945V32.805H89.6401ZM86.896 30.8484C86.878 31.3467 86.8384 31.7626 86.7772 32.096C86.716 32.4258 86.6187 32.6621 86.4855 32.805H88.4031V30.1669H86.923L86.896 30.8484Z" fill="#27AE60"/>
<path d="M92.0514 33.4645C91.6661 33.4645 91.3186 33.3803 91.0089 33.2117C90.6992 33.0395 90.4561 32.8032 90.2797 32.5027C90.1032 32.1986 90.015 31.8597 90.015 31.4859C90.015 31.1122 90.1032 30.7751 90.2797 30.4746C90.4561 30.1705 90.6992 29.9342 91.0089 29.7656C91.3186 29.5934 91.6661 29.5073 92.0514 29.5073C92.4367 29.5073 92.7842 29.5934 93.0939 29.7656C93.4036 29.9342 93.6467 30.1687 93.8232 30.4691C93.9996 30.7696 94.0878 31.1085 94.0878 31.4859C94.0878 31.8633 93.9996 32.2023 93.8232 32.5027C93.6467 32.8032 93.4036 33.0395 93.0939 33.2117C92.7842 33.3803 92.4367 33.4645 92.0514 33.4645ZM92.0514 32.838C92.3035 32.838 92.5304 32.7812 92.732 32.6676C92.9337 32.5504 93.0921 32.3891 93.2074 32.1839C93.3226 31.9751 93.3802 31.7424 93.3802 31.4859C93.3802 31.2294 93.3226 30.9986 93.2074 30.7934C93.0921 30.5846 92.9337 30.4233 92.732 30.3098C92.5304 30.1925 92.3035 30.1339 92.0514 30.1339C91.7993 30.1339 91.5725 30.1925 91.3708 30.3098C91.1691 30.4233 91.0107 30.5846 90.8955 30.7934C90.7802 30.9986 90.7226 31.2294 90.7226 31.4859C90.7226 31.7424 90.7802 31.9751 90.8955 32.1839C91.0107 32.3891 91.1691 32.5504 91.3708 32.6676C91.5725 32.7812 91.7993 32.838 92.0514 32.838Z" fill="#27AE60"/>
<path d="M94.8696 29.5623H97.8135V30.1504H95.561V31.0957H96.6792C97.1329 31.0957 97.4768 31.1928 97.7109 31.387C97.9486 31.5775 98.0674 31.8542 98.0674 32.2169C98.0674 32.598 97.9378 32.8929 97.6785 33.1018C97.4192 33.307 97.0501 33.4096 96.5711 33.4096H94.8696V29.5623ZM96.5333 32.86C96.8034 32.86 97.0087 32.8068 97.1491 32.7006C97.2896 32.5943 97.3598 32.4404 97.3598 32.2389C97.3598 31.8432 97.0843 31.6453 96.5333 31.6453H95.561V32.86H96.5333Z" fill="#27AE60"/>
<path d="M100.392 29.5623C100.72 29.5623 101.004 29.6172 101.245 29.7272C101.49 29.8371 101.678 29.9946 101.807 30.1998C101.937 30.405 102.002 30.6487 102.002 30.9308C102.002 31.2093 101.937 31.453 101.807 31.6618C101.678 31.867 101.49 32.0246 101.245 32.1345C101.004 32.2444 100.72 32.2994 100.392 32.2994H99.5386V33.4096H98.8363V29.5623H100.392ZM100.36 31.6948C100.666 31.6948 100.898 31.6288 101.056 31.4969C101.215 31.365 101.294 31.1763 101.294 30.9308C101.294 30.6853 101.215 30.4966 101.056 30.3647C100.898 30.2328 100.666 30.1669 100.36 30.1669H99.5386V31.6948H100.36Z" fill="#27AE60"/>
<path d="M105.502 32.8105V33.4096H102.666V29.5623H105.426V30.1614H103.368V31.1617H105.194V31.7497H103.368V32.8105H105.502Z" fill="#27AE60"/>
<path d="M109.645 29.5623V33.4096H108.942V31.7607H106.987V33.4096H106.285V29.5623H106.987V31.1507H108.942V29.5623H109.645Z" fill="#27AE60"/>
<path d="M112.455 33.4645C112.07 33.4645 111.723 33.3803 111.413 33.2117C111.103 33.0395 110.86 32.8032 110.684 32.5027C110.507 32.1986 110.419 31.8597 110.419 31.4859C110.419 31.1122 110.507 30.7751 110.684 30.4746C110.86 30.1705 111.103 29.9342 111.413 29.7656C111.723 29.5934 112.07 29.5073 112.455 29.5073C112.841 29.5073 113.188 29.5934 113.498 29.7656C113.808 29.9342 114.051 30.1687 114.227 30.4691C114.404 30.7696 114.492 31.1085 114.492 31.4859C114.492 31.8633 114.404 32.2023 114.227 32.5027C114.051 32.8032 113.808 33.0395 113.498 33.2117C113.188 33.3803 112.841 33.4645 112.455 33.4645ZM112.455 32.838C112.707 32.838 112.934 32.7812 113.136 32.6676C113.338 32.5504 113.496 32.3891 113.611 32.1839C113.727 31.9751 113.784 31.7424 113.784 31.4859C113.784 31.2294 113.727 30.9986 113.611 30.7934C113.496 30.5846 113.338 30.4233 113.136 30.3098C112.934 30.1925 112.707 30.1339 112.455 30.1339C112.203 30.1339 111.976 30.1925 111.775 30.3098C111.573 30.4233 111.415 30.5846 111.299 30.7934C111.184 30.9986 111.127 31.2294 111.127 31.4859C111.127 31.7424 111.184 31.9751 111.299 32.1839C111.415 32.3891 111.573 32.5504 111.775 32.6676C111.976 32.7812 112.203 32.838 112.455 32.838Z" fill="#27AE60"/>
<defs>
<linearGradient id="paint0_linear" x1="3716.44" y1="1021.15" x2="3720.26" y2="2030.98" gradientUnits="userSpaceOnUse">
<stop stop-color="#377EF9"/>
<stop offset="0.95" stop-color="#010101"/>
</linearGradient>
<linearGradient id="paint1_linear" x1="5714.92" y1="1063.68" x2="5721.3" y2="2342.65" gradientUnits="userSpaceOnUse">
<stop stop-color="#010101" stop-opacity="0"/>
<stop offset="0.95" stop-color="#010101"/>
</linearGradient>
<linearGradient id="paint2_linear" x1="326.047" y1="3088.12" x2="401.022" y2="3088.09" gradientUnits="userSpaceOnUse">
<stop stop-color="#010101" stop-opacity="0"/>
<stop offset="0.95" stop-color="#010101"/>
</linearGradient>
<linearGradient id="paint3_linear" x1="430.456" y1="345.854" x2="440.353" y2="442.051" gradientUnits="userSpaceOnUse">
<stop stop-color="#010101" stop-opacity="0"/>
<stop offset="0.95" stop-color="#010101"/>
</linearGradient>
</defs>
</svg>
