<svg width="106" height="102" viewBox="0 0 106 102" fill="none" xmlns="http://www.w3.org/2000/svg">
<path opacity="0.24" d="M104.229 78.1516C102.823 83.3402 100.042 87.4349 96.4982 90.5486C90.8721 95.4738 83.3245 97.8975 76.2928 98.186C64.8194 98.6527 53.2781 95.2404 41.9294 97.3706C35.0695 98.6602 28.4307 101.955 21.4953 102C15.1588 102.037 8.12329 98.1785 5.97712 91.1056C5.77041 90.429 5.61104 89.7285 5.50103 89.0131C5.04005 86.0023 5.47836 82.8811 5.42546 79.7975C5.28376 71.1012 1.29558 63.2003 0.260272 54.5869C-1.5364 39.6909 6.18304 24.7296 16.8025 17.2528C27.9188 9.44974 41.4741 9.81856 53.6635 6.01992C65.9851 2.16607 82.191 -2.44048 94.0932 5.01631C96.4926 6.52172 98.7521 8.63682 99.9744 11.5899C100.959 13.9609 101.197 16.6807 101.425 19.3327C102.551 32.5904 103.677 45.8438 104.803 59.0931C105.355 65.466 105.878 72.0697 104.229 78.1516Z" fill="#4B8CFB"/>
<path opacity="0.24" d="M94.0592 90.3016C88.5924 95.3331 81.2586 97.8091 74.426 98.1038C63.2776 98.5806 52.0631 95.0947 41.0358 97.2708C34.3703 98.5883 27.9195 101.954 21.1805 102C15.0235 102.038 8.1872 98.0961 6.10181 90.8707C11.5741 83.8579 25.4266 82.7378 31.5947 84.5346C34.4088 85.3548 37.1441 86.6261 39.9693 87.3694C43.5343 88.3024 47.1929 88.3793 50.8185 88.1178C56.1201 87.7385 61.3868 86.6568 66.5893 85.1753C74.3985 82.9531 82.8667 79.9363 90.0188 84.837C91.3845 85.77 92.6824 87.0208 93.5177 88.7894C93.7398 89.2623 93.9215 89.7698 94.0592 90.3016Z" fill="#377FFA"/>
<path opacity="0.3" d="M22.9293 90.2182C21.3188 90.9881 19.5491 92.5279 20.1321 94.2216C20.5559 95.4534 22.0046 95.9461 23.2683 96.2592C26.9618 97.1728 30.8172 97.9452 34.5467 97.1882C37.0099 96.6903 39.2856 95.5484 41.6461 94.681C44.2627 93.7202 46.991 93.0959 49.7652 92.823C50.5589 92.746 51.5324 92.5664 51.7661 91.7965C52.0487 90.8906 51.0161 90.1541 50.1325 89.8128C45.7789 88.1216 41.0143 88.2499 36.4449 87.8059C31.8039 87.3668 27.131 88.2009 22.9293 90.2182Z" fill="#377FFA"/>
<path opacity="0.5" d="M78.5563 42.5958C78.5551 43.3293 78.3916 44.032 78.1014 44.55C77.8113 45.0679 77.4183 45.3587 77.0086 45.3587H38.1932C37.7842 45.3573 37.392 45.0658 37.1028 44.5479C36.8135 44.0301 36.6507 43.3281 36.6499 42.5958C36.6503 41.8632 36.813 41.1608 37.1024 40.6428C37.3917 40.1248 37.784 39.8335 38.1932 39.8328H77.0086C77.2116 39.8317 77.4128 39.9025 77.6005 40.0408C77.7883 40.1792 77.959 40.3826 78.1027 40.6393C78.2465 40.8959 78.3606 41.2009 78.4384 41.5366C78.5162 41.8723 78.5563 42.2323 78.5563 42.5958V42.5958Z" fill="#377EF9"/>
<path d="M76.4232 45.9224C78.2971 45.9224 79.8162 44.4046 79.8162 42.5324C79.8162 40.6601 78.2971 39.1423 76.4232 39.1423C74.5493 39.1423 73.0302 40.6601 73.0302 42.5324C73.0302 44.4046 74.5493 45.9224 76.4232 45.9224Z" fill="url(#paint0_linear)"/>
<path d="M59.8738 45.3125H39.3255C38.6059 45.3112 37.9161 45.0249 37.4073 44.5165C36.8984 44.0081 36.612 43.319 36.6106 42.6C36.6113 41.8808 36.8975 41.1912 37.4065 40.6827C37.9155 40.1741 38.6057 39.8881 39.3255 39.8875H59.789C59.3704 40.2085 59.0327 40.6229 58.8031 41.0976C58.5734 41.5723 58.4581 42.0941 58.4663 42.6213C58.4745 43.1485 58.6061 43.6664 58.8505 44.1337C59.0949 44.601 59.4453 45.0047 59.8738 45.3125V45.3125Z" fill="url(#paint1_linear)"/>
<path d="M37.0253 87.2388L37.1101 89.1122C36.9729 89.4826 36.7499 89.8152 36.4593 90.0828C36.1686 90.3505 35.8186 90.5455 35.438 90.6519C35.0776 90.7461 34.7003 90.756 34.3354 90.6808C33.9706 90.6056 33.628 90.4473 33.3344 90.2182L33.4679 87.0823" fill="#E5C5D6"/>
<path d="M29.7308 88.948L29.8155 90.8214C29.6786 91.1919 29.4556 91.5246 29.1649 91.7923C28.8742 92.06 28.5242 92.2549 28.1434 92.3612C27.7832 92.4561 27.406 92.4666 27.0411 92.3918C26.6761 92.3171 26.3335 92.159 26.0398 91.93L26.1708 88.7915" fill="#E5C5D6"/>
<path d="M38.6332 56.3513L37.2642 87.6597C36.7857 88.0117 36.2116 88.2104 35.6177 88.2294C34.4696 88.2961 34.2616 88.3783 33.4345 87.6263L29.8129 54.9886L38.7051 53.9878L38.6332 56.3513Z" fill="#606161"/>
<path d="M38.6332 56.3513L37.2642 87.6597C36.7857 88.0117 36.2116 88.2104 35.6177 88.2294C34.4696 88.2961 34.2616 88.3783 33.4345 87.6263L29.8129 54.9886L38.7051 53.9878L38.6332 56.3513Z" fill="#25233A"/>
<path d="M33.5835 59.3334L29.9876 89.6153C29.9876 89.6153 29.4738 90.1466 28.0663 90.1645C26.4635 90.185 26.3197 89.9669 25.9601 89.1585L25.2666 54.4268L33.4987 55.8279L33.5835 59.3334Z" fill="#606161"/>
<path d="M33.5835 59.3334L29.9876 89.6153C29.9876 89.6153 29.4738 90.1466 28.0663 90.1645C26.4635 90.185 26.3197 89.9669 25.9601 89.1585L25.2666 54.4268L33.4987 55.8279L33.5835 59.3334Z" fill="#3E3E54"/>
<path d="M34.7137 56.3075C33.5894 56.6852 32.4318 56.9558 31.2565 57.1159C29.7154 57.275 28.0689 56.5231 26.8412 56.4615C25.2102 56.3768 25.1665 56.3255 25.1665 55.2631C25.1665 54.7293 38.7129 53.4487 38.7129 53.4487C38.7129 53.4487 38.6513 54.4265 38.6539 55.3298C38.6539 56.0099 38.3636 55.9714 37.1307 56.0407C35.8978 56.1099 35.6718 55.7378 34.7137 56.3075Z" fill="#25233A"/>
<path d="M29.3685 32.4057C29.3685 32.4057 27.0954 32.9933 25.4747 34.1738C24.4729 34.9026 25.1664 55.2634 25.1664 55.2634C25.264 55.248 29.6177 57.011 33.8275 56.2899C37.4234 55.674 38.7077 53.9931 38.7077 53.9931C38.7077 53.9931 39.0313 34.4561 38.3353 33.6529C38.0219 33.2936 34.6135 32.0361 34.6135 32.0361C34.6135 32.0361 33.1212 34.2585 29.3685 32.4057Z" fill="#FB765F"/>
<path d="M35.1528 42.1855H29.6511C28.8467 42.1855 28.1947 42.837 28.1947 43.6406V51.9938C28.1947 52.7974 28.8467 53.4489 29.6511 53.4489H35.1528C35.9572 53.4489 36.6092 52.7974 36.6092 51.9938V43.6406C36.6092 42.837 35.9572 42.1855 35.1528 42.1855Z" fill="#F2FBFF"/>
<path d="M28.6853 52.6968V42.945C28.6853 42.8463 28.7048 42.7485 28.7426 42.6573C28.7804 42.5661 28.8358 42.4832 28.9057 42.4133C28.9756 42.3435 29.0586 42.2881 29.1499 42.2504C29.2412 42.2126 29.339 42.1931 29.4379 42.1931H28.9473C28.7477 42.1931 28.5563 42.2723 28.4151 42.4133C28.274 42.5544 28.1947 42.7456 28.1947 42.945V52.6968C28.1947 52.8962 28.274 53.0875 28.4151 53.2285C28.5563 53.3695 28.7477 53.4487 28.9473 53.4487H29.4379C29.339 53.4487 29.2412 53.4293 29.1499 53.3915C29.0586 53.3537 28.9756 53.2983 28.9057 53.2285C28.8358 53.1587 28.7804 53.0758 28.7426 52.9846C28.7048 52.8933 28.6853 52.7956 28.6853 52.6968V52.6968Z" fill="#D2E8EC"/>
<path d="M36.5425 23.4801C36.5085 22.8861 36.3766 22.3016 36.1521 21.7505C36.1521 21.7505 37.4363 21.0935 37.1795 23.4545C36.9226 25.8154 37.2077 26.0207 36.2471 27.3039L36.0391 26.7906C36.2856 25.5793 36.6427 24.9891 36.5425 23.4801Z" fill="#606161"/>
<path d="M30.1211 27.8811L29.3788 32.4054C29.3788 32.4054 31.0432 34.8408 33.1468 34.479C35.2504 34.1171 34.729 33.1317 34.729 33.1317L34.4568 29.3105C34.4568 29.3105 32.5458 29.639 30.1211 27.8811Z" fill="#E5C5D6"/>
<path d="M29.8489 29.4696L30.1057 27.8811C32.5407 29.6467 33.7993 28.8948 33.7993 28.8948L34.3875 30.9478C34.0568 31.292 33.6123 31.5045 33.1366 31.5457C31.9756 31.633 30.7967 30.722 29.8489 29.4696Z" fill="#D2B5C4"/>
<path d="M29.4559 31.8616L27.2546 32.8881C27.2546 32.8881 30.7299 36.5553 31.7881 36.4808C31.7881 36.4808 32.7872 34.6254 33.7273 34.3329L29.4559 31.8616Z" fill="#F2FBFF"/>
<path d="M38.0835 33.5219C38.0835 33.5219 39.956 33.7298 41.0142 40.7331C41.9954 47.218 43.0382 49.7304 41.0373 50.7415C38.271 52.1298 37.1178 51.7449 37.1178 51.7449C37.1178 51.7449 36.17 49.8125 36.7145 48.496C36.7145 48.496 37.4054 48.2394 38.7436 47.6261L38.7025 42.6732C38.7025 42.6732 35.515 32.5262 38.0835 33.5219Z" fill="#FB765F"/>
<path d="M34.5699 32.4903C34.3874 33.148 34.1031 33.7731 33.7274 34.3431C33.9329 34.4227 35.2814 35.3696 35.3045 35.9984C35.3045 35.9984 36.6427 32.9702 36.0905 32.4929C35.6273 32.2563 35.1514 32.0456 34.6649 31.8616L34.5699 32.4903Z" fill="#F2FBFF"/>
<path d="M26.371 33.6372C26.371 33.6372 22.96 34.7381 22.5722 40.1786C22.2229 45.1238 21.3342 48.7371 22.0585 50.205C22.9986 52.1194 29.574 52.4376 29.574 52.4376C29.7326 51.4842 29.6923 50.5083 29.4558 49.5711L25.8599 48.1366C25.8599 48.1366 26.4301 34.4866 26.371 33.6372Z" fill="#FB765F"/>
<path d="M38.6949 37.2739L39.3909 47.0591C39.4526 47.9162 37.9243 48.4372 37.9243 48.4372C37.9243 48.4372 38.2248 43.6614 38.1812 43.433C38.1375 43.2046 38.5716 37.9745 38.6949 37.2739Z" fill="url(#paint2_linear)"/>
<path d="M28.2051 24.5862C28.3849 27.0985 30.9611 31.533 33.4731 31.3534C35.9852 31.1738 36.712 25.9822 36.5425 23.4801C36.373 20.978 34.9526 19.5486 32.4329 19.7257C31.2275 19.8112 30.1054 20.371 29.3128 21.2822C28.5201 22.1935 28.1218 23.3817 28.2051 24.5862V24.5862Z" fill="#E5C5D6"/>
<path d="M30.3111 19.8693C30.3111 19.8693 31.0817 18.5374 33.4319 18.7966C35.7821 19.0558 36.3369 20.7188 36.9585 20.4621C37.5801 20.2055 38.7154 21.1884 37.9422 22.3073C37.1691 23.4262 35.9131 23.729 34.3694 22.9873C32.8257 22.2457 30.9019 22.1687 30.5166 22.6229C30.1314 23.0772 31.0303 27.699 31.0303 27.699C31.0303 27.699 31.0303 27.912 30.604 27.7298C30.1776 27.5476 30.4473 24.7555 29.5765 24.6041C28.7058 24.4527 28.6288 26.3825 29.3197 26.9651C29.8539 27.4167 29.9618 28.9616 29.9618 28.9616C29.9618 28.9616 27.2007 27.1165 27.3933 23.9086C27.5859 20.7008 28.7957 19.5511 30.3111 19.8693Z" fill="#606161"/>
<path d="M36.4475 49.1737C36.1232 48.8504 35.6855 48.6663 35.2274 48.6604C34.4928 48.6732 33.8738 48.9299 32.813 49.0043C31.7522 49.0787 32.4611 50.059 32.5099 50.7288C32.5587 51.3986 32.4046 52.2275 32.6307 52.4251C32.8567 52.6227 36.6581 52.1377 37.0537 51.6835C37.2386 51.473 37.1127 49.5535 36.4475 49.1737Z" fill="#E5C5D6"/>
<path d="M37.4775 48.6758C37.4775 48.6758 37.6213 51.432 37.9013 51.627L36.5374 51.9349C36.2673 51.4948 36.0967 51.001 36.0377 50.4881C35.9787 49.9752 36.0326 49.4556 36.1958 48.9658L37.4775 48.6758Z" fill="#F2FBFF"/>
<path d="M36.8661 49.6893C37.0094 49.6893 37.1255 49.5732 37.1255 49.4301C37.1255 49.2869 37.0094 49.1709 36.8661 49.1709C36.7228 49.1709 36.6067 49.2869 36.6067 49.4301C36.6067 49.5732 36.7228 49.6893 36.8661 49.6893Z" fill="#D2E8EC"/>
<path d="M34.1204 52.0426C34.0587 51.5653 34.2847 51.1059 34.3515 50.2873C34.4183 49.4687 33.8892 49.2608 33.1135 49.1761C32.9029 49.153 32.7359 49.1248 32.5998 49.1042C31.878 49.2788 32.4534 50.1538 32.4945 50.7672C32.5356 51.3805 32.3969 52.2351 32.6075 52.4276C32.6948 52.5071 33.3575 52.4712 34.1281 52.3711C34.1396 52.2617 34.137 52.1513 34.1204 52.0426Z" fill="#D2B5C4"/>
<path d="M37.4775 48.6758C37.4775 48.6758 37.6213 51.432 37.9013 51.627L36.5374 51.9349C36.2673 51.4948 36.0967 51.001 36.0377 50.4881C35.9787 49.9752 36.0326 49.4556 36.1958 48.9658L37.4775 48.6758Z" fill="#F2FBFF"/>
<path d="M36.8661 49.6893C37.0094 49.6893 37.1255 49.5732 37.1255 49.4301C37.1255 49.2869 37.0094 49.1709 36.8661 49.1709C36.7228 49.1709 36.6067 49.2869 36.6067 49.4301C36.6067 49.5732 36.7228 49.6893 36.8661 49.6893Z" fill="#D2E8EC"/>
<path d="M26.3711 38.2388L25.3257 47.8007L26.5534 48.3678L26.3711 38.2388Z" fill="#DA6753"/>
<path d="M28.1819 52.3121L25.0791 51.7988L25.1664 55.253C25.1664 55.253 25.508 52.1915 26.6819 52.6868C27.8557 53.182 28.1819 52.3121 28.1819 52.3121Z" fill="#DA6753"/>
<path d="M39.4192 47.4285L37.4132 48.6141L38.7771 48.1368L39.4192 47.4285Z" fill="url(#paint3_linear)"/>
<path d="M34.5981 28.7616C34.5981 28.7616 34.5288 28.7 33.9997 28.7359C33.3759 28.7671 32.7507 28.7232 32.1375 28.605C31.7316 28.5024 31.5364 28.564 31.575 29.1183C31.6135 29.6726 32.0476 30.1448 33.1161 30.2012C34.3104 30.2654 34.8113 29.8163 34.914 29.28C34.968 28.8694 34.7445 28.7513 34.5981 28.7616Z" fill="#E5C5D6"/>
<path d="M30.0004 49.6559C30.4479 49.561 30.8889 49.4376 31.3206 49.2864C31.8883 49.0734 32.0655 49.1966 32.9003 49.2864C33.735 49.3762 34.3027 49.5866 34.2308 50.4207C34.1588 51.2547 33.9174 51.7243 33.9739 52.2171C34.0304 52.7098 33.884 53.1229 33.1571 53.1409C32.4302 53.1589 29.9901 52.4147 29.9901 52.4147" fill="#E5C5D6"/>
<path d="M29.2067 49.4302H30.4729C30.4729 49.4302 31.0175 51.2548 30.3086 52.5097L28.8984 52.4584C28.8984 52.4584 29.3839 50.6953 29.2067 49.4302Z" fill="#F2FBFF"/>
<path d="M29.8464 50.3234C29.9996 50.3234 30.1238 50.1924 30.1238 50.0308C30.1238 49.8693 29.9996 49.7383 29.8464 49.7383C29.6932 49.7383 29.569 49.8693 29.569 50.0308C29.569 50.1924 29.6932 50.3234 29.8464 50.3234Z" fill="#D2E8EC"/>
<path d="M38.0476 39.2627L35.9337 39.6707L35.8309 39.0214L37.9474 38.6108L38.0476 39.2627Z" fill="#F2FBFF"/>
<path d="M31.0253 91.7581C31.7791 92.1233 32.4476 92.6427 32.9877 93.2825C33.301 93.6546 33.581 94.1268 33.4731 94.599C33.4276 94.7722 33.3417 94.9322 33.2225 95.066C33.1034 95.1998 32.9542 95.3036 32.7873 95.3689C32.4545 95.4965 32.0943 95.5354 31.7419 95.4818C31.1214 95.3851 30.5167 95.2055 29.9439 94.948C28.8292 94.5066 27.7068 94.0421 26.741 93.3338C26.2838 92.9976 25.8369 92.5511 25.7983 91.984C25.7983 91.7658 25.878 91.4989 26.0937 91.4707C26.186 91.4608 26.2794 91.4731 26.366 91.5066C27.0024 91.6934 27.6662 91.769 28.3283 91.7299C28.5757 91.7264 28.8177 91.6573 29.0296 91.5297C29.2299 91.404 29.366 91.1371 29.6203 91.114C29.9953 91.0575 30.6863 91.5939 31.0253 91.7581Z" fill="#68E1FD"/>
<path d="M33.1211 89.8976C33.1211 89.7693 33.1365 89.6025 33.2624 89.5743C33.3231 89.565 33.385 89.5778 33.4371 89.6102C33.9174 89.8514 34.2975 90.2826 34.8112 90.4443C35.5998 90.7009 36.4808 90.1876 36.8661 89.4511C36.8916 89.3845 36.9398 89.3291 37.0022 89.2946C37.0719 89.2754 37.1464 89.2836 37.2102 89.3177C38.0702 89.6173 38.9065 89.981 39.712 90.4058C40.1589 90.6624 40.6315 91.0319 40.6341 91.5426C40.6214 91.7305 40.5584 91.9115 40.4518 92.0668C40.3452 92.2221 40.1988 92.3459 40.0279 92.4254C39.6836 92.5785 39.3106 92.6564 38.9337 92.6538C37.5978 92.7069 36.2638 92.5084 35.0013 92.0687C34.4593 91.8788 33.6348 91.6478 33.2033 91.2424C32.8925 90.9318 33.134 90.3185 33.1211 89.8976Z" fill="#68E1FD"/>
<path d="M31.0253 91.7581C31.7791 92.1233 32.4476 92.6427 32.9877 93.2825C33.301 93.6546 33.581 94.1268 33.4731 94.599C33.4276 94.7722 33.3417 94.9322 33.2225 95.066C33.1034 95.1998 32.9542 95.3036 32.7873 95.3689C32.4545 95.4965 32.0943 95.5354 31.7419 95.4818C31.1214 95.3851 30.5167 95.2055 29.9439 94.948C28.8292 94.5066 27.7068 94.0421 26.741 93.3338C26.2838 92.9976 25.8369 92.5511 25.7983 91.984C25.7983 91.7658 25.878 91.4989 26.0937 91.4707C26.186 91.4608 26.2794 91.4731 26.366 91.5066C27.0024 91.6934 27.6662 91.769 28.3283 91.7299C28.5757 91.7264 28.8177 91.6573 29.0296 91.5297C29.2299 91.404 29.366 91.1371 29.6203 91.114C29.9953 91.0575 30.6863 91.5939 31.0253 91.7581Z" fill="#377FFA"/>
<path d="M33.1211 89.8976C33.1211 89.7693 33.1365 89.6025 33.2624 89.5743C33.3231 89.565 33.385 89.5778 33.4371 89.6102C33.9174 89.8514 34.2975 90.2826 34.8112 90.4443C35.5998 90.7009 36.4808 90.1876 36.8661 89.4511C36.8916 89.3845 36.9398 89.3291 37.0022 89.2946C37.0719 89.2754 37.1464 89.2836 37.2102 89.3177C38.0702 89.6173 38.9065 89.981 39.712 90.4058C40.1589 90.6624 40.6315 91.0319 40.6341 91.5426C40.6214 91.7305 40.5584 91.9115 40.4518 92.0668C40.3452 92.2221 40.1988 92.3459 40.0279 92.4254C39.6836 92.5785 39.3106 92.6564 38.9337 92.6538C37.5978 92.7069 36.2638 92.5084 35.0013 92.0687C34.4593 91.8788 33.6348 91.6478 33.2033 91.2424C32.8925 90.9318 33.134 90.3185 33.1211 89.8976Z" fill="#377FFA"/>
<path d="M95.3813 0H57.5079C55.6312 0 54.1099 1.52283 54.1099 3.40133V28.2578C54.1099 30.1363 55.6312 31.6591 57.5079 31.6591H95.3813C97.258 31.6591 98.7793 30.1363 98.7793 28.2578V3.40133C98.7793 1.52283 97.258 0 95.3813 0Z" fill="white"/>
<path d="M71.379 30.1063L76.8029 37.4154L80.1287 29.9324L71.379 30.1063Z" fill="white"/>
<path d="M76.7325 19.456C75.2183 19.456 73.7381 19.007 72.4791 18.1658C71.2201 17.3246 70.2388 16.1289 69.6593 14.73C69.0799 13.3311 68.9282 11.7918 69.2236 10.3067C69.5191 8.82166 70.2482 7.45753 71.3189 6.38685C72.3896 5.31618 73.7538 4.58704 75.2389 4.29164C76.724 3.99624 78.2634 4.14785 79.6623 4.7273C81.0613 5.30674 82.257 6.288 83.0982 7.54698C83.9395 8.80596 84.3885 10.2861 84.3885 11.8003C84.3864 13.8301 83.5791 15.7761 82.1438 17.2114C80.7085 18.6467 78.7624 19.454 76.7325 19.456V19.456ZM76.7325 4.99167C75.3862 4.99323 74.0706 5.39387 72.9519 6.14296C71.8332 6.89205 70.9618 7.95595 70.4476 9.2002C69.9335 10.4444 69.7998 11.8132 70.0634 13.1334C70.327 14.4536 70.9761 15.6661 71.9286 16.6175C72.8812 17.5689 74.0944 18.2166 75.415 18.4787C76.7355 18.7407 78.1041 18.6054 79.3478 18.0899C80.5915 17.5743 81.6545 16.7016 82.4023 15.5821C83.1501 14.4626 83.5492 13.1466 83.5492 11.8003C83.5471 9.99381 82.828 8.26203 81.5499 6.98539C80.2717 5.70875 78.5391 4.99167 76.7325 4.99167V4.99167Z" fill="#27AE60"/>
<path d="M75.6785 14.851L72.9908 12.5512L73.7559 11.6478L75.5608 13.1903L80.163 7.9436L81.0498 8.72863L75.6785 14.851Z" fill="#27AE60"/>
<path d="M64.9092 26.1128C64.6086 26.1128 64.3374 26.047 64.0957 25.9155C63.8541 25.7811 63.6644 25.5967 63.5267 25.3622C63.389 25.1249 63.3202 24.8605 63.3202 24.5688C63.3202 24.2772 63.389 24.0142 63.5267 23.7797C63.6644 23.5424 63.8541 23.358 64.0957 23.2265C64.3374 23.0921 64.6086 23.0249 64.9092 23.0249C65.2099 23.0249 65.4811 23.0921 65.7227 23.2265C65.9644 23.358 66.1541 23.541 66.2917 23.7754C66.4294 24.0099 66.4983 24.2743 66.4983 24.5688C66.4983 24.8633 66.4294 25.1278 66.2917 25.3622C66.1541 25.5967 65.9644 25.7811 65.7227 25.9155C65.4811 26.047 65.2099 26.1128 64.9092 26.1128ZM64.9092 25.6238C65.1059 25.6238 65.283 25.5795 65.4403 25.4909C65.5977 25.3994 65.7213 25.2736 65.8112 25.1135C65.9012 24.9505 65.9461 24.769 65.9461 24.5688C65.9461 24.3687 65.9012 24.1886 65.8112 24.0285C65.7213 23.8655 65.5977 23.7397 65.4403 23.651C65.283 23.5596 65.1059 23.5138 64.9092 23.5138C64.7125 23.5138 64.5355 23.5596 64.3781 23.651C64.2208 23.7397 64.0972 23.8655 64.0072 24.0285C63.9173 24.1886 63.8724 24.3687 63.8724 24.5688C63.8724 24.769 63.9173 24.9505 64.0072 25.1135C64.0972 25.2736 64.2208 25.3994 64.3781 25.4909C64.5355 25.5795 64.7125 25.6238 64.9092 25.6238Z" fill="#27AE60"/>
<path d="M69.947 25.5981V26.7089H69.4412V26.0699H67.1777V26.7089H66.6677L66.6719 25.5981H66.7984C66.9838 25.5895 67.1131 25.4509 67.1861 25.1821C67.262 24.9105 67.3084 24.5231 67.3252 24.0199L67.359 23.0678H69.5212V25.5981H69.947ZM67.8057 24.0713C67.7917 24.4602 67.7608 24.7847 67.713 25.0449C67.6652 25.3022 67.5894 25.4866 67.4854 25.5981H68.9817V23.5395H67.8268L67.8057 24.0713Z" fill="#27AE60"/>
<path d="M71.8285 26.1128C71.5279 26.1128 71.2567 26.047 71.0151 25.9155C70.7734 25.7811 70.5837 25.5967 70.446 25.3622C70.3083 25.1249 70.2395 24.8605 70.2395 24.5688C70.2395 24.2772 70.3083 24.0142 70.446 23.7797C70.5837 23.5424 70.7734 23.358 71.0151 23.2265C71.2567 23.0921 71.5279 23.0249 71.8285 23.0249C72.1292 23.0249 72.4004 23.0921 72.642 23.2265C72.8837 23.358 73.0734 23.541 73.2111 23.7754C73.3487 24.0099 73.4176 24.2743 73.4176 24.5688C73.4176 24.8633 73.3487 25.1278 73.2111 25.3622C73.0734 25.5967 72.8837 25.7811 72.642 25.9155C72.4004 26.047 72.1292 26.1128 71.8285 26.1128ZM71.8285 25.6238C72.0252 25.6238 72.2023 25.5795 72.3596 25.4909C72.517 25.3994 72.6406 25.2736 72.7305 25.1135C72.8205 24.9505 72.8654 24.769 72.8654 24.5688C72.8654 24.3687 72.8205 24.1886 72.7305 24.0285C72.6406 23.8655 72.517 23.7397 72.3596 23.651C72.2023 23.5596 72.0252 23.5138 71.8285 23.5138C71.6318 23.5138 71.4548 23.5596 71.2975 23.651C71.1401 23.7397 71.0165 23.8655 70.9265 24.0285C70.8366 24.1886 70.7917 24.3687 70.7917 24.5688C70.7917 24.769 70.8366 24.9505 70.9265 25.1135C71.0165 25.2736 71.1401 25.3994 71.2975 25.4909C71.4548 25.5795 71.6318 25.6238 71.8285 25.6238Z" fill="#27AE60"/>
<path d="M74.0276 23.0678H76.3248V23.5267H74.5671V24.2643H75.4396C75.7937 24.2643 76.062 24.3401 76.2447 24.4916C76.4301 24.6403 76.5229 24.8562 76.5229 25.1392C76.5229 25.4366 76.4217 25.6667 76.2194 25.8297C76.0171 25.9898 75.7291 26.0699 75.3553 26.0699H74.0276V23.0678ZM75.3258 25.641C75.5366 25.641 75.6967 25.5995 75.8063 25.5166C75.9159 25.4337 75.9707 25.3136 75.9707 25.1564C75.9707 24.8476 75.7557 24.6932 75.3258 24.6932H74.5671V25.641H75.3258Z" fill="#27AE60"/>
<path d="M78.3368 23.0678C78.5925 23.0678 78.8145 23.1107 79.0028 23.1964C79.1938 23.2822 79.34 23.4052 79.4411 23.5653C79.5423 23.7254 79.5929 23.9155 79.5929 24.1357C79.5929 24.353 79.5423 24.5431 79.4411 24.7061C79.34 24.8662 79.1938 24.9891 79.0028 25.0749C78.8145 25.1607 78.5925 25.2036 78.3368 25.2036H77.6708V26.0699H77.1229V23.0678H78.3368ZM78.3115 24.7318C78.5504 24.7318 78.7316 24.6803 78.8552 24.5774C78.9789 24.4745 79.0407 24.3272 79.0407 24.1357C79.0407 23.9441 78.9789 23.7969 78.8552 23.6939C78.7316 23.591 78.5504 23.5395 78.3115 23.5395H77.6708V24.7318H78.3115Z" fill="#27AE60"/>
<path d="M82.3241 25.6024V26.0699H80.1112V23.0678H82.2651V23.5353H80.6592V24.3158H82.0838V24.7747H80.6592V25.6024H82.3241Z" fill="#27AE60"/>
<path d="M85.5566 23.0678V26.0699H85.0087V24.7833H83.4829V26.0699H82.9349V23.0678H83.4829V24.3072H85.0087V23.0678H85.5566Z" fill="#27AE60"/>
<path d="M87.7499 26.1128C87.4493 26.1128 87.1781 26.047 86.9365 25.9155C86.6948 25.7811 86.5051 25.5967 86.3674 25.3622C86.2297 25.1249 86.1609 24.8605 86.1609 24.5688C86.1609 24.2772 86.2297 24.0142 86.3674 23.7797C86.5051 23.5424 86.6948 23.358 86.9365 23.2265C87.1781 23.0921 87.4493 23.0249 87.7499 23.0249C88.0506 23.0249 88.3218 23.0921 88.5634 23.2265C88.8051 23.358 88.9948 23.541 89.1325 23.7754C89.2701 24.0099 89.339 24.2743 89.339 24.5688C89.339 24.8633 89.2701 25.1278 89.1325 25.3622C88.9948 25.5967 88.8051 25.7811 88.5634 25.9155C88.3218 26.047 88.0506 26.1128 87.7499 26.1128ZM87.7499 25.6238C87.9466 25.6238 88.1237 25.5795 88.281 25.4909C88.4384 25.3994 88.562 25.2736 88.652 25.1135C88.7419 24.9505 88.7868 24.769 88.7868 24.5688C88.7868 24.3687 88.7419 24.1886 88.652 24.0285C88.562 23.8655 88.4384 23.7397 88.281 23.651C88.1237 23.5596 87.9466 23.5138 87.7499 23.5138C87.5533 23.5138 87.3762 23.5596 87.2189 23.651C87.0615 23.7397 86.9379 23.8655 86.8479 24.0285C86.758 24.1886 86.7131 24.3687 86.7131 24.5688C86.7131 24.769 86.758 24.9505 86.8479 25.1135C86.9379 25.2736 87.0615 25.3994 87.2189 25.4909C87.3762 25.5795 87.5533 25.6238 87.7499 25.6238Z" fill="#27AE60"/>
<defs>
<linearGradient id="paint0_linear" x1="2899.97" y1="796.814" x2="2902.95" y2="1584.79" gradientUnits="userSpaceOnUse">
<stop stop-color="#377EF9"/>
<stop offset="0.95" stop-color="#010101"/>
</linearGradient>
<linearGradient id="paint1_linear" x1="4459.4" y1="829.995" x2="4464.38" y2="1827.99" gradientUnits="userSpaceOnUse">
<stop stop-color="#010101" stop-opacity="0"/>
<stop offset="0.95" stop-color="#010101"/>
</linearGradient>
<linearGradient id="paint2_linear" x1="254.417" y1="2409.69" x2="312.921" y2="2409.66" gradientUnits="userSpaceOnUse">
<stop stop-color="#010101" stop-opacity="0"/>
<stop offset="0.95" stop-color="#010101"/>
</linearGradient>
<linearGradient id="paint3_linear" x1="335.889" y1="269.873" x2="343.611" y2="344.936" gradientUnits="userSpaceOnUse">
<stop stop-color="#010101" stop-opacity="0"/>
<stop offset="0.95" stop-color="#010101"/>
</linearGradient>
</defs>
</svg>
