<svg width="30" height="30" viewBox="0 0 30 30" fill="none" xmlns="http://www.w3.org/2000/svg">
<path fill-rule="evenodd" clip-rule="evenodd" d="M19.3132 1.75336C20.6408 1.37405 22.0245 2.14278 22.4038 3.47037C22.4676 3.69372 22.5 3.92488 22.5 4.15717V6.25H25C26.3807 6.25 27.5 7.36929 27.5 8.75V23.75C27.5 25.1307 26.3807 26.25 25 26.25H5C3.61929 26.25 2.5 25.1307 2.5 23.75H2.53338C2.51119 23.6156 2.5 23.4794 2.5 23.3428V8.44288C2.5 7.32668 3.23994 6.34572 4.3132 6.03907L19.3132 1.75336ZM12.6751 23.75H25V13.75H22.5V19.0571C22.5 20.1733 21.7601 21.1543 20.6868 21.4609L12.6751 23.75ZM22.5 8.75H25V11.25H22.5V8.75ZM5 8.44285V23.3428L20 19.0571V4.15714L5 8.44285ZM17.5 11.25C17.5 11.9404 16.9404 12.5 16.25 12.5C15.5596 12.5 15 11.9404 15 11.25C15 10.5596 15.5596 10 16.25 10C16.9404 10 17.5 10.5596 17.5 11.25Z" fill="#25233A"/>
</svg>
