<svg width="21" height="26" viewBox="0 0 21 26" fill="none" xmlns="http://www.w3.org/2000/svg">
<path fill-rule="evenodd" clip-rule="evenodd" d="M13 0H5.90909C5.38143 0 4.9177 0.349791 4.77274 0.857148L3.37132 5.76212C1.30995 7.49644 0 10.0952 0 13C0 15.9047 1.30994 18.5035 3.37132 20.2379L4.77274 25.1429C4.9177 25.6502 5.38143 26 5.90909 26H13C13.5277 26 13.9914 25.6502 14.1363 25.1429L15.5378 20.2379C17.3151 18.7425 18.5338 16.6045 18.8359 14.1818H20.0909V11.8182H18.8359C18.5338 9.39549 17.3151 7.25747 15.5378 5.76211L14.1363 0.857148C13.9914 0.349791 13.5277 0 13 0ZM9.45455 3.54545C10.557 3.54545 11.6155 3.73416 12.5993 4.08103L12.1086 2.36362H6.80056L6.30987 4.08102C7.29367 3.73415 8.35207 3.54545 9.45455 3.54545ZM6.80056 23.6364L6.30987 21.919C7.29366 22.2658 8.35207 22.4545 9.45455 22.4545C10.557 22.4545 11.6155 22.2658 12.5993 21.919L12.1086 23.6364H6.80056ZM16.5455 13C16.5455 16.9162 13.3708 20.0909 9.45462 20.0909C5.53842 20.0909 2.36371 16.9162 2.36371 13C2.36371 9.08378 5.53842 5.90907 9.45462 5.90907C13.3708 5.90907 16.5455 9.08378 16.5455 13ZM10.6363 11.8182H13V14.1818H8.2727V8.27273H10.6363V11.8182Z" fill="#25233A"/>
</svg>
